M48
; DRILL file {KiCad 5.1.5} date Sat 14 Dec 2019 12:20:10 PM EST
; FORMAT={-:-/ absolute / inch / decimal}
; #@! TF.CreationDate,2019-12-14T12:20:10-05:00
; #@! TF.GenerationSoftware,Kicad,Pcbnew,5.1.5
; #@! TF.FileFunction,Plated,1,2,PTH
FMAT,2
INCH
T1C0.0157
T2C0.0394
T3C0.1063
%
G90
G05
T1
X5.2362Y-2.874
X5.7677Y-2.6772
X5.7874Y-3.0315
X6.0335Y-3.3169
X6.1213Y-3.2336
X6.1654Y-2.5472
X6.2106Y-2.7067
X6.2106Y-2.9035
X6.2106Y-3.3169
X6.2756Y-3.4213
X6.2795Y-2.4803
X6.3163Y-3.6004
X6.392Y-3.5667
X6.3937Y-2.5472
X6.4016Y-3.6417
X6.4173Y-2.4961
X6.4567Y-3.626
X6.4803Y-3.6654
X6.5236Y-3.4921
X6.5315Y-3.6654
X6.5541Y-3.5409
X6.5669Y-3.4843
X6.6063Y-2.5197
X6.6079Y-3.549
X6.6202Y-3.5087
X6.654Y-3.5519
X6.7402Y-2.3622
X6.9488Y-3.2874
X7.0157Y-2.4685
X7.0197Y-2.2677
X7.0289Y-2.8438
X7.0866Y-3.4449
X7.0866Y-3.5039
X7.1185Y-3.1772
X7.126Y-3.2382
X7.1654Y-3.6417
X7.1969Y-2.2717
X7.1969Y-2.4685
X7.313Y-2.9134
X7.313Y-3.0906
X7.5157Y-2.4094
X7.5197Y-2.5
X7.5197Y-2.5748
X7.5295Y-3.5138
X7.5787Y-3.0512
X7.5787Y-3.248
X7.7953Y-3.0512
X7.7953Y-3.248
X7.8346Y-2.5787
X7.8346Y-2.7362
T2
X6.8685Y-3.4252
X6.9685Y-3.4252
X5.1992Y-2.3622
X5.2992Y-2.3622
X5.3992Y-2.3622
X5.4992Y-2.3622
X5.5992Y-2.3622
X5.6992Y-2.3622
X5.7992Y-2.3622
X5.8992Y-2.3622
X5.9992Y-2.3622
X6.0992Y-2.3622
X6.1992Y-2.3622
X6.2992Y-2.3622
X6.4961Y-3.061
X6.4961Y-3.161
X6.4961Y-3.261
X4.9213Y-2.7028
X4.9213Y-2.8028
X4.9213Y-2.9028
X4.9213Y-3.0028
X4.9213Y-3.1028
X4.9213Y-3.2028
X5.1992Y-3.5433
X5.2992Y-3.5433
X5.3992Y-3.5433
X5.4992Y-3.5433
X5.5992Y-3.5433
X5.6992Y-3.5433
X5.7992Y-3.5433
X5.8992Y-3.5433
X5.9992Y-3.5433
X6.0992Y-3.5433
X6.1992Y-3.5433
X6.2992Y-3.5433
T3
X4.8819Y-3.5827
X7.7165Y-3.5827
X7.7165Y-2.3228
X4.8819Y-2.3228
T0
M30
