G04 #@! TF.GenerationSoftware,KiCad,Pcbnew,5.1.5*
G04 #@! TF.CreationDate,2019-12-14T12:20:04-05:00*
G04 #@! TF.ProjectId,stm32_f0_basic,73746d33-325f-4663-905f-62617369632e,0*
G04 #@! TF.SameCoordinates,Original*
G04 #@! TF.FileFunction,Legend,Bot*
G04 #@! TF.FilePolarity,Positive*
%FSLAX46Y46*%
G04 Gerber Fmt 4.6, Leading zero omitted, Abs format (unit mm)*
G04 Created by KiCad (PCBNEW 5.1.5) date 2019-12-14 12:20:04*
%MOMM*%
%LPD*%
G04 APERTURE LIST*
%ADD10C,0.200000*%
%ADD11C,0.120000*%
%ADD12C,0.010000*%
G04 APERTURE END LIST*
D10*
X180584285Y-67542857D02*
X180584285Y-66342857D01*
X180127142Y-66342857D01*
X180012857Y-66400000D01*
X179955714Y-66457142D01*
X179898571Y-66571428D01*
X179898571Y-66742857D01*
X179955714Y-66857142D01*
X180012857Y-66914285D01*
X180127142Y-66971428D01*
X180584285Y-66971428D01*
X179441428Y-67200000D02*
X178870000Y-67200000D01*
X179555714Y-67542857D02*
X179155714Y-66342857D01*
X178755714Y-67542857D01*
X178127142Y-66342857D02*
X178012857Y-66342857D01*
X177898571Y-66400000D01*
X177841428Y-66457142D01*
X177784285Y-66571428D01*
X177727142Y-66800000D01*
X177727142Y-67085714D01*
X177784285Y-67314285D01*
X177841428Y-67428571D01*
X177898571Y-67485714D01*
X178012857Y-67542857D01*
X178127142Y-67542857D01*
X178241428Y-67485714D01*
X178298571Y-67428571D01*
X178355714Y-67314285D01*
X178412857Y-67085714D01*
X178412857Y-66800000D01*
X178355714Y-66571428D01*
X178298571Y-66457142D01*
X178241428Y-66400000D01*
X178127142Y-66342857D01*
X175441428Y-67200000D02*
X174870000Y-67200000D01*
X175555714Y-67542857D02*
X175155714Y-66342857D01*
X174755714Y-67542857D01*
X174355714Y-67542857D02*
X174355714Y-66342857D01*
X174070000Y-66342857D01*
X173898571Y-66400000D01*
X173784285Y-66514285D01*
X173727142Y-66628571D01*
X173670000Y-66857142D01*
X173670000Y-67028571D01*
X173727142Y-67257142D01*
X173784285Y-67371428D01*
X173898571Y-67485714D01*
X174070000Y-67542857D01*
X174355714Y-67542857D01*
X172470000Y-67428571D02*
X172527142Y-67485714D01*
X172698571Y-67542857D01*
X172812857Y-67542857D01*
X172984285Y-67485714D01*
X173098571Y-67371428D01*
X173155714Y-67257142D01*
X173212857Y-67028571D01*
X173212857Y-66857142D01*
X173155714Y-66628571D01*
X173098571Y-66514285D01*
X172984285Y-66400000D01*
X172812857Y-66342857D01*
X172698571Y-66342857D01*
X172527142Y-66400000D01*
X172470000Y-66457142D01*
X172241428Y-67657142D02*
X171327142Y-67657142D01*
X171041428Y-67542857D02*
X171041428Y-66342857D01*
X170470000Y-67542857D02*
X170470000Y-66342857D01*
X169784285Y-67542857D01*
X169784285Y-66342857D01*
X168984285Y-66342857D02*
X168870000Y-66342857D01*
X168755714Y-66400000D01*
X168698571Y-66457142D01*
X168641428Y-66571428D01*
X168584285Y-66800000D01*
X168584285Y-67085714D01*
X168641428Y-67314285D01*
X168698571Y-67428571D01*
X168755714Y-67485714D01*
X168870000Y-67542857D01*
X168984285Y-67542857D01*
X169098571Y-67485714D01*
X169155714Y-67428571D01*
X169212857Y-67314285D01*
X169270000Y-67085714D01*
X169270000Y-66800000D01*
X169212857Y-66571428D01*
X169155714Y-66457142D01*
X169098571Y-66400000D01*
X168984285Y-66342857D01*
X180584285Y-69542857D02*
X180584285Y-68342857D01*
X180127142Y-68342857D01*
X180012857Y-68400000D01*
X179955714Y-68457142D01*
X179898571Y-68571428D01*
X179898571Y-68742857D01*
X179955714Y-68857142D01*
X180012857Y-68914285D01*
X180127142Y-68971428D01*
X180584285Y-68971428D01*
X179441428Y-69200000D02*
X178870000Y-69200000D01*
X179555714Y-69542857D02*
X179155714Y-68342857D01*
X178755714Y-69542857D01*
X177727142Y-69542857D02*
X178412857Y-69542857D01*
X178070000Y-69542857D02*
X178070000Y-68342857D01*
X178184285Y-68514285D01*
X178298571Y-68628571D01*
X178412857Y-68685714D01*
X175441428Y-69200000D02*
X174870000Y-69200000D01*
X175555714Y-69542857D02*
X175155714Y-68342857D01*
X174755714Y-69542857D01*
X174355714Y-69542857D02*
X174355714Y-68342857D01*
X174070000Y-68342857D01*
X173898571Y-68400000D01*
X173784285Y-68514285D01*
X173727142Y-68628571D01*
X173670000Y-68857142D01*
X173670000Y-69028571D01*
X173727142Y-69257142D01*
X173784285Y-69371428D01*
X173898571Y-69485714D01*
X174070000Y-69542857D01*
X174355714Y-69542857D01*
X172470000Y-69428571D02*
X172527142Y-69485714D01*
X172698571Y-69542857D01*
X172812857Y-69542857D01*
X172984285Y-69485714D01*
X173098571Y-69371428D01*
X173155714Y-69257142D01*
X173212857Y-69028571D01*
X173212857Y-68857142D01*
X173155714Y-68628571D01*
X173098571Y-68514285D01*
X172984285Y-68400000D01*
X172812857Y-68342857D01*
X172698571Y-68342857D01*
X172527142Y-68400000D01*
X172470000Y-68457142D01*
X172241428Y-69657142D02*
X171327142Y-69657142D01*
X171041428Y-69542857D02*
X171041428Y-68342857D01*
X170470000Y-69542857D02*
X170470000Y-68342857D01*
X169784285Y-69542857D01*
X169784285Y-68342857D01*
X168584285Y-69542857D02*
X169270000Y-69542857D01*
X168927142Y-69542857D02*
X168927142Y-68342857D01*
X169041428Y-68514285D01*
X169155714Y-68628571D01*
X169270000Y-68685714D01*
X180584285Y-71542857D02*
X180584285Y-70342857D01*
X180127142Y-70342857D01*
X180012857Y-70400000D01*
X179955714Y-70457142D01*
X179898571Y-70571428D01*
X179898571Y-70742857D01*
X179955714Y-70857142D01*
X180012857Y-70914285D01*
X180127142Y-70971428D01*
X180584285Y-70971428D01*
X179441428Y-71200000D02*
X178870000Y-71200000D01*
X179555714Y-71542857D02*
X179155714Y-70342857D01*
X178755714Y-71542857D01*
X178412857Y-70457142D02*
X178355714Y-70400000D01*
X178241428Y-70342857D01*
X177955714Y-70342857D01*
X177841428Y-70400000D01*
X177784285Y-70457142D01*
X177727142Y-70571428D01*
X177727142Y-70685714D01*
X177784285Y-70857142D01*
X178470000Y-71542857D01*
X177727142Y-71542857D01*
X175441428Y-71200000D02*
X174870000Y-71200000D01*
X175555714Y-71542857D02*
X175155714Y-70342857D01*
X174755714Y-71542857D01*
X174355714Y-71542857D02*
X174355714Y-70342857D01*
X174070000Y-70342857D01*
X173898571Y-70400000D01*
X173784285Y-70514285D01*
X173727142Y-70628571D01*
X173670000Y-70857142D01*
X173670000Y-71028571D01*
X173727142Y-71257142D01*
X173784285Y-71371428D01*
X173898571Y-71485714D01*
X174070000Y-71542857D01*
X174355714Y-71542857D01*
X172470000Y-71428571D02*
X172527142Y-71485714D01*
X172698571Y-71542857D01*
X172812857Y-71542857D01*
X172984285Y-71485714D01*
X173098571Y-71371428D01*
X173155714Y-71257142D01*
X173212857Y-71028571D01*
X173212857Y-70857142D01*
X173155714Y-70628571D01*
X173098571Y-70514285D01*
X172984285Y-70400000D01*
X172812857Y-70342857D01*
X172698571Y-70342857D01*
X172527142Y-70400000D01*
X172470000Y-70457142D01*
X172241428Y-71657142D02*
X171327142Y-71657142D01*
X171041428Y-71542857D02*
X171041428Y-70342857D01*
X170470000Y-71542857D02*
X170470000Y-70342857D01*
X169784285Y-71542857D01*
X169784285Y-70342857D01*
X169270000Y-70457142D02*
X169212857Y-70400000D01*
X169098571Y-70342857D01*
X168812857Y-70342857D01*
X168698571Y-70400000D01*
X168641428Y-70457142D01*
X168584285Y-70571428D01*
X168584285Y-70685714D01*
X168641428Y-70857142D01*
X169327142Y-71542857D01*
X168584285Y-71542857D01*
X180584285Y-73542857D02*
X180584285Y-72342857D01*
X180127142Y-72342857D01*
X180012857Y-72400000D01*
X179955714Y-72457142D01*
X179898571Y-72571428D01*
X179898571Y-72742857D01*
X179955714Y-72857142D01*
X180012857Y-72914285D01*
X180127142Y-72971428D01*
X180584285Y-72971428D01*
X179441428Y-73200000D02*
X178870000Y-73200000D01*
X179555714Y-73542857D02*
X179155714Y-72342857D01*
X178755714Y-73542857D01*
X178470000Y-72342857D02*
X177727142Y-72342857D01*
X178127142Y-72800000D01*
X177955714Y-72800000D01*
X177841428Y-72857142D01*
X177784285Y-72914285D01*
X177727142Y-73028571D01*
X177727142Y-73314285D01*
X177784285Y-73428571D01*
X177841428Y-73485714D01*
X177955714Y-73542857D01*
X178298571Y-73542857D01*
X178412857Y-73485714D01*
X178470000Y-73428571D01*
X175441428Y-73200000D02*
X174870000Y-73200000D01*
X175555714Y-73542857D02*
X175155714Y-72342857D01*
X174755714Y-73542857D01*
X174355714Y-73542857D02*
X174355714Y-72342857D01*
X174070000Y-72342857D01*
X173898571Y-72400000D01*
X173784285Y-72514285D01*
X173727142Y-72628571D01*
X173670000Y-72857142D01*
X173670000Y-73028571D01*
X173727142Y-73257142D01*
X173784285Y-73371428D01*
X173898571Y-73485714D01*
X174070000Y-73542857D01*
X174355714Y-73542857D01*
X172470000Y-73428571D02*
X172527142Y-73485714D01*
X172698571Y-73542857D01*
X172812857Y-73542857D01*
X172984285Y-73485714D01*
X173098571Y-73371428D01*
X173155714Y-73257142D01*
X173212857Y-73028571D01*
X173212857Y-72857142D01*
X173155714Y-72628571D01*
X173098571Y-72514285D01*
X172984285Y-72400000D01*
X172812857Y-72342857D01*
X172698571Y-72342857D01*
X172527142Y-72400000D01*
X172470000Y-72457142D01*
X172241428Y-73657142D02*
X171327142Y-73657142D01*
X171041428Y-73542857D02*
X171041428Y-72342857D01*
X170470000Y-73542857D02*
X170470000Y-72342857D01*
X169784285Y-73542857D01*
X169784285Y-72342857D01*
X169327142Y-72342857D02*
X168584285Y-72342857D01*
X168984285Y-72800000D01*
X168812857Y-72800000D01*
X168698571Y-72857142D01*
X168641428Y-72914285D01*
X168584285Y-73028571D01*
X168584285Y-73314285D01*
X168641428Y-73428571D01*
X168698571Y-73485714D01*
X168812857Y-73542857D01*
X169155714Y-73542857D01*
X169270000Y-73485714D01*
X169327142Y-73428571D01*
X180584285Y-75542857D02*
X180584285Y-74342857D01*
X180127142Y-74342857D01*
X180012857Y-74400000D01*
X179955714Y-74457142D01*
X179898571Y-74571428D01*
X179898571Y-74742857D01*
X179955714Y-74857142D01*
X180012857Y-74914285D01*
X180127142Y-74971428D01*
X180584285Y-74971428D01*
X179441428Y-75200000D02*
X178870000Y-75200000D01*
X179555714Y-75542857D02*
X179155714Y-74342857D01*
X178755714Y-75542857D01*
X177841428Y-74742857D02*
X177841428Y-75542857D01*
X178127142Y-74285714D02*
X178412857Y-75142857D01*
X177670000Y-75142857D01*
X175441428Y-75200000D02*
X174870000Y-75200000D01*
X175555714Y-75542857D02*
X175155714Y-74342857D01*
X174755714Y-75542857D01*
X174355714Y-75542857D02*
X174355714Y-74342857D01*
X174070000Y-74342857D01*
X173898571Y-74400000D01*
X173784285Y-74514285D01*
X173727142Y-74628571D01*
X173670000Y-74857142D01*
X173670000Y-75028571D01*
X173727142Y-75257142D01*
X173784285Y-75371428D01*
X173898571Y-75485714D01*
X174070000Y-75542857D01*
X174355714Y-75542857D01*
X172470000Y-75428571D02*
X172527142Y-75485714D01*
X172698571Y-75542857D01*
X172812857Y-75542857D01*
X172984285Y-75485714D01*
X173098571Y-75371428D01*
X173155714Y-75257142D01*
X173212857Y-75028571D01*
X173212857Y-74857142D01*
X173155714Y-74628571D01*
X173098571Y-74514285D01*
X172984285Y-74400000D01*
X172812857Y-74342857D01*
X172698571Y-74342857D01*
X172527142Y-74400000D01*
X172470000Y-74457142D01*
X172241428Y-75657142D02*
X171327142Y-75657142D01*
X171041428Y-75542857D02*
X171041428Y-74342857D01*
X170470000Y-75542857D02*
X170470000Y-74342857D01*
X169784285Y-75542857D01*
X169784285Y-74342857D01*
X168698571Y-74742857D02*
X168698571Y-75542857D01*
X168984285Y-74285714D02*
X169270000Y-75142857D01*
X168527142Y-75142857D01*
X180584285Y-77542857D02*
X180584285Y-76342857D01*
X180127142Y-76342857D01*
X180012857Y-76400000D01*
X179955714Y-76457142D01*
X179898571Y-76571428D01*
X179898571Y-76742857D01*
X179955714Y-76857142D01*
X180012857Y-76914285D01*
X180127142Y-76971428D01*
X180584285Y-76971428D01*
X179441428Y-77200000D02*
X178870000Y-77200000D01*
X179555714Y-77542857D02*
X179155714Y-76342857D01*
X178755714Y-77542857D01*
X177784285Y-76342857D02*
X178355714Y-76342857D01*
X178412857Y-76914285D01*
X178355714Y-76857142D01*
X178241428Y-76800000D01*
X177955714Y-76800000D01*
X177841428Y-76857142D01*
X177784285Y-76914285D01*
X177727142Y-77028571D01*
X177727142Y-77314285D01*
X177784285Y-77428571D01*
X177841428Y-77485714D01*
X177955714Y-77542857D01*
X178241428Y-77542857D01*
X178355714Y-77485714D01*
X178412857Y-77428571D01*
X175441428Y-77200000D02*
X174870000Y-77200000D01*
X175555714Y-77542857D02*
X175155714Y-76342857D01*
X174755714Y-77542857D01*
X174355714Y-77542857D02*
X174355714Y-76342857D01*
X174070000Y-76342857D01*
X173898571Y-76400000D01*
X173784285Y-76514285D01*
X173727142Y-76628571D01*
X173670000Y-76857142D01*
X173670000Y-77028571D01*
X173727142Y-77257142D01*
X173784285Y-77371428D01*
X173898571Y-77485714D01*
X174070000Y-77542857D01*
X174355714Y-77542857D01*
X172470000Y-77428571D02*
X172527142Y-77485714D01*
X172698571Y-77542857D01*
X172812857Y-77542857D01*
X172984285Y-77485714D01*
X173098571Y-77371428D01*
X173155714Y-77257142D01*
X173212857Y-77028571D01*
X173212857Y-76857142D01*
X173155714Y-76628571D01*
X173098571Y-76514285D01*
X172984285Y-76400000D01*
X172812857Y-76342857D01*
X172698571Y-76342857D01*
X172527142Y-76400000D01*
X172470000Y-76457142D01*
X172241428Y-77657142D02*
X171327142Y-77657142D01*
X171041428Y-77542857D02*
X171041428Y-76342857D01*
X170470000Y-77542857D02*
X170470000Y-76342857D01*
X169784285Y-77542857D01*
X169784285Y-76342857D01*
X168641428Y-76342857D02*
X169212857Y-76342857D01*
X169270000Y-76914285D01*
X169212857Y-76857142D01*
X169098571Y-76800000D01*
X168812857Y-76800000D01*
X168698571Y-76857142D01*
X168641428Y-76914285D01*
X168584285Y-77028571D01*
X168584285Y-77314285D01*
X168641428Y-77428571D01*
X168698571Y-77485714D01*
X168812857Y-77542857D01*
X169098571Y-77542857D01*
X169212857Y-77485714D01*
X169270000Y-77428571D01*
X180584285Y-79542857D02*
X180584285Y-78342857D01*
X180127142Y-78342857D01*
X180012857Y-78400000D01*
X179955714Y-78457142D01*
X179898571Y-78571428D01*
X179898571Y-78742857D01*
X179955714Y-78857142D01*
X180012857Y-78914285D01*
X180127142Y-78971428D01*
X180584285Y-78971428D01*
X179441428Y-79200000D02*
X178870000Y-79200000D01*
X179555714Y-79542857D02*
X179155714Y-78342857D01*
X178755714Y-79542857D01*
X177841428Y-78342857D02*
X178070000Y-78342857D01*
X178184285Y-78400000D01*
X178241428Y-78457142D01*
X178355714Y-78628571D01*
X178412857Y-78857142D01*
X178412857Y-79314285D01*
X178355714Y-79428571D01*
X178298571Y-79485714D01*
X178184285Y-79542857D01*
X177955714Y-79542857D01*
X177841428Y-79485714D01*
X177784285Y-79428571D01*
X177727142Y-79314285D01*
X177727142Y-79028571D01*
X177784285Y-78914285D01*
X177841428Y-78857142D01*
X177955714Y-78800000D01*
X178184285Y-78800000D01*
X178298571Y-78857142D01*
X178355714Y-78914285D01*
X178412857Y-79028571D01*
X175441428Y-79200000D02*
X174870000Y-79200000D01*
X175555714Y-79542857D02*
X175155714Y-78342857D01*
X174755714Y-79542857D01*
X174355714Y-79542857D02*
X174355714Y-78342857D01*
X174070000Y-78342857D01*
X173898571Y-78400000D01*
X173784285Y-78514285D01*
X173727142Y-78628571D01*
X173670000Y-78857142D01*
X173670000Y-79028571D01*
X173727142Y-79257142D01*
X173784285Y-79371428D01*
X173898571Y-79485714D01*
X174070000Y-79542857D01*
X174355714Y-79542857D01*
X172470000Y-79428571D02*
X172527142Y-79485714D01*
X172698571Y-79542857D01*
X172812857Y-79542857D01*
X172984285Y-79485714D01*
X173098571Y-79371428D01*
X173155714Y-79257142D01*
X173212857Y-79028571D01*
X173212857Y-78857142D01*
X173155714Y-78628571D01*
X173098571Y-78514285D01*
X172984285Y-78400000D01*
X172812857Y-78342857D01*
X172698571Y-78342857D01*
X172527142Y-78400000D01*
X172470000Y-78457142D01*
X172241428Y-79657142D02*
X171327142Y-79657142D01*
X171041428Y-79542857D02*
X171041428Y-78342857D01*
X170470000Y-79542857D02*
X170470000Y-78342857D01*
X169784285Y-79542857D01*
X169784285Y-78342857D01*
X168698571Y-78342857D02*
X168927142Y-78342857D01*
X169041428Y-78400000D01*
X169098571Y-78457142D01*
X169212857Y-78628571D01*
X169270000Y-78857142D01*
X169270000Y-79314285D01*
X169212857Y-79428571D01*
X169155714Y-79485714D01*
X169041428Y-79542857D01*
X168812857Y-79542857D01*
X168698571Y-79485714D01*
X168641428Y-79428571D01*
X168584285Y-79314285D01*
X168584285Y-79028571D01*
X168641428Y-78914285D01*
X168698571Y-78857142D01*
X168812857Y-78800000D01*
X169041428Y-78800000D01*
X169155714Y-78857142D01*
X169212857Y-78914285D01*
X169270000Y-79028571D01*
X180584285Y-81542857D02*
X180584285Y-80342857D01*
X180127142Y-80342857D01*
X180012857Y-80400000D01*
X179955714Y-80457142D01*
X179898571Y-80571428D01*
X179898571Y-80742857D01*
X179955714Y-80857142D01*
X180012857Y-80914285D01*
X180127142Y-80971428D01*
X180584285Y-80971428D01*
X179441428Y-81200000D02*
X178870000Y-81200000D01*
X179555714Y-81542857D02*
X179155714Y-80342857D01*
X178755714Y-81542857D01*
X178470000Y-80342857D02*
X177670000Y-80342857D01*
X178184285Y-81542857D01*
X175441428Y-81200000D02*
X174870000Y-81200000D01*
X175555714Y-81542857D02*
X175155714Y-80342857D01*
X174755714Y-81542857D01*
X174355714Y-81542857D02*
X174355714Y-80342857D01*
X174070000Y-80342857D01*
X173898571Y-80400000D01*
X173784285Y-80514285D01*
X173727142Y-80628571D01*
X173670000Y-80857142D01*
X173670000Y-81028571D01*
X173727142Y-81257142D01*
X173784285Y-81371428D01*
X173898571Y-81485714D01*
X174070000Y-81542857D01*
X174355714Y-81542857D01*
X172470000Y-81428571D02*
X172527142Y-81485714D01*
X172698571Y-81542857D01*
X172812857Y-81542857D01*
X172984285Y-81485714D01*
X173098571Y-81371428D01*
X173155714Y-81257142D01*
X173212857Y-81028571D01*
X173212857Y-80857142D01*
X173155714Y-80628571D01*
X173098571Y-80514285D01*
X172984285Y-80400000D01*
X172812857Y-80342857D01*
X172698571Y-80342857D01*
X172527142Y-80400000D01*
X172470000Y-80457142D01*
X172241428Y-81657142D02*
X171327142Y-81657142D01*
X171041428Y-81542857D02*
X171041428Y-80342857D01*
X170470000Y-81542857D02*
X170470000Y-80342857D01*
X169784285Y-81542857D01*
X169784285Y-80342857D01*
X169327142Y-80342857D02*
X168527142Y-80342857D01*
X169041428Y-81542857D01*
X142584285Y-67542857D02*
X142584285Y-66342857D01*
X142127142Y-66342857D01*
X142012857Y-66400000D01*
X141955714Y-66457142D01*
X141898571Y-66571428D01*
X141898571Y-66742857D01*
X141955714Y-66857142D01*
X142012857Y-66914285D01*
X142127142Y-66971428D01*
X142584285Y-66971428D01*
X140984285Y-66914285D02*
X140812857Y-66971428D01*
X140755714Y-67028571D01*
X140698571Y-67142857D01*
X140698571Y-67314285D01*
X140755714Y-67428571D01*
X140812857Y-67485714D01*
X140927142Y-67542857D01*
X141384285Y-67542857D01*
X141384285Y-66342857D01*
X140984285Y-66342857D01*
X140870000Y-66400000D01*
X140812857Y-66457142D01*
X140755714Y-66571428D01*
X140755714Y-66685714D01*
X140812857Y-66800000D01*
X140870000Y-66857142D01*
X140984285Y-66914285D01*
X141384285Y-66914285D01*
X139955714Y-66342857D02*
X139841428Y-66342857D01*
X139727142Y-66400000D01*
X139670000Y-66457142D01*
X139612857Y-66571428D01*
X139555714Y-66800000D01*
X139555714Y-67085714D01*
X139612857Y-67314285D01*
X139670000Y-67428571D01*
X139727142Y-67485714D01*
X139841428Y-67542857D01*
X139955714Y-67542857D01*
X140070000Y-67485714D01*
X140127142Y-67428571D01*
X140184285Y-67314285D01*
X140241428Y-67085714D01*
X140241428Y-66800000D01*
X140184285Y-66571428D01*
X140127142Y-66457142D01*
X140070000Y-66400000D01*
X139955714Y-66342857D01*
X136641428Y-67542857D02*
X137212857Y-67542857D01*
X137212857Y-66342857D01*
X136241428Y-66914285D02*
X135841428Y-66914285D01*
X135670000Y-67542857D02*
X136241428Y-67542857D01*
X136241428Y-66342857D01*
X135670000Y-66342857D01*
X135155714Y-67542857D02*
X135155714Y-66342857D01*
X134870000Y-66342857D01*
X134698571Y-66400000D01*
X134584285Y-66514285D01*
X134527142Y-66628571D01*
X134470000Y-66857142D01*
X134470000Y-67028571D01*
X134527142Y-67257142D01*
X134584285Y-67371428D01*
X134698571Y-67485714D01*
X134870000Y-67542857D01*
X135155714Y-67542857D01*
X133727142Y-66342857D02*
X133612857Y-66342857D01*
X133498571Y-66400000D01*
X133441428Y-66457142D01*
X133384285Y-66571428D01*
X133327142Y-66800000D01*
X133327142Y-67085714D01*
X133384285Y-67314285D01*
X133441428Y-67428571D01*
X133498571Y-67485714D01*
X133612857Y-67542857D01*
X133727142Y-67542857D01*
X133841428Y-67485714D01*
X133898571Y-67428571D01*
X133955714Y-67314285D01*
X134012857Y-67085714D01*
X134012857Y-66800000D01*
X133955714Y-66571428D01*
X133898571Y-66457142D01*
X133841428Y-66400000D01*
X133727142Y-66342857D01*
X142584285Y-69542857D02*
X142584285Y-68342857D01*
X142127142Y-68342857D01*
X142012857Y-68400000D01*
X141955714Y-68457142D01*
X141898571Y-68571428D01*
X141898571Y-68742857D01*
X141955714Y-68857142D01*
X142012857Y-68914285D01*
X142127142Y-68971428D01*
X142584285Y-68971428D01*
X140984285Y-68914285D02*
X140812857Y-68971428D01*
X140755714Y-69028571D01*
X140698571Y-69142857D01*
X140698571Y-69314285D01*
X140755714Y-69428571D01*
X140812857Y-69485714D01*
X140927142Y-69542857D01*
X141384285Y-69542857D01*
X141384285Y-68342857D01*
X140984285Y-68342857D01*
X140870000Y-68400000D01*
X140812857Y-68457142D01*
X140755714Y-68571428D01*
X140755714Y-68685714D01*
X140812857Y-68800000D01*
X140870000Y-68857142D01*
X140984285Y-68914285D01*
X141384285Y-68914285D01*
X139555714Y-69542857D02*
X140241428Y-69542857D01*
X139898571Y-69542857D02*
X139898571Y-68342857D01*
X140012857Y-68514285D01*
X140127142Y-68628571D01*
X140241428Y-68685714D01*
X136641428Y-69542857D02*
X137212857Y-69542857D01*
X137212857Y-68342857D01*
X136241428Y-68914285D02*
X135841428Y-68914285D01*
X135670000Y-69542857D02*
X136241428Y-69542857D01*
X136241428Y-68342857D01*
X135670000Y-68342857D01*
X135155714Y-69542857D02*
X135155714Y-68342857D01*
X134870000Y-68342857D01*
X134698571Y-68400000D01*
X134584285Y-68514285D01*
X134527142Y-68628571D01*
X134470000Y-68857142D01*
X134470000Y-69028571D01*
X134527142Y-69257142D01*
X134584285Y-69371428D01*
X134698571Y-69485714D01*
X134870000Y-69542857D01*
X135155714Y-69542857D01*
X133327142Y-69542857D02*
X134012857Y-69542857D01*
X133670000Y-69542857D02*
X133670000Y-68342857D01*
X133784285Y-68514285D01*
X133898571Y-68628571D01*
X134012857Y-68685714D01*
X142584285Y-71542857D02*
X142584285Y-70342857D01*
X142127142Y-70342857D01*
X142012857Y-70400000D01*
X141955714Y-70457142D01*
X141898571Y-70571428D01*
X141898571Y-70742857D01*
X141955714Y-70857142D01*
X142012857Y-70914285D01*
X142127142Y-70971428D01*
X142584285Y-70971428D01*
X140984285Y-70914285D02*
X140812857Y-70971428D01*
X140755714Y-71028571D01*
X140698571Y-71142857D01*
X140698571Y-71314285D01*
X140755714Y-71428571D01*
X140812857Y-71485714D01*
X140927142Y-71542857D01*
X141384285Y-71542857D01*
X141384285Y-70342857D01*
X140984285Y-70342857D01*
X140870000Y-70400000D01*
X140812857Y-70457142D01*
X140755714Y-70571428D01*
X140755714Y-70685714D01*
X140812857Y-70800000D01*
X140870000Y-70857142D01*
X140984285Y-70914285D01*
X141384285Y-70914285D01*
X140298571Y-70342857D02*
X139555714Y-70342857D01*
X139955714Y-70800000D01*
X139784285Y-70800000D01*
X139670000Y-70857142D01*
X139612857Y-70914285D01*
X139555714Y-71028571D01*
X139555714Y-71314285D01*
X139612857Y-71428571D01*
X139670000Y-71485714D01*
X139784285Y-71542857D01*
X140127142Y-71542857D01*
X140241428Y-71485714D01*
X140298571Y-71428571D01*
X137270000Y-71485714D02*
X137098571Y-71542857D01*
X136812857Y-71542857D01*
X136698571Y-71485714D01*
X136641428Y-71428571D01*
X136584285Y-71314285D01*
X136584285Y-71200000D01*
X136641428Y-71085714D01*
X136698571Y-71028571D01*
X136812857Y-70971428D01*
X137041428Y-70914285D01*
X137155714Y-70857142D01*
X137212857Y-70800000D01*
X137270000Y-70685714D01*
X137270000Y-70571428D01*
X137212857Y-70457142D01*
X137155714Y-70400000D01*
X137041428Y-70342857D01*
X136755714Y-70342857D01*
X136584285Y-70400000D01*
X136070000Y-71542857D02*
X136070000Y-70342857D01*
X135612857Y-70342857D01*
X135498571Y-70400000D01*
X135441428Y-70457142D01*
X135384285Y-70571428D01*
X135384285Y-70742857D01*
X135441428Y-70857142D01*
X135498571Y-70914285D01*
X135612857Y-70971428D01*
X136070000Y-70971428D01*
X134870000Y-71542857D02*
X134870000Y-70342857D01*
X133670000Y-71542857D02*
X134355714Y-71542857D01*
X134012857Y-71542857D02*
X134012857Y-70342857D01*
X134127142Y-70514285D01*
X134241428Y-70628571D01*
X134355714Y-70685714D01*
X133441428Y-71657142D02*
X132527142Y-71657142D01*
X132298571Y-71485714D02*
X132127142Y-71542857D01*
X131841428Y-71542857D01*
X131727142Y-71485714D01*
X131670000Y-71428571D01*
X131612857Y-71314285D01*
X131612857Y-71200000D01*
X131670000Y-71085714D01*
X131727142Y-71028571D01*
X131841428Y-70971428D01*
X132070000Y-70914285D01*
X132184285Y-70857142D01*
X132241428Y-70800000D01*
X132298571Y-70685714D01*
X132298571Y-70571428D01*
X132241428Y-70457142D01*
X132184285Y-70400000D01*
X132070000Y-70342857D01*
X131784285Y-70342857D01*
X131612857Y-70400000D01*
X130412857Y-71428571D02*
X130470000Y-71485714D01*
X130641428Y-71542857D01*
X130755714Y-71542857D01*
X130927142Y-71485714D01*
X131041428Y-71371428D01*
X131098571Y-71257142D01*
X131155714Y-71028571D01*
X131155714Y-70857142D01*
X131098571Y-70628571D01*
X131041428Y-70514285D01*
X130927142Y-70400000D01*
X130755714Y-70342857D01*
X130641428Y-70342857D01*
X130470000Y-70400000D01*
X130412857Y-70457142D01*
X129898571Y-71542857D02*
X129898571Y-70342857D01*
X129212857Y-71542857D02*
X129727142Y-70857142D01*
X129212857Y-70342857D02*
X129898571Y-71028571D01*
X142584285Y-73542857D02*
X142584285Y-72342857D01*
X142127142Y-72342857D01*
X142012857Y-72400000D01*
X141955714Y-72457142D01*
X141898571Y-72571428D01*
X141898571Y-72742857D01*
X141955714Y-72857142D01*
X142012857Y-72914285D01*
X142127142Y-72971428D01*
X142584285Y-72971428D01*
X140984285Y-72914285D02*
X140812857Y-72971428D01*
X140755714Y-73028571D01*
X140698571Y-73142857D01*
X140698571Y-73314285D01*
X140755714Y-73428571D01*
X140812857Y-73485714D01*
X140927142Y-73542857D01*
X141384285Y-73542857D01*
X141384285Y-72342857D01*
X140984285Y-72342857D01*
X140870000Y-72400000D01*
X140812857Y-72457142D01*
X140755714Y-72571428D01*
X140755714Y-72685714D01*
X140812857Y-72800000D01*
X140870000Y-72857142D01*
X140984285Y-72914285D01*
X141384285Y-72914285D01*
X139670000Y-72742857D02*
X139670000Y-73542857D01*
X139955714Y-72285714D02*
X140241428Y-73142857D01*
X139498571Y-73142857D01*
X137270000Y-73485714D02*
X137098571Y-73542857D01*
X136812857Y-73542857D01*
X136698571Y-73485714D01*
X136641428Y-73428571D01*
X136584285Y-73314285D01*
X136584285Y-73200000D01*
X136641428Y-73085714D01*
X136698571Y-73028571D01*
X136812857Y-72971428D01*
X137041428Y-72914285D01*
X137155714Y-72857142D01*
X137212857Y-72800000D01*
X137270000Y-72685714D01*
X137270000Y-72571428D01*
X137212857Y-72457142D01*
X137155714Y-72400000D01*
X137041428Y-72342857D01*
X136755714Y-72342857D01*
X136584285Y-72400000D01*
X136070000Y-73542857D02*
X136070000Y-72342857D01*
X135612857Y-72342857D01*
X135498571Y-72400000D01*
X135441428Y-72457142D01*
X135384285Y-72571428D01*
X135384285Y-72742857D01*
X135441428Y-72857142D01*
X135498571Y-72914285D01*
X135612857Y-72971428D01*
X136070000Y-72971428D01*
X134870000Y-73542857D02*
X134870000Y-72342857D01*
X133670000Y-73542857D02*
X134355714Y-73542857D01*
X134012857Y-73542857D02*
X134012857Y-72342857D01*
X134127142Y-72514285D01*
X134241428Y-72628571D01*
X134355714Y-72685714D01*
X133441428Y-73657142D02*
X132527142Y-73657142D01*
X132241428Y-73542857D02*
X132241428Y-72342857D01*
X131841428Y-73200000D01*
X131441428Y-72342857D01*
X131441428Y-73542857D01*
X130870000Y-73542857D02*
X130870000Y-72342857D01*
X130355714Y-73485714D02*
X130184285Y-73542857D01*
X129898571Y-73542857D01*
X129784285Y-73485714D01*
X129727142Y-73428571D01*
X129670000Y-73314285D01*
X129670000Y-73200000D01*
X129727142Y-73085714D01*
X129784285Y-73028571D01*
X129898571Y-72971428D01*
X130127142Y-72914285D01*
X130241428Y-72857142D01*
X130298571Y-72800000D01*
X130355714Y-72685714D01*
X130355714Y-72571428D01*
X130298571Y-72457142D01*
X130241428Y-72400000D01*
X130127142Y-72342857D01*
X129841428Y-72342857D01*
X129670000Y-72400000D01*
X128927142Y-72342857D02*
X128698571Y-72342857D01*
X128584285Y-72400000D01*
X128470000Y-72514285D01*
X128412857Y-72742857D01*
X128412857Y-73142857D01*
X128470000Y-73371428D01*
X128584285Y-73485714D01*
X128698571Y-73542857D01*
X128927142Y-73542857D01*
X129041428Y-73485714D01*
X129155714Y-73371428D01*
X129212857Y-73142857D01*
X129212857Y-72742857D01*
X129155714Y-72514285D01*
X129041428Y-72400000D01*
X128927142Y-72342857D01*
X142584285Y-75542857D02*
X142584285Y-74342857D01*
X142127142Y-74342857D01*
X142012857Y-74400000D01*
X141955714Y-74457142D01*
X141898571Y-74571428D01*
X141898571Y-74742857D01*
X141955714Y-74857142D01*
X142012857Y-74914285D01*
X142127142Y-74971428D01*
X142584285Y-74971428D01*
X140984285Y-74914285D02*
X140812857Y-74971428D01*
X140755714Y-75028571D01*
X140698571Y-75142857D01*
X140698571Y-75314285D01*
X140755714Y-75428571D01*
X140812857Y-75485714D01*
X140927142Y-75542857D01*
X141384285Y-75542857D01*
X141384285Y-74342857D01*
X140984285Y-74342857D01*
X140870000Y-74400000D01*
X140812857Y-74457142D01*
X140755714Y-74571428D01*
X140755714Y-74685714D01*
X140812857Y-74800000D01*
X140870000Y-74857142D01*
X140984285Y-74914285D01*
X141384285Y-74914285D01*
X139612857Y-74342857D02*
X140184285Y-74342857D01*
X140241428Y-74914285D01*
X140184285Y-74857142D01*
X140070000Y-74800000D01*
X139784285Y-74800000D01*
X139670000Y-74857142D01*
X139612857Y-74914285D01*
X139555714Y-75028571D01*
X139555714Y-75314285D01*
X139612857Y-75428571D01*
X139670000Y-75485714D01*
X139784285Y-75542857D01*
X140070000Y-75542857D01*
X140184285Y-75485714D01*
X140241428Y-75428571D01*
X137270000Y-75485714D02*
X137098571Y-75542857D01*
X136812857Y-75542857D01*
X136698571Y-75485714D01*
X136641428Y-75428571D01*
X136584285Y-75314285D01*
X136584285Y-75200000D01*
X136641428Y-75085714D01*
X136698571Y-75028571D01*
X136812857Y-74971428D01*
X137041428Y-74914285D01*
X137155714Y-74857142D01*
X137212857Y-74800000D01*
X137270000Y-74685714D01*
X137270000Y-74571428D01*
X137212857Y-74457142D01*
X137155714Y-74400000D01*
X137041428Y-74342857D01*
X136755714Y-74342857D01*
X136584285Y-74400000D01*
X136070000Y-75542857D02*
X136070000Y-74342857D01*
X135612857Y-74342857D01*
X135498571Y-74400000D01*
X135441428Y-74457142D01*
X135384285Y-74571428D01*
X135384285Y-74742857D01*
X135441428Y-74857142D01*
X135498571Y-74914285D01*
X135612857Y-74971428D01*
X136070000Y-74971428D01*
X134870000Y-75542857D02*
X134870000Y-74342857D01*
X133670000Y-75542857D02*
X134355714Y-75542857D01*
X134012857Y-75542857D02*
X134012857Y-74342857D01*
X134127142Y-74514285D01*
X134241428Y-74628571D01*
X134355714Y-74685714D01*
X133441428Y-75657142D02*
X132527142Y-75657142D01*
X132241428Y-75542857D02*
X132241428Y-74342857D01*
X131841428Y-75200000D01*
X131441428Y-74342857D01*
X131441428Y-75542857D01*
X130641428Y-74342857D02*
X130412857Y-74342857D01*
X130298571Y-74400000D01*
X130184285Y-74514285D01*
X130127142Y-74742857D01*
X130127142Y-75142857D01*
X130184285Y-75371428D01*
X130298571Y-75485714D01*
X130412857Y-75542857D01*
X130641428Y-75542857D01*
X130755714Y-75485714D01*
X130870000Y-75371428D01*
X130927142Y-75142857D01*
X130927142Y-74742857D01*
X130870000Y-74514285D01*
X130755714Y-74400000D01*
X130641428Y-74342857D01*
X129670000Y-75485714D02*
X129498571Y-75542857D01*
X129212857Y-75542857D01*
X129098571Y-75485714D01*
X129041428Y-75428571D01*
X128984285Y-75314285D01*
X128984285Y-75200000D01*
X129041428Y-75085714D01*
X129098571Y-75028571D01*
X129212857Y-74971428D01*
X129441428Y-74914285D01*
X129555714Y-74857142D01*
X129612857Y-74800000D01*
X129670000Y-74685714D01*
X129670000Y-74571428D01*
X129612857Y-74457142D01*
X129555714Y-74400000D01*
X129441428Y-74342857D01*
X129155714Y-74342857D01*
X128984285Y-74400000D01*
X128470000Y-75542857D02*
X128470000Y-74342857D01*
X142584285Y-77542857D02*
X142584285Y-76342857D01*
X142127142Y-76342857D01*
X142012857Y-76400000D01*
X141955714Y-76457142D01*
X141898571Y-76571428D01*
X141898571Y-76742857D01*
X141955714Y-76857142D01*
X142012857Y-76914285D01*
X142127142Y-76971428D01*
X142584285Y-76971428D01*
X140984285Y-76914285D02*
X140812857Y-76971428D01*
X140755714Y-77028571D01*
X140698571Y-77142857D01*
X140698571Y-77314285D01*
X140755714Y-77428571D01*
X140812857Y-77485714D01*
X140927142Y-77542857D01*
X141384285Y-77542857D01*
X141384285Y-76342857D01*
X140984285Y-76342857D01*
X140870000Y-76400000D01*
X140812857Y-76457142D01*
X140755714Y-76571428D01*
X140755714Y-76685714D01*
X140812857Y-76800000D01*
X140870000Y-76857142D01*
X140984285Y-76914285D01*
X141384285Y-76914285D01*
X139670000Y-76342857D02*
X139898571Y-76342857D01*
X140012857Y-76400000D01*
X140070000Y-76457142D01*
X140184285Y-76628571D01*
X140241428Y-76857142D01*
X140241428Y-77314285D01*
X140184285Y-77428571D01*
X140127142Y-77485714D01*
X140012857Y-77542857D01*
X139784285Y-77542857D01*
X139670000Y-77485714D01*
X139612857Y-77428571D01*
X139555714Y-77314285D01*
X139555714Y-77028571D01*
X139612857Y-76914285D01*
X139670000Y-76857142D01*
X139784285Y-76800000D01*
X140012857Y-76800000D01*
X140127142Y-76857142D01*
X140184285Y-76914285D01*
X140241428Y-77028571D01*
X137212857Y-77542857D02*
X137212857Y-76342857D01*
X136698571Y-76457142D02*
X136641428Y-76400000D01*
X136527142Y-76342857D01*
X136241428Y-76342857D01*
X136127142Y-76400000D01*
X136070000Y-76457142D01*
X136012857Y-76571428D01*
X136012857Y-76685714D01*
X136070000Y-76857142D01*
X136755714Y-77542857D01*
X136012857Y-77542857D01*
X134812857Y-77428571D02*
X134870000Y-77485714D01*
X135041428Y-77542857D01*
X135155714Y-77542857D01*
X135327142Y-77485714D01*
X135441428Y-77371428D01*
X135498571Y-77257142D01*
X135555714Y-77028571D01*
X135555714Y-76857142D01*
X135498571Y-76628571D01*
X135441428Y-76514285D01*
X135327142Y-76400000D01*
X135155714Y-76342857D01*
X135041428Y-76342857D01*
X134870000Y-76400000D01*
X134812857Y-76457142D01*
X133670000Y-77542857D02*
X134355714Y-77542857D01*
X134012857Y-77542857D02*
X134012857Y-76342857D01*
X134127142Y-76514285D01*
X134241428Y-76628571D01*
X134355714Y-76685714D01*
X133441428Y-77657142D02*
X132527142Y-77657142D01*
X132298571Y-77485714D02*
X132127142Y-77542857D01*
X131841428Y-77542857D01*
X131727142Y-77485714D01*
X131670000Y-77428571D01*
X131612857Y-77314285D01*
X131612857Y-77200000D01*
X131670000Y-77085714D01*
X131727142Y-77028571D01*
X131841428Y-76971428D01*
X132070000Y-76914285D01*
X132184285Y-76857142D01*
X132241428Y-76800000D01*
X132298571Y-76685714D01*
X132298571Y-76571428D01*
X132241428Y-76457142D01*
X132184285Y-76400000D01*
X132070000Y-76342857D01*
X131784285Y-76342857D01*
X131612857Y-76400000D01*
X130412857Y-77428571D02*
X130470000Y-77485714D01*
X130641428Y-77542857D01*
X130755714Y-77542857D01*
X130927142Y-77485714D01*
X131041428Y-77371428D01*
X131098571Y-77257142D01*
X131155714Y-77028571D01*
X131155714Y-76857142D01*
X131098571Y-76628571D01*
X131041428Y-76514285D01*
X130927142Y-76400000D01*
X130755714Y-76342857D01*
X130641428Y-76342857D01*
X130470000Y-76400000D01*
X130412857Y-76457142D01*
X129327142Y-77542857D02*
X129898571Y-77542857D01*
X129898571Y-76342857D01*
X142584285Y-79542857D02*
X142584285Y-78342857D01*
X142127142Y-78342857D01*
X142012857Y-78400000D01*
X141955714Y-78457142D01*
X141898571Y-78571428D01*
X141898571Y-78742857D01*
X141955714Y-78857142D01*
X142012857Y-78914285D01*
X142127142Y-78971428D01*
X142584285Y-78971428D01*
X140984285Y-78914285D02*
X140812857Y-78971428D01*
X140755714Y-79028571D01*
X140698571Y-79142857D01*
X140698571Y-79314285D01*
X140755714Y-79428571D01*
X140812857Y-79485714D01*
X140927142Y-79542857D01*
X141384285Y-79542857D01*
X141384285Y-78342857D01*
X140984285Y-78342857D01*
X140870000Y-78400000D01*
X140812857Y-78457142D01*
X140755714Y-78571428D01*
X140755714Y-78685714D01*
X140812857Y-78800000D01*
X140870000Y-78857142D01*
X140984285Y-78914285D01*
X141384285Y-78914285D01*
X140298571Y-78342857D02*
X139498571Y-78342857D01*
X140012857Y-79542857D01*
X137212857Y-79542857D02*
X137212857Y-78342857D01*
X136698571Y-78457142D02*
X136641428Y-78400000D01*
X136527142Y-78342857D01*
X136241428Y-78342857D01*
X136127142Y-78400000D01*
X136070000Y-78457142D01*
X136012857Y-78571428D01*
X136012857Y-78685714D01*
X136070000Y-78857142D01*
X136755714Y-79542857D01*
X136012857Y-79542857D01*
X134812857Y-79428571D02*
X134870000Y-79485714D01*
X135041428Y-79542857D01*
X135155714Y-79542857D01*
X135327142Y-79485714D01*
X135441428Y-79371428D01*
X135498571Y-79257142D01*
X135555714Y-79028571D01*
X135555714Y-78857142D01*
X135498571Y-78628571D01*
X135441428Y-78514285D01*
X135327142Y-78400000D01*
X135155714Y-78342857D01*
X135041428Y-78342857D01*
X134870000Y-78400000D01*
X134812857Y-78457142D01*
X133670000Y-79542857D02*
X134355714Y-79542857D01*
X134012857Y-79542857D02*
X134012857Y-78342857D01*
X134127142Y-78514285D01*
X134241428Y-78628571D01*
X134355714Y-78685714D01*
X133441428Y-79657142D02*
X132527142Y-79657142D01*
X132298571Y-79485714D02*
X132127142Y-79542857D01*
X131841428Y-79542857D01*
X131727142Y-79485714D01*
X131670000Y-79428571D01*
X131612857Y-79314285D01*
X131612857Y-79200000D01*
X131670000Y-79085714D01*
X131727142Y-79028571D01*
X131841428Y-78971428D01*
X132070000Y-78914285D01*
X132184285Y-78857142D01*
X132241428Y-78800000D01*
X132298571Y-78685714D01*
X132298571Y-78571428D01*
X132241428Y-78457142D01*
X132184285Y-78400000D01*
X132070000Y-78342857D01*
X131784285Y-78342857D01*
X131612857Y-78400000D01*
X131098571Y-79542857D02*
X131098571Y-78342857D01*
X130812857Y-78342857D01*
X130641428Y-78400000D01*
X130527142Y-78514285D01*
X130470000Y-78628571D01*
X130412857Y-78857142D01*
X130412857Y-79028571D01*
X130470000Y-79257142D01*
X130527142Y-79371428D01*
X130641428Y-79485714D01*
X130812857Y-79542857D01*
X131098571Y-79542857D01*
X129955714Y-79200000D02*
X129384285Y-79200000D01*
X130070000Y-79542857D02*
X129670000Y-78342857D01*
X129270000Y-79542857D01*
X162584285Y-67542857D02*
X162584285Y-66342857D01*
X162127142Y-66342857D01*
X162012857Y-66400000D01*
X161955714Y-66457142D01*
X161898571Y-66571428D01*
X161898571Y-66742857D01*
X161955714Y-66857142D01*
X162012857Y-66914285D01*
X162127142Y-66971428D01*
X162584285Y-66971428D01*
X161441428Y-67200000D02*
X160870000Y-67200000D01*
X161555714Y-67542857D02*
X161155714Y-66342857D01*
X160755714Y-67542857D01*
X160184285Y-66857142D02*
X160298571Y-66800000D01*
X160355714Y-66742857D01*
X160412857Y-66628571D01*
X160412857Y-66571428D01*
X160355714Y-66457142D01*
X160298571Y-66400000D01*
X160184285Y-66342857D01*
X159955714Y-66342857D01*
X159841428Y-66400000D01*
X159784285Y-66457142D01*
X159727142Y-66571428D01*
X159727142Y-66628571D01*
X159784285Y-66742857D01*
X159841428Y-66800000D01*
X159955714Y-66857142D01*
X160184285Y-66857142D01*
X160298571Y-66914285D01*
X160355714Y-66971428D01*
X160412857Y-67085714D01*
X160412857Y-67314285D01*
X160355714Y-67428571D01*
X160298571Y-67485714D01*
X160184285Y-67542857D01*
X159955714Y-67542857D01*
X159841428Y-67485714D01*
X159784285Y-67428571D01*
X159727142Y-67314285D01*
X159727142Y-67085714D01*
X159784285Y-66971428D01*
X159841428Y-66914285D01*
X159955714Y-66857142D01*
X156984285Y-66914285D02*
X156812857Y-66971428D01*
X156755714Y-67028571D01*
X156698571Y-67142857D01*
X156698571Y-67314285D01*
X156755714Y-67428571D01*
X156812857Y-67485714D01*
X156927142Y-67542857D01*
X157384285Y-67542857D01*
X157384285Y-66342857D01*
X156984285Y-66342857D01*
X156870000Y-66400000D01*
X156812857Y-66457142D01*
X156755714Y-66571428D01*
X156755714Y-66685714D01*
X156812857Y-66800000D01*
X156870000Y-66857142D01*
X156984285Y-66914285D01*
X157384285Y-66914285D01*
X156184285Y-66342857D02*
X156184285Y-67314285D01*
X156127142Y-67428571D01*
X156070000Y-67485714D01*
X155955714Y-67542857D01*
X155727142Y-67542857D01*
X155612857Y-67485714D01*
X155555714Y-67428571D01*
X155498571Y-67314285D01*
X155498571Y-66342857D01*
X155098571Y-66342857D02*
X154412857Y-66342857D01*
X154755714Y-67542857D02*
X154755714Y-66342857D01*
X154184285Y-66342857D02*
X153498571Y-66342857D01*
X153841428Y-67542857D02*
X153841428Y-66342857D01*
X152870000Y-66342857D02*
X152641428Y-66342857D01*
X152527142Y-66400000D01*
X152412857Y-66514285D01*
X152355714Y-66742857D01*
X152355714Y-67142857D01*
X152412857Y-67371428D01*
X152527142Y-67485714D01*
X152641428Y-67542857D01*
X152870000Y-67542857D01*
X152984285Y-67485714D01*
X153098571Y-67371428D01*
X153155714Y-67142857D01*
X153155714Y-66742857D01*
X153098571Y-66514285D01*
X152984285Y-66400000D01*
X152870000Y-66342857D01*
X151841428Y-67542857D02*
X151841428Y-66342857D01*
X151155714Y-67542857D01*
X151155714Y-66342857D01*
X162584285Y-69542857D02*
X162584285Y-68342857D01*
X162127142Y-68342857D01*
X162012857Y-68400000D01*
X161955714Y-68457142D01*
X161898571Y-68571428D01*
X161898571Y-68742857D01*
X161955714Y-68857142D01*
X162012857Y-68914285D01*
X162127142Y-68971428D01*
X162584285Y-68971428D01*
X161441428Y-69200000D02*
X160870000Y-69200000D01*
X161555714Y-69542857D02*
X161155714Y-68342857D01*
X160755714Y-69542857D01*
X160298571Y-69542857D02*
X160070000Y-69542857D01*
X159955714Y-69485714D01*
X159898571Y-69428571D01*
X159784285Y-69257142D01*
X159727142Y-69028571D01*
X159727142Y-68571428D01*
X159784285Y-68457142D01*
X159841428Y-68400000D01*
X159955714Y-68342857D01*
X160184285Y-68342857D01*
X160298571Y-68400000D01*
X160355714Y-68457142D01*
X160412857Y-68571428D01*
X160412857Y-68857142D01*
X160355714Y-68971428D01*
X160298571Y-69028571D01*
X160184285Y-69085714D01*
X159955714Y-69085714D01*
X159841428Y-69028571D01*
X159784285Y-68971428D01*
X159727142Y-68857142D01*
X157384285Y-68342857D02*
X157384285Y-69314285D01*
X157327142Y-69428571D01*
X157270000Y-69485714D01*
X157155714Y-69542857D01*
X156927142Y-69542857D01*
X156812857Y-69485714D01*
X156755714Y-69428571D01*
X156698571Y-69314285D01*
X156698571Y-68342857D01*
X156184285Y-69485714D02*
X156012857Y-69542857D01*
X155727142Y-69542857D01*
X155612857Y-69485714D01*
X155555714Y-69428571D01*
X155498571Y-69314285D01*
X155498571Y-69200000D01*
X155555714Y-69085714D01*
X155612857Y-69028571D01*
X155727142Y-68971428D01*
X155955714Y-68914285D01*
X156070000Y-68857142D01*
X156127142Y-68800000D01*
X156184285Y-68685714D01*
X156184285Y-68571428D01*
X156127142Y-68457142D01*
X156070000Y-68400000D01*
X155955714Y-68342857D01*
X155670000Y-68342857D01*
X155498571Y-68400000D01*
X155041428Y-69200000D02*
X154470000Y-69200000D01*
X155155714Y-69542857D02*
X154755714Y-68342857D01*
X154355714Y-69542857D01*
X153270000Y-69542857D02*
X153670000Y-68971428D01*
X153955714Y-69542857D02*
X153955714Y-68342857D01*
X153498571Y-68342857D01*
X153384285Y-68400000D01*
X153327142Y-68457142D01*
X153270000Y-68571428D01*
X153270000Y-68742857D01*
X153327142Y-68857142D01*
X153384285Y-68914285D01*
X153498571Y-68971428D01*
X153955714Y-68971428D01*
X152927142Y-68342857D02*
X152241428Y-68342857D01*
X152584285Y-69542857D02*
X152584285Y-68342857D01*
X151212857Y-69542857D02*
X151898571Y-69542857D01*
X151555714Y-69542857D02*
X151555714Y-68342857D01*
X151670000Y-68514285D01*
X151784285Y-68628571D01*
X151898571Y-68685714D01*
X150984285Y-69657142D02*
X150070000Y-69657142D01*
X149955714Y-68342857D02*
X149270000Y-68342857D01*
X149612857Y-69542857D02*
X149612857Y-68342857D01*
X148984285Y-68342857D02*
X148184285Y-69542857D01*
X148184285Y-68342857D02*
X148984285Y-69542857D01*
X162584285Y-71542857D02*
X162584285Y-70342857D01*
X162127142Y-70342857D01*
X162012857Y-70400000D01*
X161955714Y-70457142D01*
X161898571Y-70571428D01*
X161898571Y-70742857D01*
X161955714Y-70857142D01*
X162012857Y-70914285D01*
X162127142Y-70971428D01*
X162584285Y-70971428D01*
X161441428Y-71200000D02*
X160870000Y-71200000D01*
X161555714Y-71542857D02*
X161155714Y-70342857D01*
X160755714Y-71542857D01*
X159727142Y-71542857D02*
X160412857Y-71542857D01*
X160070000Y-71542857D02*
X160070000Y-70342857D01*
X160184285Y-70514285D01*
X160298571Y-70628571D01*
X160412857Y-70685714D01*
X158984285Y-70342857D02*
X158870000Y-70342857D01*
X158755714Y-70400000D01*
X158698571Y-70457142D01*
X158641428Y-70571428D01*
X158584285Y-70800000D01*
X158584285Y-71085714D01*
X158641428Y-71314285D01*
X158698571Y-71428571D01*
X158755714Y-71485714D01*
X158870000Y-71542857D01*
X158984285Y-71542857D01*
X159098571Y-71485714D01*
X159155714Y-71428571D01*
X159212857Y-71314285D01*
X159270000Y-71085714D01*
X159270000Y-70800000D01*
X159212857Y-70571428D01*
X159155714Y-70457142D01*
X159098571Y-70400000D01*
X158984285Y-70342857D01*
X157155714Y-70342857D02*
X157155714Y-71314285D01*
X157098571Y-71428571D01*
X157041428Y-71485714D01*
X156927142Y-71542857D01*
X156698571Y-71542857D01*
X156584285Y-71485714D01*
X156527142Y-71428571D01*
X156470000Y-71314285D01*
X156470000Y-70342857D01*
X155955714Y-71485714D02*
X155784285Y-71542857D01*
X155498571Y-71542857D01*
X155384285Y-71485714D01*
X155327142Y-71428571D01*
X155270000Y-71314285D01*
X155270000Y-71200000D01*
X155327142Y-71085714D01*
X155384285Y-71028571D01*
X155498571Y-70971428D01*
X155727142Y-70914285D01*
X155841428Y-70857142D01*
X155898571Y-70800000D01*
X155955714Y-70685714D01*
X155955714Y-70571428D01*
X155898571Y-70457142D01*
X155841428Y-70400000D01*
X155727142Y-70342857D01*
X155441428Y-70342857D01*
X155270000Y-70400000D01*
X154812857Y-71200000D02*
X154241428Y-71200000D01*
X154927142Y-71542857D02*
X154527142Y-70342857D01*
X154127142Y-71542857D01*
X153041428Y-71542857D02*
X153441428Y-70971428D01*
X153727142Y-71542857D02*
X153727142Y-70342857D01*
X153270000Y-70342857D01*
X153155714Y-70400000D01*
X153098571Y-70457142D01*
X153041428Y-70571428D01*
X153041428Y-70742857D01*
X153098571Y-70857142D01*
X153155714Y-70914285D01*
X153270000Y-70971428D01*
X153727142Y-70971428D01*
X152698571Y-70342857D02*
X152012857Y-70342857D01*
X152355714Y-71542857D02*
X152355714Y-70342857D01*
X150984285Y-71542857D02*
X151670000Y-71542857D01*
X151327142Y-71542857D02*
X151327142Y-70342857D01*
X151441428Y-70514285D01*
X151555714Y-70628571D01*
X151670000Y-70685714D01*
X150755714Y-71657142D02*
X149841428Y-71657142D01*
X148870000Y-71542857D02*
X149270000Y-70971428D01*
X149555714Y-71542857D02*
X149555714Y-70342857D01*
X149098571Y-70342857D01*
X148984285Y-70400000D01*
X148927142Y-70457142D01*
X148870000Y-70571428D01*
X148870000Y-70742857D01*
X148927142Y-70857142D01*
X148984285Y-70914285D01*
X149098571Y-70971428D01*
X149555714Y-70971428D01*
X148470000Y-70342857D02*
X147670000Y-71542857D01*
X147670000Y-70342857D02*
X148470000Y-71542857D01*
X162584285Y-73542857D02*
X162584285Y-72342857D01*
X162127142Y-72342857D01*
X162012857Y-72400000D01*
X161955714Y-72457142D01*
X161898571Y-72571428D01*
X161898571Y-72742857D01*
X161955714Y-72857142D01*
X162012857Y-72914285D01*
X162127142Y-72971428D01*
X162584285Y-72971428D01*
X161441428Y-73200000D02*
X160870000Y-73200000D01*
X161555714Y-73542857D02*
X161155714Y-72342857D01*
X160755714Y-73542857D01*
X159727142Y-73542857D02*
X160412857Y-73542857D01*
X160070000Y-73542857D02*
X160070000Y-72342857D01*
X160184285Y-72514285D01*
X160298571Y-72628571D01*
X160412857Y-72685714D01*
X158584285Y-73542857D02*
X159270000Y-73542857D01*
X158927142Y-73542857D02*
X158927142Y-72342857D01*
X159041428Y-72514285D01*
X159155714Y-72628571D01*
X159270000Y-72685714D01*
X157155714Y-72342857D02*
X157155714Y-73314285D01*
X157098571Y-73428571D01*
X157041428Y-73485714D01*
X156927142Y-73542857D01*
X156698571Y-73542857D01*
X156584285Y-73485714D01*
X156527142Y-73428571D01*
X156470000Y-73314285D01*
X156470000Y-72342857D01*
X155955714Y-73485714D02*
X155784285Y-73542857D01*
X155498571Y-73542857D01*
X155384285Y-73485714D01*
X155327142Y-73428571D01*
X155270000Y-73314285D01*
X155270000Y-73200000D01*
X155327142Y-73085714D01*
X155384285Y-73028571D01*
X155498571Y-72971428D01*
X155727142Y-72914285D01*
X155841428Y-72857142D01*
X155898571Y-72800000D01*
X155955714Y-72685714D01*
X155955714Y-72571428D01*
X155898571Y-72457142D01*
X155841428Y-72400000D01*
X155727142Y-72342857D01*
X155441428Y-72342857D01*
X155270000Y-72400000D01*
X154812857Y-73200000D02*
X154241428Y-73200000D01*
X154927142Y-73542857D02*
X154527142Y-72342857D01*
X154127142Y-73542857D01*
X153041428Y-73542857D02*
X153441428Y-72971428D01*
X153727142Y-73542857D02*
X153727142Y-72342857D01*
X153270000Y-72342857D01*
X153155714Y-72400000D01*
X153098571Y-72457142D01*
X153041428Y-72571428D01*
X153041428Y-72742857D01*
X153098571Y-72857142D01*
X153155714Y-72914285D01*
X153270000Y-72971428D01*
X153727142Y-72971428D01*
X152698571Y-72342857D02*
X152012857Y-72342857D01*
X152355714Y-73542857D02*
X152355714Y-72342857D01*
X150984285Y-73542857D02*
X151670000Y-73542857D01*
X151327142Y-73542857D02*
X151327142Y-72342857D01*
X151441428Y-72514285D01*
X151555714Y-72628571D01*
X151670000Y-72685714D01*
X150755714Y-73657142D02*
X149841428Y-73657142D01*
X148870000Y-73428571D02*
X148927142Y-73485714D01*
X149098571Y-73542857D01*
X149212857Y-73542857D01*
X149384285Y-73485714D01*
X149498571Y-73371428D01*
X149555714Y-73257142D01*
X149612857Y-73028571D01*
X149612857Y-72857142D01*
X149555714Y-72628571D01*
X149498571Y-72514285D01*
X149384285Y-72400000D01*
X149212857Y-72342857D01*
X149098571Y-72342857D01*
X148927142Y-72400000D01*
X148870000Y-72457142D01*
X148527142Y-72342857D02*
X147841428Y-72342857D01*
X148184285Y-73542857D02*
X148184285Y-72342857D01*
X147498571Y-73485714D02*
X147327142Y-73542857D01*
X147041428Y-73542857D01*
X146927142Y-73485714D01*
X146870000Y-73428571D01*
X146812857Y-73314285D01*
X146812857Y-73200000D01*
X146870000Y-73085714D01*
X146927142Y-73028571D01*
X147041428Y-72971428D01*
X147270000Y-72914285D01*
X147384285Y-72857142D01*
X147441428Y-72800000D01*
X147498571Y-72685714D01*
X147498571Y-72571428D01*
X147441428Y-72457142D01*
X147384285Y-72400000D01*
X147270000Y-72342857D01*
X146984285Y-72342857D01*
X146812857Y-72400000D01*
X162584285Y-75542857D02*
X162584285Y-74342857D01*
X162127142Y-74342857D01*
X162012857Y-74400000D01*
X161955714Y-74457142D01*
X161898571Y-74571428D01*
X161898571Y-74742857D01*
X161955714Y-74857142D01*
X162012857Y-74914285D01*
X162127142Y-74971428D01*
X162584285Y-74971428D01*
X161441428Y-75200000D02*
X160870000Y-75200000D01*
X161555714Y-75542857D02*
X161155714Y-74342857D01*
X160755714Y-75542857D01*
X159727142Y-75542857D02*
X160412857Y-75542857D01*
X160070000Y-75542857D02*
X160070000Y-74342857D01*
X160184285Y-74514285D01*
X160298571Y-74628571D01*
X160412857Y-74685714D01*
X159270000Y-74457142D02*
X159212857Y-74400000D01*
X159098571Y-74342857D01*
X158812857Y-74342857D01*
X158698571Y-74400000D01*
X158641428Y-74457142D01*
X158584285Y-74571428D01*
X158584285Y-74685714D01*
X158641428Y-74857142D01*
X159327142Y-75542857D01*
X158584285Y-75542857D01*
X157155714Y-74342857D02*
X157155714Y-75314285D01*
X157098571Y-75428571D01*
X157041428Y-75485714D01*
X156927142Y-75542857D01*
X156698571Y-75542857D01*
X156584285Y-75485714D01*
X156527142Y-75428571D01*
X156470000Y-75314285D01*
X156470000Y-74342857D01*
X155955714Y-75485714D02*
X155784285Y-75542857D01*
X155498571Y-75542857D01*
X155384285Y-75485714D01*
X155327142Y-75428571D01*
X155270000Y-75314285D01*
X155270000Y-75200000D01*
X155327142Y-75085714D01*
X155384285Y-75028571D01*
X155498571Y-74971428D01*
X155727142Y-74914285D01*
X155841428Y-74857142D01*
X155898571Y-74800000D01*
X155955714Y-74685714D01*
X155955714Y-74571428D01*
X155898571Y-74457142D01*
X155841428Y-74400000D01*
X155727142Y-74342857D01*
X155441428Y-74342857D01*
X155270000Y-74400000D01*
X154812857Y-75200000D02*
X154241428Y-75200000D01*
X154927142Y-75542857D02*
X154527142Y-74342857D01*
X154127142Y-75542857D01*
X153041428Y-75542857D02*
X153441428Y-74971428D01*
X153727142Y-75542857D02*
X153727142Y-74342857D01*
X153270000Y-74342857D01*
X153155714Y-74400000D01*
X153098571Y-74457142D01*
X153041428Y-74571428D01*
X153041428Y-74742857D01*
X153098571Y-74857142D01*
X153155714Y-74914285D01*
X153270000Y-74971428D01*
X153727142Y-74971428D01*
X152698571Y-74342857D02*
X152012857Y-74342857D01*
X152355714Y-75542857D02*
X152355714Y-74342857D01*
X150984285Y-75542857D02*
X151670000Y-75542857D01*
X151327142Y-75542857D02*
X151327142Y-74342857D01*
X151441428Y-74514285D01*
X151555714Y-74628571D01*
X151670000Y-74685714D01*
X150755714Y-75657142D02*
X149841428Y-75657142D01*
X148870000Y-75542857D02*
X149270000Y-74971428D01*
X149555714Y-75542857D02*
X149555714Y-74342857D01*
X149098571Y-74342857D01*
X148984285Y-74400000D01*
X148927142Y-74457142D01*
X148870000Y-74571428D01*
X148870000Y-74742857D01*
X148927142Y-74857142D01*
X148984285Y-74914285D01*
X149098571Y-74971428D01*
X149555714Y-74971428D01*
X148527142Y-74342857D02*
X147841428Y-74342857D01*
X148184285Y-75542857D02*
X148184285Y-74342857D01*
X147498571Y-75485714D02*
X147327142Y-75542857D01*
X147041428Y-75542857D01*
X146927142Y-75485714D01*
X146870000Y-75428571D01*
X146812857Y-75314285D01*
X146812857Y-75200000D01*
X146870000Y-75085714D01*
X146927142Y-75028571D01*
X147041428Y-74971428D01*
X147270000Y-74914285D01*
X147384285Y-74857142D01*
X147441428Y-74800000D01*
X147498571Y-74685714D01*
X147498571Y-74571428D01*
X147441428Y-74457142D01*
X147384285Y-74400000D01*
X147270000Y-74342857D01*
X146984285Y-74342857D01*
X146812857Y-74400000D01*
X162584285Y-77542857D02*
X162584285Y-76342857D01*
X162127142Y-76342857D01*
X162012857Y-76400000D01*
X161955714Y-76457142D01*
X161898571Y-76571428D01*
X161898571Y-76742857D01*
X161955714Y-76857142D01*
X162012857Y-76914285D01*
X162127142Y-76971428D01*
X162584285Y-76971428D01*
X161441428Y-77200000D02*
X160870000Y-77200000D01*
X161555714Y-77542857D02*
X161155714Y-76342857D01*
X160755714Y-77542857D01*
X159727142Y-77542857D02*
X160412857Y-77542857D01*
X160070000Y-77542857D02*
X160070000Y-76342857D01*
X160184285Y-76514285D01*
X160298571Y-76628571D01*
X160412857Y-76685714D01*
X159327142Y-76342857D02*
X158584285Y-76342857D01*
X158984285Y-76800000D01*
X158812857Y-76800000D01*
X158698571Y-76857142D01*
X158641428Y-76914285D01*
X158584285Y-77028571D01*
X158584285Y-77314285D01*
X158641428Y-77428571D01*
X158698571Y-77485714D01*
X158812857Y-77542857D01*
X159155714Y-77542857D01*
X159270000Y-77485714D01*
X159327142Y-77428571D01*
X157212857Y-77485714D02*
X157041428Y-77542857D01*
X156755714Y-77542857D01*
X156641428Y-77485714D01*
X156584285Y-77428571D01*
X156527142Y-77314285D01*
X156527142Y-77200000D01*
X156584285Y-77085714D01*
X156641428Y-77028571D01*
X156755714Y-76971428D01*
X156984285Y-76914285D01*
X157098571Y-76857142D01*
X157155714Y-76800000D01*
X157212857Y-76685714D01*
X157212857Y-76571428D01*
X157155714Y-76457142D01*
X157098571Y-76400000D01*
X156984285Y-76342857D01*
X156698571Y-76342857D01*
X156527142Y-76400000D01*
X156127142Y-76342857D02*
X155841428Y-77542857D01*
X155612857Y-76685714D01*
X155384285Y-77542857D01*
X155098571Y-76342857D01*
X154641428Y-77542857D02*
X154641428Y-76342857D01*
X154355714Y-76342857D01*
X154184285Y-76400000D01*
X154070000Y-76514285D01*
X154012857Y-76628571D01*
X153955714Y-76857142D01*
X153955714Y-77028571D01*
X154012857Y-77257142D01*
X154070000Y-77371428D01*
X154184285Y-77485714D01*
X154355714Y-77542857D01*
X154641428Y-77542857D01*
X153441428Y-77542857D02*
X153441428Y-76342857D01*
X152641428Y-76342857D02*
X152412857Y-76342857D01*
X152298571Y-76400000D01*
X152184285Y-76514285D01*
X152127142Y-76742857D01*
X152127142Y-77142857D01*
X152184285Y-77371428D01*
X152298571Y-77485714D01*
X152412857Y-77542857D01*
X152641428Y-77542857D01*
X152755714Y-77485714D01*
X152870000Y-77371428D01*
X152927142Y-77142857D01*
X152927142Y-76742857D01*
X152870000Y-76514285D01*
X152755714Y-76400000D01*
X152641428Y-76342857D01*
X162584285Y-79542857D02*
X162584285Y-78342857D01*
X162127142Y-78342857D01*
X162012857Y-78400000D01*
X161955714Y-78457142D01*
X161898571Y-78571428D01*
X161898571Y-78742857D01*
X161955714Y-78857142D01*
X162012857Y-78914285D01*
X162127142Y-78971428D01*
X162584285Y-78971428D01*
X161441428Y-79200000D02*
X160870000Y-79200000D01*
X161555714Y-79542857D02*
X161155714Y-78342857D01*
X160755714Y-79542857D01*
X159727142Y-79542857D02*
X160412857Y-79542857D01*
X160070000Y-79542857D02*
X160070000Y-78342857D01*
X160184285Y-78514285D01*
X160298571Y-78628571D01*
X160412857Y-78685714D01*
X158698571Y-78742857D02*
X158698571Y-79542857D01*
X158984285Y-78285714D02*
X159270000Y-79142857D01*
X158527142Y-79142857D01*
X157212857Y-79485714D02*
X157041428Y-79542857D01*
X156755714Y-79542857D01*
X156641428Y-79485714D01*
X156584285Y-79428571D01*
X156527142Y-79314285D01*
X156527142Y-79200000D01*
X156584285Y-79085714D01*
X156641428Y-79028571D01*
X156755714Y-78971428D01*
X156984285Y-78914285D01*
X157098571Y-78857142D01*
X157155714Y-78800000D01*
X157212857Y-78685714D01*
X157212857Y-78571428D01*
X157155714Y-78457142D01*
X157098571Y-78400000D01*
X156984285Y-78342857D01*
X156698571Y-78342857D01*
X156527142Y-78400000D01*
X156127142Y-78342857D02*
X155841428Y-79542857D01*
X155612857Y-78685714D01*
X155384285Y-79542857D01*
X155098571Y-78342857D01*
X153955714Y-79428571D02*
X154012857Y-79485714D01*
X154184285Y-79542857D01*
X154298571Y-79542857D01*
X154470000Y-79485714D01*
X154584285Y-79371428D01*
X154641428Y-79257142D01*
X154698571Y-79028571D01*
X154698571Y-78857142D01*
X154641428Y-78628571D01*
X154584285Y-78514285D01*
X154470000Y-78400000D01*
X154298571Y-78342857D01*
X154184285Y-78342857D01*
X154012857Y-78400000D01*
X153955714Y-78457142D01*
X152870000Y-79542857D02*
X153441428Y-79542857D01*
X153441428Y-78342857D01*
X152470000Y-79542857D02*
X152470000Y-78342857D01*
X151784285Y-79542857D02*
X152298571Y-78857142D01*
X151784285Y-78342857D02*
X152470000Y-79028571D01*
X162584285Y-81542857D02*
X162584285Y-80342857D01*
X162127142Y-80342857D01*
X162012857Y-80400000D01*
X161955714Y-80457142D01*
X161898571Y-80571428D01*
X161898571Y-80742857D01*
X161955714Y-80857142D01*
X162012857Y-80914285D01*
X162127142Y-80971428D01*
X162584285Y-80971428D01*
X161441428Y-81200000D02*
X160870000Y-81200000D01*
X161555714Y-81542857D02*
X161155714Y-80342857D01*
X160755714Y-81542857D01*
X159727142Y-81542857D02*
X160412857Y-81542857D01*
X160070000Y-81542857D02*
X160070000Y-80342857D01*
X160184285Y-80514285D01*
X160298571Y-80628571D01*
X160412857Y-80685714D01*
X158641428Y-80342857D02*
X159212857Y-80342857D01*
X159270000Y-80914285D01*
X159212857Y-80857142D01*
X159098571Y-80800000D01*
X158812857Y-80800000D01*
X158698571Y-80857142D01*
X158641428Y-80914285D01*
X158584285Y-81028571D01*
X158584285Y-81314285D01*
X158641428Y-81428571D01*
X158698571Y-81485714D01*
X158812857Y-81542857D01*
X159098571Y-81542857D01*
X159212857Y-81485714D01*
X159270000Y-81428571D01*
X157212857Y-81485714D02*
X157041428Y-81542857D01*
X156755714Y-81542857D01*
X156641428Y-81485714D01*
X156584285Y-81428571D01*
X156527142Y-81314285D01*
X156527142Y-81200000D01*
X156584285Y-81085714D01*
X156641428Y-81028571D01*
X156755714Y-80971428D01*
X156984285Y-80914285D01*
X157098571Y-80857142D01*
X157155714Y-80800000D01*
X157212857Y-80685714D01*
X157212857Y-80571428D01*
X157155714Y-80457142D01*
X157098571Y-80400000D01*
X156984285Y-80342857D01*
X156698571Y-80342857D01*
X156527142Y-80400000D01*
X156012857Y-81542857D02*
X156012857Y-80342857D01*
X155555714Y-80342857D01*
X155441428Y-80400000D01*
X155384285Y-80457142D01*
X155327142Y-80571428D01*
X155327142Y-80742857D01*
X155384285Y-80857142D01*
X155441428Y-80914285D01*
X155555714Y-80971428D01*
X156012857Y-80971428D01*
X154812857Y-81542857D02*
X154812857Y-80342857D01*
X153612857Y-81542857D02*
X154298571Y-81542857D01*
X153955714Y-81542857D02*
X153955714Y-80342857D01*
X154070000Y-80514285D01*
X154184285Y-80628571D01*
X154298571Y-80685714D01*
X153384285Y-81657142D02*
X152470000Y-81657142D01*
X152184285Y-81542857D02*
X152184285Y-80342857D01*
X151498571Y-81542857D01*
X151498571Y-80342857D01*
X150984285Y-81485714D02*
X150812857Y-81542857D01*
X150527142Y-81542857D01*
X150412857Y-81485714D01*
X150355714Y-81428571D01*
X150298571Y-81314285D01*
X150298571Y-81200000D01*
X150355714Y-81085714D01*
X150412857Y-81028571D01*
X150527142Y-80971428D01*
X150755714Y-80914285D01*
X150870000Y-80857142D01*
X150927142Y-80800000D01*
X150984285Y-80685714D01*
X150984285Y-80571428D01*
X150927142Y-80457142D01*
X150870000Y-80400000D01*
X150755714Y-80342857D01*
X150470000Y-80342857D01*
X150298571Y-80400000D01*
X149841428Y-81485714D02*
X149670000Y-81542857D01*
X149384285Y-81542857D01*
X149270000Y-81485714D01*
X149212857Y-81428571D01*
X149155714Y-81314285D01*
X149155714Y-81200000D01*
X149212857Y-81085714D01*
X149270000Y-81028571D01*
X149384285Y-80971428D01*
X149612857Y-80914285D01*
X149727142Y-80857142D01*
X149784285Y-80800000D01*
X149841428Y-80685714D01*
X149841428Y-80571428D01*
X149784285Y-80457142D01*
X149727142Y-80400000D01*
X149612857Y-80342857D01*
X149327142Y-80342857D01*
X149155714Y-80400000D01*
D11*
X188769619Y-57343809D02*
X188655333Y-57381904D01*
X188464857Y-57381904D01*
X188388666Y-57343809D01*
X188350571Y-57305714D01*
X188312476Y-57229523D01*
X188312476Y-57153333D01*
X188350571Y-57077142D01*
X188388666Y-57039047D01*
X188464857Y-57000952D01*
X188617238Y-56962857D01*
X188693428Y-56924761D01*
X188731523Y-56886666D01*
X188769619Y-56810476D01*
X188769619Y-56734285D01*
X188731523Y-56658095D01*
X188693428Y-56620000D01*
X188617238Y-56581904D01*
X188426761Y-56581904D01*
X188312476Y-56620000D01*
X188083904Y-56581904D02*
X187626761Y-56581904D01*
X187855333Y-57381904D02*
X187855333Y-56581904D01*
X187360095Y-57381904D02*
X187360095Y-56581904D01*
X187093428Y-57153333D01*
X186826761Y-56581904D01*
X186826761Y-57381904D01*
X186522000Y-56581904D02*
X186026761Y-56581904D01*
X186293428Y-56886666D01*
X186179142Y-56886666D01*
X186102952Y-56924761D01*
X186064857Y-56962857D01*
X186026761Y-57039047D01*
X186026761Y-57229523D01*
X186064857Y-57305714D01*
X186102952Y-57343809D01*
X186179142Y-57381904D01*
X186407714Y-57381904D01*
X186483904Y-57343809D01*
X186522000Y-57305714D01*
X185722000Y-56658095D02*
X185683904Y-56620000D01*
X185607714Y-56581904D01*
X185417238Y-56581904D01*
X185341047Y-56620000D01*
X185302952Y-56658095D01*
X185264857Y-56734285D01*
X185264857Y-56810476D01*
X185302952Y-56924761D01*
X185760095Y-57381904D01*
X185264857Y-57381904D01*
X184655333Y-56962857D02*
X184922000Y-56962857D01*
X184922000Y-57381904D02*
X184922000Y-56581904D01*
X184541047Y-56581904D01*
X184083904Y-56581904D02*
X184007714Y-56581904D01*
X183931523Y-56620000D01*
X183893428Y-56658095D01*
X183855333Y-56734285D01*
X183817238Y-56886666D01*
X183817238Y-57077142D01*
X183855333Y-57229523D01*
X183893428Y-57305714D01*
X183931523Y-57343809D01*
X184007714Y-57381904D01*
X184083904Y-57381904D01*
X184160095Y-57343809D01*
X184198190Y-57305714D01*
X184236285Y-57229523D01*
X184274380Y-57077142D01*
X184274380Y-56886666D01*
X184236285Y-56734285D01*
X184198190Y-56658095D01*
X184160095Y-56620000D01*
X184083904Y-56581904D01*
X182598190Y-56962857D02*
X182483904Y-57000952D01*
X182445809Y-57039047D01*
X182407714Y-57115238D01*
X182407714Y-57229523D01*
X182445809Y-57305714D01*
X182483904Y-57343809D01*
X182560095Y-57381904D01*
X182864857Y-57381904D01*
X182864857Y-56581904D01*
X182598190Y-56581904D01*
X182522000Y-56620000D01*
X182483904Y-56658095D01*
X182445809Y-56734285D01*
X182445809Y-56810476D01*
X182483904Y-56886666D01*
X182522000Y-56924761D01*
X182598190Y-56962857D01*
X182864857Y-56962857D01*
X181722000Y-57381904D02*
X181722000Y-56962857D01*
X181760095Y-56886666D01*
X181836285Y-56848571D01*
X181988666Y-56848571D01*
X182064857Y-56886666D01*
X181722000Y-57343809D02*
X181798190Y-57381904D01*
X181988666Y-57381904D01*
X182064857Y-57343809D01*
X182102952Y-57267619D01*
X182102952Y-57191428D01*
X182064857Y-57115238D01*
X181988666Y-57077142D01*
X181798190Y-57077142D01*
X181722000Y-57039047D01*
X181379142Y-57343809D02*
X181302952Y-57381904D01*
X181150571Y-57381904D01*
X181074380Y-57343809D01*
X181036285Y-57267619D01*
X181036285Y-57229523D01*
X181074380Y-57153333D01*
X181150571Y-57115238D01*
X181264857Y-57115238D01*
X181341047Y-57077142D01*
X181379142Y-57000952D01*
X181379142Y-56962857D01*
X181341047Y-56886666D01*
X181264857Y-56848571D01*
X181150571Y-56848571D01*
X181074380Y-56886666D01*
X180693428Y-57381904D02*
X180693428Y-56848571D01*
X180693428Y-56581904D02*
X180731523Y-56620000D01*
X180693428Y-56658095D01*
X180655333Y-56620000D01*
X180693428Y-56581904D01*
X180693428Y-56658095D01*
X179969619Y-57343809D02*
X180045809Y-57381904D01*
X180198190Y-57381904D01*
X180274380Y-57343809D01*
X180312476Y-57305714D01*
X180350571Y-57229523D01*
X180350571Y-57000952D01*
X180312476Y-56924761D01*
X180274380Y-56886666D01*
X180198190Y-56848571D01*
X180045809Y-56848571D01*
X179969619Y-56886666D01*
X178750571Y-56962857D02*
X178636285Y-57000952D01*
X178598190Y-57039047D01*
X178560095Y-57115238D01*
X178560095Y-57229523D01*
X178598190Y-57305714D01*
X178636285Y-57343809D01*
X178712476Y-57381904D01*
X179017238Y-57381904D01*
X179017238Y-56581904D01*
X178750571Y-56581904D01*
X178674380Y-56620000D01*
X178636285Y-56658095D01*
X178598190Y-56734285D01*
X178598190Y-56810476D01*
X178636285Y-56886666D01*
X178674380Y-56924761D01*
X178750571Y-56962857D01*
X179017238Y-56962857D01*
X178217238Y-57381904D02*
X178217238Y-56848571D01*
X178217238Y-57000952D02*
X178179142Y-56924761D01*
X178141047Y-56886666D01*
X178064857Y-56848571D01*
X177988666Y-56848571D01*
X177417238Y-57343809D02*
X177493428Y-57381904D01*
X177645809Y-57381904D01*
X177722000Y-57343809D01*
X177760095Y-57267619D01*
X177760095Y-56962857D01*
X177722000Y-56886666D01*
X177645809Y-56848571D01*
X177493428Y-56848571D01*
X177417238Y-56886666D01*
X177379142Y-56962857D01*
X177379142Y-57039047D01*
X177760095Y-57115238D01*
X176693428Y-57381904D02*
X176693428Y-56962857D01*
X176731523Y-56886666D01*
X176807714Y-56848571D01*
X176960095Y-56848571D01*
X177036285Y-56886666D01*
X176693428Y-57343809D02*
X176769619Y-57381904D01*
X176960095Y-57381904D01*
X177036285Y-57343809D01*
X177074380Y-57267619D01*
X177074380Y-57191428D01*
X177036285Y-57115238D01*
X176960095Y-57077142D01*
X176769619Y-57077142D01*
X176693428Y-57039047D01*
X176312476Y-57381904D02*
X176312476Y-56581904D01*
X176236285Y-57077142D02*
X176007714Y-57381904D01*
X176007714Y-56848571D02*
X176312476Y-57153333D01*
X175550571Y-57381904D02*
X175626761Y-57343809D01*
X175664857Y-57305714D01*
X175702952Y-57229523D01*
X175702952Y-57000952D01*
X175664857Y-56924761D01*
X175626761Y-56886666D01*
X175550571Y-56848571D01*
X175436285Y-56848571D01*
X175360095Y-56886666D01*
X175322000Y-56924761D01*
X175283904Y-57000952D01*
X175283904Y-57229523D01*
X175322000Y-57305714D01*
X175360095Y-57343809D01*
X175436285Y-57381904D01*
X175550571Y-57381904D01*
X174598190Y-56848571D02*
X174598190Y-57381904D01*
X174941047Y-56848571D02*
X174941047Y-57267619D01*
X174902952Y-57343809D01*
X174826761Y-57381904D01*
X174712476Y-57381904D01*
X174636285Y-57343809D01*
X174598190Y-57305714D01*
X174331523Y-56848571D02*
X174026761Y-56848571D01*
X174217238Y-56581904D02*
X174217238Y-57267619D01*
X174179142Y-57343809D01*
X174102952Y-57381904D01*
X174026761Y-57381904D01*
X172883904Y-56962857D02*
X172769619Y-57000952D01*
X172731523Y-57039047D01*
X172693428Y-57115238D01*
X172693428Y-57229523D01*
X172731523Y-57305714D01*
X172769619Y-57343809D01*
X172845809Y-57381904D01*
X173150571Y-57381904D01*
X173150571Y-56581904D01*
X172883904Y-56581904D01*
X172807714Y-56620000D01*
X172769619Y-56658095D01*
X172731523Y-56734285D01*
X172731523Y-56810476D01*
X172769619Y-56886666D01*
X172807714Y-56924761D01*
X172883904Y-56962857D01*
X173150571Y-56962857D01*
X172236285Y-57381904D02*
X172312476Y-57343809D01*
X172350571Y-57305714D01*
X172388666Y-57229523D01*
X172388666Y-57000952D01*
X172350571Y-56924761D01*
X172312476Y-56886666D01*
X172236285Y-56848571D01*
X172122000Y-56848571D01*
X172045809Y-56886666D01*
X172007714Y-56924761D01*
X171969619Y-57000952D01*
X171969619Y-57229523D01*
X172007714Y-57305714D01*
X172045809Y-57343809D01*
X172122000Y-57381904D01*
X172236285Y-57381904D01*
X171283904Y-57381904D02*
X171283904Y-56962857D01*
X171322000Y-56886666D01*
X171398190Y-56848571D01*
X171550571Y-56848571D01*
X171626761Y-56886666D01*
X171283904Y-57343809D02*
X171360095Y-57381904D01*
X171550571Y-57381904D01*
X171626761Y-57343809D01*
X171664857Y-57267619D01*
X171664857Y-57191428D01*
X171626761Y-57115238D01*
X171550571Y-57077142D01*
X171360095Y-57077142D01*
X171283904Y-57039047D01*
X170902952Y-57381904D02*
X170902952Y-56848571D01*
X170902952Y-57000952D02*
X170864857Y-56924761D01*
X170826761Y-56886666D01*
X170750571Y-56848571D01*
X170674380Y-56848571D01*
X170064857Y-57381904D02*
X170064857Y-56581904D01*
X170064857Y-57343809D02*
X170141047Y-57381904D01*
X170293428Y-57381904D01*
X170369619Y-57343809D01*
X170407714Y-57305714D01*
X170445809Y-57229523D01*
X170445809Y-57000952D01*
X170407714Y-56924761D01*
X170369619Y-56886666D01*
X170293428Y-56848571D01*
X170141047Y-56848571D01*
X170064857Y-56886666D01*
X188312476Y-57940000D02*
X188388666Y-57901904D01*
X188502952Y-57901904D01*
X188617238Y-57940000D01*
X188693428Y-58016190D01*
X188731523Y-58092380D01*
X188769619Y-58244761D01*
X188769619Y-58359047D01*
X188731523Y-58511428D01*
X188693428Y-58587619D01*
X188617238Y-58663809D01*
X188502952Y-58701904D01*
X188426761Y-58701904D01*
X188312476Y-58663809D01*
X188274380Y-58625714D01*
X188274380Y-58359047D01*
X188426761Y-58359047D01*
X187931523Y-58625714D02*
X187893428Y-58663809D01*
X187931523Y-58701904D01*
X187969619Y-58663809D01*
X187931523Y-58625714D01*
X187931523Y-58701904D01*
X186941047Y-58701904D02*
X186941047Y-57901904D01*
X186483904Y-58701904D02*
X186826761Y-58244761D01*
X186483904Y-57901904D02*
X186941047Y-58359047D01*
X185836285Y-58663809D02*
X185912476Y-58701904D01*
X186064857Y-58701904D01*
X186141047Y-58663809D01*
X186179142Y-58587619D01*
X186179142Y-58282857D01*
X186141047Y-58206666D01*
X186064857Y-58168571D01*
X185912476Y-58168571D01*
X185836285Y-58206666D01*
X185798190Y-58282857D01*
X185798190Y-58359047D01*
X186179142Y-58435238D01*
X185150571Y-58663809D02*
X185226761Y-58701904D01*
X185379142Y-58701904D01*
X185455333Y-58663809D01*
X185493428Y-58587619D01*
X185493428Y-58282857D01*
X185455333Y-58206666D01*
X185379142Y-58168571D01*
X185226761Y-58168571D01*
X185150571Y-58206666D01*
X185112476Y-58282857D01*
X185112476Y-58359047D01*
X185493428Y-58435238D01*
X184883904Y-58168571D02*
X184579142Y-58168571D01*
X184769619Y-57901904D02*
X184769619Y-58587619D01*
X184731523Y-58663809D01*
X184655333Y-58701904D01*
X184579142Y-58701904D01*
X184312476Y-58701904D02*
X184312476Y-57901904D01*
X183969619Y-58701904D02*
X183969619Y-58282857D01*
X184007714Y-58206666D01*
X184083904Y-58168571D01*
X184198190Y-58168571D01*
X184274380Y-58206666D01*
X184312476Y-58244761D01*
X188769619Y-59298095D02*
X188731523Y-59260000D01*
X188655333Y-59221904D01*
X188464857Y-59221904D01*
X188388666Y-59260000D01*
X188350571Y-59298095D01*
X188312476Y-59374285D01*
X188312476Y-59450476D01*
X188350571Y-59564761D01*
X188807714Y-60021904D01*
X188312476Y-60021904D01*
X187817238Y-59221904D02*
X187741047Y-59221904D01*
X187664857Y-59260000D01*
X187626761Y-59298095D01*
X187588666Y-59374285D01*
X187550571Y-59526666D01*
X187550571Y-59717142D01*
X187588666Y-59869523D01*
X187626761Y-59945714D01*
X187664857Y-59983809D01*
X187741047Y-60021904D01*
X187817238Y-60021904D01*
X187893428Y-59983809D01*
X187931523Y-59945714D01*
X187969619Y-59869523D01*
X188007714Y-59717142D01*
X188007714Y-59526666D01*
X187969619Y-59374285D01*
X187931523Y-59298095D01*
X187893428Y-59260000D01*
X187817238Y-59221904D01*
X186788666Y-60021904D02*
X187245809Y-60021904D01*
X187017238Y-60021904D02*
X187017238Y-59221904D01*
X187093428Y-59336190D01*
X187169619Y-59412380D01*
X187245809Y-59450476D01*
X186407714Y-60021904D02*
X186255333Y-60021904D01*
X186179142Y-59983809D01*
X186141047Y-59945714D01*
X186064857Y-59831428D01*
X186026761Y-59679047D01*
X186026761Y-59374285D01*
X186064857Y-59298095D01*
X186102952Y-59260000D01*
X186179142Y-59221904D01*
X186331523Y-59221904D01*
X186407714Y-59260000D01*
X186445809Y-59298095D01*
X186483904Y-59374285D01*
X186483904Y-59564761D01*
X186445809Y-59640952D01*
X186407714Y-59679047D01*
X186331523Y-59717142D01*
X186179142Y-59717142D01*
X186102952Y-59679047D01*
X186064857Y-59640952D01*
X186026761Y-59564761D01*
X185683904Y-59717142D02*
X185074380Y-59717142D01*
X184274380Y-60021904D02*
X184731523Y-60021904D01*
X184502952Y-60021904D02*
X184502952Y-59221904D01*
X184579142Y-59336190D01*
X184655333Y-59412380D01*
X184731523Y-59450476D01*
X183969619Y-59298095D02*
X183931523Y-59260000D01*
X183855333Y-59221904D01*
X183664857Y-59221904D01*
X183588666Y-59260000D01*
X183550571Y-59298095D01*
X183512476Y-59374285D01*
X183512476Y-59450476D01*
X183550571Y-59564761D01*
X184007714Y-60021904D01*
X183512476Y-60021904D01*
X183169619Y-59717142D02*
X182560095Y-59717142D01*
X181760095Y-60021904D02*
X182217238Y-60021904D01*
X181988666Y-60021904D02*
X181988666Y-59221904D01*
X182064857Y-59336190D01*
X182141047Y-59412380D01*
X182217238Y-59450476D01*
X181074380Y-59488571D02*
X181074380Y-60021904D01*
X181264857Y-59183809D02*
X181455333Y-59755238D01*
X180960095Y-59755238D01*
X188731523Y-61341904D02*
X188731523Y-60541904D01*
X188388666Y-61341904D02*
X188388666Y-60922857D01*
X188426761Y-60846666D01*
X188502952Y-60808571D01*
X188617238Y-60808571D01*
X188693428Y-60846666D01*
X188731523Y-60884761D01*
X188122000Y-60808571D02*
X187817238Y-60808571D01*
X188007714Y-60541904D02*
X188007714Y-61227619D01*
X187969619Y-61303809D01*
X187893428Y-61341904D01*
X187817238Y-61341904D01*
X187664857Y-60808571D02*
X187360095Y-60808571D01*
X187550571Y-60541904D02*
X187550571Y-61227619D01*
X187512476Y-61303809D01*
X187436285Y-61341904D01*
X187360095Y-61341904D01*
X187093428Y-60808571D02*
X187093428Y-61608571D01*
X187093428Y-60846666D02*
X187017238Y-60808571D01*
X186864857Y-60808571D01*
X186788666Y-60846666D01*
X186750571Y-60884761D01*
X186712476Y-60960952D01*
X186712476Y-61189523D01*
X186750571Y-61265714D01*
X186788666Y-61303809D01*
X186864857Y-61341904D01*
X187017238Y-61341904D01*
X187093428Y-61303809D01*
X186407714Y-61303809D02*
X186331523Y-61341904D01*
X186179142Y-61341904D01*
X186102952Y-61303809D01*
X186064857Y-61227619D01*
X186064857Y-61189523D01*
X186102952Y-61113333D01*
X186179142Y-61075238D01*
X186293428Y-61075238D01*
X186369619Y-61037142D01*
X186407714Y-60960952D01*
X186407714Y-60922857D01*
X186369619Y-60846666D01*
X186293428Y-60808571D01*
X186179142Y-60808571D01*
X186102952Y-60846666D01*
X185722000Y-61265714D02*
X185683904Y-61303809D01*
X185722000Y-61341904D01*
X185760095Y-61303809D01*
X185722000Y-61265714D01*
X185722000Y-61341904D01*
X185722000Y-60846666D02*
X185683904Y-60884761D01*
X185722000Y-60922857D01*
X185760095Y-60884761D01*
X185722000Y-60846666D01*
X185722000Y-60922857D01*
X184769619Y-60503809D02*
X185455333Y-61532380D01*
X183931523Y-60503809D02*
X184617238Y-61532380D01*
X183322000Y-60808571D02*
X183322000Y-61456190D01*
X183360095Y-61532380D01*
X183398190Y-61570476D01*
X183474380Y-61608571D01*
X183588666Y-61608571D01*
X183664857Y-61570476D01*
X183322000Y-61303809D02*
X183398190Y-61341904D01*
X183550571Y-61341904D01*
X183626761Y-61303809D01*
X183664857Y-61265714D01*
X183702952Y-61189523D01*
X183702952Y-60960952D01*
X183664857Y-60884761D01*
X183626761Y-60846666D01*
X183550571Y-60808571D01*
X183398190Y-60808571D01*
X183322000Y-60846666D01*
X182941047Y-61341904D02*
X182941047Y-60808571D01*
X182941047Y-60541904D02*
X182979142Y-60580000D01*
X182941047Y-60618095D01*
X182902952Y-60580000D01*
X182941047Y-60541904D01*
X182941047Y-60618095D01*
X182674380Y-60808571D02*
X182369619Y-60808571D01*
X182560095Y-60541904D02*
X182560095Y-61227619D01*
X182522000Y-61303809D01*
X182445809Y-61341904D01*
X182369619Y-61341904D01*
X182102952Y-61341904D02*
X182102952Y-60541904D01*
X181760095Y-61341904D02*
X181760095Y-60922857D01*
X181798190Y-60846666D01*
X181874380Y-60808571D01*
X181988666Y-60808571D01*
X182064857Y-60846666D01*
X182102952Y-60884761D01*
X181036285Y-60808571D02*
X181036285Y-61341904D01*
X181379142Y-60808571D02*
X181379142Y-61227619D01*
X181341047Y-61303809D01*
X181264857Y-61341904D01*
X181150571Y-61341904D01*
X181074380Y-61303809D01*
X181036285Y-61265714D01*
X180655333Y-61341904D02*
X180655333Y-60541904D01*
X180655333Y-60846666D02*
X180579142Y-60808571D01*
X180426761Y-60808571D01*
X180350571Y-60846666D01*
X180312476Y-60884761D01*
X180274380Y-60960952D01*
X180274380Y-61189523D01*
X180312476Y-61265714D01*
X180350571Y-61303809D01*
X180426761Y-61341904D01*
X180579142Y-61341904D01*
X180655333Y-61303809D01*
X179931523Y-61265714D02*
X179893428Y-61303809D01*
X179931523Y-61341904D01*
X179969619Y-61303809D01*
X179931523Y-61265714D01*
X179931523Y-61341904D01*
X179207714Y-61303809D02*
X179283904Y-61341904D01*
X179436285Y-61341904D01*
X179512476Y-61303809D01*
X179550571Y-61265714D01*
X179588666Y-61189523D01*
X179588666Y-60960952D01*
X179550571Y-60884761D01*
X179512476Y-60846666D01*
X179436285Y-60808571D01*
X179283904Y-60808571D01*
X179207714Y-60846666D01*
X178750571Y-61341904D02*
X178826761Y-61303809D01*
X178864857Y-61265714D01*
X178902952Y-61189523D01*
X178902952Y-60960952D01*
X178864857Y-60884761D01*
X178826761Y-60846666D01*
X178750571Y-60808571D01*
X178636285Y-60808571D01*
X178560095Y-60846666D01*
X178522000Y-60884761D01*
X178483904Y-60960952D01*
X178483904Y-61189523D01*
X178522000Y-61265714D01*
X178560095Y-61303809D01*
X178636285Y-61341904D01*
X178750571Y-61341904D01*
X178141047Y-61341904D02*
X178141047Y-60808571D01*
X178141047Y-60884761D02*
X178102952Y-60846666D01*
X178026761Y-60808571D01*
X177912476Y-60808571D01*
X177836285Y-60846666D01*
X177798190Y-60922857D01*
X177798190Y-61341904D01*
X177798190Y-60922857D02*
X177760095Y-60846666D01*
X177683904Y-60808571D01*
X177569619Y-60808571D01*
X177493428Y-60846666D01*
X177455333Y-60922857D01*
X177455333Y-61341904D01*
X176502952Y-60503809D02*
X177188666Y-61532380D01*
X175893428Y-60808571D02*
X175893428Y-61456190D01*
X175931523Y-61532380D01*
X175969619Y-61570476D01*
X176045809Y-61608571D01*
X176160095Y-61608571D01*
X176236285Y-61570476D01*
X175893428Y-61303809D02*
X175969619Y-61341904D01*
X176122000Y-61341904D01*
X176198190Y-61303809D01*
X176236285Y-61265714D01*
X176274380Y-61189523D01*
X176274380Y-60960952D01*
X176236285Y-60884761D01*
X176198190Y-60846666D01*
X176122000Y-60808571D01*
X175969619Y-60808571D01*
X175893428Y-60846666D01*
X175512476Y-61341904D02*
X175512476Y-60541904D01*
X175436285Y-61037142D02*
X175207714Y-61341904D01*
X175207714Y-60808571D02*
X175512476Y-61113333D01*
X174560095Y-61303809D02*
X174636285Y-61341904D01*
X174788666Y-61341904D01*
X174864857Y-61303809D01*
X174902952Y-61227619D01*
X174902952Y-60922857D01*
X174864857Y-60846666D01*
X174788666Y-60808571D01*
X174636285Y-60808571D01*
X174560095Y-60846666D01*
X174522000Y-60922857D01*
X174522000Y-60999047D01*
X174902952Y-61075238D01*
X173874380Y-61303809D02*
X173950571Y-61341904D01*
X174102952Y-61341904D01*
X174179142Y-61303809D01*
X174217238Y-61227619D01*
X174217238Y-60922857D01*
X174179142Y-60846666D01*
X174102952Y-60808571D01*
X173950571Y-60808571D01*
X173874380Y-60846666D01*
X173836285Y-60922857D01*
X173836285Y-60999047D01*
X174217238Y-61075238D01*
X173607714Y-60808571D02*
X173302952Y-60808571D01*
X173493428Y-60541904D02*
X173493428Y-61227619D01*
X173455333Y-61303809D01*
X173379142Y-61341904D01*
X173302952Y-61341904D01*
X173036285Y-61341904D02*
X173036285Y-60541904D01*
X172693428Y-61341904D02*
X172693428Y-60922857D01*
X172731523Y-60846666D01*
X172807714Y-60808571D01*
X172922000Y-60808571D01*
X172998190Y-60846666D01*
X173036285Y-60884761D01*
X171741047Y-60503809D02*
X172426761Y-61532380D01*
X171512476Y-61303809D02*
X171436285Y-61341904D01*
X171283904Y-61341904D01*
X171207714Y-61303809D01*
X171169619Y-61227619D01*
X171169619Y-61189523D01*
X171207714Y-61113333D01*
X171283904Y-61075238D01*
X171398190Y-61075238D01*
X171474380Y-61037142D01*
X171512476Y-60960952D01*
X171512476Y-60922857D01*
X171474380Y-60846666D01*
X171398190Y-60808571D01*
X171283904Y-60808571D01*
X171207714Y-60846666D01*
X170941047Y-60808571D02*
X170636285Y-60808571D01*
X170826761Y-60541904D02*
X170826761Y-61227619D01*
X170788666Y-61303809D01*
X170712476Y-61341904D01*
X170636285Y-61341904D01*
X170369619Y-61341904D02*
X170369619Y-60808571D01*
X170369619Y-60884761D02*
X170331523Y-60846666D01*
X170255333Y-60808571D01*
X170141047Y-60808571D01*
X170064857Y-60846666D01*
X170026761Y-60922857D01*
X170026761Y-61341904D01*
X170026761Y-60922857D02*
X169988666Y-60846666D01*
X169912476Y-60808571D01*
X169798190Y-60808571D01*
X169722000Y-60846666D01*
X169683904Y-60922857D01*
X169683904Y-61341904D01*
X169379142Y-60541904D02*
X168883904Y-60541904D01*
X169150571Y-60846666D01*
X169036285Y-60846666D01*
X168960095Y-60884761D01*
X168922000Y-60922857D01*
X168883904Y-60999047D01*
X168883904Y-61189523D01*
X168922000Y-61265714D01*
X168960095Y-61303809D01*
X169036285Y-61341904D01*
X169264857Y-61341904D01*
X169341047Y-61303809D01*
X169379142Y-61265714D01*
X168579142Y-60618095D02*
X168541047Y-60580000D01*
X168464857Y-60541904D01*
X168274380Y-60541904D01*
X168198190Y-60580000D01*
X168160095Y-60618095D01*
X168122000Y-60694285D01*
X168122000Y-60770476D01*
X168160095Y-60884761D01*
X168617238Y-61341904D01*
X168122000Y-61341904D01*
X167969619Y-61418095D02*
X167360095Y-61418095D01*
X167283904Y-60808571D02*
X166979142Y-60808571D01*
X167169619Y-61341904D02*
X167169619Y-60656190D01*
X167131523Y-60580000D01*
X167055333Y-60541904D01*
X166979142Y-60541904D01*
X166560095Y-60541904D02*
X166483904Y-60541904D01*
X166407714Y-60580000D01*
X166369619Y-60618095D01*
X166331523Y-60694285D01*
X166293428Y-60846666D01*
X166293428Y-61037142D01*
X166331523Y-61189523D01*
X166369619Y-61265714D01*
X166407714Y-61303809D01*
X166483904Y-61341904D01*
X166560095Y-61341904D01*
X166636285Y-61303809D01*
X166674380Y-61265714D01*
X166712476Y-61189523D01*
X166750571Y-61037142D01*
X166750571Y-60846666D01*
X166712476Y-60694285D01*
X166674380Y-60618095D01*
X166636285Y-60580000D01*
X166560095Y-60541904D01*
X166141047Y-61418095D02*
X165531523Y-61418095D01*
X165341047Y-61341904D02*
X165341047Y-60541904D01*
X165341047Y-60846666D02*
X165264857Y-60808571D01*
X165112476Y-60808571D01*
X165036285Y-60846666D01*
X164998190Y-60884761D01*
X164960095Y-60960952D01*
X164960095Y-61189523D01*
X164998190Y-61265714D01*
X165036285Y-61303809D01*
X165112476Y-61341904D01*
X165264857Y-61341904D01*
X165341047Y-61303809D01*
X164274380Y-61341904D02*
X164274380Y-60922857D01*
X164312476Y-60846666D01*
X164388666Y-60808571D01*
X164541047Y-60808571D01*
X164617238Y-60846666D01*
X164274380Y-61303809D02*
X164350571Y-61341904D01*
X164541047Y-61341904D01*
X164617238Y-61303809D01*
X164655333Y-61227619D01*
X164655333Y-61151428D01*
X164617238Y-61075238D01*
X164541047Y-61037142D01*
X164350571Y-61037142D01*
X164274380Y-60999047D01*
X163931523Y-61303809D02*
X163855333Y-61341904D01*
X163702952Y-61341904D01*
X163626761Y-61303809D01*
X163588666Y-61227619D01*
X163588666Y-61189523D01*
X163626761Y-61113333D01*
X163702952Y-61075238D01*
X163817238Y-61075238D01*
X163893428Y-61037142D01*
X163931523Y-60960952D01*
X163931523Y-60922857D01*
X163893428Y-60846666D01*
X163817238Y-60808571D01*
X163702952Y-60808571D01*
X163626761Y-60846666D01*
X163245809Y-61341904D02*
X163245809Y-60808571D01*
X163245809Y-60541904D02*
X163283904Y-60580000D01*
X163245809Y-60618095D01*
X163207714Y-60580000D01*
X163245809Y-60541904D01*
X163245809Y-60618095D01*
X162522000Y-61303809D02*
X162598190Y-61341904D01*
X162750571Y-61341904D01*
X162826761Y-61303809D01*
X162864857Y-61265714D01*
X162902952Y-61189523D01*
X162902952Y-60960952D01*
X162864857Y-60884761D01*
X162826761Y-60846666D01*
X162750571Y-60808571D01*
X162598190Y-60808571D01*
X162522000Y-60846666D01*
D12*
G36*
X129771177Y-86274533D02*
G01*
X129739798Y-86296776D01*
X129712089Y-86324485D01*
X129712089Y-86633920D01*
X129712162Y-86725799D01*
X129712505Y-86797840D01*
X129713308Y-86852780D01*
X129714759Y-86893360D01*
X129717048Y-86922317D01*
X129720364Y-86942391D01*
X129724895Y-86956321D01*
X129730831Y-86966845D01*
X129735486Y-86973100D01*
X129766217Y-86997673D01*
X129801504Y-87000341D01*
X129833755Y-86985271D01*
X129844412Y-86976374D01*
X129851536Y-86964557D01*
X129855833Y-86945526D01*
X129858009Y-86914992D01*
X129858772Y-86868662D01*
X129858845Y-86832871D01*
X129858845Y-86698045D01*
X130355556Y-86698045D01*
X130355556Y-86820700D01*
X130356069Y-86876787D01*
X130358124Y-86915333D01*
X130362492Y-86941361D01*
X130369944Y-86959897D01*
X130378953Y-86973100D01*
X130409856Y-86997604D01*
X130444804Y-87000506D01*
X130478262Y-86983089D01*
X130487396Y-86973959D01*
X130493848Y-86961855D01*
X130498103Y-86943001D01*
X130500648Y-86913620D01*
X130501971Y-86869937D01*
X130502557Y-86808175D01*
X130502625Y-86794000D01*
X130503109Y-86677631D01*
X130503359Y-86581727D01*
X130503277Y-86504177D01*
X130502769Y-86442869D01*
X130501738Y-86395690D01*
X130500087Y-86360530D01*
X130497721Y-86335276D01*
X130494543Y-86317817D01*
X130490456Y-86306041D01*
X130485366Y-86297835D01*
X130479734Y-86291645D01*
X130447872Y-86271844D01*
X130414643Y-86274533D01*
X130383265Y-86296776D01*
X130370567Y-86311126D01*
X130362474Y-86326978D01*
X130357958Y-86349554D01*
X130355994Y-86384078D01*
X130355556Y-86435776D01*
X130355556Y-86551289D01*
X129858845Y-86551289D01*
X129858845Y-86432756D01*
X129858338Y-86378148D01*
X129856302Y-86341275D01*
X129851965Y-86317307D01*
X129844553Y-86301415D01*
X129836267Y-86291645D01*
X129804406Y-86271844D01*
X129771177Y-86274533D01*
G37*
X129771177Y-86274533D02*
X129739798Y-86296776D01*
X129712089Y-86324485D01*
X129712089Y-86633920D01*
X129712162Y-86725799D01*
X129712505Y-86797840D01*
X129713308Y-86852780D01*
X129714759Y-86893360D01*
X129717048Y-86922317D01*
X129720364Y-86942391D01*
X129724895Y-86956321D01*
X129730831Y-86966845D01*
X129735486Y-86973100D01*
X129766217Y-86997673D01*
X129801504Y-87000341D01*
X129833755Y-86985271D01*
X129844412Y-86976374D01*
X129851536Y-86964557D01*
X129855833Y-86945526D01*
X129858009Y-86914992D01*
X129858772Y-86868662D01*
X129858845Y-86832871D01*
X129858845Y-86698045D01*
X130355556Y-86698045D01*
X130355556Y-86820700D01*
X130356069Y-86876787D01*
X130358124Y-86915333D01*
X130362492Y-86941361D01*
X130369944Y-86959897D01*
X130378953Y-86973100D01*
X130409856Y-86997604D01*
X130444804Y-87000506D01*
X130478262Y-86983089D01*
X130487396Y-86973959D01*
X130493848Y-86961855D01*
X130498103Y-86943001D01*
X130500648Y-86913620D01*
X130501971Y-86869937D01*
X130502557Y-86808175D01*
X130502625Y-86794000D01*
X130503109Y-86677631D01*
X130503359Y-86581727D01*
X130503277Y-86504177D01*
X130502769Y-86442869D01*
X130501738Y-86395690D01*
X130500087Y-86360530D01*
X130497721Y-86335276D01*
X130494543Y-86317817D01*
X130490456Y-86306041D01*
X130485366Y-86297835D01*
X130479734Y-86291645D01*
X130447872Y-86271844D01*
X130414643Y-86274533D01*
X130383265Y-86296776D01*
X130370567Y-86311126D01*
X130362474Y-86326978D01*
X130357958Y-86349554D01*
X130355994Y-86384078D01*
X130355556Y-86435776D01*
X130355556Y-86551289D01*
X129858845Y-86551289D01*
X129858845Y-86432756D01*
X129858338Y-86378148D01*
X129856302Y-86341275D01*
X129851965Y-86317307D01*
X129844553Y-86301415D01*
X129836267Y-86291645D01*
X129804406Y-86271844D01*
X129771177Y-86274533D01*
G36*
X131036935Y-86269163D02*
G01*
X130958228Y-86269542D01*
X130897137Y-86270333D01*
X130851183Y-86271670D01*
X130817886Y-86273683D01*
X130794764Y-86276506D01*
X130779338Y-86280269D01*
X130769129Y-86285105D01*
X130764187Y-86288822D01*
X130738543Y-86321358D01*
X130735441Y-86355138D01*
X130751289Y-86385826D01*
X130761652Y-86398089D01*
X130772804Y-86406450D01*
X130788965Y-86411657D01*
X130814358Y-86414457D01*
X130853202Y-86415596D01*
X130909720Y-86415821D01*
X130920820Y-86415822D01*
X131066756Y-86415822D01*
X131066756Y-86686756D01*
X131066852Y-86772154D01*
X131067289Y-86837864D01*
X131068288Y-86886774D01*
X131070072Y-86921773D01*
X131072863Y-86945749D01*
X131076883Y-86961593D01*
X131082355Y-86972191D01*
X131089334Y-86980267D01*
X131122266Y-87000112D01*
X131156646Y-86998548D01*
X131187824Y-86975906D01*
X131190114Y-86973100D01*
X131197571Y-86962492D01*
X131203253Y-86950081D01*
X131207399Y-86932850D01*
X131210250Y-86907784D01*
X131212046Y-86871867D01*
X131213028Y-86822083D01*
X131213436Y-86755417D01*
X131213511Y-86679589D01*
X131213511Y-86415822D01*
X131352873Y-86415822D01*
X131412678Y-86415418D01*
X131454082Y-86413840D01*
X131481252Y-86410547D01*
X131498354Y-86404992D01*
X131509557Y-86396631D01*
X131510917Y-86395178D01*
X131527275Y-86361939D01*
X131525828Y-86324362D01*
X131507022Y-86291645D01*
X131499750Y-86285298D01*
X131490373Y-86280266D01*
X131476391Y-86276396D01*
X131455304Y-86273537D01*
X131424611Y-86271535D01*
X131381811Y-86270239D01*
X131324405Y-86269498D01*
X131249890Y-86269158D01*
X131155767Y-86269068D01*
X131135740Y-86269067D01*
X131036935Y-86269163D01*
G37*
X131036935Y-86269163D02*
X130958228Y-86269542D01*
X130897137Y-86270333D01*
X130851183Y-86271670D01*
X130817886Y-86273683D01*
X130794764Y-86276506D01*
X130779338Y-86280269D01*
X130769129Y-86285105D01*
X130764187Y-86288822D01*
X130738543Y-86321358D01*
X130735441Y-86355138D01*
X130751289Y-86385826D01*
X130761652Y-86398089D01*
X130772804Y-86406450D01*
X130788965Y-86411657D01*
X130814358Y-86414457D01*
X130853202Y-86415596D01*
X130909720Y-86415821D01*
X130920820Y-86415822D01*
X131066756Y-86415822D01*
X131066756Y-86686756D01*
X131066852Y-86772154D01*
X131067289Y-86837864D01*
X131068288Y-86886774D01*
X131070072Y-86921773D01*
X131072863Y-86945749D01*
X131076883Y-86961593D01*
X131082355Y-86972191D01*
X131089334Y-86980267D01*
X131122266Y-87000112D01*
X131156646Y-86998548D01*
X131187824Y-86975906D01*
X131190114Y-86973100D01*
X131197571Y-86962492D01*
X131203253Y-86950081D01*
X131207399Y-86932850D01*
X131210250Y-86907784D01*
X131212046Y-86871867D01*
X131213028Y-86822083D01*
X131213436Y-86755417D01*
X131213511Y-86679589D01*
X131213511Y-86415822D01*
X131352873Y-86415822D01*
X131412678Y-86415418D01*
X131454082Y-86413840D01*
X131481252Y-86410547D01*
X131498354Y-86404992D01*
X131509557Y-86396631D01*
X131510917Y-86395178D01*
X131527275Y-86361939D01*
X131525828Y-86324362D01*
X131507022Y-86291645D01*
X131499750Y-86285298D01*
X131490373Y-86280266D01*
X131476391Y-86276396D01*
X131455304Y-86273537D01*
X131424611Y-86271535D01*
X131381811Y-86270239D01*
X131324405Y-86269498D01*
X131249890Y-86269158D01*
X131155767Y-86269068D01*
X131135740Y-86269067D01*
X131036935Y-86269163D01*
G36*
X131811386Y-86275877D02*
G01*
X131787673Y-86290647D01*
X131761022Y-86312227D01*
X131761022Y-86633773D01*
X131761107Y-86727830D01*
X131761471Y-86801932D01*
X131762276Y-86858704D01*
X131763687Y-86900768D01*
X131765867Y-86930748D01*
X131768979Y-86951267D01*
X131773186Y-86964949D01*
X131778652Y-86974416D01*
X131782528Y-86979082D01*
X131813966Y-86999575D01*
X131849767Y-86998739D01*
X131881127Y-86981264D01*
X131907778Y-86959684D01*
X131907778Y-86312227D01*
X131881127Y-86290647D01*
X131855406Y-86274949D01*
X131834400Y-86269067D01*
X131811386Y-86275877D01*
G37*
X131811386Y-86275877D02*
X131787673Y-86290647D01*
X131761022Y-86312227D01*
X131761022Y-86633773D01*
X131761107Y-86727830D01*
X131761471Y-86801932D01*
X131762276Y-86858704D01*
X131763687Y-86900768D01*
X131765867Y-86930748D01*
X131768979Y-86951267D01*
X131773186Y-86964949D01*
X131778652Y-86974416D01*
X131782528Y-86979082D01*
X131813966Y-86999575D01*
X131849767Y-86998739D01*
X131881127Y-86981264D01*
X131907778Y-86959684D01*
X131907778Y-86312227D01*
X131881127Y-86290647D01*
X131855406Y-86274949D01*
X131834400Y-86269067D01*
X131811386Y-86275877D01*
G36*
X132255335Y-86271034D02*
G01*
X132235745Y-86278035D01*
X132234990Y-86278377D01*
X132208387Y-86298678D01*
X132193730Y-86319561D01*
X132190862Y-86329352D01*
X132191004Y-86342361D01*
X132195039Y-86360895D01*
X132203854Y-86387257D01*
X132218331Y-86423752D01*
X132239355Y-86472687D01*
X132267812Y-86536365D01*
X132304585Y-86617093D01*
X132324825Y-86661216D01*
X132361375Y-86739985D01*
X132395685Y-86812423D01*
X132426448Y-86875880D01*
X132452352Y-86927708D01*
X132472090Y-86965259D01*
X132484350Y-86985884D01*
X132486776Y-86988733D01*
X132517817Y-87001302D01*
X132552879Y-86999619D01*
X132581000Y-86984332D01*
X132582146Y-86983089D01*
X132593332Y-86966154D01*
X132612096Y-86933170D01*
X132636125Y-86888380D01*
X132663103Y-86836032D01*
X132672799Y-86816742D01*
X132745986Y-86670150D01*
X132825760Y-86829393D01*
X132854233Y-86884415D01*
X132880650Y-86932132D01*
X132902852Y-86968893D01*
X132918681Y-86991044D01*
X132924046Y-86995741D01*
X132965743Y-87002102D01*
X133000151Y-86988733D01*
X133010272Y-86974446D01*
X133027786Y-86942692D01*
X133051265Y-86896597D01*
X133079280Y-86839285D01*
X133110401Y-86773880D01*
X133143201Y-86703507D01*
X133176250Y-86631291D01*
X133208119Y-86560355D01*
X133237381Y-86493825D01*
X133262605Y-86434826D01*
X133282364Y-86386481D01*
X133295228Y-86351915D01*
X133299769Y-86334253D01*
X133299723Y-86333613D01*
X133288674Y-86311388D01*
X133266590Y-86288753D01*
X133265290Y-86287768D01*
X133238147Y-86272425D01*
X133213042Y-86272574D01*
X133203632Y-86275466D01*
X133192166Y-86281718D01*
X133179990Y-86294014D01*
X133165643Y-86314908D01*
X133147664Y-86346949D01*
X133124593Y-86392688D01*
X133094970Y-86454677D01*
X133068255Y-86511898D01*
X133037520Y-86578226D01*
X133009979Y-86637874D01*
X132987062Y-86687725D01*
X132970202Y-86724664D01*
X132960827Y-86745573D01*
X132959460Y-86748845D01*
X132953311Y-86743497D01*
X132939178Y-86721109D01*
X132918943Y-86684946D01*
X132894485Y-86638277D01*
X132884752Y-86619022D01*
X132851783Y-86554004D01*
X132826357Y-86506654D01*
X132806388Y-86474219D01*
X132789790Y-86453946D01*
X132774476Y-86443082D01*
X132758360Y-86438875D01*
X132747857Y-86438400D01*
X132729330Y-86440042D01*
X132713096Y-86446831D01*
X132696965Y-86461566D01*
X132678749Y-86487044D01*
X132656261Y-86526061D01*
X132627311Y-86581414D01*
X132611338Y-86612903D01*
X132585430Y-86663087D01*
X132562833Y-86704704D01*
X132545542Y-86734242D01*
X132535550Y-86748189D01*
X132534191Y-86748770D01*
X132527739Y-86737793D01*
X132513292Y-86709290D01*
X132492297Y-86666244D01*
X132466203Y-86611638D01*
X132436454Y-86548454D01*
X132421820Y-86517071D01*
X132383750Y-86436078D01*
X132353095Y-86373756D01*
X132328263Y-86328071D01*
X132307663Y-86296989D01*
X132289702Y-86278478D01*
X132272790Y-86270504D01*
X132255335Y-86271034D01*
G37*
X132255335Y-86271034D02*
X132235745Y-86278035D01*
X132234990Y-86278377D01*
X132208387Y-86298678D01*
X132193730Y-86319561D01*
X132190862Y-86329352D01*
X132191004Y-86342361D01*
X132195039Y-86360895D01*
X132203854Y-86387257D01*
X132218331Y-86423752D01*
X132239355Y-86472687D01*
X132267812Y-86536365D01*
X132304585Y-86617093D01*
X132324825Y-86661216D01*
X132361375Y-86739985D01*
X132395685Y-86812423D01*
X132426448Y-86875880D01*
X132452352Y-86927708D01*
X132472090Y-86965259D01*
X132484350Y-86985884D01*
X132486776Y-86988733D01*
X132517817Y-87001302D01*
X132552879Y-86999619D01*
X132581000Y-86984332D01*
X132582146Y-86983089D01*
X132593332Y-86966154D01*
X132612096Y-86933170D01*
X132636125Y-86888380D01*
X132663103Y-86836032D01*
X132672799Y-86816742D01*
X132745986Y-86670150D01*
X132825760Y-86829393D01*
X132854233Y-86884415D01*
X132880650Y-86932132D01*
X132902852Y-86968893D01*
X132918681Y-86991044D01*
X132924046Y-86995741D01*
X132965743Y-87002102D01*
X133000151Y-86988733D01*
X133010272Y-86974446D01*
X133027786Y-86942692D01*
X133051265Y-86896597D01*
X133079280Y-86839285D01*
X133110401Y-86773880D01*
X133143201Y-86703507D01*
X133176250Y-86631291D01*
X133208119Y-86560355D01*
X133237381Y-86493825D01*
X133262605Y-86434826D01*
X133282364Y-86386481D01*
X133295228Y-86351915D01*
X133299769Y-86334253D01*
X133299723Y-86333613D01*
X133288674Y-86311388D01*
X133266590Y-86288753D01*
X133265290Y-86287768D01*
X133238147Y-86272425D01*
X133213042Y-86272574D01*
X133203632Y-86275466D01*
X133192166Y-86281718D01*
X133179990Y-86294014D01*
X133165643Y-86314908D01*
X133147664Y-86346949D01*
X133124593Y-86392688D01*
X133094970Y-86454677D01*
X133068255Y-86511898D01*
X133037520Y-86578226D01*
X133009979Y-86637874D01*
X132987062Y-86687725D01*
X132970202Y-86724664D01*
X132960827Y-86745573D01*
X132959460Y-86748845D01*
X132953311Y-86743497D01*
X132939178Y-86721109D01*
X132918943Y-86684946D01*
X132894485Y-86638277D01*
X132884752Y-86619022D01*
X132851783Y-86554004D01*
X132826357Y-86506654D01*
X132806388Y-86474219D01*
X132789790Y-86453946D01*
X132774476Y-86443082D01*
X132758360Y-86438875D01*
X132747857Y-86438400D01*
X132729330Y-86440042D01*
X132713096Y-86446831D01*
X132696965Y-86461566D01*
X132678749Y-86487044D01*
X132656261Y-86526061D01*
X132627311Y-86581414D01*
X132611338Y-86612903D01*
X132585430Y-86663087D01*
X132562833Y-86704704D01*
X132545542Y-86734242D01*
X132535550Y-86748189D01*
X132534191Y-86748770D01*
X132527739Y-86737793D01*
X132513292Y-86709290D01*
X132492297Y-86666244D01*
X132466203Y-86611638D01*
X132436454Y-86548454D01*
X132421820Y-86517071D01*
X132383750Y-86436078D01*
X132353095Y-86373756D01*
X132328263Y-86328071D01*
X132307663Y-86296989D01*
X132289702Y-86278478D01*
X132272790Y-86270504D01*
X132255335Y-86271034D01*
G36*
X134981691Y-86269275D02*
G01*
X134852712Y-86273636D01*
X134743009Y-86286861D01*
X134650774Y-86309741D01*
X134574198Y-86343070D01*
X134511473Y-86387638D01*
X134460788Y-86444236D01*
X134420337Y-86513658D01*
X134419541Y-86515351D01*
X134395399Y-86577483D01*
X134386797Y-86632509D01*
X134393769Y-86687887D01*
X134416346Y-86751073D01*
X134420628Y-86760689D01*
X134449828Y-86816966D01*
X134482644Y-86860451D01*
X134524998Y-86897417D01*
X134582810Y-86934135D01*
X134586169Y-86936052D01*
X134636496Y-86960227D01*
X134693379Y-86978282D01*
X134760473Y-86990839D01*
X134841435Y-86998522D01*
X134939918Y-87001953D01*
X134974714Y-87002251D01*
X135140406Y-87002845D01*
X135163803Y-86973100D01*
X135170743Y-86963319D01*
X135176158Y-86951897D01*
X135180235Y-86936095D01*
X135183163Y-86913175D01*
X135185133Y-86880396D01*
X135185775Y-86856089D01*
X135029156Y-86856089D01*
X134935274Y-86856089D01*
X134880336Y-86854483D01*
X134823940Y-86850255D01*
X134777655Y-86844292D01*
X134774861Y-86843790D01*
X134692652Y-86821736D01*
X134628886Y-86788600D01*
X134581548Y-86742847D01*
X134548618Y-86682939D01*
X134542892Y-86667061D01*
X134537279Y-86642333D01*
X134539709Y-86617902D01*
X134551533Y-86585400D01*
X134558660Y-86569434D01*
X134582000Y-86527006D01*
X134610120Y-86497240D01*
X134641060Y-86476511D01*
X134703034Y-86449537D01*
X134782349Y-86429998D01*
X134874747Y-86418746D01*
X134941667Y-86416270D01*
X135029156Y-86415822D01*
X135029156Y-86856089D01*
X135185775Y-86856089D01*
X135186332Y-86835021D01*
X135186950Y-86774311D01*
X135187175Y-86695526D01*
X135187200Y-86633920D01*
X135187200Y-86324485D01*
X135159491Y-86296776D01*
X135147194Y-86285544D01*
X135133897Y-86277853D01*
X135115328Y-86273040D01*
X135087214Y-86270446D01*
X135045283Y-86269410D01*
X134985263Y-86269270D01*
X134981691Y-86269275D01*
G37*
X134981691Y-86269275D02*
X134852712Y-86273636D01*
X134743009Y-86286861D01*
X134650774Y-86309741D01*
X134574198Y-86343070D01*
X134511473Y-86387638D01*
X134460788Y-86444236D01*
X134420337Y-86513658D01*
X134419541Y-86515351D01*
X134395399Y-86577483D01*
X134386797Y-86632509D01*
X134393769Y-86687887D01*
X134416346Y-86751073D01*
X134420628Y-86760689D01*
X134449828Y-86816966D01*
X134482644Y-86860451D01*
X134524998Y-86897417D01*
X134582810Y-86934135D01*
X134586169Y-86936052D01*
X134636496Y-86960227D01*
X134693379Y-86978282D01*
X134760473Y-86990839D01*
X134841435Y-86998522D01*
X134939918Y-87001953D01*
X134974714Y-87002251D01*
X135140406Y-87002845D01*
X135163803Y-86973100D01*
X135170743Y-86963319D01*
X135176158Y-86951897D01*
X135180235Y-86936095D01*
X135183163Y-86913175D01*
X135185133Y-86880396D01*
X135185775Y-86856089D01*
X135029156Y-86856089D01*
X134935274Y-86856089D01*
X134880336Y-86854483D01*
X134823940Y-86850255D01*
X134777655Y-86844292D01*
X134774861Y-86843790D01*
X134692652Y-86821736D01*
X134628886Y-86788600D01*
X134581548Y-86742847D01*
X134548618Y-86682939D01*
X134542892Y-86667061D01*
X134537279Y-86642333D01*
X134539709Y-86617902D01*
X134551533Y-86585400D01*
X134558660Y-86569434D01*
X134582000Y-86527006D01*
X134610120Y-86497240D01*
X134641060Y-86476511D01*
X134703034Y-86449537D01*
X134782349Y-86429998D01*
X134874747Y-86418746D01*
X134941667Y-86416270D01*
X135029156Y-86415822D01*
X135029156Y-86856089D01*
X135185775Y-86856089D01*
X135186332Y-86835021D01*
X135186950Y-86774311D01*
X135187175Y-86695526D01*
X135187200Y-86633920D01*
X135187200Y-86324485D01*
X135159491Y-86296776D01*
X135147194Y-86285544D01*
X135133897Y-86277853D01*
X135115328Y-86273040D01*
X135087214Y-86270446D01*
X135045283Y-86269410D01*
X134985263Y-86269270D01*
X134981691Y-86269275D01*
G36*
X135769657Y-86269260D02*
G01*
X135693299Y-86270174D01*
X135634783Y-86272311D01*
X135591745Y-86276175D01*
X135561817Y-86282267D01*
X135542632Y-86291090D01*
X135531824Y-86303146D01*
X135527027Y-86318939D01*
X135525873Y-86338970D01*
X135525867Y-86341335D01*
X135526869Y-86363992D01*
X135531604Y-86381503D01*
X135542667Y-86394574D01*
X135562652Y-86403913D01*
X135594154Y-86410227D01*
X135639768Y-86414222D01*
X135702087Y-86416606D01*
X135783707Y-86418086D01*
X135808723Y-86418414D01*
X136050800Y-86421467D01*
X136054186Y-86486378D01*
X136057571Y-86551289D01*
X135889424Y-86551289D01*
X135823734Y-86551531D01*
X135776828Y-86552556D01*
X135744917Y-86554811D01*
X135724209Y-86558742D01*
X135710916Y-86564798D01*
X135701245Y-86573424D01*
X135701183Y-86573493D01*
X135683644Y-86607112D01*
X135684278Y-86643448D01*
X135702686Y-86674423D01*
X135706329Y-86677607D01*
X135719259Y-86685812D01*
X135736976Y-86691521D01*
X135763430Y-86695162D01*
X135802568Y-86697167D01*
X135858338Y-86697964D01*
X135894006Y-86698045D01*
X136056445Y-86698045D01*
X136056445Y-86856089D01*
X135809839Y-86856089D01*
X135728420Y-86856231D01*
X135666590Y-86856814D01*
X135621363Y-86858068D01*
X135589752Y-86860227D01*
X135568769Y-86863523D01*
X135555427Y-86868189D01*
X135546739Y-86874457D01*
X135544550Y-86876733D01*
X135528386Y-86908280D01*
X135527203Y-86944168D01*
X135540464Y-86975285D01*
X135550957Y-86985271D01*
X135561871Y-86990769D01*
X135578783Y-86995022D01*
X135604367Y-86998180D01*
X135641299Y-87000392D01*
X135692254Y-87001806D01*
X135759906Y-87002572D01*
X135846931Y-87002838D01*
X135866606Y-87002845D01*
X135955089Y-87002787D01*
X136023773Y-87002467D01*
X136075436Y-87001667D01*
X136112855Y-87000167D01*
X136138810Y-86997749D01*
X136156078Y-86994194D01*
X136167438Y-86989282D01*
X136175668Y-86982795D01*
X136180183Y-86978138D01*
X136186979Y-86969889D01*
X136192288Y-86959669D01*
X136196294Y-86944800D01*
X136199179Y-86922602D01*
X136201126Y-86890393D01*
X136202319Y-86845496D01*
X136202939Y-86785228D01*
X136203171Y-86706911D01*
X136203200Y-86640994D01*
X136203129Y-86548628D01*
X136202792Y-86476117D01*
X136202002Y-86420737D01*
X136200574Y-86379765D01*
X136198321Y-86350478D01*
X136195057Y-86330153D01*
X136190596Y-86316066D01*
X136184752Y-86305495D01*
X136179803Y-86298811D01*
X136156406Y-86269067D01*
X135866226Y-86269067D01*
X135769657Y-86269260D01*
G37*
X135769657Y-86269260D02*
X135693299Y-86270174D01*
X135634783Y-86272311D01*
X135591745Y-86276175D01*
X135561817Y-86282267D01*
X135542632Y-86291090D01*
X135531824Y-86303146D01*
X135527027Y-86318939D01*
X135525873Y-86338970D01*
X135525867Y-86341335D01*
X135526869Y-86363992D01*
X135531604Y-86381503D01*
X135542667Y-86394574D01*
X135562652Y-86403913D01*
X135594154Y-86410227D01*
X135639768Y-86414222D01*
X135702087Y-86416606D01*
X135783707Y-86418086D01*
X135808723Y-86418414D01*
X136050800Y-86421467D01*
X136054186Y-86486378D01*
X136057571Y-86551289D01*
X135889424Y-86551289D01*
X135823734Y-86551531D01*
X135776828Y-86552556D01*
X135744917Y-86554811D01*
X135724209Y-86558742D01*
X135710916Y-86564798D01*
X135701245Y-86573424D01*
X135701183Y-86573493D01*
X135683644Y-86607112D01*
X135684278Y-86643448D01*
X135702686Y-86674423D01*
X135706329Y-86677607D01*
X135719259Y-86685812D01*
X135736976Y-86691521D01*
X135763430Y-86695162D01*
X135802568Y-86697167D01*
X135858338Y-86697964D01*
X135894006Y-86698045D01*
X136056445Y-86698045D01*
X136056445Y-86856089D01*
X135809839Y-86856089D01*
X135728420Y-86856231D01*
X135666590Y-86856814D01*
X135621363Y-86858068D01*
X135589752Y-86860227D01*
X135568769Y-86863523D01*
X135555427Y-86868189D01*
X135546739Y-86874457D01*
X135544550Y-86876733D01*
X135528386Y-86908280D01*
X135527203Y-86944168D01*
X135540464Y-86975285D01*
X135550957Y-86985271D01*
X135561871Y-86990769D01*
X135578783Y-86995022D01*
X135604367Y-86998180D01*
X135641299Y-87000392D01*
X135692254Y-87001806D01*
X135759906Y-87002572D01*
X135846931Y-87002838D01*
X135866606Y-87002845D01*
X135955089Y-87002787D01*
X136023773Y-87002467D01*
X136075436Y-87001667D01*
X136112855Y-87000167D01*
X136138810Y-86997749D01*
X136156078Y-86994194D01*
X136167438Y-86989282D01*
X136175668Y-86982795D01*
X136180183Y-86978138D01*
X136186979Y-86969889D01*
X136192288Y-86959669D01*
X136196294Y-86944800D01*
X136199179Y-86922602D01*
X136201126Y-86890393D01*
X136202319Y-86845496D01*
X136202939Y-86785228D01*
X136203171Y-86706911D01*
X136203200Y-86640994D01*
X136203129Y-86548628D01*
X136202792Y-86476117D01*
X136202002Y-86420737D01*
X136200574Y-86379765D01*
X136198321Y-86350478D01*
X136195057Y-86330153D01*
X136190596Y-86316066D01*
X136184752Y-86305495D01*
X136179803Y-86298811D01*
X136156406Y-86269067D01*
X135866226Y-86269067D01*
X135769657Y-86269260D01*
G36*
X137300114Y-86273448D02*
G01*
X137276548Y-86287273D01*
X137245735Y-86309881D01*
X137206078Y-86342338D01*
X137155980Y-86385708D01*
X137093843Y-86441058D01*
X137018072Y-86509451D01*
X136931334Y-86588084D01*
X136750711Y-86751878D01*
X136745067Y-86532029D01*
X136743029Y-86456351D01*
X136741063Y-86399994D01*
X136738734Y-86359706D01*
X136735606Y-86332235D01*
X136731245Y-86314329D01*
X136725216Y-86302737D01*
X136717084Y-86294208D01*
X136712772Y-86290623D01*
X136678241Y-86271670D01*
X136645383Y-86274441D01*
X136619318Y-86290633D01*
X136592667Y-86312199D01*
X136589352Y-86627151D01*
X136588435Y-86719779D01*
X136587968Y-86792544D01*
X136588113Y-86848161D01*
X136589032Y-86889342D01*
X136590887Y-86918803D01*
X136593839Y-86939255D01*
X136598050Y-86953413D01*
X136603682Y-86963991D01*
X136609927Y-86972474D01*
X136623439Y-86988207D01*
X136636883Y-86998636D01*
X136652124Y-87002639D01*
X136671026Y-86999094D01*
X136695455Y-86986879D01*
X136727273Y-86964871D01*
X136768348Y-86931949D01*
X136820542Y-86886991D01*
X136885722Y-86828875D01*
X136959556Y-86762099D01*
X137224845Y-86521458D01*
X137230489Y-86740589D01*
X137232531Y-86816128D01*
X137234502Y-86872354D01*
X137236839Y-86912524D01*
X137239981Y-86939896D01*
X137244364Y-86957728D01*
X137250424Y-86969279D01*
X137258600Y-86977807D01*
X137262784Y-86981282D01*
X137299765Y-87000372D01*
X137334708Y-86997493D01*
X137365136Y-86973100D01*
X137372097Y-86963286D01*
X137377523Y-86951826D01*
X137381603Y-86935968D01*
X137384529Y-86912963D01*
X137386492Y-86880062D01*
X137387683Y-86834516D01*
X137388292Y-86773573D01*
X137388511Y-86694486D01*
X137388534Y-86635956D01*
X137388460Y-86544407D01*
X137388113Y-86472687D01*
X137387301Y-86418045D01*
X137385833Y-86377732D01*
X137383519Y-86348998D01*
X137380167Y-86329093D01*
X137375588Y-86315268D01*
X137369589Y-86304772D01*
X137365136Y-86298811D01*
X137353850Y-86284691D01*
X137343301Y-86274029D01*
X137331893Y-86267892D01*
X137318030Y-86267343D01*
X137300114Y-86273448D01*
G37*
X137300114Y-86273448D02*
X137276548Y-86287273D01*
X137245735Y-86309881D01*
X137206078Y-86342338D01*
X137155980Y-86385708D01*
X137093843Y-86441058D01*
X137018072Y-86509451D01*
X136931334Y-86588084D01*
X136750711Y-86751878D01*
X136745067Y-86532029D01*
X136743029Y-86456351D01*
X136741063Y-86399994D01*
X136738734Y-86359706D01*
X136735606Y-86332235D01*
X136731245Y-86314329D01*
X136725216Y-86302737D01*
X136717084Y-86294208D01*
X136712772Y-86290623D01*
X136678241Y-86271670D01*
X136645383Y-86274441D01*
X136619318Y-86290633D01*
X136592667Y-86312199D01*
X136589352Y-86627151D01*
X136588435Y-86719779D01*
X136587968Y-86792544D01*
X136588113Y-86848161D01*
X136589032Y-86889342D01*
X136590887Y-86918803D01*
X136593839Y-86939255D01*
X136598050Y-86953413D01*
X136603682Y-86963991D01*
X136609927Y-86972474D01*
X136623439Y-86988207D01*
X136636883Y-86998636D01*
X136652124Y-87002639D01*
X136671026Y-86999094D01*
X136695455Y-86986879D01*
X136727273Y-86964871D01*
X136768348Y-86931949D01*
X136820542Y-86886991D01*
X136885722Y-86828875D01*
X136959556Y-86762099D01*
X137224845Y-86521458D01*
X137230489Y-86740589D01*
X137232531Y-86816128D01*
X137234502Y-86872354D01*
X137236839Y-86912524D01*
X137239981Y-86939896D01*
X137244364Y-86957728D01*
X137250424Y-86969279D01*
X137258600Y-86977807D01*
X137262784Y-86981282D01*
X137299765Y-87000372D01*
X137334708Y-86997493D01*
X137365136Y-86973100D01*
X137372097Y-86963286D01*
X137377523Y-86951826D01*
X137381603Y-86935968D01*
X137384529Y-86912963D01*
X137386492Y-86880062D01*
X137387683Y-86834516D01*
X137388292Y-86773573D01*
X137388511Y-86694486D01*
X137388534Y-86635956D01*
X137388460Y-86544407D01*
X137388113Y-86472687D01*
X137387301Y-86418045D01*
X137385833Y-86377732D01*
X137383519Y-86348998D01*
X137380167Y-86329093D01*
X137375588Y-86315268D01*
X137369589Y-86304772D01*
X137365136Y-86298811D01*
X137353850Y-86284691D01*
X137343301Y-86274029D01*
X137331893Y-86267892D01*
X137318030Y-86267343D01*
X137300114Y-86273448D01*
G36*
X137950081Y-86274599D02*
G01*
X137881565Y-86286095D01*
X137828943Y-86303967D01*
X137794708Y-86327499D01*
X137785379Y-86340924D01*
X137775893Y-86372148D01*
X137782277Y-86400395D01*
X137802430Y-86427182D01*
X137833745Y-86439713D01*
X137879183Y-86438696D01*
X137914326Y-86431906D01*
X137992419Y-86418971D01*
X138072226Y-86417742D01*
X138161555Y-86428241D01*
X138186229Y-86432690D01*
X138269291Y-86456108D01*
X138334273Y-86490945D01*
X138380461Y-86536604D01*
X138407145Y-86592494D01*
X138412663Y-86621388D01*
X138409051Y-86680012D01*
X138385729Y-86731879D01*
X138344824Y-86775978D01*
X138288459Y-86811299D01*
X138218760Y-86836829D01*
X138137852Y-86851559D01*
X138047860Y-86854478D01*
X137950910Y-86844575D01*
X137945436Y-86843641D01*
X137906875Y-86836459D01*
X137885494Y-86829521D01*
X137876227Y-86819227D01*
X137874006Y-86801976D01*
X137873956Y-86792841D01*
X137873956Y-86754489D01*
X137942431Y-86754489D01*
X138002900Y-86750347D01*
X138044165Y-86737147D01*
X138068175Y-86713730D01*
X138076877Y-86678936D01*
X138076983Y-86674394D01*
X138071892Y-86644654D01*
X138054433Y-86623419D01*
X138021939Y-86609366D01*
X137971743Y-86601173D01*
X137923123Y-86598161D01*
X137852456Y-86596433D01*
X137801198Y-86599070D01*
X137766239Y-86608800D01*
X137744470Y-86628353D01*
X137732780Y-86660456D01*
X137728060Y-86707838D01*
X137727200Y-86770071D01*
X137728609Y-86839535D01*
X137732848Y-86886786D01*
X137739936Y-86912012D01*
X137741311Y-86913988D01*
X137780228Y-86945508D01*
X137837286Y-86970470D01*
X137908869Y-86988340D01*
X137991358Y-86998586D01*
X138081139Y-87000673D01*
X138174592Y-86994068D01*
X138229556Y-86985956D01*
X138315766Y-86961554D01*
X138395892Y-86921662D01*
X138462977Y-86869887D01*
X138473173Y-86859539D01*
X138506302Y-86816035D01*
X138536194Y-86762118D01*
X138559357Y-86705592D01*
X138572298Y-86654259D01*
X138573858Y-86634544D01*
X138567218Y-86593419D01*
X138549568Y-86542252D01*
X138524297Y-86488394D01*
X138494789Y-86439195D01*
X138468719Y-86406334D01*
X138407765Y-86357452D01*
X138328969Y-86318545D01*
X138235157Y-86290494D01*
X138129150Y-86274179D01*
X138032000Y-86270192D01*
X137950081Y-86274599D01*
G37*
X137950081Y-86274599D02*
X137881565Y-86286095D01*
X137828943Y-86303967D01*
X137794708Y-86327499D01*
X137785379Y-86340924D01*
X137775893Y-86372148D01*
X137782277Y-86400395D01*
X137802430Y-86427182D01*
X137833745Y-86439713D01*
X137879183Y-86438696D01*
X137914326Y-86431906D01*
X137992419Y-86418971D01*
X138072226Y-86417742D01*
X138161555Y-86428241D01*
X138186229Y-86432690D01*
X138269291Y-86456108D01*
X138334273Y-86490945D01*
X138380461Y-86536604D01*
X138407145Y-86592494D01*
X138412663Y-86621388D01*
X138409051Y-86680012D01*
X138385729Y-86731879D01*
X138344824Y-86775978D01*
X138288459Y-86811299D01*
X138218760Y-86836829D01*
X138137852Y-86851559D01*
X138047860Y-86854478D01*
X137950910Y-86844575D01*
X137945436Y-86843641D01*
X137906875Y-86836459D01*
X137885494Y-86829521D01*
X137876227Y-86819227D01*
X137874006Y-86801976D01*
X137873956Y-86792841D01*
X137873956Y-86754489D01*
X137942431Y-86754489D01*
X138002900Y-86750347D01*
X138044165Y-86737147D01*
X138068175Y-86713730D01*
X138076877Y-86678936D01*
X138076983Y-86674394D01*
X138071892Y-86644654D01*
X138054433Y-86623419D01*
X138021939Y-86609366D01*
X137971743Y-86601173D01*
X137923123Y-86598161D01*
X137852456Y-86596433D01*
X137801198Y-86599070D01*
X137766239Y-86608800D01*
X137744470Y-86628353D01*
X137732780Y-86660456D01*
X137728060Y-86707838D01*
X137727200Y-86770071D01*
X137728609Y-86839535D01*
X137732848Y-86886786D01*
X137739936Y-86912012D01*
X137741311Y-86913988D01*
X137780228Y-86945508D01*
X137837286Y-86970470D01*
X137908869Y-86988340D01*
X137991358Y-86998586D01*
X138081139Y-87000673D01*
X138174592Y-86994068D01*
X138229556Y-86985956D01*
X138315766Y-86961554D01*
X138395892Y-86921662D01*
X138462977Y-86869887D01*
X138473173Y-86859539D01*
X138506302Y-86816035D01*
X138536194Y-86762118D01*
X138559357Y-86705592D01*
X138572298Y-86654259D01*
X138573858Y-86634544D01*
X138567218Y-86593419D01*
X138549568Y-86542252D01*
X138524297Y-86488394D01*
X138494789Y-86439195D01*
X138468719Y-86406334D01*
X138407765Y-86357452D01*
X138328969Y-86318545D01*
X138235157Y-86290494D01*
X138129150Y-86274179D01*
X138032000Y-86270192D01*
X137950081Y-86274599D01*
G36*
X138923822Y-86291645D02*
G01*
X138917242Y-86299218D01*
X138912079Y-86308987D01*
X138908164Y-86323571D01*
X138905324Y-86345585D01*
X138903387Y-86377648D01*
X138902183Y-86422375D01*
X138901539Y-86482385D01*
X138901284Y-86560294D01*
X138901245Y-86635956D01*
X138901314Y-86729802D01*
X138901638Y-86803689D01*
X138902386Y-86860232D01*
X138903732Y-86902049D01*
X138905846Y-86931757D01*
X138908900Y-86951973D01*
X138913066Y-86965314D01*
X138918516Y-86974398D01*
X138923822Y-86980267D01*
X138956826Y-86999947D01*
X138991991Y-86998181D01*
X139023455Y-86976717D01*
X139030684Y-86968337D01*
X139036334Y-86958614D01*
X139040599Y-86944861D01*
X139043673Y-86924389D01*
X139045752Y-86894512D01*
X139047030Y-86852541D01*
X139047701Y-86795789D01*
X139047959Y-86721567D01*
X139048000Y-86637537D01*
X139048000Y-86324485D01*
X139020291Y-86296776D01*
X138986137Y-86273463D01*
X138953006Y-86272623D01*
X138923822Y-86291645D01*
G37*
X138923822Y-86291645D02*
X138917242Y-86299218D01*
X138912079Y-86308987D01*
X138908164Y-86323571D01*
X138905324Y-86345585D01*
X138903387Y-86377648D01*
X138902183Y-86422375D01*
X138901539Y-86482385D01*
X138901284Y-86560294D01*
X138901245Y-86635956D01*
X138901314Y-86729802D01*
X138901638Y-86803689D01*
X138902386Y-86860232D01*
X138903732Y-86902049D01*
X138905846Y-86931757D01*
X138908900Y-86951973D01*
X138913066Y-86965314D01*
X138918516Y-86974398D01*
X138923822Y-86980267D01*
X138956826Y-86999947D01*
X138991991Y-86998181D01*
X139023455Y-86976717D01*
X139030684Y-86968337D01*
X139036334Y-86958614D01*
X139040599Y-86944861D01*
X139043673Y-86924389D01*
X139045752Y-86894512D01*
X139047030Y-86852541D01*
X139047701Y-86795789D01*
X139047959Y-86721567D01*
X139048000Y-86637537D01*
X139048000Y-86324485D01*
X139020291Y-86296776D01*
X138986137Y-86273463D01*
X138953006Y-86272623D01*
X138923822Y-86291645D01*
G36*
X139691703Y-86270351D02*
G01*
X139616888Y-86275581D01*
X139547306Y-86283750D01*
X139487002Y-86294550D01*
X139440020Y-86307673D01*
X139410406Y-86322813D01*
X139405860Y-86327269D01*
X139390054Y-86361850D01*
X139394847Y-86397351D01*
X139419364Y-86427725D01*
X139420534Y-86428596D01*
X139434954Y-86437954D01*
X139450008Y-86442876D01*
X139471005Y-86443473D01*
X139503257Y-86439861D01*
X139552073Y-86432154D01*
X139556000Y-86431505D01*
X139628739Y-86422569D01*
X139707217Y-86418161D01*
X139785927Y-86418119D01*
X139859361Y-86422279D01*
X139922011Y-86430479D01*
X139968370Y-86442557D01*
X139971416Y-86443771D01*
X140005048Y-86462615D01*
X140016864Y-86481685D01*
X140007614Y-86500439D01*
X139978047Y-86518337D01*
X139928911Y-86534837D01*
X139860957Y-86549396D01*
X139815645Y-86556406D01*
X139721456Y-86569889D01*
X139646544Y-86582214D01*
X139587717Y-86594449D01*
X139541785Y-86607661D01*
X139505555Y-86622917D01*
X139475838Y-86641285D01*
X139449442Y-86663831D01*
X139428230Y-86685971D01*
X139403065Y-86716819D01*
X139390681Y-86743345D01*
X139386808Y-86776026D01*
X139386667Y-86787995D01*
X139389576Y-86827712D01*
X139401202Y-86857259D01*
X139421323Y-86883486D01*
X139462216Y-86923576D01*
X139507817Y-86954149D01*
X139561513Y-86976203D01*
X139626692Y-86990735D01*
X139706744Y-86998741D01*
X139805057Y-87001218D01*
X139821289Y-87001177D01*
X139886849Y-86999818D01*
X139951866Y-86996730D01*
X140009252Y-86992356D01*
X140051922Y-86987140D01*
X140055372Y-86986541D01*
X140097796Y-86976491D01*
X140133780Y-86963796D01*
X140154150Y-86952190D01*
X140173107Y-86921572D01*
X140174427Y-86885918D01*
X140158085Y-86854144D01*
X140154429Y-86850551D01*
X140139315Y-86839876D01*
X140120415Y-86835276D01*
X140091162Y-86836059D01*
X140055651Y-86840127D01*
X140015970Y-86843762D01*
X139960345Y-86846828D01*
X139895406Y-86849053D01*
X139827785Y-86850164D01*
X139810000Y-86850237D01*
X139742128Y-86849964D01*
X139692454Y-86848646D01*
X139656610Y-86845827D01*
X139630224Y-86841050D01*
X139608926Y-86833857D01*
X139596126Y-86827867D01*
X139568000Y-86811233D01*
X139550068Y-86796168D01*
X139547447Y-86791897D01*
X139552976Y-86774263D01*
X139579260Y-86757192D01*
X139624478Y-86741458D01*
X139686808Y-86727838D01*
X139705171Y-86724804D01*
X139801090Y-86709738D01*
X139877641Y-86697146D01*
X139937780Y-86686111D01*
X139984460Y-86675720D01*
X140020637Y-86665056D01*
X140049265Y-86653205D01*
X140073298Y-86639251D01*
X140095692Y-86622281D01*
X140119402Y-86601378D01*
X140127380Y-86594049D01*
X140155353Y-86566699D01*
X140170160Y-86545029D01*
X140175952Y-86520232D01*
X140176889Y-86488983D01*
X140166575Y-86427705D01*
X140135752Y-86375640D01*
X140084595Y-86332958D01*
X140013283Y-86299825D01*
X139962400Y-86284964D01*
X139907100Y-86275366D01*
X139840853Y-86269936D01*
X139767706Y-86268367D01*
X139691703Y-86270351D01*
G37*
X139691703Y-86270351D02*
X139616888Y-86275581D01*
X139547306Y-86283750D01*
X139487002Y-86294550D01*
X139440020Y-86307673D01*
X139410406Y-86322813D01*
X139405860Y-86327269D01*
X139390054Y-86361850D01*
X139394847Y-86397351D01*
X139419364Y-86427725D01*
X139420534Y-86428596D01*
X139434954Y-86437954D01*
X139450008Y-86442876D01*
X139471005Y-86443473D01*
X139503257Y-86439861D01*
X139552073Y-86432154D01*
X139556000Y-86431505D01*
X139628739Y-86422569D01*
X139707217Y-86418161D01*
X139785927Y-86418119D01*
X139859361Y-86422279D01*
X139922011Y-86430479D01*
X139968370Y-86442557D01*
X139971416Y-86443771D01*
X140005048Y-86462615D01*
X140016864Y-86481685D01*
X140007614Y-86500439D01*
X139978047Y-86518337D01*
X139928911Y-86534837D01*
X139860957Y-86549396D01*
X139815645Y-86556406D01*
X139721456Y-86569889D01*
X139646544Y-86582214D01*
X139587717Y-86594449D01*
X139541785Y-86607661D01*
X139505555Y-86622917D01*
X139475838Y-86641285D01*
X139449442Y-86663831D01*
X139428230Y-86685971D01*
X139403065Y-86716819D01*
X139390681Y-86743345D01*
X139386808Y-86776026D01*
X139386667Y-86787995D01*
X139389576Y-86827712D01*
X139401202Y-86857259D01*
X139421323Y-86883486D01*
X139462216Y-86923576D01*
X139507817Y-86954149D01*
X139561513Y-86976203D01*
X139626692Y-86990735D01*
X139706744Y-86998741D01*
X139805057Y-87001218D01*
X139821289Y-87001177D01*
X139886849Y-86999818D01*
X139951866Y-86996730D01*
X140009252Y-86992356D01*
X140051922Y-86987140D01*
X140055372Y-86986541D01*
X140097796Y-86976491D01*
X140133780Y-86963796D01*
X140154150Y-86952190D01*
X140173107Y-86921572D01*
X140174427Y-86885918D01*
X140158085Y-86854144D01*
X140154429Y-86850551D01*
X140139315Y-86839876D01*
X140120415Y-86835276D01*
X140091162Y-86836059D01*
X140055651Y-86840127D01*
X140015970Y-86843762D01*
X139960345Y-86846828D01*
X139895406Y-86849053D01*
X139827785Y-86850164D01*
X139810000Y-86850237D01*
X139742128Y-86849964D01*
X139692454Y-86848646D01*
X139656610Y-86845827D01*
X139630224Y-86841050D01*
X139608926Y-86833857D01*
X139596126Y-86827867D01*
X139568000Y-86811233D01*
X139550068Y-86796168D01*
X139547447Y-86791897D01*
X139552976Y-86774263D01*
X139579260Y-86757192D01*
X139624478Y-86741458D01*
X139686808Y-86727838D01*
X139705171Y-86724804D01*
X139801090Y-86709738D01*
X139877641Y-86697146D01*
X139937780Y-86686111D01*
X139984460Y-86675720D01*
X140020637Y-86665056D01*
X140049265Y-86653205D01*
X140073298Y-86639251D01*
X140095692Y-86622281D01*
X140119402Y-86601378D01*
X140127380Y-86594049D01*
X140155353Y-86566699D01*
X140170160Y-86545029D01*
X140175952Y-86520232D01*
X140176889Y-86488983D01*
X140166575Y-86427705D01*
X140135752Y-86375640D01*
X140084595Y-86332958D01*
X140013283Y-86299825D01*
X139962400Y-86284964D01*
X139907100Y-86275366D01*
X139840853Y-86269936D01*
X139767706Y-86268367D01*
X139691703Y-86270351D01*
G36*
X140712794Y-86269146D02*
G01*
X140643386Y-86269518D01*
X140590997Y-86270385D01*
X140552847Y-86271946D01*
X140526159Y-86274403D01*
X140508153Y-86277957D01*
X140496049Y-86282810D01*
X140487069Y-86289161D01*
X140483818Y-86292084D01*
X140464043Y-86323142D01*
X140460482Y-86358828D01*
X140473491Y-86390510D01*
X140479506Y-86396913D01*
X140489235Y-86403121D01*
X140504901Y-86407910D01*
X140529408Y-86411514D01*
X140565661Y-86414164D01*
X140616565Y-86416095D01*
X140685026Y-86417539D01*
X140747617Y-86418418D01*
X140995334Y-86421467D01*
X140998719Y-86486378D01*
X141002105Y-86551289D01*
X140833958Y-86551289D01*
X140760959Y-86551919D01*
X140707517Y-86554553D01*
X140670628Y-86560309D01*
X140647288Y-86570304D01*
X140634494Y-86585656D01*
X140629242Y-86607482D01*
X140628445Y-86627738D01*
X140630923Y-86652592D01*
X140640277Y-86670906D01*
X140659383Y-86683637D01*
X140691118Y-86691741D01*
X140738359Y-86696176D01*
X140803983Y-86697899D01*
X140839801Y-86698045D01*
X141000978Y-86698045D01*
X141000978Y-86856089D01*
X140752622Y-86856089D01*
X140671213Y-86856202D01*
X140609342Y-86856712D01*
X140563968Y-86857870D01*
X140532054Y-86859930D01*
X140510559Y-86863146D01*
X140496443Y-86867772D01*
X140486668Y-86874059D01*
X140481689Y-86878667D01*
X140464610Y-86905560D01*
X140459111Y-86929467D01*
X140466963Y-86958667D01*
X140481689Y-86980267D01*
X140489546Y-86987066D01*
X140499688Y-86992346D01*
X140514844Y-86996298D01*
X140537741Y-86999113D01*
X140571109Y-87000982D01*
X140617675Y-87002098D01*
X140680167Y-87002651D01*
X140761314Y-87002833D01*
X140803422Y-87002845D01*
X140893598Y-87002765D01*
X140963924Y-87002398D01*
X141017129Y-87001552D01*
X141055940Y-87000036D01*
X141083087Y-86997659D01*
X141101298Y-86994229D01*
X141113300Y-86989554D01*
X141121822Y-86983444D01*
X141125156Y-86980267D01*
X141131755Y-86972670D01*
X141136927Y-86962870D01*
X141140846Y-86948239D01*
X141143684Y-86926152D01*
X141145615Y-86893982D01*
X141146812Y-86849103D01*
X141147448Y-86788889D01*
X141147697Y-86710713D01*
X141147734Y-86637923D01*
X141147700Y-86544707D01*
X141147465Y-86471431D01*
X141146830Y-86415458D01*
X141145594Y-86374151D01*
X141143556Y-86344872D01*
X141140517Y-86324984D01*
X141136277Y-86311850D01*
X141130635Y-86302832D01*
X141123391Y-86295293D01*
X141121606Y-86293612D01*
X141112945Y-86286172D01*
X141102882Y-86280409D01*
X141088625Y-86276112D01*
X141067383Y-86273064D01*
X141036364Y-86271051D01*
X140992777Y-86269860D01*
X140933831Y-86269275D01*
X140856734Y-86269083D01*
X140802001Y-86269067D01*
X140712794Y-86269146D01*
G37*
X140712794Y-86269146D02*
X140643386Y-86269518D01*
X140590997Y-86270385D01*
X140552847Y-86271946D01*
X140526159Y-86274403D01*
X140508153Y-86277957D01*
X140496049Y-86282810D01*
X140487069Y-86289161D01*
X140483818Y-86292084D01*
X140464043Y-86323142D01*
X140460482Y-86358828D01*
X140473491Y-86390510D01*
X140479506Y-86396913D01*
X140489235Y-86403121D01*
X140504901Y-86407910D01*
X140529408Y-86411514D01*
X140565661Y-86414164D01*
X140616565Y-86416095D01*
X140685026Y-86417539D01*
X140747617Y-86418418D01*
X140995334Y-86421467D01*
X140998719Y-86486378D01*
X141002105Y-86551289D01*
X140833958Y-86551289D01*
X140760959Y-86551919D01*
X140707517Y-86554553D01*
X140670628Y-86560309D01*
X140647288Y-86570304D01*
X140634494Y-86585656D01*
X140629242Y-86607482D01*
X140628445Y-86627738D01*
X140630923Y-86652592D01*
X140640277Y-86670906D01*
X140659383Y-86683637D01*
X140691118Y-86691741D01*
X140738359Y-86696176D01*
X140803983Y-86697899D01*
X140839801Y-86698045D01*
X141000978Y-86698045D01*
X141000978Y-86856089D01*
X140752622Y-86856089D01*
X140671213Y-86856202D01*
X140609342Y-86856712D01*
X140563968Y-86857870D01*
X140532054Y-86859930D01*
X140510559Y-86863146D01*
X140496443Y-86867772D01*
X140486668Y-86874059D01*
X140481689Y-86878667D01*
X140464610Y-86905560D01*
X140459111Y-86929467D01*
X140466963Y-86958667D01*
X140481689Y-86980267D01*
X140489546Y-86987066D01*
X140499688Y-86992346D01*
X140514844Y-86996298D01*
X140537741Y-86999113D01*
X140571109Y-87000982D01*
X140617675Y-87002098D01*
X140680167Y-87002651D01*
X140761314Y-87002833D01*
X140803422Y-87002845D01*
X140893598Y-87002765D01*
X140963924Y-87002398D01*
X141017129Y-87001552D01*
X141055940Y-87000036D01*
X141083087Y-86997659D01*
X141101298Y-86994229D01*
X141113300Y-86989554D01*
X141121822Y-86983444D01*
X141125156Y-86980267D01*
X141131755Y-86972670D01*
X141136927Y-86962870D01*
X141140846Y-86948239D01*
X141143684Y-86926152D01*
X141145615Y-86893982D01*
X141146812Y-86849103D01*
X141147448Y-86788889D01*
X141147697Y-86710713D01*
X141147734Y-86637923D01*
X141147700Y-86544707D01*
X141147465Y-86471431D01*
X141146830Y-86415458D01*
X141145594Y-86374151D01*
X141143556Y-86344872D01*
X141140517Y-86324984D01*
X141136277Y-86311850D01*
X141130635Y-86302832D01*
X141123391Y-86295293D01*
X141121606Y-86293612D01*
X141112945Y-86286172D01*
X141102882Y-86280409D01*
X141088625Y-86276112D01*
X141067383Y-86273064D01*
X141036364Y-86271051D01*
X140992777Y-86269860D01*
X140933831Y-86269275D01*
X140856734Y-86269083D01*
X140802001Y-86269067D01*
X140712794Y-86269146D01*
G36*
X142121371Y-86269066D02*
G01*
X142081889Y-86269467D01*
X141966200Y-86272259D01*
X141869311Y-86280550D01*
X141787919Y-86295232D01*
X141718723Y-86317193D01*
X141658420Y-86347322D01*
X141603708Y-86386510D01*
X141584167Y-86403532D01*
X141551750Y-86443363D01*
X141522520Y-86497413D01*
X141499991Y-86557323D01*
X141487679Y-86614739D01*
X141486400Y-86635956D01*
X141494417Y-86694769D01*
X141515899Y-86759013D01*
X141546999Y-86819821D01*
X141583866Y-86868330D01*
X141589854Y-86874182D01*
X141640579Y-86915321D01*
X141696125Y-86947435D01*
X141759696Y-86971365D01*
X141834494Y-86987953D01*
X141923722Y-86998041D01*
X142030582Y-87002469D01*
X142079528Y-87002845D01*
X142141762Y-87002545D01*
X142185528Y-87001292D01*
X142214931Y-86998554D01*
X142234079Y-86993801D01*
X142247077Y-86986501D01*
X142254045Y-86980267D01*
X142260626Y-86972694D01*
X142265788Y-86962924D01*
X142269703Y-86948340D01*
X142272543Y-86926326D01*
X142274480Y-86894264D01*
X142275684Y-86849536D01*
X142276328Y-86789526D01*
X142276583Y-86711617D01*
X142276622Y-86635956D01*
X142276870Y-86535041D01*
X142276817Y-86454427D01*
X142275857Y-86415822D01*
X142129867Y-86415822D01*
X142129867Y-86856089D01*
X142036734Y-86856004D01*
X141980693Y-86854396D01*
X141921999Y-86850256D01*
X141873028Y-86844464D01*
X141871538Y-86844226D01*
X141792392Y-86825090D01*
X141731002Y-86795287D01*
X141684305Y-86752878D01*
X141654635Y-86706961D01*
X141636353Y-86656026D01*
X141637771Y-86608200D01*
X141658988Y-86556933D01*
X141700489Y-86503899D01*
X141757998Y-86464600D01*
X141832750Y-86438331D01*
X141882708Y-86429035D01*
X141939416Y-86422507D01*
X141999519Y-86417782D01*
X142050639Y-86415817D01*
X142053667Y-86415808D01*
X142129867Y-86415822D01*
X142275857Y-86415822D01*
X142275260Y-86391851D01*
X142270998Y-86345055D01*
X142262830Y-86311778D01*
X142249556Y-86289759D01*
X142229974Y-86276739D01*
X142202883Y-86270457D01*
X142167082Y-86268653D01*
X142121371Y-86269066D01*
G37*
X142121371Y-86269066D02*
X142081889Y-86269467D01*
X141966200Y-86272259D01*
X141869311Y-86280550D01*
X141787919Y-86295232D01*
X141718723Y-86317193D01*
X141658420Y-86347322D01*
X141603708Y-86386510D01*
X141584167Y-86403532D01*
X141551750Y-86443363D01*
X141522520Y-86497413D01*
X141499991Y-86557323D01*
X141487679Y-86614739D01*
X141486400Y-86635956D01*
X141494417Y-86694769D01*
X141515899Y-86759013D01*
X141546999Y-86819821D01*
X141583866Y-86868330D01*
X141589854Y-86874182D01*
X141640579Y-86915321D01*
X141696125Y-86947435D01*
X141759696Y-86971365D01*
X141834494Y-86987953D01*
X141923722Y-86998041D01*
X142030582Y-87002469D01*
X142079528Y-87002845D01*
X142141762Y-87002545D01*
X142185528Y-87001292D01*
X142214931Y-86998554D01*
X142234079Y-86993801D01*
X142247077Y-86986501D01*
X142254045Y-86980267D01*
X142260626Y-86972694D01*
X142265788Y-86962924D01*
X142269703Y-86948340D01*
X142272543Y-86926326D01*
X142274480Y-86894264D01*
X142275684Y-86849536D01*
X142276328Y-86789526D01*
X142276583Y-86711617D01*
X142276622Y-86635956D01*
X142276870Y-86535041D01*
X142276817Y-86454427D01*
X142275857Y-86415822D01*
X142129867Y-86415822D01*
X142129867Y-86856089D01*
X142036734Y-86856004D01*
X141980693Y-86854396D01*
X141921999Y-86850256D01*
X141873028Y-86844464D01*
X141871538Y-86844226D01*
X141792392Y-86825090D01*
X141731002Y-86795287D01*
X141684305Y-86752878D01*
X141654635Y-86706961D01*
X141636353Y-86656026D01*
X141637771Y-86608200D01*
X141658988Y-86556933D01*
X141700489Y-86503899D01*
X141757998Y-86464600D01*
X141832750Y-86438331D01*
X141882708Y-86429035D01*
X141939416Y-86422507D01*
X141999519Y-86417782D01*
X142050639Y-86415817D01*
X142053667Y-86415808D01*
X142129867Y-86415822D01*
X142275857Y-86415822D01*
X142275260Y-86391851D01*
X142270998Y-86345055D01*
X142262830Y-86311778D01*
X142249556Y-86289759D01*
X142229974Y-86276739D01*
X142202883Y-86270457D01*
X142167082Y-86268653D01*
X142121371Y-86269066D01*
G36*
X138273043Y-81026571D02*
G01*
X138176768Y-81050809D01*
X138090184Y-81093641D01*
X138015373Y-81153419D01*
X137954418Y-81228494D01*
X137909399Y-81317220D01*
X137883136Y-81413530D01*
X137877286Y-81510795D01*
X137892140Y-81604654D01*
X137925840Y-81692511D01*
X137976528Y-81771770D01*
X138042345Y-81839836D01*
X138121434Y-81894112D01*
X138211934Y-81932002D01*
X138263200Y-81944426D01*
X138307698Y-81951947D01*
X138341999Y-81954919D01*
X138374960Y-81953094D01*
X138415434Y-81946225D01*
X138448531Y-81939250D01*
X138541947Y-81907741D01*
X138625619Y-81856617D01*
X138697665Y-81787429D01*
X138756200Y-81701728D01*
X138770148Y-81674489D01*
X138786586Y-81638122D01*
X138796894Y-81607582D01*
X138802460Y-81575450D01*
X138804669Y-81534307D01*
X138804948Y-81488222D01*
X138800861Y-81403865D01*
X138787446Y-81334586D01*
X138762256Y-81273961D01*
X138722846Y-81215567D01*
X138684298Y-81171302D01*
X138612406Y-81105484D01*
X138537313Y-81060053D01*
X138454562Y-81032850D01*
X138376928Y-81022576D01*
X138273043Y-81026571D01*
G37*
X138273043Y-81026571D02*
X138176768Y-81050809D01*
X138090184Y-81093641D01*
X138015373Y-81153419D01*
X137954418Y-81228494D01*
X137909399Y-81317220D01*
X137883136Y-81413530D01*
X137877286Y-81510795D01*
X137892140Y-81604654D01*
X137925840Y-81692511D01*
X137976528Y-81771770D01*
X138042345Y-81839836D01*
X138121434Y-81894112D01*
X138211934Y-81932002D01*
X138263200Y-81944426D01*
X138307698Y-81951947D01*
X138341999Y-81954919D01*
X138374960Y-81953094D01*
X138415434Y-81946225D01*
X138448531Y-81939250D01*
X138541947Y-81907741D01*
X138625619Y-81856617D01*
X138697665Y-81787429D01*
X138756200Y-81701728D01*
X138770148Y-81674489D01*
X138786586Y-81638122D01*
X138796894Y-81607582D01*
X138802460Y-81575450D01*
X138804669Y-81534307D01*
X138804948Y-81488222D01*
X138800861Y-81403865D01*
X138787446Y-81334586D01*
X138762256Y-81273961D01*
X138722846Y-81215567D01*
X138684298Y-81171302D01*
X138612406Y-81105484D01*
X138537313Y-81060053D01*
X138454562Y-81032850D01*
X138376928Y-81022576D01*
X138273043Y-81026571D01*
G36*
X129813493Y-83472245D02*
G01*
X129813474Y-83706662D01*
X129813448Y-83919603D01*
X129813375Y-84112168D01*
X129813218Y-84285459D01*
X129812936Y-84440576D01*
X129812491Y-84578620D01*
X129811844Y-84700692D01*
X129810955Y-84807894D01*
X129809787Y-84901326D01*
X129808299Y-84982090D01*
X129806454Y-85051286D01*
X129804211Y-85110015D01*
X129801531Y-85159379D01*
X129798377Y-85200478D01*
X129794708Y-85234413D01*
X129790487Y-85262286D01*
X129785673Y-85285198D01*
X129780227Y-85304249D01*
X129774112Y-85320540D01*
X129767288Y-85335173D01*
X129759715Y-85349249D01*
X129751355Y-85363868D01*
X129746161Y-85372974D01*
X129711896Y-85433689D01*
X130570045Y-85433689D01*
X130570045Y-85337733D01*
X130570776Y-85294370D01*
X130572728Y-85261205D01*
X130575537Y-85243424D01*
X130576779Y-85241778D01*
X130588201Y-85248662D01*
X130610916Y-85266505D01*
X130633615Y-85285879D01*
X130688200Y-85326614D01*
X130757679Y-85367617D01*
X130834730Y-85405123D01*
X130912035Y-85435364D01*
X130942887Y-85445012D01*
X131011384Y-85459578D01*
X131094236Y-85469539D01*
X131183629Y-85474583D01*
X131271752Y-85474396D01*
X131350793Y-85468666D01*
X131388489Y-85462858D01*
X131526586Y-85424797D01*
X131653887Y-85367073D01*
X131769708Y-85290211D01*
X131873363Y-85194739D01*
X131964167Y-85081179D01*
X132030969Y-84970381D01*
X132085836Y-84853625D01*
X132127837Y-84734276D01*
X132157833Y-84608283D01*
X132176689Y-84471594D01*
X132185268Y-84320158D01*
X132185994Y-84242711D01*
X132183900Y-84185934D01*
X131354783Y-84185934D01*
X131354576Y-84279002D01*
X131351663Y-84366692D01*
X131346000Y-84443772D01*
X131337545Y-84505009D01*
X131334962Y-84517350D01*
X131303160Y-84624633D01*
X131261502Y-84711658D01*
X131209637Y-84778642D01*
X131147219Y-84825805D01*
X131073900Y-84853365D01*
X130989331Y-84861541D01*
X130893165Y-84850551D01*
X130829689Y-84834829D01*
X130780546Y-84816639D01*
X130726417Y-84790791D01*
X130685756Y-84767089D01*
X130615200Y-84720721D01*
X130615200Y-83570530D01*
X130682608Y-83526962D01*
X130761133Y-83486040D01*
X130845319Y-83459389D01*
X130930443Y-83447465D01*
X131011784Y-83450722D01*
X131084620Y-83469615D01*
X131116574Y-83485184D01*
X131174499Y-83528181D01*
X131223456Y-83584953D01*
X131264610Y-83657575D01*
X131299126Y-83748121D01*
X131328167Y-83858666D01*
X131329448Y-83864533D01*
X131339619Y-83926788D01*
X131347261Y-84004594D01*
X131352330Y-84092720D01*
X131354783Y-84185934D01*
X132183900Y-84185934D01*
X132178143Y-84029895D01*
X132156198Y-83834059D01*
X132120214Y-83655332D01*
X132070241Y-83493845D01*
X132006332Y-83349726D01*
X131928538Y-83223106D01*
X131836911Y-83114115D01*
X131731503Y-83022883D01*
X131686338Y-82991932D01*
X131585389Y-82935785D01*
X131482099Y-82896174D01*
X131372011Y-82872014D01*
X131250670Y-82862219D01*
X131158164Y-82863265D01*
X131028510Y-82874231D01*
X130915916Y-82896046D01*
X130817125Y-82929714D01*
X130728879Y-82976236D01*
X130680014Y-83010448D01*
X130650647Y-83032362D01*
X130628957Y-83047333D01*
X130620747Y-83051733D01*
X130619132Y-83040904D01*
X130617841Y-83010251D01*
X130616862Y-82962526D01*
X130616183Y-82900479D01*
X130615790Y-82826862D01*
X130615670Y-82744427D01*
X130615812Y-82655925D01*
X130616203Y-82564107D01*
X130616829Y-82471724D01*
X130617680Y-82381528D01*
X130618740Y-82296271D01*
X130619999Y-82218703D01*
X130621444Y-82151576D01*
X130623062Y-82097641D01*
X130624839Y-82059650D01*
X130625331Y-82052667D01*
X130632908Y-81982251D01*
X130644469Y-81927102D01*
X130662208Y-81879981D01*
X130688318Y-81833647D01*
X130694585Y-81824067D01*
X130719017Y-81787378D01*
X129813689Y-81787378D01*
X129813493Y-83472245D01*
G37*
X129813493Y-83472245D02*
X129813474Y-83706662D01*
X129813448Y-83919603D01*
X129813375Y-84112168D01*
X129813218Y-84285459D01*
X129812936Y-84440576D01*
X129812491Y-84578620D01*
X129811844Y-84700692D01*
X129810955Y-84807894D01*
X129809787Y-84901326D01*
X129808299Y-84982090D01*
X129806454Y-85051286D01*
X129804211Y-85110015D01*
X129801531Y-85159379D01*
X129798377Y-85200478D01*
X129794708Y-85234413D01*
X129790487Y-85262286D01*
X129785673Y-85285198D01*
X129780227Y-85304249D01*
X129774112Y-85320540D01*
X129767288Y-85335173D01*
X129759715Y-85349249D01*
X129751355Y-85363868D01*
X129746161Y-85372974D01*
X129711896Y-85433689D01*
X130570045Y-85433689D01*
X130570045Y-85337733D01*
X130570776Y-85294370D01*
X130572728Y-85261205D01*
X130575537Y-85243424D01*
X130576779Y-85241778D01*
X130588201Y-85248662D01*
X130610916Y-85266505D01*
X130633615Y-85285879D01*
X130688200Y-85326614D01*
X130757679Y-85367617D01*
X130834730Y-85405123D01*
X130912035Y-85435364D01*
X130942887Y-85445012D01*
X131011384Y-85459578D01*
X131094236Y-85469539D01*
X131183629Y-85474583D01*
X131271752Y-85474396D01*
X131350793Y-85468666D01*
X131388489Y-85462858D01*
X131526586Y-85424797D01*
X131653887Y-85367073D01*
X131769708Y-85290211D01*
X131873363Y-85194739D01*
X131964167Y-85081179D01*
X132030969Y-84970381D01*
X132085836Y-84853625D01*
X132127837Y-84734276D01*
X132157833Y-84608283D01*
X132176689Y-84471594D01*
X132185268Y-84320158D01*
X132185994Y-84242711D01*
X132183900Y-84185934D01*
X131354783Y-84185934D01*
X131354576Y-84279002D01*
X131351663Y-84366692D01*
X131346000Y-84443772D01*
X131337545Y-84505009D01*
X131334962Y-84517350D01*
X131303160Y-84624633D01*
X131261502Y-84711658D01*
X131209637Y-84778642D01*
X131147219Y-84825805D01*
X131073900Y-84853365D01*
X130989331Y-84861541D01*
X130893165Y-84850551D01*
X130829689Y-84834829D01*
X130780546Y-84816639D01*
X130726417Y-84790791D01*
X130685756Y-84767089D01*
X130615200Y-84720721D01*
X130615200Y-83570530D01*
X130682608Y-83526962D01*
X130761133Y-83486040D01*
X130845319Y-83459389D01*
X130930443Y-83447465D01*
X131011784Y-83450722D01*
X131084620Y-83469615D01*
X131116574Y-83485184D01*
X131174499Y-83528181D01*
X131223456Y-83584953D01*
X131264610Y-83657575D01*
X131299126Y-83748121D01*
X131328167Y-83858666D01*
X131329448Y-83864533D01*
X131339619Y-83926788D01*
X131347261Y-84004594D01*
X131352330Y-84092720D01*
X131354783Y-84185934D01*
X132183900Y-84185934D01*
X132178143Y-84029895D01*
X132156198Y-83834059D01*
X132120214Y-83655332D01*
X132070241Y-83493845D01*
X132006332Y-83349726D01*
X131928538Y-83223106D01*
X131836911Y-83114115D01*
X131731503Y-83022883D01*
X131686338Y-82991932D01*
X131585389Y-82935785D01*
X131482099Y-82896174D01*
X131372011Y-82872014D01*
X131250670Y-82862219D01*
X131158164Y-82863265D01*
X131028510Y-82874231D01*
X130915916Y-82896046D01*
X130817125Y-82929714D01*
X130728879Y-82976236D01*
X130680014Y-83010448D01*
X130650647Y-83032362D01*
X130628957Y-83047333D01*
X130620747Y-83051733D01*
X130619132Y-83040904D01*
X130617841Y-83010251D01*
X130616862Y-82962526D01*
X130616183Y-82900479D01*
X130615790Y-82826862D01*
X130615670Y-82744427D01*
X130615812Y-82655925D01*
X130616203Y-82564107D01*
X130616829Y-82471724D01*
X130617680Y-82381528D01*
X130618740Y-82296271D01*
X130619999Y-82218703D01*
X130621444Y-82151576D01*
X130623062Y-82097641D01*
X130624839Y-82059650D01*
X130625331Y-82052667D01*
X130632908Y-81982251D01*
X130644469Y-81927102D01*
X130662208Y-81879981D01*
X130688318Y-81833647D01*
X130694585Y-81824067D01*
X130719017Y-81787378D01*
X129813689Y-81787378D01*
X129813493Y-83472245D01*
G36*
X133326426Y-82866552D02*
G01*
X133174508Y-82886567D01*
X133039244Y-82920202D01*
X132919761Y-82967725D01*
X132815185Y-83029405D01*
X132737576Y-83092965D01*
X132668735Y-83167099D01*
X132614994Y-83246871D01*
X132572090Y-83339091D01*
X132556616Y-83382161D01*
X132543756Y-83421142D01*
X132532554Y-83457289D01*
X132522880Y-83492434D01*
X132514604Y-83528410D01*
X132507597Y-83567050D01*
X132501728Y-83610185D01*
X132496869Y-83659649D01*
X132492890Y-83717273D01*
X132489660Y-83784891D01*
X132487051Y-83864334D01*
X132484933Y-83957436D01*
X132483176Y-84066027D01*
X132481651Y-84191942D01*
X132480228Y-84337012D01*
X132478975Y-84479778D01*
X132477649Y-84635968D01*
X132476444Y-84771239D01*
X132475234Y-84887246D01*
X132473894Y-84985645D01*
X132472300Y-85068093D01*
X132470325Y-85136246D01*
X132467844Y-85191760D01*
X132464731Y-85236292D01*
X132460862Y-85271498D01*
X132456111Y-85299034D01*
X132450352Y-85320556D01*
X132443461Y-85337722D01*
X132435311Y-85352186D01*
X132425777Y-85365606D01*
X132414734Y-85379638D01*
X132410434Y-85385071D01*
X132394614Y-85407910D01*
X132387578Y-85423463D01*
X132387556Y-85423922D01*
X132398433Y-85426121D01*
X132429418Y-85428147D01*
X132478043Y-85429942D01*
X132541837Y-85431451D01*
X132618331Y-85432616D01*
X132705056Y-85433380D01*
X132799543Y-85433686D01*
X132810450Y-85433689D01*
X133233343Y-85433689D01*
X133236605Y-85337622D01*
X133239867Y-85241556D01*
X133301956Y-85292543D01*
X133399286Y-85360057D01*
X133509187Y-85414749D01*
X133595651Y-85444978D01*
X133664722Y-85459666D01*
X133748075Y-85469659D01*
X133837841Y-85474646D01*
X133926155Y-85474313D01*
X134005149Y-85468351D01*
X134041378Y-85462638D01*
X134181397Y-85424776D01*
X134307822Y-85369932D01*
X134419740Y-85298924D01*
X134516238Y-85212568D01*
X134596400Y-85111679D01*
X134659313Y-84997076D01*
X134703688Y-84870984D01*
X134716022Y-84814401D01*
X134723632Y-84752202D01*
X134727261Y-84677363D01*
X134727755Y-84643467D01*
X134727690Y-84640282D01*
X133967752Y-84640282D01*
X133958459Y-84715333D01*
X133930272Y-84779160D01*
X133881803Y-84834798D01*
X133876746Y-84839211D01*
X133828452Y-84874037D01*
X133776743Y-84896620D01*
X133716011Y-84908540D01*
X133640648Y-84911383D01*
X133622541Y-84910978D01*
X133568722Y-84908325D01*
X133528692Y-84902909D01*
X133493676Y-84892745D01*
X133454897Y-84875850D01*
X133444255Y-84870672D01*
X133383604Y-84834844D01*
X133336785Y-84792212D01*
X133324048Y-84776973D01*
X133279378Y-84720462D01*
X133279378Y-84524586D01*
X133279914Y-84445939D01*
X133281604Y-84387988D01*
X133284572Y-84348875D01*
X133288943Y-84326741D01*
X133293028Y-84320274D01*
X133308953Y-84317111D01*
X133342736Y-84314488D01*
X133389660Y-84312655D01*
X133445007Y-84311857D01*
X133453894Y-84311842D01*
X133574670Y-84317096D01*
X133677340Y-84333263D01*
X133763894Y-84360961D01*
X133836319Y-84400808D01*
X133891249Y-84447758D01*
X133935796Y-84505645D01*
X133960520Y-84568693D01*
X133967752Y-84640282D01*
X134727690Y-84640282D01*
X134725822Y-84549712D01*
X134717478Y-84470812D01*
X134701232Y-84399590D01*
X134675595Y-84328864D01*
X134651599Y-84276493D01*
X134592980Y-84181196D01*
X134514883Y-84093170D01*
X134419685Y-84014017D01*
X134309762Y-83945340D01*
X134187490Y-83888741D01*
X134055245Y-83845821D01*
X133990578Y-83830882D01*
X133854396Y-83808777D01*
X133705951Y-83794194D01*
X133554495Y-83787813D01*
X133427936Y-83789445D01*
X133266050Y-83796224D01*
X133273470Y-83737245D01*
X133292762Y-83638092D01*
X133323896Y-83557372D01*
X133367731Y-83494466D01*
X133425129Y-83448756D01*
X133496952Y-83419622D01*
X133584059Y-83406447D01*
X133687314Y-83408611D01*
X133725289Y-83412612D01*
X133866480Y-83437780D01*
X134003293Y-83478814D01*
X134097822Y-83516815D01*
X134142982Y-83536190D01*
X134181415Y-83551760D01*
X134207766Y-83561405D01*
X134215454Y-83563452D01*
X134225198Y-83554374D01*
X134241917Y-83525405D01*
X134265768Y-83476217D01*
X134296907Y-83406484D01*
X134335493Y-83315879D01*
X134342090Y-83300089D01*
X134372147Y-83227772D01*
X134399126Y-83162425D01*
X134421864Y-83106906D01*
X134439194Y-83064072D01*
X134449952Y-83036781D01*
X134453059Y-83027942D01*
X134443060Y-83023187D01*
X134416783Y-83017910D01*
X134388511Y-83014231D01*
X134358354Y-83009474D01*
X134310567Y-83000028D01*
X134249388Y-82986820D01*
X134179054Y-82970776D01*
X134103806Y-82952820D01*
X134075245Y-82945797D01*
X133970184Y-82920209D01*
X133882520Y-82900147D01*
X133807932Y-82884969D01*
X133742097Y-82874035D01*
X133680693Y-82866704D01*
X133619398Y-82862335D01*
X133553890Y-82860287D01*
X133495872Y-82859889D01*
X133326426Y-82866552D01*
G37*
X133326426Y-82866552D02*
X133174508Y-82886567D01*
X133039244Y-82920202D01*
X132919761Y-82967725D01*
X132815185Y-83029405D01*
X132737576Y-83092965D01*
X132668735Y-83167099D01*
X132614994Y-83246871D01*
X132572090Y-83339091D01*
X132556616Y-83382161D01*
X132543756Y-83421142D01*
X132532554Y-83457289D01*
X132522880Y-83492434D01*
X132514604Y-83528410D01*
X132507597Y-83567050D01*
X132501728Y-83610185D01*
X132496869Y-83659649D01*
X132492890Y-83717273D01*
X132489660Y-83784891D01*
X132487051Y-83864334D01*
X132484933Y-83957436D01*
X132483176Y-84066027D01*
X132481651Y-84191942D01*
X132480228Y-84337012D01*
X132478975Y-84479778D01*
X132477649Y-84635968D01*
X132476444Y-84771239D01*
X132475234Y-84887246D01*
X132473894Y-84985645D01*
X132472300Y-85068093D01*
X132470325Y-85136246D01*
X132467844Y-85191760D01*
X132464731Y-85236292D01*
X132460862Y-85271498D01*
X132456111Y-85299034D01*
X132450352Y-85320556D01*
X132443461Y-85337722D01*
X132435311Y-85352186D01*
X132425777Y-85365606D01*
X132414734Y-85379638D01*
X132410434Y-85385071D01*
X132394614Y-85407910D01*
X132387578Y-85423463D01*
X132387556Y-85423922D01*
X132398433Y-85426121D01*
X132429418Y-85428147D01*
X132478043Y-85429942D01*
X132541837Y-85431451D01*
X132618331Y-85432616D01*
X132705056Y-85433380D01*
X132799543Y-85433686D01*
X132810450Y-85433689D01*
X133233343Y-85433689D01*
X133236605Y-85337622D01*
X133239867Y-85241556D01*
X133301956Y-85292543D01*
X133399286Y-85360057D01*
X133509187Y-85414749D01*
X133595651Y-85444978D01*
X133664722Y-85459666D01*
X133748075Y-85469659D01*
X133837841Y-85474646D01*
X133926155Y-85474313D01*
X134005149Y-85468351D01*
X134041378Y-85462638D01*
X134181397Y-85424776D01*
X134307822Y-85369932D01*
X134419740Y-85298924D01*
X134516238Y-85212568D01*
X134596400Y-85111679D01*
X134659313Y-84997076D01*
X134703688Y-84870984D01*
X134716022Y-84814401D01*
X134723632Y-84752202D01*
X134727261Y-84677363D01*
X134727755Y-84643467D01*
X134727690Y-84640282D01*
X133967752Y-84640282D01*
X133958459Y-84715333D01*
X133930272Y-84779160D01*
X133881803Y-84834798D01*
X133876746Y-84839211D01*
X133828452Y-84874037D01*
X133776743Y-84896620D01*
X133716011Y-84908540D01*
X133640648Y-84911383D01*
X133622541Y-84910978D01*
X133568722Y-84908325D01*
X133528692Y-84902909D01*
X133493676Y-84892745D01*
X133454897Y-84875850D01*
X133444255Y-84870672D01*
X133383604Y-84834844D01*
X133336785Y-84792212D01*
X133324048Y-84776973D01*
X133279378Y-84720462D01*
X133279378Y-84524586D01*
X133279914Y-84445939D01*
X133281604Y-84387988D01*
X133284572Y-84348875D01*
X133288943Y-84326741D01*
X133293028Y-84320274D01*
X133308953Y-84317111D01*
X133342736Y-84314488D01*
X133389660Y-84312655D01*
X133445007Y-84311857D01*
X133453894Y-84311842D01*
X133574670Y-84317096D01*
X133677340Y-84333263D01*
X133763894Y-84360961D01*
X133836319Y-84400808D01*
X133891249Y-84447758D01*
X133935796Y-84505645D01*
X133960520Y-84568693D01*
X133967752Y-84640282D01*
X134727690Y-84640282D01*
X134725822Y-84549712D01*
X134717478Y-84470812D01*
X134701232Y-84399590D01*
X134675595Y-84328864D01*
X134651599Y-84276493D01*
X134592980Y-84181196D01*
X134514883Y-84093170D01*
X134419685Y-84014017D01*
X134309762Y-83945340D01*
X134187490Y-83888741D01*
X134055245Y-83845821D01*
X133990578Y-83830882D01*
X133854396Y-83808777D01*
X133705951Y-83794194D01*
X133554495Y-83787813D01*
X133427936Y-83789445D01*
X133266050Y-83796224D01*
X133273470Y-83737245D01*
X133292762Y-83638092D01*
X133323896Y-83557372D01*
X133367731Y-83494466D01*
X133425129Y-83448756D01*
X133496952Y-83419622D01*
X133584059Y-83406447D01*
X133687314Y-83408611D01*
X133725289Y-83412612D01*
X133866480Y-83437780D01*
X134003293Y-83478814D01*
X134097822Y-83516815D01*
X134142982Y-83536190D01*
X134181415Y-83551760D01*
X134207766Y-83561405D01*
X134215454Y-83563452D01*
X134225198Y-83554374D01*
X134241917Y-83525405D01*
X134265768Y-83476217D01*
X134296907Y-83406484D01*
X134335493Y-83315879D01*
X134342090Y-83300089D01*
X134372147Y-83227772D01*
X134399126Y-83162425D01*
X134421864Y-83106906D01*
X134439194Y-83064072D01*
X134449952Y-83036781D01*
X134453059Y-83027942D01*
X134443060Y-83023187D01*
X134416783Y-83017910D01*
X134388511Y-83014231D01*
X134358354Y-83009474D01*
X134310567Y-83000028D01*
X134249388Y-82986820D01*
X134179054Y-82970776D01*
X134103806Y-82952820D01*
X134075245Y-82945797D01*
X133970184Y-82920209D01*
X133882520Y-82900147D01*
X133807932Y-82884969D01*
X133742097Y-82874035D01*
X133680693Y-82866704D01*
X133619398Y-82862335D01*
X133553890Y-82860287D01*
X133495872Y-82859889D01*
X133326426Y-82866552D01*
G36*
X135671571Y-81949071D02*
G01*
X135511430Y-81970245D01*
X135347490Y-82010385D01*
X135177687Y-82069889D01*
X134999957Y-82149154D01*
X134988690Y-82154699D01*
X134930995Y-82182725D01*
X134879448Y-82206802D01*
X134837809Y-82225249D01*
X134809838Y-82236386D01*
X134800267Y-82238933D01*
X134781050Y-82243941D01*
X134776439Y-82248147D01*
X134781542Y-82258580D01*
X134797582Y-82284868D01*
X134822712Y-82324257D01*
X134855086Y-82373991D01*
X134892857Y-82431315D01*
X134934178Y-82493476D01*
X134977202Y-82557718D01*
X135020083Y-82621285D01*
X135060974Y-82681425D01*
X135098029Y-82735380D01*
X135129400Y-82780397D01*
X135153241Y-82813721D01*
X135167706Y-82832597D01*
X135169691Y-82834787D01*
X135179809Y-82830138D01*
X135202150Y-82812962D01*
X135232720Y-82786440D01*
X135248464Y-82771964D01*
X135344953Y-82696682D01*
X135451664Y-82641241D01*
X135567168Y-82606141D01*
X135690038Y-82591880D01*
X135759439Y-82593051D01*
X135880577Y-82610212D01*
X135989795Y-82646094D01*
X136087418Y-82700959D01*
X136173772Y-82775070D01*
X136249185Y-82868688D01*
X136313982Y-82982076D01*
X136351399Y-83068667D01*
X136395252Y-83204366D01*
X136427572Y-83351850D01*
X136448443Y-83507314D01*
X136457949Y-83666956D01*
X136456173Y-83826973D01*
X136443197Y-83983561D01*
X136419106Y-84132918D01*
X136383982Y-84271240D01*
X136337908Y-84394724D01*
X136321627Y-84428978D01*
X136253380Y-84543064D01*
X136172921Y-84639557D01*
X136081430Y-84717670D01*
X135980089Y-84776617D01*
X135870080Y-84815612D01*
X135752585Y-84833868D01*
X135711117Y-84835211D01*
X135589559Y-84824290D01*
X135469122Y-84791474D01*
X135351334Y-84737439D01*
X135237723Y-84662865D01*
X135146315Y-84584539D01*
X135099785Y-84540008D01*
X134918517Y-84837271D01*
X134873420Y-84911433D01*
X134832181Y-84979646D01*
X134796265Y-85039459D01*
X134767134Y-85088420D01*
X134746250Y-85124079D01*
X134735076Y-85143984D01*
X134733625Y-85147079D01*
X134741854Y-85156718D01*
X134767433Y-85173999D01*
X134807127Y-85197283D01*
X134857703Y-85224934D01*
X134915926Y-85255315D01*
X134978563Y-85286790D01*
X135042379Y-85317722D01*
X135104140Y-85346473D01*
X135160612Y-85371408D01*
X135208562Y-85390889D01*
X135232014Y-85399318D01*
X135365779Y-85437133D01*
X135503673Y-85462136D01*
X135651378Y-85475140D01*
X135778167Y-85477468D01*
X135846122Y-85476373D01*
X135911723Y-85474275D01*
X135969153Y-85471434D01*
X136012597Y-85468106D01*
X136026702Y-85466422D01*
X136165716Y-85437587D01*
X136307243Y-85392468D01*
X136444725Y-85333750D01*
X136571606Y-85264120D01*
X136649111Y-85211441D01*
X136776519Y-85103239D01*
X136894822Y-84976671D01*
X137001828Y-84834866D01*
X137095348Y-84680951D01*
X137173190Y-84518053D01*
X137217044Y-84400756D01*
X137267292Y-84217128D01*
X137300791Y-84022581D01*
X137317551Y-83821325D01*
X137317584Y-83617568D01*
X137300899Y-83415521D01*
X137267507Y-83219392D01*
X137217420Y-83033391D01*
X137213603Y-83021803D01*
X137150719Y-82859750D01*
X137073972Y-82711832D01*
X136980758Y-82573865D01*
X136868473Y-82441661D01*
X136824608Y-82396399D01*
X136688466Y-82272457D01*
X136548509Y-82169915D01*
X136402589Y-82087656D01*
X136248558Y-82024564D01*
X136084268Y-81979523D01*
X135988711Y-81962033D01*
X135829977Y-81946466D01*
X135671571Y-81949071D01*
G37*
X135671571Y-81949071D02*
X135511430Y-81970245D01*
X135347490Y-82010385D01*
X135177687Y-82069889D01*
X134999957Y-82149154D01*
X134988690Y-82154699D01*
X134930995Y-82182725D01*
X134879448Y-82206802D01*
X134837809Y-82225249D01*
X134809838Y-82236386D01*
X134800267Y-82238933D01*
X134781050Y-82243941D01*
X134776439Y-82248147D01*
X134781542Y-82258580D01*
X134797582Y-82284868D01*
X134822712Y-82324257D01*
X134855086Y-82373991D01*
X134892857Y-82431315D01*
X134934178Y-82493476D01*
X134977202Y-82557718D01*
X135020083Y-82621285D01*
X135060974Y-82681425D01*
X135098029Y-82735380D01*
X135129400Y-82780397D01*
X135153241Y-82813721D01*
X135167706Y-82832597D01*
X135169691Y-82834787D01*
X135179809Y-82830138D01*
X135202150Y-82812962D01*
X135232720Y-82786440D01*
X135248464Y-82771964D01*
X135344953Y-82696682D01*
X135451664Y-82641241D01*
X135567168Y-82606141D01*
X135690038Y-82591880D01*
X135759439Y-82593051D01*
X135880577Y-82610212D01*
X135989795Y-82646094D01*
X136087418Y-82700959D01*
X136173772Y-82775070D01*
X136249185Y-82868688D01*
X136313982Y-82982076D01*
X136351399Y-83068667D01*
X136395252Y-83204366D01*
X136427572Y-83351850D01*
X136448443Y-83507314D01*
X136457949Y-83666956D01*
X136456173Y-83826973D01*
X136443197Y-83983561D01*
X136419106Y-84132918D01*
X136383982Y-84271240D01*
X136337908Y-84394724D01*
X136321627Y-84428978D01*
X136253380Y-84543064D01*
X136172921Y-84639557D01*
X136081430Y-84717670D01*
X135980089Y-84776617D01*
X135870080Y-84815612D01*
X135752585Y-84833868D01*
X135711117Y-84835211D01*
X135589559Y-84824290D01*
X135469122Y-84791474D01*
X135351334Y-84737439D01*
X135237723Y-84662865D01*
X135146315Y-84584539D01*
X135099785Y-84540008D01*
X134918517Y-84837271D01*
X134873420Y-84911433D01*
X134832181Y-84979646D01*
X134796265Y-85039459D01*
X134767134Y-85088420D01*
X134746250Y-85124079D01*
X134735076Y-85143984D01*
X134733625Y-85147079D01*
X134741854Y-85156718D01*
X134767433Y-85173999D01*
X134807127Y-85197283D01*
X134857703Y-85224934D01*
X134915926Y-85255315D01*
X134978563Y-85286790D01*
X135042379Y-85317722D01*
X135104140Y-85346473D01*
X135160612Y-85371408D01*
X135208562Y-85390889D01*
X135232014Y-85399318D01*
X135365779Y-85437133D01*
X135503673Y-85462136D01*
X135651378Y-85475140D01*
X135778167Y-85477468D01*
X135846122Y-85476373D01*
X135911723Y-85474275D01*
X135969153Y-85471434D01*
X136012597Y-85468106D01*
X136026702Y-85466422D01*
X136165716Y-85437587D01*
X136307243Y-85392468D01*
X136444725Y-85333750D01*
X136571606Y-85264120D01*
X136649111Y-85211441D01*
X136776519Y-85103239D01*
X136894822Y-84976671D01*
X137001828Y-84834866D01*
X137095348Y-84680951D01*
X137173190Y-84518053D01*
X137217044Y-84400756D01*
X137267292Y-84217128D01*
X137300791Y-84022581D01*
X137317551Y-83821325D01*
X137317584Y-83617568D01*
X137300899Y-83415521D01*
X137267507Y-83219392D01*
X137217420Y-83033391D01*
X137213603Y-83021803D01*
X137150719Y-82859750D01*
X137073972Y-82711832D01*
X136980758Y-82573865D01*
X136868473Y-82441661D01*
X136824608Y-82396399D01*
X136688466Y-82272457D01*
X136548509Y-82169915D01*
X136402589Y-82087656D01*
X136248558Y-82024564D01*
X136084268Y-81979523D01*
X135988711Y-81962033D01*
X135829977Y-81946466D01*
X135671571Y-81949071D01*
G36*
X138946400Y-81489054D02*
G01*
X138935535Y-81602993D01*
X138903918Y-81710616D01*
X138853015Y-81809615D01*
X138784293Y-81897684D01*
X138699219Y-81972516D01*
X138602232Y-82030384D01*
X138495964Y-82070005D01*
X138388950Y-82088573D01*
X138283300Y-82087434D01*
X138181125Y-82067930D01*
X138084534Y-82031406D01*
X137995638Y-81979205D01*
X137916546Y-81912673D01*
X137849369Y-81833152D01*
X137796217Y-81741987D01*
X137759199Y-81640523D01*
X137740427Y-81530102D01*
X137738489Y-81480206D01*
X137738489Y-81392267D01*
X137686560Y-81392267D01*
X137650253Y-81395111D01*
X137623355Y-81406911D01*
X137596249Y-81430649D01*
X137557867Y-81469031D01*
X137557867Y-83660602D01*
X137557876Y-83922739D01*
X137557908Y-84163241D01*
X137557972Y-84383048D01*
X137558076Y-84583101D01*
X137558227Y-84764344D01*
X137558434Y-84927716D01*
X137558706Y-85074160D01*
X137559050Y-85204617D01*
X137559474Y-85320029D01*
X137559987Y-85421338D01*
X137560597Y-85509484D01*
X137561312Y-85585410D01*
X137562140Y-85650057D01*
X137563089Y-85704367D01*
X137564167Y-85749280D01*
X137565383Y-85785740D01*
X137566745Y-85814687D01*
X137568261Y-85837063D01*
X137569938Y-85853809D01*
X137571786Y-85865868D01*
X137573813Y-85874180D01*
X137576025Y-85879687D01*
X137577108Y-85881537D01*
X137581271Y-85888549D01*
X137584805Y-85894996D01*
X137588635Y-85900900D01*
X137593682Y-85906286D01*
X137600871Y-85911178D01*
X137611123Y-85915598D01*
X137625364Y-85919572D01*
X137644514Y-85923121D01*
X137669499Y-85926270D01*
X137701240Y-85929042D01*
X137740662Y-85931461D01*
X137788686Y-85933551D01*
X137846237Y-85935335D01*
X137914237Y-85936837D01*
X137993610Y-85938080D01*
X138085279Y-85939089D01*
X138190166Y-85939885D01*
X138309196Y-85940494D01*
X138443290Y-85940939D01*
X138593373Y-85941243D01*
X138760367Y-85941430D01*
X138945196Y-85941524D01*
X139148783Y-85941548D01*
X139372050Y-85941525D01*
X139615922Y-85941480D01*
X139881321Y-85941437D01*
X139919704Y-85941432D01*
X140186682Y-85941389D01*
X140432002Y-85941318D01*
X140656583Y-85941213D01*
X140861345Y-85941066D01*
X141047206Y-85940869D01*
X141215088Y-85940616D01*
X141365908Y-85940300D01*
X141500587Y-85939913D01*
X141620044Y-85939447D01*
X141725199Y-85938897D01*
X141816971Y-85938253D01*
X141896279Y-85937511D01*
X141964043Y-85936661D01*
X142021182Y-85935697D01*
X142068617Y-85934611D01*
X142107266Y-85933397D01*
X142138049Y-85932047D01*
X142161885Y-85930555D01*
X142179694Y-85928911D01*
X142192395Y-85927111D01*
X142200908Y-85925145D01*
X142205266Y-85923477D01*
X142213728Y-85919906D01*
X142221497Y-85917270D01*
X142228602Y-85914634D01*
X142235073Y-85911062D01*
X142240939Y-85905621D01*
X142246229Y-85897375D01*
X142250974Y-85885390D01*
X142255202Y-85868731D01*
X142258943Y-85846463D01*
X142262227Y-85817652D01*
X142265083Y-85781363D01*
X142267540Y-85736661D01*
X142269629Y-85682611D01*
X142271378Y-85618279D01*
X142272817Y-85542730D01*
X142273976Y-85455030D01*
X142274883Y-85354243D01*
X142275569Y-85239434D01*
X142276063Y-85109670D01*
X142276395Y-84964015D01*
X142276593Y-84801535D01*
X142276687Y-84621295D01*
X142276708Y-84422360D01*
X142276685Y-84203796D01*
X142276646Y-83964668D01*
X142276622Y-83704040D01*
X142276622Y-83661889D01*
X142276636Y-83398992D01*
X142276661Y-83157732D01*
X142276671Y-82937165D01*
X142276642Y-82736352D01*
X142276548Y-82554349D01*
X142276362Y-82390216D01*
X142276059Y-82243011D01*
X142275614Y-82111792D01*
X142275034Y-82001867D01*
X141972197Y-82001867D01*
X141932407Y-82059711D01*
X141921236Y-82075479D01*
X141911166Y-82089441D01*
X141902138Y-82102784D01*
X141894097Y-82116693D01*
X141886986Y-82132356D01*
X141880747Y-82150958D01*
X141875325Y-82173686D01*
X141870662Y-82201727D01*
X141866701Y-82236267D01*
X141863385Y-82278492D01*
X141860659Y-82329589D01*
X141858464Y-82390744D01*
X141856745Y-82463144D01*
X141855444Y-82547975D01*
X141854505Y-82646422D01*
X141853870Y-82759674D01*
X141853484Y-82888916D01*
X141853288Y-83035334D01*
X141853227Y-83200116D01*
X141853243Y-83384447D01*
X141853280Y-83589513D01*
X141853289Y-83712133D01*
X141853265Y-83929082D01*
X141853231Y-84124642D01*
X141853243Y-84299999D01*
X141853358Y-84456341D01*
X141853630Y-84594857D01*
X141854118Y-84716734D01*
X141854876Y-84823160D01*
X141855962Y-84915322D01*
X141857431Y-84994409D01*
X141859340Y-85061608D01*
X141861744Y-85118107D01*
X141864701Y-85165093D01*
X141868266Y-85203755D01*
X141872495Y-85235280D01*
X141877446Y-85260855D01*
X141883173Y-85281670D01*
X141889733Y-85298911D01*
X141897183Y-85313765D01*
X141905579Y-85327422D01*
X141914976Y-85341069D01*
X141925432Y-85355893D01*
X141931523Y-85364783D01*
X141970296Y-85422400D01*
X141438732Y-85422400D01*
X141315483Y-85422365D01*
X141212987Y-85422215D01*
X141129420Y-85421878D01*
X141062956Y-85421286D01*
X141011771Y-85420367D01*
X140974041Y-85419051D01*
X140947940Y-85417269D01*
X140931644Y-85414951D01*
X140923328Y-85412026D01*
X140921168Y-85408424D01*
X140923339Y-85404075D01*
X140924535Y-85402645D01*
X140949685Y-85365573D01*
X140975583Y-85312772D01*
X140999192Y-85250770D01*
X141007461Y-85224357D01*
X141012078Y-85206416D01*
X141015979Y-85185355D01*
X141019248Y-85159089D01*
X141021966Y-85125532D01*
X141024215Y-85082599D01*
X141026077Y-85028204D01*
X141027636Y-84960262D01*
X141028972Y-84876688D01*
X141030169Y-84775395D01*
X141031308Y-84654300D01*
X141031685Y-84609600D01*
X141032702Y-84484449D01*
X141033460Y-84380082D01*
X141033903Y-84294707D01*
X141033970Y-84226533D01*
X141033605Y-84173765D01*
X141032748Y-84134614D01*
X141031341Y-84107285D01*
X141029325Y-84089986D01*
X141026643Y-84080926D01*
X141023236Y-84078312D01*
X141019044Y-84080351D01*
X141014571Y-84084667D01*
X141004216Y-84097602D01*
X140982158Y-84126676D01*
X140949957Y-84169759D01*
X140909174Y-84224718D01*
X140861370Y-84289423D01*
X140808105Y-84361742D01*
X140750940Y-84439544D01*
X140691437Y-84520698D01*
X140631155Y-84603072D01*
X140571655Y-84684536D01*
X140514498Y-84762957D01*
X140461245Y-84836204D01*
X140413457Y-84902147D01*
X140372693Y-84958654D01*
X140340516Y-85003593D01*
X140318485Y-85034834D01*
X140313917Y-85041466D01*
X140290996Y-85078369D01*
X140264188Y-85126359D01*
X140238789Y-85175897D01*
X140235568Y-85182577D01*
X140213890Y-85230772D01*
X140201304Y-85268334D01*
X140195574Y-85304160D01*
X140194456Y-85346200D01*
X140195090Y-85422400D01*
X139040651Y-85422400D01*
X139131815Y-85328669D01*
X139178612Y-85278775D01*
X139228899Y-85222295D01*
X139274944Y-85168026D01*
X139295369Y-85142673D01*
X139325807Y-85103128D01*
X139365862Y-85049916D01*
X139414361Y-84984667D01*
X139470135Y-84909011D01*
X139532011Y-84824577D01*
X139598819Y-84732994D01*
X139669387Y-84635892D01*
X139742545Y-84534901D01*
X139817121Y-84431650D01*
X139891944Y-84327768D01*
X139965843Y-84224885D01*
X140037646Y-84124631D01*
X140106184Y-84028636D01*
X140170284Y-83938527D01*
X140228775Y-83855936D01*
X140280486Y-83782492D01*
X140324247Y-83719824D01*
X140358885Y-83669561D01*
X140383230Y-83633334D01*
X140396111Y-83612771D01*
X140397869Y-83608668D01*
X140389910Y-83597342D01*
X140369115Y-83570162D01*
X140336847Y-83528829D01*
X140294470Y-83475044D01*
X140243347Y-83410506D01*
X140184841Y-83336918D01*
X140120314Y-83255978D01*
X140051131Y-83169388D01*
X139978653Y-83078848D01*
X139904246Y-82986060D01*
X139844517Y-82911702D01*
X138833511Y-82911702D01*
X138827602Y-82924659D01*
X138813272Y-82946908D01*
X138812225Y-82948391D01*
X138793438Y-82978544D01*
X138773791Y-83015375D01*
X138769892Y-83023511D01*
X138766356Y-83031940D01*
X138763230Y-83042059D01*
X138760486Y-83055260D01*
X138758092Y-83072938D01*
X138756019Y-83096484D01*
X138754235Y-83127293D01*
X138752712Y-83166757D01*
X138751419Y-83216269D01*
X138750326Y-83277223D01*
X138749403Y-83351011D01*
X138748619Y-83439028D01*
X138747945Y-83542665D01*
X138747350Y-83663316D01*
X138746805Y-83802374D01*
X138746279Y-83961232D01*
X138745745Y-84140089D01*
X138745206Y-84325207D01*
X138744772Y-84489145D01*
X138744509Y-84633303D01*
X138744484Y-84759079D01*
X138744765Y-84867871D01*
X138745419Y-84961077D01*
X138746514Y-85040097D01*
X138748118Y-85106328D01*
X138750297Y-85161170D01*
X138753119Y-85206021D01*
X138756651Y-85242278D01*
X138760961Y-85271341D01*
X138766117Y-85294609D01*
X138772185Y-85313479D01*
X138779233Y-85329351D01*
X138787329Y-85343622D01*
X138796540Y-85357691D01*
X138805040Y-85370158D01*
X138822176Y-85396452D01*
X138832322Y-85414037D01*
X138833511Y-85417257D01*
X138822604Y-85418334D01*
X138791411Y-85419335D01*
X138742223Y-85420235D01*
X138677333Y-85421010D01*
X138599030Y-85421637D01*
X138509607Y-85422091D01*
X138411356Y-85422349D01*
X138342445Y-85422400D01*
X138237452Y-85422180D01*
X138140610Y-85421548D01*
X138054107Y-85420549D01*
X137980132Y-85419227D01*
X137920874Y-85417626D01*
X137878520Y-85415791D01*
X137855260Y-85413765D01*
X137851378Y-85412493D01*
X137859076Y-85397591D01*
X137867074Y-85389560D01*
X137880246Y-85372434D01*
X137897485Y-85342183D01*
X137909407Y-85317622D01*
X137936045Y-85258711D01*
X137939120Y-84081845D01*
X137942195Y-82904978D01*
X138387853Y-82904978D01*
X138485670Y-82905142D01*
X138576064Y-82905611D01*
X138656630Y-82906347D01*
X138724962Y-82907316D01*
X138778656Y-82908480D01*
X138815305Y-82909803D01*
X138832504Y-82911249D01*
X138833511Y-82911702D01*
X139844517Y-82911702D01*
X139829270Y-82892722D01*
X139755090Y-82800537D01*
X139683069Y-82711204D01*
X139614569Y-82626424D01*
X139550955Y-82547898D01*
X139493588Y-82477326D01*
X139443833Y-82416409D01*
X139403052Y-82366847D01*
X139385888Y-82346178D01*
X139299596Y-82245516D01*
X139222997Y-82162259D01*
X139154183Y-82094438D01*
X139091248Y-82040089D01*
X139081867Y-82032722D01*
X139042356Y-82002117D01*
X140174116Y-82001867D01*
X140168827Y-82049844D01*
X140172130Y-82107188D01*
X140193661Y-82175463D01*
X140233635Y-82255212D01*
X140278943Y-82327495D01*
X140295161Y-82350140D01*
X140323214Y-82387696D01*
X140361430Y-82438021D01*
X140408137Y-82498973D01*
X140461661Y-82568411D01*
X140520331Y-82644194D01*
X140582475Y-82724180D01*
X140646421Y-82806228D01*
X140710495Y-82888196D01*
X140773027Y-82967943D01*
X140832343Y-83043327D01*
X140886771Y-83112207D01*
X140934639Y-83172442D01*
X140974275Y-83221889D01*
X141004006Y-83258408D01*
X141022161Y-83279858D01*
X141025220Y-83283156D01*
X141028079Y-83275149D01*
X141030293Y-83244855D01*
X141031857Y-83192556D01*
X141032767Y-83118531D01*
X141033020Y-83023063D01*
X141032613Y-82906434D01*
X141031704Y-82786445D01*
X141030382Y-82654333D01*
X141028857Y-82542594D01*
X141026881Y-82449025D01*
X141024206Y-82371419D01*
X141020582Y-82307574D01*
X141015761Y-82255283D01*
X141009494Y-82212344D01*
X141001532Y-82176551D01*
X140991627Y-82145700D01*
X140979531Y-82117586D01*
X140964993Y-82090005D01*
X140950311Y-82064966D01*
X140912314Y-82001867D01*
X141972197Y-82001867D01*
X142275034Y-82001867D01*
X142275001Y-81995617D01*
X142274195Y-81893544D01*
X142273170Y-81804633D01*
X142271900Y-81727941D01*
X142270360Y-81662527D01*
X142268524Y-81607449D01*
X142266367Y-81561765D01*
X142263863Y-81524534D01*
X142260987Y-81494813D01*
X142257713Y-81471662D01*
X142254015Y-81454139D01*
X142249869Y-81441301D01*
X142245247Y-81432208D01*
X142240126Y-81425918D01*
X142234478Y-81421488D01*
X142228279Y-81417978D01*
X142221504Y-81414445D01*
X142215508Y-81410876D01*
X142210275Y-81408300D01*
X142202099Y-81405972D01*
X142189886Y-81403878D01*
X142172541Y-81402007D01*
X142148969Y-81400347D01*
X142118077Y-81398884D01*
X142078768Y-81397608D01*
X142029950Y-81396504D01*
X141970527Y-81395561D01*
X141899404Y-81394767D01*
X141815488Y-81394109D01*
X141717683Y-81393575D01*
X141604894Y-81393153D01*
X141476029Y-81392829D01*
X141329991Y-81392592D01*
X141165686Y-81392430D01*
X140982020Y-81392330D01*
X140777897Y-81392280D01*
X140566753Y-81392267D01*
X138946400Y-81392267D01*
X138946400Y-81489054D01*
G37*
X138946400Y-81489054D02*
X138935535Y-81602993D01*
X138903918Y-81710616D01*
X138853015Y-81809615D01*
X138784293Y-81897684D01*
X138699219Y-81972516D01*
X138602232Y-82030384D01*
X138495964Y-82070005D01*
X138388950Y-82088573D01*
X138283300Y-82087434D01*
X138181125Y-82067930D01*
X138084534Y-82031406D01*
X137995638Y-81979205D01*
X137916546Y-81912673D01*
X137849369Y-81833152D01*
X137796217Y-81741987D01*
X137759199Y-81640523D01*
X137740427Y-81530102D01*
X137738489Y-81480206D01*
X137738489Y-81392267D01*
X137686560Y-81392267D01*
X137650253Y-81395111D01*
X137623355Y-81406911D01*
X137596249Y-81430649D01*
X137557867Y-81469031D01*
X137557867Y-83660602D01*
X137557876Y-83922739D01*
X137557908Y-84163241D01*
X137557972Y-84383048D01*
X137558076Y-84583101D01*
X137558227Y-84764344D01*
X137558434Y-84927716D01*
X137558706Y-85074160D01*
X137559050Y-85204617D01*
X137559474Y-85320029D01*
X137559987Y-85421338D01*
X137560597Y-85509484D01*
X137561312Y-85585410D01*
X137562140Y-85650057D01*
X137563089Y-85704367D01*
X137564167Y-85749280D01*
X137565383Y-85785740D01*
X137566745Y-85814687D01*
X137568261Y-85837063D01*
X137569938Y-85853809D01*
X137571786Y-85865868D01*
X137573813Y-85874180D01*
X137576025Y-85879687D01*
X137577108Y-85881537D01*
X137581271Y-85888549D01*
X137584805Y-85894996D01*
X137588635Y-85900900D01*
X137593682Y-85906286D01*
X137600871Y-85911178D01*
X137611123Y-85915598D01*
X137625364Y-85919572D01*
X137644514Y-85923121D01*
X137669499Y-85926270D01*
X137701240Y-85929042D01*
X137740662Y-85931461D01*
X137788686Y-85933551D01*
X137846237Y-85935335D01*
X137914237Y-85936837D01*
X137993610Y-85938080D01*
X138085279Y-85939089D01*
X138190166Y-85939885D01*
X138309196Y-85940494D01*
X138443290Y-85940939D01*
X138593373Y-85941243D01*
X138760367Y-85941430D01*
X138945196Y-85941524D01*
X139148783Y-85941548D01*
X139372050Y-85941525D01*
X139615922Y-85941480D01*
X139881321Y-85941437D01*
X139919704Y-85941432D01*
X140186682Y-85941389D01*
X140432002Y-85941318D01*
X140656583Y-85941213D01*
X140861345Y-85941066D01*
X141047206Y-85940869D01*
X141215088Y-85940616D01*
X141365908Y-85940300D01*
X141500587Y-85939913D01*
X141620044Y-85939447D01*
X141725199Y-85938897D01*
X141816971Y-85938253D01*
X141896279Y-85937511D01*
X141964043Y-85936661D01*
X142021182Y-85935697D01*
X142068617Y-85934611D01*
X142107266Y-85933397D01*
X142138049Y-85932047D01*
X142161885Y-85930555D01*
X142179694Y-85928911D01*
X142192395Y-85927111D01*
X142200908Y-85925145D01*
X142205266Y-85923477D01*
X142213728Y-85919906D01*
X142221497Y-85917270D01*
X142228602Y-85914634D01*
X142235073Y-85911062D01*
X142240939Y-85905621D01*
X142246229Y-85897375D01*
X142250974Y-85885390D01*
X142255202Y-85868731D01*
X142258943Y-85846463D01*
X142262227Y-85817652D01*
X142265083Y-85781363D01*
X142267540Y-85736661D01*
X142269629Y-85682611D01*
X142271378Y-85618279D01*
X142272817Y-85542730D01*
X142273976Y-85455030D01*
X142274883Y-85354243D01*
X142275569Y-85239434D01*
X142276063Y-85109670D01*
X142276395Y-84964015D01*
X142276593Y-84801535D01*
X142276687Y-84621295D01*
X142276708Y-84422360D01*
X142276685Y-84203796D01*
X142276646Y-83964668D01*
X142276622Y-83704040D01*
X142276622Y-83661889D01*
X142276636Y-83398992D01*
X142276661Y-83157732D01*
X142276671Y-82937165D01*
X142276642Y-82736352D01*
X142276548Y-82554349D01*
X142276362Y-82390216D01*
X142276059Y-82243011D01*
X142275614Y-82111792D01*
X142275034Y-82001867D01*
X141972197Y-82001867D01*
X141932407Y-82059711D01*
X141921236Y-82075479D01*
X141911166Y-82089441D01*
X141902138Y-82102784D01*
X141894097Y-82116693D01*
X141886986Y-82132356D01*
X141880747Y-82150958D01*
X141875325Y-82173686D01*
X141870662Y-82201727D01*
X141866701Y-82236267D01*
X141863385Y-82278492D01*
X141860659Y-82329589D01*
X141858464Y-82390744D01*
X141856745Y-82463144D01*
X141855444Y-82547975D01*
X141854505Y-82646422D01*
X141853870Y-82759674D01*
X141853484Y-82888916D01*
X141853288Y-83035334D01*
X141853227Y-83200116D01*
X141853243Y-83384447D01*
X141853280Y-83589513D01*
X141853289Y-83712133D01*
X141853265Y-83929082D01*
X141853231Y-84124642D01*
X141853243Y-84299999D01*
X141853358Y-84456341D01*
X141853630Y-84594857D01*
X141854118Y-84716734D01*
X141854876Y-84823160D01*
X141855962Y-84915322D01*
X141857431Y-84994409D01*
X141859340Y-85061608D01*
X141861744Y-85118107D01*
X141864701Y-85165093D01*
X141868266Y-85203755D01*
X141872495Y-85235280D01*
X141877446Y-85260855D01*
X141883173Y-85281670D01*
X141889733Y-85298911D01*
X141897183Y-85313765D01*
X141905579Y-85327422D01*
X141914976Y-85341069D01*
X141925432Y-85355893D01*
X141931523Y-85364783D01*
X141970296Y-85422400D01*
X141438732Y-85422400D01*
X141315483Y-85422365D01*
X141212987Y-85422215D01*
X141129420Y-85421878D01*
X141062956Y-85421286D01*
X141011771Y-85420367D01*
X140974041Y-85419051D01*
X140947940Y-85417269D01*
X140931644Y-85414951D01*
X140923328Y-85412026D01*
X140921168Y-85408424D01*
X140923339Y-85404075D01*
X140924535Y-85402645D01*
X140949685Y-85365573D01*
X140975583Y-85312772D01*
X140999192Y-85250770D01*
X141007461Y-85224357D01*
X141012078Y-85206416D01*
X141015979Y-85185355D01*
X141019248Y-85159089D01*
X141021966Y-85125532D01*
X141024215Y-85082599D01*
X141026077Y-85028204D01*
X141027636Y-84960262D01*
X141028972Y-84876688D01*
X141030169Y-84775395D01*
X141031308Y-84654300D01*
X141031685Y-84609600D01*
X141032702Y-84484449D01*
X141033460Y-84380082D01*
X141033903Y-84294707D01*
X141033970Y-84226533D01*
X141033605Y-84173765D01*
X141032748Y-84134614D01*
X141031341Y-84107285D01*
X141029325Y-84089986D01*
X141026643Y-84080926D01*
X141023236Y-84078312D01*
X141019044Y-84080351D01*
X141014571Y-84084667D01*
X141004216Y-84097602D01*
X140982158Y-84126676D01*
X140949957Y-84169759D01*
X140909174Y-84224718D01*
X140861370Y-84289423D01*
X140808105Y-84361742D01*
X140750940Y-84439544D01*
X140691437Y-84520698D01*
X140631155Y-84603072D01*
X140571655Y-84684536D01*
X140514498Y-84762957D01*
X140461245Y-84836204D01*
X140413457Y-84902147D01*
X140372693Y-84958654D01*
X140340516Y-85003593D01*
X140318485Y-85034834D01*
X140313917Y-85041466D01*
X140290996Y-85078369D01*
X140264188Y-85126359D01*
X140238789Y-85175897D01*
X140235568Y-85182577D01*
X140213890Y-85230772D01*
X140201304Y-85268334D01*
X140195574Y-85304160D01*
X140194456Y-85346200D01*
X140195090Y-85422400D01*
X139040651Y-85422400D01*
X139131815Y-85328669D01*
X139178612Y-85278775D01*
X139228899Y-85222295D01*
X139274944Y-85168026D01*
X139295369Y-85142673D01*
X139325807Y-85103128D01*
X139365862Y-85049916D01*
X139414361Y-84984667D01*
X139470135Y-84909011D01*
X139532011Y-84824577D01*
X139598819Y-84732994D01*
X139669387Y-84635892D01*
X139742545Y-84534901D01*
X139817121Y-84431650D01*
X139891944Y-84327768D01*
X139965843Y-84224885D01*
X140037646Y-84124631D01*
X140106184Y-84028636D01*
X140170284Y-83938527D01*
X140228775Y-83855936D01*
X140280486Y-83782492D01*
X140324247Y-83719824D01*
X140358885Y-83669561D01*
X140383230Y-83633334D01*
X140396111Y-83612771D01*
X140397869Y-83608668D01*
X140389910Y-83597342D01*
X140369115Y-83570162D01*
X140336847Y-83528829D01*
X140294470Y-83475044D01*
X140243347Y-83410506D01*
X140184841Y-83336918D01*
X140120314Y-83255978D01*
X140051131Y-83169388D01*
X139978653Y-83078848D01*
X139904246Y-82986060D01*
X139844517Y-82911702D01*
X138833511Y-82911702D01*
X138827602Y-82924659D01*
X138813272Y-82946908D01*
X138812225Y-82948391D01*
X138793438Y-82978544D01*
X138773791Y-83015375D01*
X138769892Y-83023511D01*
X138766356Y-83031940D01*
X138763230Y-83042059D01*
X138760486Y-83055260D01*
X138758092Y-83072938D01*
X138756019Y-83096484D01*
X138754235Y-83127293D01*
X138752712Y-83166757D01*
X138751419Y-83216269D01*
X138750326Y-83277223D01*
X138749403Y-83351011D01*
X138748619Y-83439028D01*
X138747945Y-83542665D01*
X138747350Y-83663316D01*
X138746805Y-83802374D01*
X138746279Y-83961232D01*
X138745745Y-84140089D01*
X138745206Y-84325207D01*
X138744772Y-84489145D01*
X138744509Y-84633303D01*
X138744484Y-84759079D01*
X138744765Y-84867871D01*
X138745419Y-84961077D01*
X138746514Y-85040097D01*
X138748118Y-85106328D01*
X138750297Y-85161170D01*
X138753119Y-85206021D01*
X138756651Y-85242278D01*
X138760961Y-85271341D01*
X138766117Y-85294609D01*
X138772185Y-85313479D01*
X138779233Y-85329351D01*
X138787329Y-85343622D01*
X138796540Y-85357691D01*
X138805040Y-85370158D01*
X138822176Y-85396452D01*
X138832322Y-85414037D01*
X138833511Y-85417257D01*
X138822604Y-85418334D01*
X138791411Y-85419335D01*
X138742223Y-85420235D01*
X138677333Y-85421010D01*
X138599030Y-85421637D01*
X138509607Y-85422091D01*
X138411356Y-85422349D01*
X138342445Y-85422400D01*
X138237452Y-85422180D01*
X138140610Y-85421548D01*
X138054107Y-85420549D01*
X137980132Y-85419227D01*
X137920874Y-85417626D01*
X137878520Y-85415791D01*
X137855260Y-85413765D01*
X137851378Y-85412493D01*
X137859076Y-85397591D01*
X137867074Y-85389560D01*
X137880246Y-85372434D01*
X137897485Y-85342183D01*
X137909407Y-85317622D01*
X137936045Y-85258711D01*
X137939120Y-84081845D01*
X137942195Y-82904978D01*
X138387853Y-82904978D01*
X138485670Y-82905142D01*
X138576064Y-82905611D01*
X138656630Y-82906347D01*
X138724962Y-82907316D01*
X138778656Y-82908480D01*
X138815305Y-82909803D01*
X138832504Y-82911249D01*
X138833511Y-82911702D01*
X139844517Y-82911702D01*
X139829270Y-82892722D01*
X139755090Y-82800537D01*
X139683069Y-82711204D01*
X139614569Y-82626424D01*
X139550955Y-82547898D01*
X139493588Y-82477326D01*
X139443833Y-82416409D01*
X139403052Y-82366847D01*
X139385888Y-82346178D01*
X139299596Y-82245516D01*
X139222997Y-82162259D01*
X139154183Y-82094438D01*
X139091248Y-82040089D01*
X139081867Y-82032722D01*
X139042356Y-82002117D01*
X140174116Y-82001867D01*
X140168827Y-82049844D01*
X140172130Y-82107188D01*
X140193661Y-82175463D01*
X140233635Y-82255212D01*
X140278943Y-82327495D01*
X140295161Y-82350140D01*
X140323214Y-82387696D01*
X140361430Y-82438021D01*
X140408137Y-82498973D01*
X140461661Y-82568411D01*
X140520331Y-82644194D01*
X140582475Y-82724180D01*
X140646421Y-82806228D01*
X140710495Y-82888196D01*
X140773027Y-82967943D01*
X140832343Y-83043327D01*
X140886771Y-83112207D01*
X140934639Y-83172442D01*
X140974275Y-83221889D01*
X141004006Y-83258408D01*
X141022161Y-83279858D01*
X141025220Y-83283156D01*
X141028079Y-83275149D01*
X141030293Y-83244855D01*
X141031857Y-83192556D01*
X141032767Y-83118531D01*
X141033020Y-83023063D01*
X141032613Y-82906434D01*
X141031704Y-82786445D01*
X141030382Y-82654333D01*
X141028857Y-82542594D01*
X141026881Y-82449025D01*
X141024206Y-82371419D01*
X141020582Y-82307574D01*
X141015761Y-82255283D01*
X141009494Y-82212344D01*
X141001532Y-82176551D01*
X140991627Y-82145700D01*
X140979531Y-82117586D01*
X140964993Y-82090005D01*
X140950311Y-82064966D01*
X140912314Y-82001867D01*
X141972197Y-82001867D01*
X142275034Y-82001867D01*
X142275001Y-81995617D01*
X142274195Y-81893544D01*
X142273170Y-81804633D01*
X142271900Y-81727941D01*
X142270360Y-81662527D01*
X142268524Y-81607449D01*
X142266367Y-81561765D01*
X142263863Y-81524534D01*
X142260987Y-81494813D01*
X142257713Y-81471662D01*
X142254015Y-81454139D01*
X142249869Y-81441301D01*
X142245247Y-81432208D01*
X142240126Y-81425918D01*
X142234478Y-81421488D01*
X142228279Y-81417978D01*
X142221504Y-81414445D01*
X142215508Y-81410876D01*
X142210275Y-81408300D01*
X142202099Y-81405972D01*
X142189886Y-81403878D01*
X142172541Y-81402007D01*
X142148969Y-81400347D01*
X142118077Y-81398884D01*
X142078768Y-81397608D01*
X142029950Y-81396504D01*
X141970527Y-81395561D01*
X141899404Y-81394767D01*
X141815488Y-81394109D01*
X141717683Y-81393575D01*
X141604894Y-81393153D01*
X141476029Y-81392829D01*
X141329991Y-81392592D01*
X141165686Y-81392430D01*
X140982020Y-81392330D01*
X140777897Y-81392280D01*
X140566753Y-81392267D01*
X138946400Y-81392267D01*
X138946400Y-81489054D01*
M02*
