G04 #@! TF.GenerationSoftware,KiCad,Pcbnew,5.1.5*
G04 #@! TF.CreationDate,2019-12-14T12:20:04-05:00*
G04 #@! TF.ProjectId,stm32_f0_basic,73746d33-325f-4663-905f-62617369632e,0*
G04 #@! TF.SameCoordinates,Original*
G04 #@! TF.FileFunction,Soldermask,Top*
G04 #@! TF.FilePolarity,Negative*
%FSLAX46Y46*%
G04 Gerber Fmt 4.6, Leading zero omitted, Abs format (unit mm)*
G04 Created by KiCad (PCBNEW 5.1.5) date 2019-12-14 12:20:04*
%MOMM*%
%LPD*%
G04 APERTURE LIST*
%ADD10C,0.100000*%
G04 APERTURE END LIST*
D10*
G36*
X196524268Y-88299388D02*
G01*
X196802437Y-88354719D01*
X197303087Y-88562095D01*
X197483561Y-88682684D01*
X197753660Y-88863158D01*
X198136842Y-89246340D01*
X198317316Y-89516439D01*
X198437905Y-89696913D01*
X198645281Y-90197563D01*
X198658260Y-90262812D01*
X198745193Y-90699853D01*
X198751000Y-90729050D01*
X198751000Y-91270950D01*
X198645281Y-91802437D01*
X198437905Y-92303087D01*
X198317316Y-92483561D01*
X198136842Y-92753660D01*
X197753660Y-93136842D01*
X197483561Y-93317316D01*
X197303087Y-93437905D01*
X196802437Y-93645281D01*
X196536694Y-93698140D01*
X196270951Y-93751000D01*
X195729049Y-93751000D01*
X195463306Y-93698140D01*
X195197563Y-93645281D01*
X194696913Y-93437905D01*
X194516439Y-93317316D01*
X194246340Y-93136842D01*
X193863158Y-92753660D01*
X193682684Y-92483561D01*
X193562095Y-92303087D01*
X193354719Y-91802437D01*
X193249000Y-91270950D01*
X193249000Y-90729050D01*
X193254808Y-90699853D01*
X193341740Y-90262812D01*
X193354719Y-90197563D01*
X193562095Y-89696913D01*
X193682684Y-89516439D01*
X193863158Y-89246340D01*
X194246340Y-88863158D01*
X194516439Y-88682684D01*
X194696913Y-88562095D01*
X195197563Y-88354719D01*
X195475732Y-88299388D01*
X195729049Y-88249000D01*
X196270951Y-88249000D01*
X196524268Y-88299388D01*
G37*
G36*
X124524268Y-88299388D02*
G01*
X124802437Y-88354719D01*
X125303087Y-88562095D01*
X125483561Y-88682684D01*
X125753660Y-88863158D01*
X126136842Y-89246340D01*
X126317316Y-89516439D01*
X126437905Y-89696913D01*
X126645281Y-90197563D01*
X126658260Y-90262812D01*
X126745193Y-90699853D01*
X126751000Y-90729050D01*
X126751000Y-91270950D01*
X126645281Y-91802437D01*
X126437905Y-92303087D01*
X126317316Y-92483561D01*
X126136842Y-92753660D01*
X125753660Y-93136842D01*
X125483561Y-93317316D01*
X125303087Y-93437905D01*
X124802437Y-93645281D01*
X124536694Y-93698140D01*
X124270951Y-93751000D01*
X123729049Y-93751000D01*
X123463306Y-93698140D01*
X123197563Y-93645281D01*
X122696913Y-93437905D01*
X122516439Y-93317316D01*
X122246340Y-93136842D01*
X121863158Y-92753660D01*
X121682684Y-92483561D01*
X121562095Y-92303087D01*
X121354719Y-91802437D01*
X121249000Y-91270950D01*
X121249000Y-90729050D01*
X121254808Y-90699853D01*
X121341740Y-90262812D01*
X121354719Y-90197563D01*
X121562095Y-89696913D01*
X121682684Y-89516439D01*
X121863158Y-89246340D01*
X122246340Y-88863158D01*
X122516439Y-88682684D01*
X122696913Y-88562095D01*
X123197563Y-88354719D01*
X123475732Y-88299388D01*
X123729049Y-88249000D01*
X124270951Y-88249000D01*
X124524268Y-88299388D01*
G37*
G36*
X179554591Y-91978085D02*
G01*
X179588569Y-91988393D01*
X179619890Y-92005134D01*
X179647339Y-92027661D01*
X179669866Y-92055110D01*
X179686607Y-92086431D01*
X179696915Y-92120409D01*
X179701000Y-92161890D01*
X179701000Y-92838110D01*
X179696915Y-92879591D01*
X179686607Y-92913569D01*
X179669866Y-92944890D01*
X179647339Y-92972339D01*
X179619890Y-92994866D01*
X179588569Y-93011607D01*
X179554591Y-93021915D01*
X179513110Y-93026000D01*
X178911890Y-93026000D01*
X178870409Y-93021915D01*
X178836431Y-93011607D01*
X178805110Y-92994866D01*
X178777661Y-92972339D01*
X178755134Y-92944890D01*
X178738393Y-92913569D01*
X178728085Y-92879591D01*
X178724000Y-92838110D01*
X178724000Y-92161890D01*
X178728085Y-92120409D01*
X178738393Y-92086431D01*
X178755134Y-92055110D01*
X178777661Y-92027661D01*
X178805110Y-92005134D01*
X178836431Y-91988393D01*
X178870409Y-91978085D01*
X178911890Y-91974000D01*
X179513110Y-91974000D01*
X179554591Y-91978085D01*
G37*
G36*
X181129591Y-91978085D02*
G01*
X181163569Y-91988393D01*
X181194890Y-92005134D01*
X181222339Y-92027661D01*
X181244866Y-92055110D01*
X181261607Y-92086431D01*
X181271915Y-92120409D01*
X181276000Y-92161890D01*
X181276000Y-92838110D01*
X181271915Y-92879591D01*
X181261607Y-92913569D01*
X181244866Y-92944890D01*
X181222339Y-92972339D01*
X181194890Y-92994866D01*
X181163569Y-93011607D01*
X181129591Y-93021915D01*
X181088110Y-93026000D01*
X180486890Y-93026000D01*
X180445409Y-93021915D01*
X180411431Y-93011607D01*
X180380110Y-92994866D01*
X180352661Y-92972339D01*
X180330134Y-92944890D01*
X180313393Y-92913569D01*
X180303085Y-92879591D01*
X180299000Y-92838110D01*
X180299000Y-92161890D01*
X180303085Y-92120409D01*
X180313393Y-92086431D01*
X180330134Y-92055110D01*
X180352661Y-92027661D01*
X180380110Y-92005134D01*
X180411431Y-91988393D01*
X180445409Y-91978085D01*
X180486890Y-91974000D01*
X181088110Y-91974000D01*
X181129591Y-91978085D01*
G37*
G36*
X176022118Y-92027965D02*
G01*
X176054933Y-92037919D01*
X176085165Y-92054079D01*
X176111670Y-92075830D01*
X176133421Y-92102335D01*
X176149581Y-92132567D01*
X176159535Y-92165382D01*
X176163500Y-92205640D01*
X176163500Y-92794360D01*
X176159535Y-92834618D01*
X176149581Y-92867433D01*
X176133421Y-92897665D01*
X176111670Y-92924170D01*
X176085165Y-92945921D01*
X176054933Y-92962081D01*
X176022118Y-92972035D01*
X175981860Y-92976000D01*
X175018140Y-92976000D01*
X174977882Y-92972035D01*
X174945067Y-92962081D01*
X174914835Y-92945921D01*
X174888330Y-92924170D01*
X174866579Y-92897665D01*
X174850419Y-92867433D01*
X174840465Y-92834618D01*
X174836500Y-92794360D01*
X174836500Y-92205640D01*
X174840465Y-92165382D01*
X174850419Y-92132567D01*
X174866579Y-92102335D01*
X174888330Y-92075830D01*
X174914835Y-92054079D01*
X174945067Y-92037919D01*
X174977882Y-92027965D01*
X175018140Y-92024000D01*
X175981860Y-92024000D01*
X176022118Y-92027965D01*
G37*
G36*
X177647118Y-92027965D02*
G01*
X177679933Y-92037919D01*
X177710165Y-92054079D01*
X177736670Y-92075830D01*
X177758421Y-92102335D01*
X177774581Y-92132567D01*
X177784535Y-92165382D01*
X177788500Y-92205640D01*
X177788500Y-92794360D01*
X177784535Y-92834618D01*
X177774581Y-92867433D01*
X177758421Y-92897665D01*
X177736670Y-92924170D01*
X177710165Y-92945921D01*
X177679933Y-92962081D01*
X177647118Y-92972035D01*
X177606860Y-92976000D01*
X176643140Y-92976000D01*
X176602882Y-92972035D01*
X176570067Y-92962081D01*
X176539835Y-92945921D01*
X176513330Y-92924170D01*
X176491579Y-92897665D01*
X176475419Y-92867433D01*
X176465465Y-92834618D01*
X176461500Y-92794360D01*
X176461500Y-92205640D01*
X176465465Y-92165382D01*
X176475419Y-92132567D01*
X176491579Y-92102335D01*
X176513330Y-92075830D01*
X176539835Y-92054079D01*
X176570067Y-92037919D01*
X176602882Y-92027965D01*
X176643140Y-92024000D01*
X177606860Y-92024000D01*
X177647118Y-92027965D01*
G37*
G36*
X190301000Y-92951000D02*
G01*
X187699000Y-92951000D01*
X187699000Y-91049000D01*
X190301000Y-91049000D01*
X190301000Y-92951000D01*
G37*
G36*
X186301000Y-92951000D02*
G01*
X183699000Y-92951000D01*
X183699000Y-91049000D01*
X186301000Y-91049000D01*
X186301000Y-92951000D01*
G37*
G36*
X182584468Y-89966065D02*
G01*
X182623138Y-89977796D01*
X182658777Y-89996846D01*
X182690017Y-90022483D01*
X182715654Y-90053723D01*
X182734704Y-90089362D01*
X182746435Y-90128032D01*
X182751000Y-90174388D01*
X182751000Y-90825612D01*
X182746435Y-90871968D01*
X182734704Y-90910638D01*
X182715654Y-90946277D01*
X182690017Y-90977517D01*
X182658777Y-91003154D01*
X182623138Y-91022204D01*
X182584468Y-91033935D01*
X182538112Y-91038500D01*
X181461888Y-91038500D01*
X181415532Y-91033935D01*
X181376862Y-91022204D01*
X181341223Y-91003154D01*
X181309983Y-90977517D01*
X181284346Y-90946277D01*
X181265296Y-90910638D01*
X181253565Y-90871968D01*
X181249000Y-90825612D01*
X181249000Y-90174388D01*
X181253565Y-90128032D01*
X181265296Y-90089362D01*
X181284346Y-90053723D01*
X181309983Y-90022483D01*
X181341223Y-89996846D01*
X181376862Y-89977796D01*
X181415532Y-89966065D01*
X181461888Y-89961500D01*
X182538112Y-89961500D01*
X182584468Y-89966065D01*
G37*
G36*
X149946423Y-89102517D02*
G01*
X150102812Y-89133624D01*
X150266784Y-89201544D01*
X150414354Y-89300147D01*
X150539853Y-89425646D01*
X150638456Y-89573216D01*
X150706376Y-89737188D01*
X150736073Y-89886488D01*
X150741000Y-89911258D01*
X150741000Y-90088742D01*
X150736073Y-90113512D01*
X150706376Y-90262812D01*
X150638456Y-90426784D01*
X150539853Y-90574354D01*
X150414354Y-90699853D01*
X150266784Y-90798456D01*
X150102812Y-90866376D01*
X149953512Y-90896073D01*
X149928742Y-90901000D01*
X149751258Y-90901000D01*
X149726488Y-90896073D01*
X149577188Y-90866376D01*
X149413216Y-90798456D01*
X149265646Y-90699853D01*
X149140147Y-90574354D01*
X149041544Y-90426784D01*
X148973624Y-90262812D01*
X148943927Y-90113512D01*
X148939000Y-90088742D01*
X148939000Y-89911258D01*
X148943927Y-89886488D01*
X148973624Y-89737188D01*
X149041544Y-89573216D01*
X149140147Y-89425646D01*
X149265646Y-89300147D01*
X149413216Y-89201544D01*
X149577188Y-89133624D01*
X149733577Y-89102517D01*
X149751258Y-89099000D01*
X149928742Y-89099000D01*
X149946423Y-89102517D01*
G37*
G36*
X134706423Y-89102517D02*
G01*
X134862812Y-89133624D01*
X135026784Y-89201544D01*
X135174354Y-89300147D01*
X135299853Y-89425646D01*
X135398456Y-89573216D01*
X135466376Y-89737188D01*
X135496073Y-89886488D01*
X135501000Y-89911258D01*
X135501000Y-90088742D01*
X135496073Y-90113512D01*
X135466376Y-90262812D01*
X135398456Y-90426784D01*
X135299853Y-90574354D01*
X135174354Y-90699853D01*
X135026784Y-90798456D01*
X134862812Y-90866376D01*
X134713512Y-90896073D01*
X134688742Y-90901000D01*
X134511258Y-90901000D01*
X134486488Y-90896073D01*
X134337188Y-90866376D01*
X134173216Y-90798456D01*
X134025646Y-90699853D01*
X133900147Y-90574354D01*
X133801544Y-90426784D01*
X133733624Y-90262812D01*
X133703927Y-90113512D01*
X133699000Y-90088742D01*
X133699000Y-89911258D01*
X133703927Y-89886488D01*
X133733624Y-89737188D01*
X133801544Y-89573216D01*
X133900147Y-89425646D01*
X134025646Y-89300147D01*
X134173216Y-89201544D01*
X134337188Y-89133624D01*
X134493577Y-89102517D01*
X134511258Y-89099000D01*
X134688742Y-89099000D01*
X134706423Y-89102517D01*
G37*
G36*
X137246423Y-89102517D02*
G01*
X137402812Y-89133624D01*
X137566784Y-89201544D01*
X137714354Y-89300147D01*
X137839853Y-89425646D01*
X137938456Y-89573216D01*
X138006376Y-89737188D01*
X138036073Y-89886488D01*
X138041000Y-89911258D01*
X138041000Y-90088742D01*
X138036073Y-90113512D01*
X138006376Y-90262812D01*
X137938456Y-90426784D01*
X137839853Y-90574354D01*
X137714354Y-90699853D01*
X137566784Y-90798456D01*
X137402812Y-90866376D01*
X137253512Y-90896073D01*
X137228742Y-90901000D01*
X137051258Y-90901000D01*
X137026488Y-90896073D01*
X136877188Y-90866376D01*
X136713216Y-90798456D01*
X136565646Y-90699853D01*
X136440147Y-90574354D01*
X136341544Y-90426784D01*
X136273624Y-90262812D01*
X136243927Y-90113512D01*
X136239000Y-90088742D01*
X136239000Y-89911258D01*
X136243927Y-89886488D01*
X136273624Y-89737188D01*
X136341544Y-89573216D01*
X136440147Y-89425646D01*
X136565646Y-89300147D01*
X136713216Y-89201544D01*
X136877188Y-89133624D01*
X137033577Y-89102517D01*
X137051258Y-89099000D01*
X137228742Y-89099000D01*
X137246423Y-89102517D01*
G37*
G36*
X139786423Y-89102517D02*
G01*
X139942812Y-89133624D01*
X140106784Y-89201544D01*
X140254354Y-89300147D01*
X140379853Y-89425646D01*
X140478456Y-89573216D01*
X140546376Y-89737188D01*
X140576073Y-89886488D01*
X140581000Y-89911258D01*
X140581000Y-90088742D01*
X140576073Y-90113512D01*
X140546376Y-90262812D01*
X140478456Y-90426784D01*
X140379853Y-90574354D01*
X140254354Y-90699853D01*
X140106784Y-90798456D01*
X139942812Y-90866376D01*
X139793512Y-90896073D01*
X139768742Y-90901000D01*
X139591258Y-90901000D01*
X139566488Y-90896073D01*
X139417188Y-90866376D01*
X139253216Y-90798456D01*
X139105646Y-90699853D01*
X138980147Y-90574354D01*
X138881544Y-90426784D01*
X138813624Y-90262812D01*
X138783927Y-90113512D01*
X138779000Y-90088742D01*
X138779000Y-89911258D01*
X138783927Y-89886488D01*
X138813624Y-89737188D01*
X138881544Y-89573216D01*
X138980147Y-89425646D01*
X139105646Y-89300147D01*
X139253216Y-89201544D01*
X139417188Y-89133624D01*
X139573577Y-89102517D01*
X139591258Y-89099000D01*
X139768742Y-89099000D01*
X139786423Y-89102517D01*
G37*
G36*
X142326423Y-89102517D02*
G01*
X142482812Y-89133624D01*
X142646784Y-89201544D01*
X142794354Y-89300147D01*
X142919853Y-89425646D01*
X143018456Y-89573216D01*
X143086376Y-89737188D01*
X143116073Y-89886488D01*
X143121000Y-89911258D01*
X143121000Y-90088742D01*
X143116073Y-90113512D01*
X143086376Y-90262812D01*
X143018456Y-90426784D01*
X142919853Y-90574354D01*
X142794354Y-90699853D01*
X142646784Y-90798456D01*
X142482812Y-90866376D01*
X142333512Y-90896073D01*
X142308742Y-90901000D01*
X142131258Y-90901000D01*
X142106488Y-90896073D01*
X141957188Y-90866376D01*
X141793216Y-90798456D01*
X141645646Y-90699853D01*
X141520147Y-90574354D01*
X141421544Y-90426784D01*
X141353624Y-90262812D01*
X141323927Y-90113512D01*
X141319000Y-90088742D01*
X141319000Y-89911258D01*
X141323927Y-89886488D01*
X141353624Y-89737188D01*
X141421544Y-89573216D01*
X141520147Y-89425646D01*
X141645646Y-89300147D01*
X141793216Y-89201544D01*
X141957188Y-89133624D01*
X142113577Y-89102517D01*
X142131258Y-89099000D01*
X142308742Y-89099000D01*
X142326423Y-89102517D01*
G37*
G36*
X144866423Y-89102517D02*
G01*
X145022812Y-89133624D01*
X145186784Y-89201544D01*
X145334354Y-89300147D01*
X145459853Y-89425646D01*
X145558456Y-89573216D01*
X145626376Y-89737188D01*
X145656073Y-89886488D01*
X145661000Y-89911258D01*
X145661000Y-90088742D01*
X145656073Y-90113512D01*
X145626376Y-90262812D01*
X145558456Y-90426784D01*
X145459853Y-90574354D01*
X145334354Y-90699853D01*
X145186784Y-90798456D01*
X145022812Y-90866376D01*
X144873512Y-90896073D01*
X144848742Y-90901000D01*
X144671258Y-90901000D01*
X144646488Y-90896073D01*
X144497188Y-90866376D01*
X144333216Y-90798456D01*
X144185646Y-90699853D01*
X144060147Y-90574354D01*
X143961544Y-90426784D01*
X143893624Y-90262812D01*
X143863927Y-90113512D01*
X143859000Y-90088742D01*
X143859000Y-89911258D01*
X143863927Y-89886488D01*
X143893624Y-89737188D01*
X143961544Y-89573216D01*
X144060147Y-89425646D01*
X144185646Y-89300147D01*
X144333216Y-89201544D01*
X144497188Y-89133624D01*
X144653577Y-89102517D01*
X144671258Y-89099000D01*
X144848742Y-89099000D01*
X144866423Y-89102517D01*
G37*
G36*
X147406423Y-89102517D02*
G01*
X147562812Y-89133624D01*
X147726784Y-89201544D01*
X147874354Y-89300147D01*
X147999853Y-89425646D01*
X148098456Y-89573216D01*
X148166376Y-89737188D01*
X148196073Y-89886488D01*
X148201000Y-89911258D01*
X148201000Y-90088742D01*
X148196073Y-90113512D01*
X148166376Y-90262812D01*
X148098456Y-90426784D01*
X147999853Y-90574354D01*
X147874354Y-90699853D01*
X147726784Y-90798456D01*
X147562812Y-90866376D01*
X147413512Y-90896073D01*
X147388742Y-90901000D01*
X147211258Y-90901000D01*
X147186488Y-90896073D01*
X147037188Y-90866376D01*
X146873216Y-90798456D01*
X146725646Y-90699853D01*
X146600147Y-90574354D01*
X146501544Y-90426784D01*
X146433624Y-90262812D01*
X146403927Y-90113512D01*
X146399000Y-90088742D01*
X146399000Y-89911258D01*
X146403927Y-89886488D01*
X146433624Y-89737188D01*
X146501544Y-89573216D01*
X146600147Y-89425646D01*
X146725646Y-89300147D01*
X146873216Y-89201544D01*
X147037188Y-89133624D01*
X147193577Y-89102517D01*
X147211258Y-89099000D01*
X147388742Y-89099000D01*
X147406423Y-89102517D01*
G37*
G36*
X152486423Y-89102517D02*
G01*
X152642812Y-89133624D01*
X152806784Y-89201544D01*
X152954354Y-89300147D01*
X153079853Y-89425646D01*
X153178456Y-89573216D01*
X153246376Y-89737188D01*
X153276073Y-89886488D01*
X153281000Y-89911258D01*
X153281000Y-90088742D01*
X153276073Y-90113512D01*
X153246376Y-90262812D01*
X153178456Y-90426784D01*
X153079853Y-90574354D01*
X152954354Y-90699853D01*
X152806784Y-90798456D01*
X152642812Y-90866376D01*
X152493512Y-90896073D01*
X152468742Y-90901000D01*
X152291258Y-90901000D01*
X152266488Y-90896073D01*
X152117188Y-90866376D01*
X151953216Y-90798456D01*
X151805646Y-90699853D01*
X151680147Y-90574354D01*
X151581544Y-90426784D01*
X151513624Y-90262812D01*
X151483927Y-90113512D01*
X151479000Y-90088742D01*
X151479000Y-89911258D01*
X151483927Y-89886488D01*
X151513624Y-89737188D01*
X151581544Y-89573216D01*
X151680147Y-89425646D01*
X151805646Y-89300147D01*
X151953216Y-89201544D01*
X152117188Y-89133624D01*
X152273577Y-89102517D01*
X152291258Y-89099000D01*
X152468742Y-89099000D01*
X152486423Y-89102517D01*
G37*
G36*
X155026423Y-89102517D02*
G01*
X155182812Y-89133624D01*
X155346784Y-89201544D01*
X155494354Y-89300147D01*
X155619853Y-89425646D01*
X155718456Y-89573216D01*
X155786376Y-89737188D01*
X155816073Y-89886488D01*
X155821000Y-89911258D01*
X155821000Y-90088742D01*
X155816073Y-90113512D01*
X155786376Y-90262812D01*
X155718456Y-90426784D01*
X155619853Y-90574354D01*
X155494354Y-90699853D01*
X155346784Y-90798456D01*
X155182812Y-90866376D01*
X155033512Y-90896073D01*
X155008742Y-90901000D01*
X154831258Y-90901000D01*
X154806488Y-90896073D01*
X154657188Y-90866376D01*
X154493216Y-90798456D01*
X154345646Y-90699853D01*
X154220147Y-90574354D01*
X154121544Y-90426784D01*
X154053624Y-90262812D01*
X154023927Y-90113512D01*
X154019000Y-90088742D01*
X154019000Y-89911258D01*
X154023927Y-89886488D01*
X154053624Y-89737188D01*
X154121544Y-89573216D01*
X154220147Y-89425646D01*
X154345646Y-89300147D01*
X154493216Y-89201544D01*
X154657188Y-89133624D01*
X154813577Y-89102517D01*
X154831258Y-89099000D01*
X155008742Y-89099000D01*
X155026423Y-89102517D01*
G37*
G36*
X157566423Y-89102517D02*
G01*
X157722812Y-89133624D01*
X157886784Y-89201544D01*
X158034354Y-89300147D01*
X158159853Y-89425646D01*
X158258456Y-89573216D01*
X158326376Y-89737188D01*
X158356073Y-89886488D01*
X158361000Y-89911258D01*
X158361000Y-90088742D01*
X158356073Y-90113512D01*
X158326376Y-90262812D01*
X158258456Y-90426784D01*
X158159853Y-90574354D01*
X158034354Y-90699853D01*
X157886784Y-90798456D01*
X157722812Y-90866376D01*
X157573512Y-90896073D01*
X157548742Y-90901000D01*
X157371258Y-90901000D01*
X157346488Y-90896073D01*
X157197188Y-90866376D01*
X157033216Y-90798456D01*
X156885646Y-90699853D01*
X156760147Y-90574354D01*
X156661544Y-90426784D01*
X156593624Y-90262812D01*
X156563927Y-90113512D01*
X156559000Y-90088742D01*
X156559000Y-89911258D01*
X156563927Y-89886488D01*
X156593624Y-89737188D01*
X156661544Y-89573216D01*
X156760147Y-89425646D01*
X156885646Y-89300147D01*
X157033216Y-89201544D01*
X157197188Y-89133624D01*
X157353577Y-89102517D01*
X157371258Y-89099000D01*
X157548742Y-89099000D01*
X157566423Y-89102517D01*
G37*
G36*
X132166423Y-89102517D02*
G01*
X132322812Y-89133624D01*
X132486784Y-89201544D01*
X132634354Y-89300147D01*
X132759853Y-89425646D01*
X132858456Y-89573216D01*
X132926376Y-89737188D01*
X132956073Y-89886488D01*
X132961000Y-89911258D01*
X132961000Y-90088742D01*
X132956073Y-90113512D01*
X132926376Y-90262812D01*
X132858456Y-90426784D01*
X132759853Y-90574354D01*
X132634354Y-90699853D01*
X132486784Y-90798456D01*
X132322812Y-90866376D01*
X132173512Y-90896073D01*
X132148742Y-90901000D01*
X131971258Y-90901000D01*
X131946488Y-90896073D01*
X131797188Y-90866376D01*
X131633216Y-90798456D01*
X131485646Y-90699853D01*
X131360147Y-90574354D01*
X131261544Y-90426784D01*
X131193624Y-90262812D01*
X131163927Y-90113512D01*
X131159000Y-90088742D01*
X131159000Y-89911258D01*
X131163927Y-89886488D01*
X131193624Y-89737188D01*
X131261544Y-89573216D01*
X131360147Y-89425646D01*
X131485646Y-89300147D01*
X131633216Y-89201544D01*
X131797188Y-89133624D01*
X131953577Y-89102517D01*
X131971258Y-89099000D01*
X132148742Y-89099000D01*
X132166423Y-89102517D01*
G37*
G36*
X160901000Y-90901000D02*
G01*
X159099000Y-90901000D01*
X159099000Y-89099000D01*
X160901000Y-89099000D01*
X160901000Y-90901000D01*
G37*
G36*
X188879591Y-88803085D02*
G01*
X188913569Y-88813393D01*
X188944890Y-88830134D01*
X188972339Y-88852661D01*
X188994866Y-88880110D01*
X189011607Y-88911431D01*
X189021915Y-88945409D01*
X189026000Y-88986890D01*
X189026000Y-89588110D01*
X189021915Y-89629591D01*
X189011607Y-89663569D01*
X188994866Y-89694890D01*
X188972339Y-89722339D01*
X188944890Y-89744866D01*
X188913569Y-89761607D01*
X188879591Y-89771915D01*
X188838110Y-89776000D01*
X188161890Y-89776000D01*
X188120409Y-89771915D01*
X188086431Y-89761607D01*
X188055110Y-89744866D01*
X188027661Y-89722339D01*
X188005134Y-89694890D01*
X187988393Y-89663569D01*
X187978085Y-89629591D01*
X187974000Y-89588110D01*
X187974000Y-88986890D01*
X187978085Y-88945409D01*
X187988393Y-88911431D01*
X188005134Y-88880110D01*
X188027661Y-88852661D01*
X188055110Y-88830134D01*
X188086431Y-88813393D01*
X188120409Y-88803085D01*
X188161890Y-88799000D01*
X188838110Y-88799000D01*
X188879591Y-88803085D01*
G37*
G36*
X190379591Y-88803085D02*
G01*
X190413569Y-88813393D01*
X190444890Y-88830134D01*
X190472339Y-88852661D01*
X190494866Y-88880110D01*
X190511607Y-88911431D01*
X190521915Y-88945409D01*
X190526000Y-88986890D01*
X190526000Y-89588110D01*
X190521915Y-89629591D01*
X190511607Y-89663569D01*
X190494866Y-89694890D01*
X190472339Y-89722339D01*
X190444890Y-89744866D01*
X190413569Y-89761607D01*
X190379591Y-89771915D01*
X190338110Y-89776000D01*
X189661890Y-89776000D01*
X189620409Y-89771915D01*
X189586431Y-89761607D01*
X189555110Y-89744866D01*
X189527661Y-89722339D01*
X189505134Y-89694890D01*
X189488393Y-89663569D01*
X189478085Y-89629591D01*
X189474000Y-89588110D01*
X189474000Y-88986890D01*
X189478085Y-88945409D01*
X189488393Y-88911431D01*
X189505134Y-88880110D01*
X189527661Y-88852661D01*
X189555110Y-88830134D01*
X189586431Y-88813393D01*
X189620409Y-88803085D01*
X189661890Y-88799000D01*
X190338110Y-88799000D01*
X190379591Y-88803085D01*
G37*
G36*
X186326000Y-89471000D02*
G01*
X183674000Y-89471000D01*
X183674000Y-88149000D01*
X186326000Y-88149000D01*
X186326000Y-89471000D01*
G37*
G36*
X182584468Y-88091065D02*
G01*
X182623138Y-88102796D01*
X182658777Y-88121846D01*
X182690017Y-88147483D01*
X182715654Y-88178723D01*
X182734704Y-88214362D01*
X182746435Y-88253032D01*
X182751000Y-88299388D01*
X182751000Y-88950612D01*
X182746435Y-88996968D01*
X182734704Y-89035638D01*
X182715654Y-89071277D01*
X182690017Y-89102517D01*
X182658777Y-89128154D01*
X182623138Y-89147204D01*
X182584468Y-89158935D01*
X182538112Y-89163500D01*
X181461888Y-89163500D01*
X181415532Y-89158935D01*
X181376862Y-89147204D01*
X181341223Y-89128154D01*
X181309983Y-89102517D01*
X181284346Y-89071277D01*
X181265296Y-89035638D01*
X181253565Y-88996968D01*
X181249000Y-88950612D01*
X181249000Y-88299388D01*
X181253565Y-88253032D01*
X181265296Y-88214362D01*
X181284346Y-88178723D01*
X181309983Y-88147483D01*
X181341223Y-88121846D01*
X181376862Y-88102796D01*
X181415532Y-88091065D01*
X181461888Y-88086500D01*
X182538112Y-88086500D01*
X182584468Y-88091065D01*
G37*
G36*
X188879591Y-87228085D02*
G01*
X188913569Y-87238393D01*
X188944890Y-87255134D01*
X188972339Y-87277661D01*
X188994866Y-87305110D01*
X189011607Y-87336431D01*
X189021915Y-87370409D01*
X189026000Y-87411890D01*
X189026000Y-88013110D01*
X189021915Y-88054591D01*
X189011607Y-88088569D01*
X188994866Y-88119890D01*
X188972339Y-88147339D01*
X188944890Y-88169866D01*
X188913569Y-88186607D01*
X188879591Y-88196915D01*
X188838110Y-88201000D01*
X188161890Y-88201000D01*
X188120409Y-88196915D01*
X188086431Y-88186607D01*
X188055110Y-88169866D01*
X188027661Y-88147339D01*
X188005134Y-88119890D01*
X187988393Y-88088569D01*
X187978085Y-88054591D01*
X187974000Y-88013110D01*
X187974000Y-87411890D01*
X187978085Y-87370409D01*
X187988393Y-87336431D01*
X188005134Y-87305110D01*
X188027661Y-87277661D01*
X188055110Y-87255134D01*
X188086431Y-87238393D01*
X188120409Y-87228085D01*
X188161890Y-87224000D01*
X188838110Y-87224000D01*
X188879591Y-87228085D01*
G37*
G36*
X190379591Y-87228085D02*
G01*
X190413569Y-87238393D01*
X190444890Y-87255134D01*
X190472339Y-87277661D01*
X190494866Y-87305110D01*
X190511607Y-87336431D01*
X190521915Y-87370409D01*
X190526000Y-87411890D01*
X190526000Y-88013110D01*
X190521915Y-88054591D01*
X190511607Y-88088569D01*
X190494866Y-88119890D01*
X190472339Y-88147339D01*
X190444890Y-88169866D01*
X190413569Y-88186607D01*
X190379591Y-88196915D01*
X190338110Y-88201000D01*
X189661890Y-88201000D01*
X189620409Y-88196915D01*
X189586431Y-88186607D01*
X189555110Y-88169866D01*
X189527661Y-88147339D01*
X189505134Y-88119890D01*
X189488393Y-88088569D01*
X189478085Y-88054591D01*
X189474000Y-88013110D01*
X189474000Y-87411890D01*
X189478085Y-87370409D01*
X189488393Y-87336431D01*
X189505134Y-87305110D01*
X189527661Y-87277661D01*
X189555110Y-87255134D01*
X189586431Y-87238393D01*
X189620409Y-87228085D01*
X189661890Y-87224000D01*
X190338110Y-87224000D01*
X190379591Y-87228085D01*
G37*
G36*
X177901000Y-87901000D02*
G01*
X176099000Y-87901000D01*
X176099000Y-86099000D01*
X177901000Y-86099000D01*
X177901000Y-87901000D01*
G37*
G36*
X174573512Y-86103927D02*
G01*
X174722812Y-86133624D01*
X174886784Y-86201544D01*
X175034354Y-86300147D01*
X175159853Y-86425646D01*
X175258456Y-86573216D01*
X175326376Y-86737188D01*
X175361000Y-86911259D01*
X175361000Y-87088741D01*
X175326376Y-87262812D01*
X175258456Y-87426784D01*
X175159853Y-87574354D01*
X175034354Y-87699853D01*
X174886784Y-87798456D01*
X174722812Y-87866376D01*
X174573512Y-87896073D01*
X174548742Y-87901000D01*
X174371258Y-87901000D01*
X174346488Y-87896073D01*
X174197188Y-87866376D01*
X174033216Y-87798456D01*
X173885646Y-87699853D01*
X173760147Y-87574354D01*
X173661544Y-87426784D01*
X173593624Y-87262812D01*
X173559000Y-87088741D01*
X173559000Y-86911259D01*
X173593624Y-86737188D01*
X173661544Y-86573216D01*
X173760147Y-86425646D01*
X173885646Y-86300147D01*
X174033216Y-86201544D01*
X174197188Y-86133624D01*
X174346488Y-86103927D01*
X174371258Y-86099000D01*
X174548742Y-86099000D01*
X174573512Y-86103927D01*
G37*
G36*
X182584468Y-86403565D02*
G01*
X182623138Y-86415296D01*
X182658777Y-86434346D01*
X182690017Y-86459983D01*
X182715654Y-86491223D01*
X182734704Y-86526862D01*
X182746435Y-86565532D01*
X182751000Y-86611888D01*
X182751000Y-87263112D01*
X182746435Y-87309468D01*
X182734704Y-87348138D01*
X182715654Y-87383777D01*
X182690017Y-87415017D01*
X182658777Y-87440654D01*
X182623138Y-87459704D01*
X182584468Y-87471435D01*
X182538112Y-87476000D01*
X181461888Y-87476000D01*
X181415532Y-87471435D01*
X181376862Y-87459704D01*
X181341223Y-87440654D01*
X181309983Y-87415017D01*
X181284346Y-87383777D01*
X181265296Y-87348138D01*
X181253565Y-87309468D01*
X181249000Y-87263112D01*
X181249000Y-86611888D01*
X181253565Y-86565532D01*
X181265296Y-86526862D01*
X181284346Y-86491223D01*
X181309983Y-86459983D01*
X181341223Y-86434346D01*
X181376862Y-86415296D01*
X181415532Y-86403565D01*
X181461888Y-86399000D01*
X182538112Y-86399000D01*
X182584468Y-86403565D01*
G37*
G36*
X184426000Y-86851000D02*
G01*
X183674000Y-86851000D01*
X183674000Y-85529000D01*
X184426000Y-85529000D01*
X184426000Y-86851000D01*
G37*
G36*
X186326000Y-86851000D02*
G01*
X185574000Y-86851000D01*
X185574000Y-85529000D01*
X186326000Y-85529000D01*
X186326000Y-86851000D01*
G37*
G36*
X182584468Y-84528565D02*
G01*
X182623138Y-84540296D01*
X182658777Y-84559346D01*
X182690017Y-84584983D01*
X182715654Y-84616223D01*
X182734704Y-84651862D01*
X182746435Y-84690532D01*
X182751000Y-84736888D01*
X182751000Y-85388112D01*
X182746435Y-85434468D01*
X182734704Y-85473138D01*
X182715654Y-85508777D01*
X182690017Y-85540017D01*
X182658777Y-85565654D01*
X182623138Y-85584704D01*
X182584468Y-85596435D01*
X182538112Y-85601000D01*
X181461888Y-85601000D01*
X181415532Y-85596435D01*
X181376862Y-85584704D01*
X181341223Y-85565654D01*
X181309983Y-85540017D01*
X181284346Y-85508777D01*
X181265296Y-85473138D01*
X181253565Y-85434468D01*
X181249000Y-85388112D01*
X181249000Y-84736888D01*
X181253565Y-84690532D01*
X181265296Y-84651862D01*
X181284346Y-84616223D01*
X181309983Y-84584983D01*
X181341223Y-84559346D01*
X181376862Y-84540296D01*
X181415532Y-84528565D01*
X181461888Y-84524000D01*
X182538112Y-84524000D01*
X182584468Y-84528565D01*
G37*
G36*
X193701000Y-85451000D02*
G01*
X191099000Y-85451000D01*
X191099000Y-83349000D01*
X193701000Y-83349000D01*
X193701000Y-85451000D01*
G37*
G36*
X199201000Y-85451000D02*
G01*
X196599000Y-85451000D01*
X196599000Y-83349000D01*
X199201000Y-83349000D01*
X199201000Y-85451000D01*
G37*
G36*
X165113512Y-81933927D02*
G01*
X165262812Y-81963624D01*
X165426784Y-82031544D01*
X165574354Y-82130147D01*
X165699853Y-82255646D01*
X165798456Y-82403216D01*
X165866376Y-82567188D01*
X165891777Y-82694890D01*
X165899723Y-82734836D01*
X165901000Y-82741259D01*
X165901000Y-82918741D01*
X165866376Y-83092812D01*
X165798456Y-83256784D01*
X165699853Y-83404354D01*
X165574354Y-83529853D01*
X165426784Y-83628456D01*
X165262812Y-83696376D01*
X165113512Y-83726073D01*
X165088742Y-83731000D01*
X164911258Y-83731000D01*
X164886488Y-83726073D01*
X164737188Y-83696376D01*
X164573216Y-83628456D01*
X164425646Y-83529853D01*
X164300147Y-83404354D01*
X164201544Y-83256784D01*
X164133624Y-83092812D01*
X164099000Y-82918741D01*
X164099000Y-82741259D01*
X164100278Y-82734836D01*
X164108223Y-82694890D01*
X164133624Y-82567188D01*
X164201544Y-82403216D01*
X164300147Y-82255646D01*
X164425646Y-82130147D01*
X164573216Y-82031544D01*
X164737188Y-81963624D01*
X164886488Y-81933927D01*
X164911258Y-81929000D01*
X165088742Y-81929000D01*
X165113512Y-81933927D01*
G37*
G36*
X180309468Y-81503565D02*
G01*
X180348138Y-81515296D01*
X180383777Y-81534346D01*
X180415017Y-81559983D01*
X180440654Y-81591223D01*
X180459704Y-81626862D01*
X180471435Y-81665532D01*
X180476000Y-81711888D01*
X180476000Y-82788112D01*
X180471435Y-82834468D01*
X180459704Y-82873138D01*
X180440654Y-82908777D01*
X180415017Y-82940017D01*
X180383777Y-82965654D01*
X180348138Y-82984704D01*
X180309468Y-82996435D01*
X180263112Y-83001000D01*
X179611888Y-83001000D01*
X179565532Y-82996435D01*
X179526862Y-82984704D01*
X179491223Y-82965654D01*
X179459983Y-82940017D01*
X179434346Y-82908777D01*
X179415296Y-82873138D01*
X179403565Y-82834468D01*
X179399000Y-82788112D01*
X179399000Y-81711888D01*
X179403565Y-81665532D01*
X179415296Y-81626862D01*
X179434346Y-81591223D01*
X179459983Y-81559983D01*
X179491223Y-81534346D01*
X179526862Y-81515296D01*
X179565532Y-81503565D01*
X179611888Y-81499000D01*
X180263112Y-81499000D01*
X180309468Y-81503565D01*
G37*
G36*
X152934468Y-81503565D02*
G01*
X152973138Y-81515296D01*
X153008777Y-81534346D01*
X153040017Y-81559983D01*
X153065654Y-81591223D01*
X153084704Y-81626862D01*
X153096435Y-81665532D01*
X153101000Y-81711888D01*
X153101000Y-82788112D01*
X153096435Y-82834468D01*
X153084704Y-82873138D01*
X153065654Y-82908777D01*
X153040017Y-82940017D01*
X153008777Y-82965654D01*
X152973138Y-82984704D01*
X152934468Y-82996435D01*
X152888112Y-83001000D01*
X152236888Y-83001000D01*
X152190532Y-82996435D01*
X152151862Y-82984704D01*
X152116223Y-82965654D01*
X152084983Y-82940017D01*
X152059346Y-82908777D01*
X152040296Y-82873138D01*
X152028565Y-82834468D01*
X152024000Y-82788112D01*
X152024000Y-81711888D01*
X152028565Y-81665532D01*
X152040296Y-81626862D01*
X152059346Y-81591223D01*
X152084983Y-81559983D01*
X152116223Y-81534346D01*
X152151862Y-81515296D01*
X152190532Y-81503565D01*
X152236888Y-81499000D01*
X152888112Y-81499000D01*
X152934468Y-81503565D01*
G37*
G36*
X154809468Y-81503565D02*
G01*
X154848138Y-81515296D01*
X154883777Y-81534346D01*
X154915017Y-81559983D01*
X154940654Y-81591223D01*
X154959704Y-81626862D01*
X154971435Y-81665532D01*
X154976000Y-81711888D01*
X154976000Y-82788112D01*
X154971435Y-82834468D01*
X154959704Y-82873138D01*
X154940654Y-82908777D01*
X154915017Y-82940017D01*
X154883777Y-82965654D01*
X154848138Y-82984704D01*
X154809468Y-82996435D01*
X154763112Y-83001000D01*
X154111888Y-83001000D01*
X154065532Y-82996435D01*
X154026862Y-82984704D01*
X153991223Y-82965654D01*
X153959983Y-82940017D01*
X153934346Y-82908777D01*
X153915296Y-82873138D01*
X153903565Y-82834468D01*
X153899000Y-82788112D01*
X153899000Y-81711888D01*
X153903565Y-81665532D01*
X153915296Y-81626862D01*
X153934346Y-81591223D01*
X153959983Y-81559983D01*
X153991223Y-81534346D01*
X154026862Y-81515296D01*
X154065532Y-81503565D01*
X154111888Y-81499000D01*
X154763112Y-81499000D01*
X154809468Y-81503565D01*
G37*
G36*
X178434468Y-81503565D02*
G01*
X178473138Y-81515296D01*
X178508777Y-81534346D01*
X178540017Y-81559983D01*
X178565654Y-81591223D01*
X178584704Y-81626862D01*
X178596435Y-81665532D01*
X178601000Y-81711888D01*
X178601000Y-82788112D01*
X178596435Y-82834468D01*
X178584704Y-82873138D01*
X178565654Y-82908777D01*
X178540017Y-82940017D01*
X178508777Y-82965654D01*
X178473138Y-82984704D01*
X178434468Y-82996435D01*
X178388112Y-83001000D01*
X177736888Y-83001000D01*
X177690532Y-82996435D01*
X177651862Y-82984704D01*
X177616223Y-82965654D01*
X177584983Y-82940017D01*
X177559346Y-82908777D01*
X177540296Y-82873138D01*
X177528565Y-82834468D01*
X177524000Y-82788112D01*
X177524000Y-81711888D01*
X177528565Y-81665532D01*
X177540296Y-81626862D01*
X177559346Y-81591223D01*
X177584983Y-81559983D01*
X177616223Y-81534346D01*
X177651862Y-81515296D01*
X177690532Y-81503565D01*
X177736888Y-81499000D01*
X178388112Y-81499000D01*
X178434468Y-81503565D01*
G37*
G36*
X176879591Y-81803085D02*
G01*
X176913569Y-81813393D01*
X176944890Y-81830134D01*
X176972339Y-81852661D01*
X176994866Y-81880110D01*
X177011607Y-81911431D01*
X177021915Y-81945409D01*
X177026000Y-81986890D01*
X177026000Y-82588110D01*
X177021915Y-82629591D01*
X177011607Y-82663569D01*
X176994866Y-82694890D01*
X176972339Y-82722339D01*
X176944890Y-82744866D01*
X176913569Y-82761607D01*
X176879591Y-82771915D01*
X176838110Y-82776000D01*
X176161890Y-82776000D01*
X176120409Y-82771915D01*
X176086431Y-82761607D01*
X176055110Y-82744866D01*
X176027661Y-82722339D01*
X176005134Y-82694890D01*
X175988393Y-82663569D01*
X175978085Y-82629591D01*
X175974000Y-82588110D01*
X175974000Y-81986890D01*
X175978085Y-81945409D01*
X175988393Y-81911431D01*
X176005134Y-81880110D01*
X176027661Y-81852661D01*
X176055110Y-81830134D01*
X176086431Y-81813393D01*
X176120409Y-81803085D01*
X176161890Y-81799000D01*
X176838110Y-81799000D01*
X176879591Y-81803085D01*
G37*
G36*
X195097740Y-81708626D02*
G01*
X195146136Y-81718253D01*
X195183902Y-81733896D01*
X195237311Y-81756019D01*
X195237312Y-81756020D01*
X195319369Y-81810848D01*
X195389152Y-81880631D01*
X195389153Y-81880633D01*
X195443981Y-81962689D01*
X195466104Y-82016098D01*
X195480086Y-82049853D01*
X195481747Y-82053865D01*
X195501000Y-82150655D01*
X195501000Y-82249345D01*
X195481747Y-82346135D01*
X195443981Y-82437311D01*
X195443980Y-82437312D01*
X195389152Y-82519369D01*
X195319369Y-82589152D01*
X195278062Y-82616752D01*
X195237311Y-82643981D01*
X195190021Y-82663569D01*
X195146136Y-82681747D01*
X195097740Y-82691374D01*
X195049345Y-82701000D01*
X194950655Y-82701000D01*
X194902260Y-82691373D01*
X194853864Y-82681747D01*
X194809979Y-82663569D01*
X194762689Y-82643981D01*
X194721938Y-82616752D01*
X194680631Y-82589152D01*
X194610848Y-82519369D01*
X194556020Y-82437312D01*
X194556019Y-82437311D01*
X194518253Y-82346135D01*
X194499000Y-82249345D01*
X194499000Y-82150655D01*
X194518253Y-82053865D01*
X194519915Y-82049853D01*
X194533896Y-82016098D01*
X194556019Y-81962689D01*
X194610847Y-81880633D01*
X194610848Y-81880631D01*
X194680631Y-81810848D01*
X194762688Y-81756020D01*
X194762689Y-81756019D01*
X194816098Y-81733896D01*
X194853864Y-81718253D01*
X194902260Y-81708626D01*
X194950655Y-81699000D01*
X195049345Y-81699000D01*
X195097740Y-81708626D01*
G37*
G36*
X125113512Y-80453927D02*
G01*
X125262812Y-80483624D01*
X125426784Y-80551544D01*
X125574354Y-80650147D01*
X125699853Y-80775646D01*
X125798456Y-80923216D01*
X125866376Y-81087188D01*
X125901000Y-81261259D01*
X125901000Y-81438741D01*
X125866376Y-81612812D01*
X125798456Y-81776784D01*
X125699853Y-81924354D01*
X125574354Y-82049853D01*
X125426784Y-82148456D01*
X125262812Y-82216376D01*
X125113512Y-82246073D01*
X125088742Y-82251000D01*
X124911258Y-82251000D01*
X124886488Y-82246073D01*
X124737188Y-82216376D01*
X124573216Y-82148456D01*
X124425646Y-82049853D01*
X124300147Y-81924354D01*
X124201544Y-81776784D01*
X124133624Y-81612812D01*
X124099000Y-81438741D01*
X124099000Y-81261259D01*
X124133624Y-81087188D01*
X124201544Y-80923216D01*
X124300147Y-80775646D01*
X124425646Y-80650147D01*
X124573216Y-80551544D01*
X124737188Y-80483624D01*
X124886488Y-80453927D01*
X124911258Y-80449000D01*
X125088742Y-80449000D01*
X125113512Y-80453927D01*
G37*
G36*
X193701000Y-81901000D02*
G01*
X191099000Y-81901000D01*
X191099000Y-78099000D01*
X193701000Y-78099000D01*
X193701000Y-81901000D01*
G37*
G36*
X176879591Y-80228085D02*
G01*
X176913569Y-80238393D01*
X176944890Y-80255134D01*
X176972339Y-80277661D01*
X176994866Y-80305110D01*
X177011607Y-80336431D01*
X177021915Y-80370409D01*
X177026000Y-80411890D01*
X177026000Y-81013110D01*
X177021915Y-81054591D01*
X177011607Y-81088569D01*
X176994866Y-81119890D01*
X176972339Y-81147339D01*
X176944890Y-81169866D01*
X176913569Y-81186607D01*
X176879591Y-81196915D01*
X176838110Y-81201000D01*
X176161890Y-81201000D01*
X176120409Y-81196915D01*
X176086431Y-81186607D01*
X176055110Y-81169866D01*
X176027661Y-81147339D01*
X176005134Y-81119890D01*
X175988393Y-81088569D01*
X175978085Y-81054591D01*
X175974000Y-81013110D01*
X175974000Y-80411890D01*
X175978085Y-80370409D01*
X175988393Y-80336431D01*
X176005134Y-80305110D01*
X176027661Y-80277661D01*
X176055110Y-80255134D01*
X176086431Y-80238393D01*
X176120409Y-80228085D01*
X176161890Y-80224000D01*
X176838110Y-80224000D01*
X176879591Y-80228085D01*
G37*
G36*
X165113512Y-79393927D02*
G01*
X165262812Y-79423624D01*
X165426784Y-79491544D01*
X165574354Y-79590147D01*
X165699853Y-79715646D01*
X165798456Y-79863216D01*
X165866376Y-80027188D01*
X165901000Y-80201259D01*
X165901000Y-80378741D01*
X165866376Y-80552812D01*
X165798456Y-80716784D01*
X165699853Y-80864354D01*
X165574354Y-80989853D01*
X165426784Y-81088456D01*
X165262812Y-81156376D01*
X165113512Y-81186073D01*
X165088742Y-81191000D01*
X164911258Y-81191000D01*
X164886488Y-81186073D01*
X164737188Y-81156376D01*
X164573216Y-81088456D01*
X164425646Y-80989853D01*
X164300147Y-80864354D01*
X164201544Y-80716784D01*
X164133624Y-80552812D01*
X164099000Y-80378741D01*
X164099000Y-80201259D01*
X164133624Y-80027188D01*
X164201544Y-79863216D01*
X164300147Y-79715646D01*
X164425646Y-79590147D01*
X164573216Y-79491544D01*
X164737188Y-79423624D01*
X164886488Y-79393927D01*
X164911258Y-79389000D01*
X165088742Y-79389000D01*
X165113512Y-79393927D01*
G37*
G36*
X178554591Y-79978085D02*
G01*
X178588569Y-79988393D01*
X178619890Y-80005134D01*
X178647339Y-80027661D01*
X178669866Y-80055110D01*
X178686607Y-80086431D01*
X178696915Y-80120409D01*
X178701000Y-80161890D01*
X178701000Y-80838110D01*
X178696915Y-80879591D01*
X178686607Y-80913569D01*
X178669866Y-80944890D01*
X178647339Y-80972339D01*
X178619890Y-80994866D01*
X178588569Y-81011607D01*
X178554591Y-81021915D01*
X178513110Y-81026000D01*
X177911890Y-81026000D01*
X177870409Y-81021915D01*
X177836431Y-81011607D01*
X177805110Y-80994866D01*
X177777661Y-80972339D01*
X177755134Y-80944890D01*
X177738393Y-80913569D01*
X177728085Y-80879591D01*
X177724000Y-80838110D01*
X177724000Y-80161890D01*
X177728085Y-80120409D01*
X177738393Y-80086431D01*
X177755134Y-80055110D01*
X177777661Y-80027661D01*
X177805110Y-80005134D01*
X177836431Y-79988393D01*
X177870409Y-79978085D01*
X177911890Y-79974000D01*
X178513110Y-79974000D01*
X178554591Y-79978085D01*
G37*
G36*
X180129591Y-79978085D02*
G01*
X180163569Y-79988393D01*
X180194890Y-80005134D01*
X180222339Y-80027661D01*
X180244866Y-80055110D01*
X180261607Y-80086431D01*
X180271915Y-80120409D01*
X180276000Y-80161890D01*
X180276000Y-80838110D01*
X180271915Y-80879591D01*
X180261607Y-80913569D01*
X180244866Y-80944890D01*
X180222339Y-80972339D01*
X180194890Y-80994866D01*
X180163569Y-81011607D01*
X180129591Y-81021915D01*
X180088110Y-81026000D01*
X179486890Y-81026000D01*
X179445409Y-81021915D01*
X179411431Y-81011607D01*
X179380110Y-80994866D01*
X179352661Y-80972339D01*
X179330134Y-80944890D01*
X179313393Y-80913569D01*
X179303085Y-80879591D01*
X179299000Y-80838110D01*
X179299000Y-80161890D01*
X179303085Y-80120409D01*
X179313393Y-80086431D01*
X179330134Y-80055110D01*
X179352661Y-80027661D01*
X179380110Y-80005134D01*
X179411431Y-79988393D01*
X179445409Y-79978085D01*
X179486890Y-79974000D01*
X180088110Y-79974000D01*
X180129591Y-79978085D01*
G37*
G36*
X161054591Y-79728085D02*
G01*
X161088569Y-79738393D01*
X161119890Y-79755134D01*
X161147339Y-79777661D01*
X161169866Y-79805110D01*
X161186607Y-79836431D01*
X161196915Y-79870409D01*
X161201000Y-79911890D01*
X161201000Y-80588110D01*
X161196915Y-80629591D01*
X161186607Y-80663569D01*
X161169866Y-80694890D01*
X161147339Y-80722339D01*
X161119890Y-80744866D01*
X161088569Y-80761607D01*
X161054591Y-80771915D01*
X161013110Y-80776000D01*
X160411890Y-80776000D01*
X160370409Y-80771915D01*
X160336431Y-80761607D01*
X160305110Y-80744866D01*
X160277661Y-80722339D01*
X160255134Y-80694890D01*
X160238393Y-80663569D01*
X160228085Y-80629591D01*
X160224000Y-80588110D01*
X160224000Y-79911890D01*
X160228085Y-79870409D01*
X160238393Y-79836431D01*
X160255134Y-79805110D01*
X160277661Y-79777661D01*
X160305110Y-79755134D01*
X160336431Y-79738393D01*
X160370409Y-79728085D01*
X160411890Y-79724000D01*
X161013110Y-79724000D01*
X161054591Y-79728085D01*
G37*
G36*
X162629591Y-79728085D02*
G01*
X162663569Y-79738393D01*
X162694890Y-79755134D01*
X162722339Y-79777661D01*
X162744866Y-79805110D01*
X162761607Y-79836431D01*
X162771915Y-79870409D01*
X162776000Y-79911890D01*
X162776000Y-80588110D01*
X162771915Y-80629591D01*
X162761607Y-80663569D01*
X162744866Y-80694890D01*
X162722339Y-80722339D01*
X162694890Y-80744866D01*
X162663569Y-80761607D01*
X162629591Y-80771915D01*
X162588110Y-80776000D01*
X161986890Y-80776000D01*
X161945409Y-80771915D01*
X161911431Y-80761607D01*
X161880110Y-80744866D01*
X161852661Y-80722339D01*
X161830134Y-80694890D01*
X161813393Y-80663569D01*
X161803085Y-80629591D01*
X161799000Y-80588110D01*
X161799000Y-79911890D01*
X161803085Y-79870409D01*
X161813393Y-79836431D01*
X161830134Y-79805110D01*
X161852661Y-79777661D01*
X161880110Y-79755134D01*
X161911431Y-79738393D01*
X161945409Y-79728085D01*
X161986890Y-79724000D01*
X162588110Y-79724000D01*
X162629591Y-79728085D01*
G37*
G36*
X135438534Y-75231775D02*
G01*
X135454926Y-75236748D01*
X135470038Y-75244825D01*
X135488047Y-75259605D01*
X135527892Y-75299450D01*
X135527903Y-75299459D01*
X135740743Y-75512299D01*
X135740752Y-75512310D01*
X135780597Y-75552155D01*
X135795377Y-75570164D01*
X135803454Y-75585276D01*
X135808427Y-75601668D01*
X135810106Y-75618719D01*
X135808427Y-75635770D01*
X135805906Y-75644079D01*
X135801125Y-75668112D01*
X135801125Y-75692616D01*
X135805905Y-75716649D01*
X135815282Y-75739288D01*
X135828896Y-75759663D01*
X135846223Y-75776990D01*
X135866597Y-75790604D01*
X135889236Y-75799981D01*
X135913269Y-75804762D01*
X135937773Y-75804762D01*
X135961807Y-75799982D01*
X135970121Y-75797460D01*
X135987169Y-75795781D01*
X136004220Y-75797460D01*
X136020612Y-75802433D01*
X136035724Y-75810510D01*
X136053733Y-75825290D01*
X136093578Y-75865135D01*
X136093589Y-75865144D01*
X136306429Y-76077984D01*
X136306438Y-76077995D01*
X136346283Y-76117840D01*
X136361063Y-76135849D01*
X136369140Y-76150961D01*
X136374113Y-76167353D01*
X136375792Y-76184404D01*
X136374113Y-76201452D01*
X136371591Y-76209766D01*
X136366811Y-76233800D01*
X136366811Y-76258304D01*
X136371592Y-76282337D01*
X136380969Y-76304976D01*
X136394583Y-76325350D01*
X136411910Y-76342677D01*
X136432285Y-76356291D01*
X136454923Y-76365668D01*
X136478957Y-76370448D01*
X136503461Y-76370448D01*
X136527494Y-76365667D01*
X136535803Y-76363146D01*
X136552854Y-76361467D01*
X136569905Y-76363146D01*
X136586297Y-76368119D01*
X136601409Y-76376196D01*
X136619418Y-76390976D01*
X136659263Y-76430821D01*
X136659274Y-76430830D01*
X136872114Y-76643670D01*
X136872123Y-76643681D01*
X136911968Y-76683526D01*
X136926748Y-76701535D01*
X136934825Y-76716647D01*
X136939798Y-76733039D01*
X136941477Y-76750090D01*
X136939798Y-76767141D01*
X136937277Y-76775450D01*
X136932496Y-76799483D01*
X136932496Y-76823987D01*
X136937276Y-76848020D01*
X136946653Y-76870659D01*
X136960267Y-76891034D01*
X136977594Y-76908361D01*
X136997968Y-76921975D01*
X137020607Y-76931352D01*
X137044640Y-76936133D01*
X137069144Y-76936133D01*
X137093179Y-76931352D01*
X137101488Y-76928831D01*
X137118539Y-76927152D01*
X137135590Y-76928831D01*
X137151982Y-76933804D01*
X137167094Y-76941881D01*
X137185103Y-76956661D01*
X137224948Y-76996506D01*
X137224959Y-76996515D01*
X137437799Y-77209355D01*
X137437808Y-77209366D01*
X137477653Y-77249211D01*
X137492433Y-77267220D01*
X137500510Y-77282332D01*
X137505483Y-77298724D01*
X137507162Y-77315775D01*
X137505483Y-77332823D01*
X137502961Y-77341137D01*
X137498181Y-77365171D01*
X137498181Y-77389675D01*
X137502962Y-77413708D01*
X137512339Y-77436347D01*
X137525953Y-77456721D01*
X137543280Y-77474048D01*
X137563655Y-77487662D01*
X137586293Y-77497039D01*
X137610327Y-77501819D01*
X137634831Y-77501819D01*
X137658863Y-77497039D01*
X137667177Y-77494517D01*
X137684225Y-77492838D01*
X137701276Y-77494517D01*
X137717668Y-77499490D01*
X137732780Y-77507567D01*
X137750789Y-77522347D01*
X137790634Y-77562192D01*
X137790645Y-77562201D01*
X138003485Y-77775041D01*
X138003494Y-77775052D01*
X138043339Y-77814897D01*
X138058119Y-77832906D01*
X138066196Y-77848018D01*
X138071169Y-77864410D01*
X138072848Y-77881461D01*
X138071169Y-77898512D01*
X138068648Y-77906821D01*
X138063867Y-77930854D01*
X138063867Y-77955358D01*
X138068647Y-77979391D01*
X138078024Y-78002030D01*
X138091638Y-78022405D01*
X138108965Y-78039732D01*
X138129339Y-78053346D01*
X138151978Y-78062723D01*
X138176011Y-78067504D01*
X138200515Y-78067504D01*
X138224550Y-78062723D01*
X138232859Y-78060202D01*
X138249910Y-78058523D01*
X138266961Y-78060202D01*
X138283353Y-78065175D01*
X138298465Y-78073252D01*
X138316474Y-78088032D01*
X138356319Y-78127877D01*
X138356330Y-78127886D01*
X138569170Y-78340726D01*
X138569179Y-78340737D01*
X138609024Y-78380582D01*
X138623804Y-78398591D01*
X138631881Y-78413703D01*
X138636854Y-78430095D01*
X138638533Y-78447146D01*
X138636854Y-78464197D01*
X138634333Y-78472506D01*
X138629552Y-78496539D01*
X138629552Y-78521043D01*
X138634332Y-78545076D01*
X138643709Y-78567715D01*
X138657323Y-78588090D01*
X138674650Y-78605417D01*
X138695024Y-78619031D01*
X138717663Y-78628408D01*
X138741696Y-78633189D01*
X138766200Y-78633189D01*
X138790234Y-78628409D01*
X138798548Y-78625887D01*
X138815596Y-78624208D01*
X138832647Y-78625887D01*
X138849039Y-78630860D01*
X138864151Y-78638937D01*
X138882160Y-78653717D01*
X138922005Y-78693562D01*
X138922016Y-78693571D01*
X139134856Y-78906411D01*
X139134865Y-78906422D01*
X139174710Y-78946267D01*
X139189490Y-78964276D01*
X139197567Y-78979388D01*
X139202540Y-78995780D01*
X139204219Y-79012831D01*
X139202540Y-79029879D01*
X139200018Y-79038193D01*
X139195238Y-79062227D01*
X139195238Y-79086731D01*
X139200019Y-79110764D01*
X139209396Y-79133403D01*
X139223010Y-79153777D01*
X139240337Y-79171104D01*
X139260712Y-79184718D01*
X139283350Y-79194095D01*
X139307384Y-79198875D01*
X139331888Y-79198875D01*
X139355921Y-79194094D01*
X139364230Y-79191573D01*
X139381281Y-79189894D01*
X139398332Y-79191573D01*
X139414724Y-79196546D01*
X139429836Y-79204623D01*
X139447845Y-79219403D01*
X139487690Y-79259248D01*
X139487701Y-79259257D01*
X139700541Y-79472097D01*
X139700550Y-79472108D01*
X139740395Y-79511953D01*
X139755175Y-79529962D01*
X139763252Y-79545074D01*
X139768225Y-79561466D01*
X139769904Y-79578517D01*
X139768225Y-79595568D01*
X139763252Y-79611960D01*
X139755175Y-79627072D01*
X139740395Y-79645081D01*
X139700550Y-79684926D01*
X139700541Y-79684937D01*
X138780595Y-80604883D01*
X138780584Y-80604892D01*
X138740739Y-80644737D01*
X138722730Y-80659517D01*
X138707618Y-80667594D01*
X138691226Y-80672567D01*
X138674175Y-80674246D01*
X138657124Y-80672567D01*
X138640732Y-80667594D01*
X138625620Y-80659517D01*
X138607611Y-80644737D01*
X138567766Y-80604892D01*
X138567755Y-80604883D01*
X138354915Y-80392043D01*
X138354906Y-80392032D01*
X138315061Y-80352187D01*
X138300281Y-80334178D01*
X138292204Y-80319066D01*
X138287231Y-80302674D01*
X138285552Y-80285623D01*
X138287231Y-80268575D01*
X138289753Y-80260261D01*
X138294533Y-80236227D01*
X138294533Y-80211723D01*
X138289752Y-80187690D01*
X138280375Y-80165051D01*
X138266761Y-80144677D01*
X138249434Y-80127350D01*
X138229059Y-80113736D01*
X138206421Y-80104359D01*
X138182387Y-80099579D01*
X138157883Y-80099579D01*
X138133850Y-80104360D01*
X138125541Y-80106881D01*
X138108490Y-80108560D01*
X138091439Y-80106881D01*
X138075047Y-80101908D01*
X138059935Y-80093831D01*
X138041926Y-80079051D01*
X138002081Y-80039206D01*
X138002070Y-80039197D01*
X137789230Y-79826357D01*
X137789221Y-79826346D01*
X137749376Y-79786501D01*
X137734596Y-79768492D01*
X137726519Y-79753380D01*
X137721546Y-79736988D01*
X137719867Y-79719937D01*
X137721546Y-79702886D01*
X137724067Y-79694577D01*
X137728848Y-79670544D01*
X137728848Y-79646040D01*
X137724068Y-79622007D01*
X137714691Y-79599368D01*
X137701077Y-79578993D01*
X137683750Y-79561666D01*
X137663376Y-79548052D01*
X137640737Y-79538675D01*
X137616704Y-79533894D01*
X137592200Y-79533894D01*
X137568166Y-79538674D01*
X137559852Y-79541196D01*
X137542804Y-79542875D01*
X137525753Y-79541196D01*
X137509361Y-79536223D01*
X137494249Y-79528146D01*
X137476240Y-79513366D01*
X137436395Y-79473521D01*
X137436384Y-79473512D01*
X137223544Y-79260672D01*
X137223535Y-79260661D01*
X137183690Y-79220816D01*
X137168910Y-79202807D01*
X137160833Y-79187695D01*
X137155860Y-79171303D01*
X137154181Y-79154252D01*
X137155860Y-79137201D01*
X137158381Y-79128892D01*
X137163162Y-79104859D01*
X137163162Y-79080355D01*
X137158382Y-79056322D01*
X137149005Y-79033683D01*
X137135391Y-79013308D01*
X137118064Y-78995981D01*
X137097690Y-78982367D01*
X137075051Y-78972990D01*
X137051018Y-78968209D01*
X137026514Y-78968209D01*
X137002479Y-78972990D01*
X136994170Y-78975511D01*
X136977119Y-78977190D01*
X136960068Y-78975511D01*
X136943676Y-78970538D01*
X136928564Y-78962461D01*
X136910555Y-78947681D01*
X136870710Y-78907836D01*
X136870699Y-78907827D01*
X136657859Y-78694987D01*
X136657850Y-78694976D01*
X136618005Y-78655131D01*
X136603225Y-78637122D01*
X136595148Y-78622010D01*
X136590175Y-78605618D01*
X136588496Y-78588567D01*
X136590175Y-78571519D01*
X136592697Y-78563205D01*
X136597477Y-78539171D01*
X136597477Y-78514667D01*
X136592696Y-78490634D01*
X136583319Y-78467995D01*
X136569705Y-78447621D01*
X136552378Y-78430294D01*
X136532003Y-78416680D01*
X136509365Y-78407303D01*
X136485331Y-78402523D01*
X136460827Y-78402523D01*
X136436795Y-78407303D01*
X136428481Y-78409825D01*
X136411433Y-78411504D01*
X136394382Y-78409825D01*
X136377990Y-78404852D01*
X136362878Y-78396775D01*
X136344869Y-78381995D01*
X136305024Y-78342150D01*
X136305013Y-78342141D01*
X136092173Y-78129301D01*
X136092164Y-78129290D01*
X136052319Y-78089445D01*
X136037539Y-78071436D01*
X136029462Y-78056324D01*
X136024489Y-78039932D01*
X136022810Y-78022881D01*
X136024489Y-78005830D01*
X136027010Y-77997521D01*
X136031791Y-77973488D01*
X136031791Y-77948984D01*
X136027011Y-77924951D01*
X136017634Y-77902312D01*
X136004020Y-77881937D01*
X135986693Y-77864610D01*
X135966319Y-77850996D01*
X135943680Y-77841619D01*
X135919647Y-77836838D01*
X135895143Y-77836838D01*
X135871108Y-77841619D01*
X135862799Y-77844140D01*
X135845748Y-77845819D01*
X135828697Y-77844140D01*
X135812305Y-77839167D01*
X135797193Y-77831090D01*
X135779184Y-77816310D01*
X135739339Y-77776465D01*
X135739328Y-77776456D01*
X135526488Y-77563616D01*
X135526479Y-77563605D01*
X135486634Y-77523760D01*
X135471854Y-77505751D01*
X135463777Y-77490639D01*
X135458804Y-77474247D01*
X135457125Y-77457196D01*
X135458804Y-77440148D01*
X135461326Y-77431834D01*
X135466106Y-77407800D01*
X135466106Y-77383296D01*
X135461325Y-77359263D01*
X135451948Y-77336624D01*
X135438334Y-77316250D01*
X135421007Y-77298923D01*
X135400632Y-77285309D01*
X135377994Y-77275932D01*
X135353960Y-77271152D01*
X135329456Y-77271152D01*
X135305423Y-77275933D01*
X135297114Y-77278454D01*
X135280063Y-77280133D01*
X135263012Y-77278454D01*
X135246620Y-77273481D01*
X135231508Y-77265404D01*
X135213499Y-77250624D01*
X135173654Y-77210779D01*
X135173643Y-77210770D01*
X134960803Y-76997930D01*
X134960794Y-76997919D01*
X134920949Y-76958074D01*
X134906169Y-76940065D01*
X134898092Y-76924953D01*
X134893119Y-76908561D01*
X134891440Y-76891510D01*
X134893119Y-76874459D01*
X134895640Y-76866150D01*
X134900421Y-76842117D01*
X134900421Y-76817613D01*
X134895641Y-76793580D01*
X134886264Y-76770941D01*
X134872650Y-76750566D01*
X134855323Y-76733239D01*
X134834949Y-76719625D01*
X134812310Y-76710248D01*
X134788277Y-76705467D01*
X134763773Y-76705467D01*
X134739739Y-76710247D01*
X134731425Y-76712769D01*
X134714377Y-76714448D01*
X134697326Y-76712769D01*
X134680934Y-76707796D01*
X134665822Y-76699719D01*
X134647813Y-76684939D01*
X134607968Y-76645094D01*
X134607957Y-76645085D01*
X134395117Y-76432245D01*
X134395108Y-76432234D01*
X134355263Y-76392389D01*
X134340483Y-76374380D01*
X134332406Y-76359268D01*
X134327433Y-76342876D01*
X134325754Y-76325825D01*
X134327433Y-76308774D01*
X134332406Y-76292382D01*
X134340483Y-76277270D01*
X134355263Y-76259261D01*
X134395108Y-76219416D01*
X134395117Y-76219405D01*
X135315063Y-75299459D01*
X135315074Y-75299450D01*
X135354919Y-75259605D01*
X135372928Y-75244825D01*
X135388040Y-75236748D01*
X135404432Y-75231775D01*
X135421483Y-75230096D01*
X135438534Y-75231775D01*
G37*
G36*
X144595568Y-75231775D02*
G01*
X144611960Y-75236748D01*
X144627072Y-75244825D01*
X144645081Y-75259605D01*
X144684926Y-75299450D01*
X144684937Y-75299459D01*
X145604883Y-76219405D01*
X145604892Y-76219416D01*
X145644737Y-76259261D01*
X145659517Y-76277270D01*
X145667594Y-76292382D01*
X145672567Y-76308774D01*
X145674246Y-76325825D01*
X145672567Y-76342876D01*
X145667594Y-76359268D01*
X145659517Y-76374380D01*
X145644737Y-76392389D01*
X145604892Y-76432234D01*
X145604883Y-76432245D01*
X145392043Y-76645085D01*
X145392032Y-76645094D01*
X145352187Y-76684939D01*
X145334178Y-76699719D01*
X145319066Y-76707796D01*
X145302674Y-76712769D01*
X145285623Y-76714448D01*
X145268575Y-76712769D01*
X145260261Y-76710247D01*
X145236227Y-76705467D01*
X145211723Y-76705467D01*
X145187690Y-76710248D01*
X145165051Y-76719625D01*
X145144677Y-76733239D01*
X145127350Y-76750566D01*
X145113736Y-76770941D01*
X145104359Y-76793579D01*
X145099579Y-76817613D01*
X145099579Y-76842117D01*
X145104360Y-76866150D01*
X145106881Y-76874459D01*
X145108560Y-76891510D01*
X145106881Y-76908561D01*
X145101908Y-76924953D01*
X145093831Y-76940065D01*
X145079051Y-76958074D01*
X145039206Y-76997919D01*
X145039197Y-76997930D01*
X144826357Y-77210770D01*
X144826346Y-77210779D01*
X144786501Y-77250624D01*
X144768492Y-77265404D01*
X144753380Y-77273481D01*
X144736988Y-77278454D01*
X144719937Y-77280133D01*
X144702886Y-77278454D01*
X144694577Y-77275933D01*
X144670544Y-77271152D01*
X144646040Y-77271152D01*
X144622007Y-77275932D01*
X144599368Y-77285309D01*
X144578993Y-77298923D01*
X144561666Y-77316250D01*
X144548052Y-77336624D01*
X144538675Y-77359263D01*
X144533894Y-77383296D01*
X144533894Y-77407800D01*
X144538674Y-77431834D01*
X144541196Y-77440148D01*
X144542875Y-77457196D01*
X144541196Y-77474247D01*
X144536223Y-77490639D01*
X144528146Y-77505751D01*
X144513366Y-77523760D01*
X144473521Y-77563605D01*
X144473512Y-77563616D01*
X144260672Y-77776456D01*
X144260661Y-77776465D01*
X144220816Y-77816310D01*
X144202807Y-77831090D01*
X144187695Y-77839167D01*
X144171303Y-77844140D01*
X144154252Y-77845819D01*
X144137201Y-77844140D01*
X144128892Y-77841619D01*
X144104859Y-77836838D01*
X144080355Y-77836838D01*
X144056322Y-77841618D01*
X144033683Y-77850995D01*
X144013308Y-77864609D01*
X143995981Y-77881936D01*
X143982367Y-77902310D01*
X143972990Y-77924949D01*
X143968209Y-77948982D01*
X143968209Y-77973486D01*
X143972990Y-77997521D01*
X143975511Y-78005830D01*
X143977190Y-78022881D01*
X143975511Y-78039932D01*
X143970538Y-78056324D01*
X143962461Y-78071436D01*
X143947681Y-78089445D01*
X143907836Y-78129290D01*
X143907827Y-78129301D01*
X143694987Y-78342141D01*
X143694976Y-78342150D01*
X143655131Y-78381995D01*
X143637122Y-78396775D01*
X143622010Y-78404852D01*
X143605618Y-78409825D01*
X143588567Y-78411504D01*
X143571519Y-78409825D01*
X143563205Y-78407303D01*
X143539171Y-78402523D01*
X143514667Y-78402523D01*
X143490634Y-78407304D01*
X143467995Y-78416681D01*
X143447621Y-78430295D01*
X143430294Y-78447622D01*
X143416680Y-78467997D01*
X143407303Y-78490635D01*
X143402523Y-78514669D01*
X143402523Y-78539173D01*
X143407303Y-78563205D01*
X143409825Y-78571519D01*
X143411504Y-78588567D01*
X143409825Y-78605618D01*
X143404852Y-78622010D01*
X143396775Y-78637122D01*
X143381995Y-78655131D01*
X143342150Y-78694976D01*
X143342141Y-78694987D01*
X143129301Y-78907827D01*
X143129290Y-78907836D01*
X143089445Y-78947681D01*
X143071436Y-78962461D01*
X143056324Y-78970538D01*
X143039932Y-78975511D01*
X143022881Y-78977190D01*
X143005830Y-78975511D01*
X142997521Y-78972990D01*
X142973488Y-78968209D01*
X142948984Y-78968209D01*
X142924951Y-78972989D01*
X142902312Y-78982366D01*
X142881937Y-78995980D01*
X142864610Y-79013307D01*
X142850996Y-79033681D01*
X142841619Y-79056320D01*
X142836838Y-79080353D01*
X142836838Y-79104857D01*
X142841619Y-79128892D01*
X142844140Y-79137201D01*
X142845819Y-79154252D01*
X142844140Y-79171303D01*
X142839167Y-79187695D01*
X142831090Y-79202807D01*
X142816310Y-79220816D01*
X142776465Y-79260661D01*
X142776456Y-79260672D01*
X142563616Y-79473512D01*
X142563605Y-79473521D01*
X142523760Y-79513366D01*
X142505751Y-79528146D01*
X142490639Y-79536223D01*
X142474247Y-79541196D01*
X142457196Y-79542875D01*
X142440148Y-79541196D01*
X142431834Y-79538674D01*
X142407800Y-79533894D01*
X142383296Y-79533894D01*
X142359263Y-79538675D01*
X142336624Y-79548052D01*
X142316250Y-79561666D01*
X142298923Y-79578993D01*
X142285309Y-79599368D01*
X142275932Y-79622006D01*
X142271152Y-79646040D01*
X142271152Y-79670544D01*
X142275933Y-79694577D01*
X142278454Y-79702886D01*
X142280133Y-79719937D01*
X142278454Y-79736988D01*
X142273481Y-79753380D01*
X142265404Y-79768492D01*
X142250624Y-79786501D01*
X142210779Y-79826346D01*
X142210770Y-79826357D01*
X141997930Y-80039197D01*
X141997919Y-80039206D01*
X141958074Y-80079051D01*
X141940065Y-80093831D01*
X141924953Y-80101908D01*
X141908561Y-80106881D01*
X141891510Y-80108560D01*
X141874459Y-80106881D01*
X141866150Y-80104360D01*
X141842117Y-80099579D01*
X141817613Y-80099579D01*
X141793580Y-80104359D01*
X141770941Y-80113736D01*
X141750566Y-80127350D01*
X141733239Y-80144677D01*
X141719625Y-80165051D01*
X141710248Y-80187690D01*
X141705467Y-80211723D01*
X141705467Y-80236227D01*
X141710247Y-80260261D01*
X141712769Y-80268575D01*
X141714448Y-80285623D01*
X141712769Y-80302674D01*
X141707796Y-80319066D01*
X141699719Y-80334178D01*
X141684939Y-80352187D01*
X141645094Y-80392032D01*
X141645085Y-80392043D01*
X141432245Y-80604883D01*
X141432234Y-80604892D01*
X141392389Y-80644737D01*
X141374380Y-80659517D01*
X141359268Y-80667594D01*
X141342876Y-80672567D01*
X141325825Y-80674246D01*
X141308774Y-80672567D01*
X141292382Y-80667594D01*
X141277270Y-80659517D01*
X141259261Y-80644737D01*
X141219416Y-80604892D01*
X141219405Y-80604883D01*
X140299459Y-79684937D01*
X140299450Y-79684926D01*
X140259605Y-79645081D01*
X140244825Y-79627072D01*
X140236748Y-79611960D01*
X140231775Y-79595568D01*
X140230096Y-79578517D01*
X140231775Y-79561466D01*
X140236748Y-79545074D01*
X140244825Y-79529962D01*
X140259605Y-79511953D01*
X140299450Y-79472108D01*
X140299459Y-79472097D01*
X140512299Y-79259257D01*
X140512310Y-79259248D01*
X140552155Y-79219403D01*
X140570164Y-79204623D01*
X140585276Y-79196546D01*
X140601668Y-79191573D01*
X140618719Y-79189894D01*
X140635770Y-79191573D01*
X140644079Y-79194094D01*
X140668112Y-79198875D01*
X140692616Y-79198875D01*
X140716649Y-79194095D01*
X140739288Y-79184718D01*
X140759663Y-79171104D01*
X140776990Y-79153777D01*
X140790604Y-79133403D01*
X140799981Y-79110764D01*
X140804762Y-79086731D01*
X140804762Y-79062227D01*
X140799982Y-79038193D01*
X140797460Y-79029879D01*
X140795781Y-79012831D01*
X140797460Y-78995780D01*
X140802433Y-78979388D01*
X140810510Y-78964276D01*
X140825290Y-78946267D01*
X140865135Y-78906422D01*
X140865144Y-78906411D01*
X141077984Y-78693571D01*
X141077995Y-78693562D01*
X141117840Y-78653717D01*
X141135849Y-78638937D01*
X141150961Y-78630860D01*
X141167353Y-78625887D01*
X141184404Y-78624208D01*
X141201452Y-78625887D01*
X141209766Y-78628409D01*
X141233800Y-78633189D01*
X141258304Y-78633189D01*
X141282337Y-78628408D01*
X141304976Y-78619031D01*
X141325350Y-78605417D01*
X141342677Y-78588090D01*
X141356291Y-78567715D01*
X141365668Y-78545077D01*
X141370448Y-78521043D01*
X141370448Y-78496539D01*
X141365667Y-78472506D01*
X141363146Y-78464197D01*
X141361467Y-78447146D01*
X141363146Y-78430095D01*
X141368119Y-78413703D01*
X141376196Y-78398591D01*
X141390976Y-78380582D01*
X141430821Y-78340737D01*
X141430830Y-78340726D01*
X141643670Y-78127886D01*
X141643681Y-78127877D01*
X141683526Y-78088032D01*
X141701535Y-78073252D01*
X141716647Y-78065175D01*
X141733039Y-78060202D01*
X141750090Y-78058523D01*
X141767141Y-78060202D01*
X141775450Y-78062723D01*
X141799483Y-78067504D01*
X141823987Y-78067504D01*
X141848020Y-78062724D01*
X141870659Y-78053347D01*
X141891034Y-78039733D01*
X141908361Y-78022406D01*
X141921975Y-78002032D01*
X141931352Y-77979393D01*
X141936133Y-77955360D01*
X141936133Y-77930856D01*
X141931352Y-77906821D01*
X141928831Y-77898512D01*
X141927152Y-77881461D01*
X141928831Y-77864410D01*
X141933804Y-77848018D01*
X141941881Y-77832906D01*
X141956661Y-77814897D01*
X141996506Y-77775052D01*
X141996515Y-77775041D01*
X142209355Y-77562201D01*
X142209366Y-77562192D01*
X142249211Y-77522347D01*
X142267220Y-77507567D01*
X142282332Y-77499490D01*
X142298724Y-77494517D01*
X142315775Y-77492838D01*
X142332823Y-77494517D01*
X142341137Y-77497039D01*
X142365171Y-77501819D01*
X142389675Y-77501819D01*
X142413708Y-77497038D01*
X142436347Y-77487661D01*
X142456721Y-77474047D01*
X142474048Y-77456720D01*
X142487662Y-77436345D01*
X142497039Y-77413707D01*
X142501819Y-77389673D01*
X142501819Y-77365169D01*
X142497039Y-77341137D01*
X142494517Y-77332823D01*
X142492838Y-77315775D01*
X142494517Y-77298724D01*
X142499490Y-77282332D01*
X142507567Y-77267220D01*
X142522347Y-77249211D01*
X142562192Y-77209366D01*
X142562201Y-77209355D01*
X142775041Y-76996515D01*
X142775052Y-76996506D01*
X142814897Y-76956661D01*
X142832906Y-76941881D01*
X142848018Y-76933804D01*
X142864410Y-76928831D01*
X142881461Y-76927152D01*
X142898512Y-76928831D01*
X142906821Y-76931352D01*
X142930854Y-76936133D01*
X142955358Y-76936133D01*
X142979391Y-76931353D01*
X143002030Y-76921976D01*
X143022405Y-76908362D01*
X143039732Y-76891035D01*
X143053346Y-76870661D01*
X143062723Y-76848022D01*
X143067504Y-76823989D01*
X143067504Y-76799485D01*
X143062723Y-76775450D01*
X143060202Y-76767141D01*
X143058523Y-76750090D01*
X143060202Y-76733039D01*
X143065175Y-76716647D01*
X143073252Y-76701535D01*
X143088032Y-76683526D01*
X143127877Y-76643681D01*
X143127886Y-76643670D01*
X143340726Y-76430830D01*
X143340737Y-76430821D01*
X143380582Y-76390976D01*
X143398591Y-76376196D01*
X143413703Y-76368119D01*
X143430095Y-76363146D01*
X143447146Y-76361467D01*
X143464197Y-76363146D01*
X143472506Y-76365667D01*
X143496539Y-76370448D01*
X143521043Y-76370448D01*
X143545076Y-76365668D01*
X143567715Y-76356291D01*
X143588090Y-76342677D01*
X143605417Y-76325350D01*
X143619031Y-76304976D01*
X143628408Y-76282337D01*
X143633189Y-76258304D01*
X143633189Y-76233800D01*
X143628409Y-76209766D01*
X143625887Y-76201452D01*
X143624208Y-76184404D01*
X143625887Y-76167353D01*
X143630860Y-76150961D01*
X143638937Y-76135849D01*
X143653717Y-76117840D01*
X143693562Y-76077995D01*
X143693571Y-76077984D01*
X143906411Y-75865144D01*
X143906422Y-75865135D01*
X143946267Y-75825290D01*
X143964276Y-75810510D01*
X143979388Y-75802433D01*
X143995780Y-75797460D01*
X144012831Y-75795781D01*
X144029879Y-75797460D01*
X144038193Y-75799982D01*
X144062227Y-75804762D01*
X144086731Y-75804762D01*
X144110764Y-75799981D01*
X144133403Y-75790604D01*
X144153777Y-75776990D01*
X144171104Y-75759663D01*
X144184718Y-75739288D01*
X144194095Y-75716650D01*
X144198875Y-75692616D01*
X144198875Y-75668112D01*
X144194094Y-75644079D01*
X144191573Y-75635770D01*
X144189894Y-75618719D01*
X144191573Y-75601668D01*
X144196546Y-75585276D01*
X144204623Y-75570164D01*
X144219403Y-75552155D01*
X144259248Y-75512310D01*
X144259257Y-75512299D01*
X144472097Y-75299459D01*
X144472108Y-75299450D01*
X144511953Y-75259605D01*
X144529962Y-75244825D01*
X144545074Y-75236748D01*
X144561466Y-75231775D01*
X144578517Y-75230096D01*
X144595568Y-75231775D01*
G37*
G36*
X185129591Y-79478085D02*
G01*
X185163569Y-79488393D01*
X185194890Y-79505134D01*
X185222339Y-79527661D01*
X185244866Y-79555110D01*
X185261607Y-79586431D01*
X185271915Y-79620409D01*
X185276000Y-79661890D01*
X185276000Y-80338110D01*
X185271915Y-80379591D01*
X185261607Y-80413569D01*
X185244866Y-80444890D01*
X185222339Y-80472339D01*
X185194890Y-80494866D01*
X185163569Y-80511607D01*
X185129591Y-80521915D01*
X185088110Y-80526000D01*
X184486890Y-80526000D01*
X184445409Y-80521915D01*
X184411431Y-80511607D01*
X184380110Y-80494866D01*
X184352661Y-80472339D01*
X184330134Y-80444890D01*
X184313393Y-80413569D01*
X184303085Y-80379591D01*
X184299000Y-80338110D01*
X184299000Y-79661890D01*
X184303085Y-79620409D01*
X184313393Y-79586431D01*
X184330134Y-79555110D01*
X184352661Y-79527661D01*
X184380110Y-79505134D01*
X184411431Y-79488393D01*
X184445409Y-79478085D01*
X184486890Y-79474000D01*
X185088110Y-79474000D01*
X185129591Y-79478085D01*
G37*
G36*
X183554591Y-79478085D02*
G01*
X183588569Y-79488393D01*
X183619890Y-79505134D01*
X183647339Y-79527661D01*
X183669866Y-79555110D01*
X183686607Y-79586431D01*
X183696915Y-79620409D01*
X183701000Y-79661890D01*
X183701000Y-80338110D01*
X183696915Y-80379591D01*
X183686607Y-80413569D01*
X183669866Y-80444890D01*
X183647339Y-80472339D01*
X183619890Y-80494866D01*
X183588569Y-80511607D01*
X183554591Y-80521915D01*
X183513110Y-80526000D01*
X182911890Y-80526000D01*
X182870409Y-80521915D01*
X182836431Y-80511607D01*
X182805110Y-80494866D01*
X182777661Y-80472339D01*
X182755134Y-80444890D01*
X182738393Y-80413569D01*
X182728085Y-80379591D01*
X182724000Y-80338110D01*
X182724000Y-79661890D01*
X182728085Y-79620409D01*
X182738393Y-79586431D01*
X182755134Y-79555110D01*
X182777661Y-79527661D01*
X182805110Y-79505134D01*
X182836431Y-79488393D01*
X182870409Y-79478085D01*
X182911890Y-79474000D01*
X183513110Y-79474000D01*
X183554591Y-79478085D01*
G37*
G36*
X188584618Y-79527965D02*
G01*
X188617433Y-79537919D01*
X188647665Y-79554079D01*
X188674170Y-79575830D01*
X188695921Y-79602335D01*
X188712081Y-79632567D01*
X188722035Y-79665382D01*
X188726000Y-79705640D01*
X188726000Y-80294360D01*
X188722035Y-80334618D01*
X188712081Y-80367433D01*
X188695921Y-80397665D01*
X188674170Y-80424170D01*
X188647665Y-80445921D01*
X188617433Y-80462081D01*
X188584618Y-80472035D01*
X188544360Y-80476000D01*
X187580640Y-80476000D01*
X187540382Y-80472035D01*
X187507567Y-80462081D01*
X187477335Y-80445921D01*
X187450830Y-80424170D01*
X187429079Y-80397665D01*
X187412919Y-80367433D01*
X187402965Y-80334618D01*
X187399000Y-80294360D01*
X187399000Y-79705640D01*
X187402965Y-79665382D01*
X187412919Y-79632567D01*
X187429079Y-79602335D01*
X187450830Y-79575830D01*
X187477335Y-79554079D01*
X187507567Y-79537919D01*
X187540382Y-79527965D01*
X187580640Y-79524000D01*
X188544360Y-79524000D01*
X188584618Y-79527965D01*
G37*
G36*
X186959618Y-79527965D02*
G01*
X186992433Y-79537919D01*
X187022665Y-79554079D01*
X187049170Y-79575830D01*
X187070921Y-79602335D01*
X187087081Y-79632567D01*
X187097035Y-79665382D01*
X187101000Y-79705640D01*
X187101000Y-80294360D01*
X187097035Y-80334618D01*
X187087081Y-80367433D01*
X187070921Y-80397665D01*
X187049170Y-80424170D01*
X187022665Y-80445921D01*
X186992433Y-80462081D01*
X186959618Y-80472035D01*
X186919360Y-80476000D01*
X185955640Y-80476000D01*
X185915382Y-80472035D01*
X185882567Y-80462081D01*
X185852335Y-80445921D01*
X185825830Y-80424170D01*
X185804079Y-80397665D01*
X185787919Y-80367433D01*
X185777965Y-80334618D01*
X185774000Y-80294360D01*
X185774000Y-79705640D01*
X185777965Y-79665382D01*
X185787919Y-79632567D01*
X185804079Y-79602335D01*
X185825830Y-79575830D01*
X185852335Y-79554079D01*
X185882567Y-79537919D01*
X185915382Y-79527965D01*
X185955640Y-79524000D01*
X186919360Y-79524000D01*
X186959618Y-79527965D01*
G37*
G36*
X125113512Y-77913927D02*
G01*
X125262812Y-77943624D01*
X125426784Y-78011544D01*
X125574354Y-78110147D01*
X125699853Y-78235646D01*
X125798456Y-78383216D01*
X125866376Y-78547188D01*
X125891238Y-78672180D01*
X125901000Y-78721258D01*
X125901000Y-78898742D01*
X125899193Y-78907827D01*
X125866376Y-79072812D01*
X125798456Y-79236784D01*
X125699853Y-79384354D01*
X125574354Y-79509853D01*
X125426784Y-79608456D01*
X125262812Y-79676376D01*
X125115688Y-79705640D01*
X125088742Y-79711000D01*
X124911258Y-79711000D01*
X124884312Y-79705640D01*
X124737188Y-79676376D01*
X124573216Y-79608456D01*
X124425646Y-79509853D01*
X124300147Y-79384354D01*
X124201544Y-79236784D01*
X124133624Y-79072812D01*
X124100807Y-78907827D01*
X124099000Y-78898742D01*
X124099000Y-78721258D01*
X124108762Y-78672180D01*
X124133624Y-78547188D01*
X124201544Y-78383216D01*
X124300147Y-78235646D01*
X124425646Y-78110147D01*
X124573216Y-78011544D01*
X124737188Y-77943624D01*
X124886488Y-77913927D01*
X124911258Y-77909000D01*
X125088742Y-77909000D01*
X125113512Y-77913927D01*
G37*
G36*
X181473500Y-79251000D02*
G01*
X176526500Y-79251000D01*
X176526500Y-77949000D01*
X181473500Y-77949000D01*
X181473500Y-79251000D01*
G37*
G36*
X185129591Y-77978085D02*
G01*
X185163569Y-77988393D01*
X185194890Y-78005134D01*
X185222339Y-78027661D01*
X185244866Y-78055110D01*
X185261607Y-78086431D01*
X185271915Y-78120409D01*
X185276000Y-78161890D01*
X185276000Y-78838110D01*
X185271915Y-78879591D01*
X185261607Y-78913569D01*
X185244866Y-78944890D01*
X185222339Y-78972339D01*
X185194890Y-78994866D01*
X185163569Y-79011607D01*
X185129591Y-79021915D01*
X185088110Y-79026000D01*
X184486890Y-79026000D01*
X184445409Y-79021915D01*
X184411431Y-79011607D01*
X184380110Y-78994866D01*
X184352661Y-78972339D01*
X184330134Y-78944890D01*
X184313393Y-78913569D01*
X184303085Y-78879591D01*
X184299000Y-78838110D01*
X184299000Y-78161890D01*
X184303085Y-78120409D01*
X184313393Y-78086431D01*
X184330134Y-78055110D01*
X184352661Y-78027661D01*
X184380110Y-78005134D01*
X184411431Y-77988393D01*
X184445409Y-77978085D01*
X184486890Y-77974000D01*
X185088110Y-77974000D01*
X185129591Y-77978085D01*
G37*
G36*
X183554591Y-77978085D02*
G01*
X183588569Y-77988393D01*
X183619890Y-78005134D01*
X183647339Y-78027661D01*
X183669866Y-78055110D01*
X183686607Y-78086431D01*
X183696915Y-78120409D01*
X183701000Y-78161890D01*
X183701000Y-78838110D01*
X183696915Y-78879591D01*
X183686607Y-78913569D01*
X183669866Y-78944890D01*
X183647339Y-78972339D01*
X183619890Y-78994866D01*
X183588569Y-79011607D01*
X183554591Y-79021915D01*
X183513110Y-79026000D01*
X182911890Y-79026000D01*
X182870409Y-79021915D01*
X182836431Y-79011607D01*
X182805110Y-78994866D01*
X182777661Y-78972339D01*
X182755134Y-78944890D01*
X182738393Y-78913569D01*
X182728085Y-78879591D01*
X182724000Y-78838110D01*
X182724000Y-78161890D01*
X182728085Y-78120409D01*
X182738393Y-78086431D01*
X182755134Y-78055110D01*
X182777661Y-78027661D01*
X182805110Y-78005134D01*
X182836431Y-77988393D01*
X182870409Y-77978085D01*
X182911890Y-77974000D01*
X183513110Y-77974000D01*
X183554591Y-77978085D01*
G37*
G36*
X165901000Y-78651000D02*
G01*
X164099000Y-78651000D01*
X164099000Y-76849000D01*
X165901000Y-76849000D01*
X165901000Y-78651000D01*
G37*
G36*
X195097740Y-77308627D02*
G01*
X195146136Y-77318253D01*
X195173049Y-77329401D01*
X195237311Y-77356019D01*
X195237312Y-77356020D01*
X195319369Y-77410848D01*
X195389152Y-77480631D01*
X195407150Y-77507567D01*
X195443981Y-77562689D01*
X195481747Y-77653865D01*
X195501000Y-77750655D01*
X195501000Y-77849345D01*
X195494612Y-77881461D01*
X195481747Y-77946136D01*
X195477927Y-77955358D01*
X195443981Y-78037311D01*
X195425363Y-78065175D01*
X195389152Y-78119369D01*
X195319369Y-78189152D01*
X195278062Y-78216752D01*
X195237311Y-78243981D01*
X195183902Y-78266104D01*
X195146136Y-78281747D01*
X195097740Y-78291373D01*
X195049345Y-78301000D01*
X194950655Y-78301000D01*
X194902260Y-78291373D01*
X194853864Y-78281747D01*
X194816098Y-78266104D01*
X194762689Y-78243981D01*
X194721938Y-78216752D01*
X194680631Y-78189152D01*
X194610848Y-78119369D01*
X194574637Y-78065175D01*
X194556019Y-78037311D01*
X194522073Y-77955358D01*
X194518253Y-77946136D01*
X194505388Y-77881461D01*
X194499000Y-77849345D01*
X194499000Y-77750655D01*
X194518253Y-77653865D01*
X194556019Y-77562689D01*
X194592850Y-77507567D01*
X194610848Y-77480631D01*
X194680631Y-77410848D01*
X194762688Y-77356020D01*
X194762689Y-77356019D01*
X194826951Y-77329401D01*
X194853864Y-77318253D01*
X194902260Y-77308627D01*
X194950655Y-77299000D01*
X195049345Y-77299000D01*
X195097740Y-77308627D01*
G37*
G36*
X153551000Y-78051000D02*
G01*
X151449000Y-78051000D01*
X151449000Y-73449000D01*
X153551000Y-73449000D01*
X153551000Y-78051000D01*
G37*
G36*
X185129591Y-76478085D02*
G01*
X185163569Y-76488393D01*
X185194890Y-76505134D01*
X185222339Y-76527661D01*
X185244866Y-76555110D01*
X185261607Y-76586431D01*
X185271915Y-76620409D01*
X185276000Y-76661890D01*
X185276000Y-77338110D01*
X185271915Y-77379591D01*
X185261607Y-77413569D01*
X185244866Y-77444890D01*
X185222339Y-77472339D01*
X185194890Y-77494866D01*
X185163569Y-77511607D01*
X185129591Y-77521915D01*
X185088110Y-77526000D01*
X184486890Y-77526000D01*
X184445409Y-77521915D01*
X184411431Y-77511607D01*
X184380110Y-77494866D01*
X184352661Y-77472339D01*
X184330134Y-77444890D01*
X184313393Y-77413569D01*
X184303085Y-77379591D01*
X184299000Y-77338110D01*
X184299000Y-76661890D01*
X184303085Y-76620409D01*
X184313393Y-76586431D01*
X184330134Y-76555110D01*
X184352661Y-76527661D01*
X184380110Y-76505134D01*
X184411431Y-76488393D01*
X184445409Y-76478085D01*
X184486890Y-76474000D01*
X185088110Y-76474000D01*
X185129591Y-76478085D01*
G37*
G36*
X183554591Y-76478085D02*
G01*
X183588569Y-76488393D01*
X183619890Y-76505134D01*
X183647339Y-76527661D01*
X183669866Y-76555110D01*
X183686607Y-76586431D01*
X183696915Y-76620409D01*
X183701000Y-76661890D01*
X183701000Y-77338110D01*
X183696915Y-77379591D01*
X183686607Y-77413569D01*
X183669866Y-77444890D01*
X183647339Y-77472339D01*
X183619890Y-77494866D01*
X183588569Y-77511607D01*
X183554591Y-77521915D01*
X183513110Y-77526000D01*
X182911890Y-77526000D01*
X182870409Y-77521915D01*
X182836431Y-77511607D01*
X182805110Y-77494866D01*
X182777661Y-77472339D01*
X182755134Y-77444890D01*
X182738393Y-77413569D01*
X182728085Y-77379591D01*
X182724000Y-77338110D01*
X182724000Y-76661890D01*
X182728085Y-76620409D01*
X182738393Y-76586431D01*
X182755134Y-76555110D01*
X182777661Y-76527661D01*
X182805110Y-76505134D01*
X182836431Y-76488393D01*
X182870409Y-76478085D01*
X182911890Y-76474000D01*
X183513110Y-76474000D01*
X183554591Y-76478085D01*
G37*
G36*
X125113512Y-75373927D02*
G01*
X125262812Y-75403624D01*
X125426784Y-75471544D01*
X125574354Y-75570147D01*
X125699853Y-75695646D01*
X125798456Y-75843216D01*
X125866376Y-76007188D01*
X125895785Y-76155043D01*
X125901000Y-76181258D01*
X125901000Y-76358742D01*
X125899622Y-76365668D01*
X125866376Y-76532812D01*
X125798456Y-76696784D01*
X125699853Y-76844354D01*
X125574354Y-76969853D01*
X125426784Y-77068456D01*
X125262812Y-77136376D01*
X125113512Y-77166073D01*
X125088742Y-77171000D01*
X124911258Y-77171000D01*
X124886488Y-77166073D01*
X124737188Y-77136376D01*
X124573216Y-77068456D01*
X124425646Y-76969853D01*
X124300147Y-76844354D01*
X124201544Y-76696784D01*
X124133624Y-76532812D01*
X124100378Y-76365668D01*
X124099000Y-76358742D01*
X124099000Y-76181258D01*
X124104215Y-76155043D01*
X124133624Y-76007188D01*
X124201544Y-75843216D01*
X124300147Y-75695646D01*
X124425646Y-75570147D01*
X124573216Y-75471544D01*
X124737188Y-75403624D01*
X124886488Y-75373927D01*
X124911258Y-75369000D01*
X125088742Y-75369000D01*
X125113512Y-75373927D01*
G37*
G36*
X199201000Y-76651000D02*
G01*
X196599000Y-76651000D01*
X196599000Y-74549000D01*
X199201000Y-74549000D01*
X199201000Y-76651000D01*
G37*
G36*
X193701000Y-76651000D02*
G01*
X191099000Y-76651000D01*
X191099000Y-74549000D01*
X193701000Y-74549000D01*
X193701000Y-76651000D01*
G37*
G36*
X147379591Y-75303085D02*
G01*
X147413569Y-75313393D01*
X147444890Y-75330134D01*
X147472339Y-75352661D01*
X147494866Y-75380110D01*
X147511607Y-75411431D01*
X147521915Y-75445409D01*
X147526000Y-75486890D01*
X147526000Y-76088110D01*
X147521915Y-76129591D01*
X147511607Y-76163569D01*
X147494866Y-76194890D01*
X147472339Y-76222339D01*
X147444890Y-76244866D01*
X147413569Y-76261607D01*
X147379591Y-76271915D01*
X147338110Y-76276000D01*
X146661890Y-76276000D01*
X146620409Y-76271915D01*
X146586431Y-76261607D01*
X146555110Y-76244866D01*
X146527661Y-76222339D01*
X146505134Y-76194890D01*
X146488393Y-76163569D01*
X146478085Y-76129591D01*
X146474000Y-76088110D01*
X146474000Y-75486890D01*
X146478085Y-75445409D01*
X146488393Y-75411431D01*
X146505134Y-75380110D01*
X146527661Y-75352661D01*
X146555110Y-75330134D01*
X146586431Y-75313393D01*
X146620409Y-75303085D01*
X146661890Y-75299000D01*
X147338110Y-75299000D01*
X147379591Y-75303085D01*
G37*
G36*
X133379591Y-75303085D02*
G01*
X133413569Y-75313393D01*
X133444890Y-75330134D01*
X133472339Y-75352661D01*
X133494866Y-75380110D01*
X133511607Y-75411431D01*
X133521915Y-75445409D01*
X133526000Y-75486890D01*
X133526000Y-76088110D01*
X133521915Y-76129591D01*
X133511607Y-76163569D01*
X133494866Y-76194890D01*
X133472339Y-76222339D01*
X133444890Y-76244866D01*
X133413569Y-76261607D01*
X133379591Y-76271915D01*
X133338110Y-76276000D01*
X132661890Y-76276000D01*
X132620409Y-76271915D01*
X132586431Y-76261607D01*
X132555110Y-76244866D01*
X132527661Y-76222339D01*
X132505134Y-76194890D01*
X132488393Y-76163569D01*
X132478085Y-76129591D01*
X132474000Y-76088110D01*
X132474000Y-75486890D01*
X132478085Y-75445409D01*
X132488393Y-75411431D01*
X132505134Y-75380110D01*
X132527661Y-75352661D01*
X132555110Y-75330134D01*
X132586431Y-75313393D01*
X132620409Y-75303085D01*
X132661890Y-75299000D01*
X133338110Y-75299000D01*
X133379591Y-75303085D01*
G37*
G36*
X183554591Y-74978085D02*
G01*
X183588569Y-74988393D01*
X183619890Y-75005134D01*
X183647339Y-75027661D01*
X183669866Y-75055110D01*
X183686607Y-75086431D01*
X183696915Y-75120409D01*
X183701000Y-75161890D01*
X183701000Y-75838110D01*
X183696915Y-75879591D01*
X183686607Y-75913569D01*
X183669866Y-75944890D01*
X183647339Y-75972339D01*
X183619890Y-75994866D01*
X183588569Y-76011607D01*
X183554591Y-76021915D01*
X183513110Y-76026000D01*
X182911890Y-76026000D01*
X182870409Y-76021915D01*
X182836431Y-76011607D01*
X182805110Y-75994866D01*
X182777661Y-75972339D01*
X182755134Y-75944890D01*
X182738393Y-75913569D01*
X182728085Y-75879591D01*
X182724000Y-75838110D01*
X182724000Y-75161890D01*
X182728085Y-75120409D01*
X182738393Y-75086431D01*
X182755134Y-75055110D01*
X182777661Y-75027661D01*
X182805110Y-75005134D01*
X182836431Y-74988393D01*
X182870409Y-74978085D01*
X182911890Y-74974000D01*
X183513110Y-74974000D01*
X183554591Y-74978085D01*
G37*
G36*
X185129591Y-74978085D02*
G01*
X185163569Y-74988393D01*
X185194890Y-75005134D01*
X185222339Y-75027661D01*
X185244866Y-75055110D01*
X185261607Y-75086431D01*
X185271915Y-75120409D01*
X185276000Y-75161890D01*
X185276000Y-75838110D01*
X185271915Y-75879591D01*
X185261607Y-75913569D01*
X185244866Y-75944890D01*
X185222339Y-75972339D01*
X185194890Y-75994866D01*
X185163569Y-76011607D01*
X185129591Y-76021915D01*
X185088110Y-76026000D01*
X184486890Y-76026000D01*
X184445409Y-76021915D01*
X184411431Y-76011607D01*
X184380110Y-75994866D01*
X184352661Y-75972339D01*
X184330134Y-75944890D01*
X184313393Y-75913569D01*
X184303085Y-75879591D01*
X184299000Y-75838110D01*
X184299000Y-75161890D01*
X184303085Y-75120409D01*
X184313393Y-75086431D01*
X184330134Y-75055110D01*
X184352661Y-75027661D01*
X184380110Y-75005134D01*
X184411431Y-74988393D01*
X184445409Y-74978085D01*
X184486890Y-74974000D01*
X185088110Y-74974000D01*
X185129591Y-74978085D01*
G37*
G36*
X158129591Y-74478085D02*
G01*
X158163569Y-74488393D01*
X158194890Y-74505134D01*
X158222339Y-74527661D01*
X158244866Y-74555110D01*
X158261607Y-74586431D01*
X158271915Y-74620409D01*
X158276000Y-74661890D01*
X158276000Y-75338110D01*
X158271915Y-75379591D01*
X158261607Y-75413569D01*
X158244866Y-75444890D01*
X158222339Y-75472339D01*
X158194890Y-75494866D01*
X158163569Y-75511607D01*
X158129591Y-75521915D01*
X158088110Y-75526000D01*
X157486890Y-75526000D01*
X157445409Y-75521915D01*
X157411431Y-75511607D01*
X157380110Y-75494866D01*
X157352661Y-75472339D01*
X157330134Y-75444890D01*
X157313393Y-75413569D01*
X157303085Y-75379591D01*
X157299000Y-75338110D01*
X157299000Y-74661890D01*
X157303085Y-74620409D01*
X157313393Y-74586431D01*
X157330134Y-74555110D01*
X157352661Y-74527661D01*
X157380110Y-74505134D01*
X157411431Y-74488393D01*
X157445409Y-74478085D01*
X157486890Y-74474000D01*
X158088110Y-74474000D01*
X158129591Y-74478085D01*
G37*
G36*
X156554591Y-74478085D02*
G01*
X156588569Y-74488393D01*
X156619890Y-74505134D01*
X156647339Y-74527661D01*
X156669866Y-74555110D01*
X156686607Y-74586431D01*
X156696915Y-74620409D01*
X156701000Y-74661890D01*
X156701000Y-75338110D01*
X156696915Y-75379591D01*
X156686607Y-75413569D01*
X156669866Y-75444890D01*
X156647339Y-75472339D01*
X156619890Y-75494866D01*
X156588569Y-75511607D01*
X156554591Y-75521915D01*
X156513110Y-75526000D01*
X155911890Y-75526000D01*
X155870409Y-75521915D01*
X155836431Y-75511607D01*
X155805110Y-75494866D01*
X155777661Y-75472339D01*
X155755134Y-75444890D01*
X155738393Y-75413569D01*
X155728085Y-75379591D01*
X155724000Y-75338110D01*
X155724000Y-74661890D01*
X155728085Y-74620409D01*
X155738393Y-74586431D01*
X155755134Y-74555110D01*
X155777661Y-74527661D01*
X155805110Y-74505134D01*
X155836431Y-74488393D01*
X155870409Y-74478085D01*
X155911890Y-74474000D01*
X156513110Y-74474000D01*
X156554591Y-74478085D01*
G37*
G36*
X141342876Y-69327433D02*
G01*
X141359268Y-69332406D01*
X141374380Y-69340483D01*
X141392389Y-69355263D01*
X141432234Y-69395108D01*
X141432245Y-69395117D01*
X141645085Y-69607957D01*
X141645094Y-69607968D01*
X141684939Y-69647813D01*
X141699719Y-69665822D01*
X141707796Y-69680934D01*
X141712769Y-69697326D01*
X141714448Y-69714377D01*
X141712769Y-69731425D01*
X141710247Y-69739739D01*
X141705467Y-69763773D01*
X141705467Y-69788277D01*
X141710248Y-69812310D01*
X141719625Y-69834949D01*
X141733239Y-69855323D01*
X141750566Y-69872650D01*
X141770941Y-69886264D01*
X141793579Y-69895641D01*
X141817613Y-69900421D01*
X141842117Y-69900421D01*
X141866150Y-69895640D01*
X141874459Y-69893119D01*
X141891510Y-69891440D01*
X141908561Y-69893119D01*
X141924953Y-69898092D01*
X141940065Y-69906169D01*
X141958074Y-69920949D01*
X141997919Y-69960794D01*
X141997930Y-69960803D01*
X142210770Y-70173643D01*
X142210779Y-70173654D01*
X142250624Y-70213499D01*
X142265404Y-70231508D01*
X142273481Y-70246620D01*
X142278454Y-70263012D01*
X142280133Y-70280063D01*
X142278454Y-70297114D01*
X142275933Y-70305423D01*
X142271152Y-70329456D01*
X142271152Y-70353960D01*
X142275932Y-70377993D01*
X142285309Y-70400632D01*
X142298923Y-70421007D01*
X142316250Y-70438334D01*
X142336624Y-70451948D01*
X142359263Y-70461325D01*
X142383296Y-70466106D01*
X142407800Y-70466106D01*
X142431834Y-70461326D01*
X142440148Y-70458804D01*
X142457196Y-70457125D01*
X142474247Y-70458804D01*
X142490639Y-70463777D01*
X142505751Y-70471854D01*
X142523760Y-70486634D01*
X142563605Y-70526479D01*
X142563616Y-70526488D01*
X142776456Y-70739328D01*
X142776465Y-70739339D01*
X142816310Y-70779184D01*
X142831090Y-70797193D01*
X142839167Y-70812305D01*
X142844140Y-70828697D01*
X142845819Y-70845748D01*
X142844140Y-70862799D01*
X142841619Y-70871108D01*
X142836838Y-70895141D01*
X142836838Y-70919645D01*
X142841618Y-70943678D01*
X142850995Y-70966317D01*
X142864609Y-70986692D01*
X142881936Y-71004019D01*
X142902310Y-71017633D01*
X142924949Y-71027010D01*
X142948982Y-71031791D01*
X142973486Y-71031791D01*
X142997521Y-71027010D01*
X143005830Y-71024489D01*
X143022881Y-71022810D01*
X143039932Y-71024489D01*
X143056324Y-71029462D01*
X143071436Y-71037539D01*
X143089445Y-71052319D01*
X143129290Y-71092164D01*
X143129301Y-71092173D01*
X143342141Y-71305013D01*
X143342150Y-71305024D01*
X143381995Y-71344869D01*
X143396775Y-71362878D01*
X143404852Y-71377990D01*
X143409825Y-71394382D01*
X143411504Y-71411433D01*
X143409825Y-71428481D01*
X143407303Y-71436795D01*
X143402523Y-71460829D01*
X143402523Y-71485333D01*
X143407304Y-71509366D01*
X143416681Y-71532005D01*
X143430295Y-71552379D01*
X143447622Y-71569706D01*
X143467997Y-71583320D01*
X143490635Y-71592697D01*
X143514669Y-71597477D01*
X143539173Y-71597477D01*
X143563205Y-71592697D01*
X143571519Y-71590175D01*
X143588567Y-71588496D01*
X143605618Y-71590175D01*
X143622010Y-71595148D01*
X143637122Y-71603225D01*
X143655131Y-71618005D01*
X143694976Y-71657850D01*
X143694987Y-71657859D01*
X143907827Y-71870699D01*
X143907836Y-71870710D01*
X143947681Y-71910555D01*
X143962461Y-71928564D01*
X143970538Y-71943676D01*
X143975511Y-71960068D01*
X143977190Y-71977119D01*
X143975511Y-71994170D01*
X143972990Y-72002479D01*
X143968209Y-72026512D01*
X143968209Y-72051016D01*
X143972989Y-72075049D01*
X143982366Y-72097688D01*
X143995980Y-72118063D01*
X144013307Y-72135390D01*
X144033681Y-72149004D01*
X144056320Y-72158381D01*
X144080353Y-72163162D01*
X144104857Y-72163162D01*
X144128892Y-72158381D01*
X144137201Y-72155860D01*
X144154252Y-72154181D01*
X144171303Y-72155860D01*
X144187695Y-72160833D01*
X144202807Y-72168910D01*
X144220816Y-72183690D01*
X144260661Y-72223535D01*
X144260672Y-72223544D01*
X144473512Y-72436384D01*
X144473521Y-72436395D01*
X144513366Y-72476240D01*
X144528146Y-72494249D01*
X144536223Y-72509361D01*
X144541196Y-72525753D01*
X144542875Y-72542804D01*
X144541196Y-72559852D01*
X144538674Y-72568166D01*
X144533894Y-72592200D01*
X144533894Y-72616704D01*
X144538675Y-72640737D01*
X144548052Y-72663376D01*
X144561666Y-72683750D01*
X144578993Y-72701077D01*
X144599368Y-72714691D01*
X144622006Y-72724068D01*
X144646040Y-72728848D01*
X144670544Y-72728848D01*
X144694577Y-72724067D01*
X144702886Y-72721546D01*
X144719937Y-72719867D01*
X144736988Y-72721546D01*
X144753380Y-72726519D01*
X144768492Y-72734596D01*
X144786501Y-72749376D01*
X144826346Y-72789221D01*
X144826357Y-72789230D01*
X145039197Y-73002070D01*
X145039206Y-73002081D01*
X145079051Y-73041926D01*
X145093831Y-73059935D01*
X145101908Y-73075047D01*
X145106881Y-73091439D01*
X145108560Y-73108490D01*
X145106881Y-73125541D01*
X145104360Y-73133850D01*
X145099579Y-73157883D01*
X145099579Y-73182387D01*
X145104359Y-73206420D01*
X145113736Y-73229059D01*
X145127350Y-73249434D01*
X145144677Y-73266761D01*
X145165051Y-73280375D01*
X145187690Y-73289752D01*
X145211723Y-73294533D01*
X145236227Y-73294533D01*
X145260261Y-73289753D01*
X145268575Y-73287231D01*
X145285623Y-73285552D01*
X145302674Y-73287231D01*
X145319066Y-73292204D01*
X145334178Y-73300281D01*
X145352187Y-73315061D01*
X145392032Y-73354906D01*
X145392043Y-73354915D01*
X145604883Y-73567755D01*
X145604892Y-73567766D01*
X145644737Y-73607611D01*
X145659517Y-73625620D01*
X145667594Y-73640732D01*
X145672567Y-73657124D01*
X145674246Y-73674175D01*
X145672567Y-73691226D01*
X145667594Y-73707618D01*
X145659517Y-73722730D01*
X145644737Y-73740739D01*
X145604892Y-73780584D01*
X145604883Y-73780595D01*
X144684937Y-74700541D01*
X144684926Y-74700550D01*
X144645081Y-74740395D01*
X144627072Y-74755175D01*
X144611960Y-74763252D01*
X144595568Y-74768225D01*
X144578517Y-74769904D01*
X144561466Y-74768225D01*
X144545074Y-74763252D01*
X144529962Y-74755175D01*
X144511953Y-74740395D01*
X144472108Y-74700550D01*
X144472097Y-74700541D01*
X144259257Y-74487701D01*
X144259248Y-74487690D01*
X144219403Y-74447845D01*
X144204623Y-74429836D01*
X144196546Y-74414724D01*
X144191573Y-74398332D01*
X144189894Y-74381281D01*
X144191573Y-74364230D01*
X144194094Y-74355921D01*
X144198875Y-74331888D01*
X144198875Y-74307384D01*
X144194095Y-74283351D01*
X144184718Y-74260712D01*
X144171104Y-74240337D01*
X144153777Y-74223010D01*
X144133403Y-74209396D01*
X144110764Y-74200019D01*
X144086731Y-74195238D01*
X144062227Y-74195238D01*
X144038193Y-74200018D01*
X144029879Y-74202540D01*
X144012831Y-74204219D01*
X143995780Y-74202540D01*
X143979388Y-74197567D01*
X143964276Y-74189490D01*
X143946267Y-74174710D01*
X143906422Y-74134865D01*
X143906411Y-74134856D01*
X143693571Y-73922016D01*
X143693562Y-73922005D01*
X143653717Y-73882160D01*
X143638937Y-73864151D01*
X143630860Y-73849039D01*
X143625887Y-73832647D01*
X143624208Y-73815596D01*
X143625887Y-73798548D01*
X143628409Y-73790234D01*
X143633189Y-73766200D01*
X143633189Y-73741696D01*
X143628408Y-73717663D01*
X143619031Y-73695024D01*
X143605417Y-73674650D01*
X143588090Y-73657323D01*
X143567715Y-73643709D01*
X143545077Y-73634332D01*
X143521043Y-73629552D01*
X143496539Y-73629552D01*
X143472506Y-73634333D01*
X143464197Y-73636854D01*
X143447146Y-73638533D01*
X143430095Y-73636854D01*
X143413703Y-73631881D01*
X143398591Y-73623804D01*
X143380582Y-73609024D01*
X143340737Y-73569179D01*
X143340726Y-73569170D01*
X143127886Y-73356330D01*
X143127877Y-73356319D01*
X143088032Y-73316474D01*
X143073252Y-73298465D01*
X143065175Y-73283353D01*
X143060202Y-73266961D01*
X143058523Y-73249910D01*
X143060202Y-73232859D01*
X143062723Y-73224550D01*
X143067504Y-73200517D01*
X143067504Y-73176013D01*
X143062724Y-73151980D01*
X143053347Y-73129341D01*
X143039733Y-73108966D01*
X143022406Y-73091639D01*
X143002032Y-73078025D01*
X142979393Y-73068648D01*
X142955360Y-73063867D01*
X142930856Y-73063867D01*
X142906821Y-73068648D01*
X142898512Y-73071169D01*
X142881461Y-73072848D01*
X142864410Y-73071169D01*
X142848018Y-73066196D01*
X142832906Y-73058119D01*
X142814897Y-73043339D01*
X142775052Y-73003494D01*
X142775041Y-73003485D01*
X142562201Y-72790645D01*
X142562192Y-72790634D01*
X142522347Y-72750789D01*
X142507567Y-72732780D01*
X142499490Y-72717668D01*
X142494517Y-72701276D01*
X142492838Y-72684225D01*
X142494517Y-72667177D01*
X142497039Y-72658863D01*
X142501819Y-72634829D01*
X142501819Y-72610325D01*
X142497038Y-72586292D01*
X142487661Y-72563653D01*
X142474047Y-72543279D01*
X142456720Y-72525952D01*
X142436345Y-72512338D01*
X142413707Y-72502961D01*
X142389673Y-72498181D01*
X142365169Y-72498181D01*
X142341137Y-72502961D01*
X142332823Y-72505483D01*
X142315775Y-72507162D01*
X142298724Y-72505483D01*
X142282332Y-72500510D01*
X142267220Y-72492433D01*
X142249211Y-72477653D01*
X142209366Y-72437808D01*
X142209355Y-72437799D01*
X141996515Y-72224959D01*
X141996506Y-72224948D01*
X141956661Y-72185103D01*
X141941881Y-72167094D01*
X141933804Y-72151982D01*
X141928831Y-72135590D01*
X141927152Y-72118539D01*
X141928831Y-72101488D01*
X141931352Y-72093179D01*
X141936133Y-72069146D01*
X141936133Y-72044642D01*
X141931353Y-72020609D01*
X141921976Y-71997970D01*
X141908362Y-71977595D01*
X141891035Y-71960268D01*
X141870661Y-71946654D01*
X141848022Y-71937277D01*
X141823989Y-71932496D01*
X141799485Y-71932496D01*
X141775450Y-71937277D01*
X141767141Y-71939798D01*
X141750090Y-71941477D01*
X141733039Y-71939798D01*
X141716647Y-71934825D01*
X141701535Y-71926748D01*
X141683526Y-71911968D01*
X141643681Y-71872123D01*
X141643670Y-71872114D01*
X141430830Y-71659274D01*
X141430821Y-71659263D01*
X141390976Y-71619418D01*
X141376196Y-71601409D01*
X141368119Y-71586297D01*
X141363146Y-71569905D01*
X141361467Y-71552854D01*
X141363146Y-71535803D01*
X141365667Y-71527494D01*
X141370448Y-71503461D01*
X141370448Y-71478957D01*
X141365668Y-71454924D01*
X141356291Y-71432285D01*
X141342677Y-71411910D01*
X141325350Y-71394583D01*
X141304976Y-71380969D01*
X141282337Y-71371592D01*
X141258304Y-71366811D01*
X141233800Y-71366811D01*
X141209766Y-71371591D01*
X141201452Y-71374113D01*
X141184404Y-71375792D01*
X141167353Y-71374113D01*
X141150961Y-71369140D01*
X141135849Y-71361063D01*
X141117840Y-71346283D01*
X141077995Y-71306438D01*
X141077984Y-71306429D01*
X140865144Y-71093589D01*
X140865135Y-71093578D01*
X140825290Y-71053733D01*
X140810510Y-71035724D01*
X140802433Y-71020612D01*
X140797460Y-71004220D01*
X140795781Y-70987169D01*
X140797460Y-70970121D01*
X140799982Y-70961807D01*
X140804762Y-70937773D01*
X140804762Y-70913269D01*
X140799981Y-70889236D01*
X140790604Y-70866597D01*
X140776990Y-70846223D01*
X140759663Y-70828896D01*
X140739288Y-70815282D01*
X140716650Y-70805905D01*
X140692616Y-70801125D01*
X140668112Y-70801125D01*
X140644079Y-70805906D01*
X140635770Y-70808427D01*
X140618719Y-70810106D01*
X140601668Y-70808427D01*
X140585276Y-70803454D01*
X140570164Y-70795377D01*
X140552155Y-70780597D01*
X140512310Y-70740752D01*
X140512299Y-70740743D01*
X140299459Y-70527903D01*
X140299450Y-70527892D01*
X140259605Y-70488047D01*
X140244825Y-70470038D01*
X140236748Y-70454926D01*
X140231775Y-70438534D01*
X140230096Y-70421483D01*
X140231775Y-70404432D01*
X140236748Y-70388040D01*
X140244825Y-70372928D01*
X140259605Y-70354919D01*
X140299450Y-70315074D01*
X140299459Y-70315063D01*
X141219405Y-69395117D01*
X141219416Y-69395108D01*
X141259261Y-69355263D01*
X141277270Y-69340483D01*
X141292382Y-69332406D01*
X141308774Y-69327433D01*
X141325825Y-69325754D01*
X141342876Y-69327433D01*
G37*
G36*
X138691226Y-69327433D02*
G01*
X138707618Y-69332406D01*
X138722730Y-69340483D01*
X138740739Y-69355263D01*
X138780584Y-69395108D01*
X138780595Y-69395117D01*
X139700541Y-70315063D01*
X139700550Y-70315074D01*
X139740395Y-70354919D01*
X139755175Y-70372928D01*
X139763252Y-70388040D01*
X139768225Y-70404432D01*
X139769904Y-70421483D01*
X139768225Y-70438534D01*
X139763252Y-70454926D01*
X139755175Y-70470038D01*
X139740395Y-70488047D01*
X139700550Y-70527892D01*
X139700541Y-70527903D01*
X139487701Y-70740743D01*
X139487690Y-70740752D01*
X139447845Y-70780597D01*
X139429836Y-70795377D01*
X139414724Y-70803454D01*
X139398332Y-70808427D01*
X139381281Y-70810106D01*
X139364230Y-70808427D01*
X139355921Y-70805906D01*
X139331888Y-70801125D01*
X139307384Y-70801125D01*
X139283351Y-70805905D01*
X139260712Y-70815282D01*
X139240337Y-70828896D01*
X139223010Y-70846223D01*
X139209396Y-70866597D01*
X139200019Y-70889236D01*
X139195238Y-70913269D01*
X139195238Y-70937773D01*
X139200018Y-70961807D01*
X139202540Y-70970121D01*
X139204219Y-70987169D01*
X139202540Y-71004220D01*
X139197567Y-71020612D01*
X139189490Y-71035724D01*
X139174710Y-71053733D01*
X139134865Y-71093578D01*
X139134856Y-71093589D01*
X138922016Y-71306429D01*
X138922005Y-71306438D01*
X138882160Y-71346283D01*
X138864151Y-71361063D01*
X138849039Y-71369140D01*
X138832647Y-71374113D01*
X138815596Y-71375792D01*
X138798548Y-71374113D01*
X138790234Y-71371591D01*
X138766200Y-71366811D01*
X138741696Y-71366811D01*
X138717663Y-71371592D01*
X138695024Y-71380969D01*
X138674650Y-71394583D01*
X138657323Y-71411910D01*
X138643709Y-71432285D01*
X138634332Y-71454923D01*
X138629552Y-71478957D01*
X138629552Y-71503461D01*
X138634333Y-71527494D01*
X138636854Y-71535803D01*
X138638533Y-71552854D01*
X138636854Y-71569905D01*
X138631881Y-71586297D01*
X138623804Y-71601409D01*
X138609024Y-71619418D01*
X138569179Y-71659263D01*
X138569170Y-71659274D01*
X138356330Y-71872114D01*
X138356319Y-71872123D01*
X138316474Y-71911968D01*
X138298465Y-71926748D01*
X138283353Y-71934825D01*
X138266961Y-71939798D01*
X138249910Y-71941477D01*
X138232859Y-71939798D01*
X138224550Y-71937277D01*
X138200517Y-71932496D01*
X138176013Y-71932496D01*
X138151980Y-71937276D01*
X138129341Y-71946653D01*
X138108966Y-71960267D01*
X138091639Y-71977594D01*
X138078025Y-71997968D01*
X138068648Y-72020607D01*
X138063867Y-72044640D01*
X138063867Y-72069144D01*
X138068648Y-72093179D01*
X138071169Y-72101488D01*
X138072848Y-72118539D01*
X138071169Y-72135590D01*
X138066196Y-72151982D01*
X138058119Y-72167094D01*
X138043339Y-72185103D01*
X138003494Y-72224948D01*
X138003485Y-72224959D01*
X137790645Y-72437799D01*
X137790634Y-72437808D01*
X137750789Y-72477653D01*
X137732780Y-72492433D01*
X137717668Y-72500510D01*
X137701276Y-72505483D01*
X137684225Y-72507162D01*
X137667177Y-72505483D01*
X137658863Y-72502961D01*
X137634829Y-72498181D01*
X137610325Y-72498181D01*
X137586292Y-72502962D01*
X137563653Y-72512339D01*
X137543279Y-72525953D01*
X137525952Y-72543280D01*
X137512338Y-72563655D01*
X137502961Y-72586293D01*
X137498181Y-72610327D01*
X137498181Y-72634831D01*
X137502961Y-72658863D01*
X137505483Y-72667177D01*
X137507162Y-72684225D01*
X137505483Y-72701276D01*
X137500510Y-72717668D01*
X137492433Y-72732780D01*
X137477653Y-72750789D01*
X137437808Y-72790634D01*
X137437799Y-72790645D01*
X137224959Y-73003485D01*
X137224948Y-73003494D01*
X137185103Y-73043339D01*
X137167094Y-73058119D01*
X137151982Y-73066196D01*
X137135590Y-73071169D01*
X137118539Y-73072848D01*
X137101488Y-73071169D01*
X137093179Y-73068648D01*
X137069146Y-73063867D01*
X137044642Y-73063867D01*
X137020609Y-73068647D01*
X136997970Y-73078024D01*
X136977595Y-73091638D01*
X136960268Y-73108965D01*
X136946654Y-73129339D01*
X136937277Y-73151978D01*
X136932496Y-73176011D01*
X136932496Y-73200515D01*
X136937277Y-73224550D01*
X136939798Y-73232859D01*
X136941477Y-73249910D01*
X136939798Y-73266961D01*
X136934825Y-73283353D01*
X136926748Y-73298465D01*
X136911968Y-73316474D01*
X136872123Y-73356319D01*
X136872114Y-73356330D01*
X136659274Y-73569170D01*
X136659263Y-73569179D01*
X136619418Y-73609024D01*
X136601409Y-73623804D01*
X136586297Y-73631881D01*
X136569905Y-73636854D01*
X136552854Y-73638533D01*
X136535803Y-73636854D01*
X136527494Y-73634333D01*
X136503461Y-73629552D01*
X136478957Y-73629552D01*
X136454924Y-73634332D01*
X136432285Y-73643709D01*
X136411910Y-73657323D01*
X136394583Y-73674650D01*
X136380969Y-73695024D01*
X136371592Y-73717663D01*
X136366811Y-73741696D01*
X136366811Y-73766200D01*
X136371591Y-73790234D01*
X136374113Y-73798548D01*
X136375792Y-73815596D01*
X136374113Y-73832647D01*
X136369140Y-73849039D01*
X136361063Y-73864151D01*
X136346283Y-73882160D01*
X136306438Y-73922005D01*
X136306429Y-73922016D01*
X136093589Y-74134856D01*
X136093578Y-74134865D01*
X136053733Y-74174710D01*
X136035724Y-74189490D01*
X136020612Y-74197567D01*
X136004220Y-74202540D01*
X135987169Y-74204219D01*
X135970121Y-74202540D01*
X135961807Y-74200018D01*
X135937773Y-74195238D01*
X135913269Y-74195238D01*
X135889236Y-74200019D01*
X135866597Y-74209396D01*
X135846223Y-74223010D01*
X135828896Y-74240337D01*
X135815282Y-74260712D01*
X135805905Y-74283350D01*
X135801125Y-74307384D01*
X135801125Y-74331888D01*
X135805906Y-74355921D01*
X135808427Y-74364230D01*
X135810106Y-74381281D01*
X135808427Y-74398332D01*
X135803454Y-74414724D01*
X135795377Y-74429836D01*
X135780597Y-74447845D01*
X135740752Y-74487690D01*
X135740743Y-74487701D01*
X135527903Y-74700541D01*
X135527892Y-74700550D01*
X135488047Y-74740395D01*
X135470038Y-74755175D01*
X135454926Y-74763252D01*
X135438534Y-74768225D01*
X135421483Y-74769904D01*
X135404432Y-74768225D01*
X135388040Y-74763252D01*
X135372928Y-74755175D01*
X135354919Y-74740395D01*
X135315074Y-74700550D01*
X135315063Y-74700541D01*
X134395117Y-73780595D01*
X134395108Y-73780584D01*
X134355263Y-73740739D01*
X134340483Y-73722730D01*
X134332406Y-73707618D01*
X134327433Y-73691226D01*
X134325754Y-73674175D01*
X134327433Y-73657124D01*
X134332406Y-73640732D01*
X134340483Y-73625620D01*
X134355263Y-73607611D01*
X134395108Y-73567766D01*
X134395117Y-73567755D01*
X134607957Y-73354915D01*
X134607968Y-73354906D01*
X134647813Y-73315061D01*
X134665822Y-73300281D01*
X134680934Y-73292204D01*
X134697326Y-73287231D01*
X134714377Y-73285552D01*
X134731425Y-73287231D01*
X134739739Y-73289753D01*
X134763773Y-73294533D01*
X134788277Y-73294533D01*
X134812310Y-73289752D01*
X134834949Y-73280375D01*
X134855323Y-73266761D01*
X134872650Y-73249434D01*
X134886264Y-73229059D01*
X134895641Y-73206421D01*
X134900421Y-73182387D01*
X134900421Y-73157883D01*
X134895640Y-73133850D01*
X134893119Y-73125541D01*
X134891440Y-73108490D01*
X134893119Y-73091439D01*
X134898092Y-73075047D01*
X134906169Y-73059935D01*
X134920949Y-73041926D01*
X134960794Y-73002081D01*
X134960803Y-73002070D01*
X135173643Y-72789230D01*
X135173654Y-72789221D01*
X135213499Y-72749376D01*
X135231508Y-72734596D01*
X135246620Y-72726519D01*
X135263012Y-72721546D01*
X135280063Y-72719867D01*
X135297114Y-72721546D01*
X135305423Y-72724067D01*
X135329456Y-72728848D01*
X135353960Y-72728848D01*
X135377993Y-72724068D01*
X135400632Y-72714691D01*
X135421007Y-72701077D01*
X135438334Y-72683750D01*
X135451948Y-72663376D01*
X135461325Y-72640737D01*
X135466106Y-72616704D01*
X135466106Y-72592200D01*
X135461326Y-72568166D01*
X135458804Y-72559852D01*
X135457125Y-72542804D01*
X135458804Y-72525753D01*
X135463777Y-72509361D01*
X135471854Y-72494249D01*
X135486634Y-72476240D01*
X135526479Y-72436395D01*
X135526488Y-72436384D01*
X135739328Y-72223544D01*
X135739339Y-72223535D01*
X135779184Y-72183690D01*
X135797193Y-72168910D01*
X135812305Y-72160833D01*
X135828697Y-72155860D01*
X135845748Y-72154181D01*
X135862799Y-72155860D01*
X135871108Y-72158381D01*
X135895141Y-72163162D01*
X135919645Y-72163162D01*
X135943678Y-72158382D01*
X135966317Y-72149005D01*
X135986692Y-72135391D01*
X136004019Y-72118064D01*
X136017633Y-72097690D01*
X136027010Y-72075051D01*
X136031791Y-72051018D01*
X136031791Y-72026514D01*
X136027010Y-72002479D01*
X136024489Y-71994170D01*
X136022810Y-71977119D01*
X136024489Y-71960068D01*
X136029462Y-71943676D01*
X136037539Y-71928564D01*
X136052319Y-71910555D01*
X136092164Y-71870710D01*
X136092173Y-71870699D01*
X136305013Y-71657859D01*
X136305024Y-71657850D01*
X136344869Y-71618005D01*
X136362878Y-71603225D01*
X136377990Y-71595148D01*
X136394382Y-71590175D01*
X136411433Y-71588496D01*
X136428481Y-71590175D01*
X136436795Y-71592697D01*
X136460829Y-71597477D01*
X136485333Y-71597477D01*
X136509366Y-71592696D01*
X136532005Y-71583319D01*
X136552379Y-71569705D01*
X136569706Y-71552378D01*
X136583320Y-71532003D01*
X136592697Y-71509365D01*
X136597477Y-71485331D01*
X136597477Y-71460827D01*
X136592697Y-71436795D01*
X136590175Y-71428481D01*
X136588496Y-71411433D01*
X136590175Y-71394382D01*
X136595148Y-71377990D01*
X136603225Y-71362878D01*
X136618005Y-71344869D01*
X136657850Y-71305024D01*
X136657859Y-71305013D01*
X136870699Y-71092173D01*
X136870710Y-71092164D01*
X136910555Y-71052319D01*
X136928564Y-71037539D01*
X136943676Y-71029462D01*
X136960068Y-71024489D01*
X136977119Y-71022810D01*
X136994170Y-71024489D01*
X137002479Y-71027010D01*
X137026512Y-71031791D01*
X137051016Y-71031791D01*
X137075049Y-71027011D01*
X137097688Y-71017634D01*
X137118063Y-71004020D01*
X137135390Y-70986693D01*
X137149004Y-70966319D01*
X137158381Y-70943680D01*
X137163162Y-70919647D01*
X137163162Y-70895143D01*
X137158381Y-70871108D01*
X137155860Y-70862799D01*
X137154181Y-70845748D01*
X137155860Y-70828697D01*
X137160833Y-70812305D01*
X137168910Y-70797193D01*
X137183690Y-70779184D01*
X137223535Y-70739339D01*
X137223544Y-70739328D01*
X137436384Y-70526488D01*
X137436395Y-70526479D01*
X137476240Y-70486634D01*
X137494249Y-70471854D01*
X137509361Y-70463777D01*
X137525753Y-70458804D01*
X137542804Y-70457125D01*
X137559852Y-70458804D01*
X137568166Y-70461326D01*
X137592200Y-70466106D01*
X137616704Y-70466106D01*
X137640737Y-70461325D01*
X137663376Y-70451948D01*
X137683750Y-70438334D01*
X137701077Y-70421007D01*
X137714691Y-70400632D01*
X137724068Y-70377994D01*
X137728848Y-70353960D01*
X137728848Y-70329456D01*
X137724067Y-70305423D01*
X137721546Y-70297114D01*
X137719867Y-70280063D01*
X137721546Y-70263012D01*
X137726519Y-70246620D01*
X137734596Y-70231508D01*
X137749376Y-70213499D01*
X137789221Y-70173654D01*
X137789230Y-70173643D01*
X138002070Y-69960803D01*
X138002081Y-69960794D01*
X138041926Y-69920949D01*
X138059935Y-69906169D01*
X138075047Y-69898092D01*
X138091439Y-69893119D01*
X138108490Y-69891440D01*
X138125541Y-69893119D01*
X138133850Y-69895640D01*
X138157883Y-69900421D01*
X138182387Y-69900421D01*
X138206420Y-69895641D01*
X138229059Y-69886264D01*
X138249434Y-69872650D01*
X138266761Y-69855323D01*
X138280375Y-69834949D01*
X138289752Y-69812310D01*
X138294533Y-69788277D01*
X138294533Y-69763773D01*
X138289753Y-69739739D01*
X138287231Y-69731425D01*
X138285552Y-69714377D01*
X138287231Y-69697326D01*
X138292204Y-69680934D01*
X138300281Y-69665822D01*
X138315061Y-69647813D01*
X138354906Y-69607968D01*
X138354915Y-69607957D01*
X138567755Y-69395117D01*
X138567766Y-69395108D01*
X138607611Y-69355263D01*
X138625620Y-69340483D01*
X138640732Y-69332406D01*
X138657124Y-69327433D01*
X138674175Y-69325754D01*
X138691226Y-69327433D01*
G37*
G36*
X147379591Y-73728085D02*
G01*
X147413569Y-73738393D01*
X147444890Y-73755134D01*
X147472339Y-73777661D01*
X147494866Y-73805110D01*
X147511607Y-73836431D01*
X147521915Y-73870409D01*
X147526000Y-73911890D01*
X147526000Y-74513110D01*
X147521915Y-74554591D01*
X147511607Y-74588569D01*
X147494866Y-74619890D01*
X147472339Y-74647339D01*
X147444890Y-74669866D01*
X147413569Y-74686607D01*
X147379591Y-74696915D01*
X147338110Y-74701000D01*
X146661890Y-74701000D01*
X146620409Y-74696915D01*
X146586431Y-74686607D01*
X146555110Y-74669866D01*
X146527661Y-74647339D01*
X146505134Y-74619890D01*
X146488393Y-74588569D01*
X146478085Y-74554591D01*
X146474000Y-74513110D01*
X146474000Y-73911890D01*
X146478085Y-73870409D01*
X146488393Y-73836431D01*
X146505134Y-73805110D01*
X146527661Y-73777661D01*
X146555110Y-73755134D01*
X146586431Y-73738393D01*
X146620409Y-73728085D01*
X146661890Y-73724000D01*
X147338110Y-73724000D01*
X147379591Y-73728085D01*
G37*
G36*
X133379591Y-73728085D02*
G01*
X133413569Y-73738393D01*
X133444890Y-73755134D01*
X133472339Y-73777661D01*
X133494866Y-73805110D01*
X133511607Y-73836431D01*
X133521915Y-73870409D01*
X133526000Y-73911890D01*
X133526000Y-74513110D01*
X133521915Y-74554591D01*
X133511607Y-74588569D01*
X133494866Y-74619890D01*
X133472339Y-74647339D01*
X133444890Y-74669866D01*
X133413569Y-74686607D01*
X133379591Y-74696915D01*
X133338110Y-74701000D01*
X132661890Y-74701000D01*
X132620409Y-74696915D01*
X132586431Y-74686607D01*
X132555110Y-74669866D01*
X132527661Y-74647339D01*
X132505134Y-74619890D01*
X132488393Y-74588569D01*
X132478085Y-74554591D01*
X132474000Y-74513110D01*
X132474000Y-73911890D01*
X132478085Y-73870409D01*
X132488393Y-73836431D01*
X132505134Y-73805110D01*
X132527661Y-73777661D01*
X132555110Y-73755134D01*
X132586431Y-73738393D01*
X132620409Y-73728085D01*
X132661890Y-73724000D01*
X133338110Y-73724000D01*
X133379591Y-73728085D01*
G37*
G36*
X125113512Y-72833927D02*
G01*
X125262812Y-72863624D01*
X125426784Y-72931544D01*
X125574354Y-73030147D01*
X125699853Y-73155646D01*
X125798456Y-73303216D01*
X125866376Y-73467188D01*
X125890916Y-73590562D01*
X125899623Y-73634333D01*
X125901000Y-73641259D01*
X125901000Y-73818741D01*
X125866376Y-73992812D01*
X125798456Y-74156784D01*
X125699853Y-74304354D01*
X125574354Y-74429853D01*
X125426784Y-74528456D01*
X125262812Y-74596376D01*
X125120012Y-74624780D01*
X125088742Y-74631000D01*
X124911258Y-74631000D01*
X124879988Y-74624780D01*
X124737188Y-74596376D01*
X124573216Y-74528456D01*
X124425646Y-74429853D01*
X124300147Y-74304354D01*
X124201544Y-74156784D01*
X124133624Y-73992812D01*
X124099000Y-73818741D01*
X124099000Y-73641259D01*
X124100378Y-73634333D01*
X124109084Y-73590562D01*
X124133624Y-73467188D01*
X124201544Y-73303216D01*
X124300147Y-73155646D01*
X124425646Y-73030147D01*
X124573216Y-72931544D01*
X124737188Y-72863624D01*
X124886488Y-72833927D01*
X124911258Y-72829000D01*
X125088742Y-72829000D01*
X125113512Y-72833927D01*
G37*
G36*
X185129591Y-73478085D02*
G01*
X185163569Y-73488393D01*
X185194890Y-73505134D01*
X185222339Y-73527661D01*
X185244866Y-73555110D01*
X185261607Y-73586431D01*
X185271915Y-73620409D01*
X185276000Y-73661890D01*
X185276000Y-74338110D01*
X185271915Y-74379591D01*
X185261607Y-74413569D01*
X185244866Y-74444890D01*
X185222339Y-74472339D01*
X185194890Y-74494866D01*
X185163569Y-74511607D01*
X185129591Y-74521915D01*
X185088110Y-74526000D01*
X184486890Y-74526000D01*
X184445409Y-74521915D01*
X184411431Y-74511607D01*
X184380110Y-74494866D01*
X184352661Y-74472339D01*
X184330134Y-74444890D01*
X184313393Y-74413569D01*
X184303085Y-74379591D01*
X184299000Y-74338110D01*
X184299000Y-73661890D01*
X184303085Y-73620409D01*
X184313393Y-73586431D01*
X184330134Y-73555110D01*
X184352661Y-73527661D01*
X184380110Y-73505134D01*
X184411431Y-73488393D01*
X184445409Y-73478085D01*
X184486890Y-73474000D01*
X185088110Y-73474000D01*
X185129591Y-73478085D01*
G37*
G36*
X183554591Y-73478085D02*
G01*
X183588569Y-73488393D01*
X183619890Y-73505134D01*
X183647339Y-73527661D01*
X183669866Y-73555110D01*
X183686607Y-73586431D01*
X183696915Y-73620409D01*
X183701000Y-73661890D01*
X183701000Y-74338110D01*
X183696915Y-74379591D01*
X183686607Y-74413569D01*
X183669866Y-74444890D01*
X183647339Y-74472339D01*
X183619890Y-74494866D01*
X183588569Y-74511607D01*
X183554591Y-74521915D01*
X183513110Y-74526000D01*
X182911890Y-74526000D01*
X182870409Y-74521915D01*
X182836431Y-74511607D01*
X182805110Y-74494866D01*
X182777661Y-74472339D01*
X182755134Y-74444890D01*
X182738393Y-74413569D01*
X182728085Y-74379591D01*
X182724000Y-74338110D01*
X182724000Y-73661890D01*
X182728085Y-73620409D01*
X182738393Y-73586431D01*
X182755134Y-73555110D01*
X182777661Y-73527661D01*
X182805110Y-73505134D01*
X182836431Y-73488393D01*
X182870409Y-73478085D01*
X182911890Y-73474000D01*
X183513110Y-73474000D01*
X183554591Y-73478085D01*
G37*
G36*
X181473500Y-74051000D02*
G01*
X176526500Y-74051000D01*
X176526500Y-72749000D01*
X181473500Y-72749000D01*
X181473500Y-74051000D01*
G37*
G36*
X185129591Y-71978085D02*
G01*
X185163569Y-71988393D01*
X185194890Y-72005134D01*
X185222339Y-72027661D01*
X185244866Y-72055110D01*
X185261607Y-72086431D01*
X185271915Y-72120409D01*
X185276000Y-72161890D01*
X185276000Y-72838110D01*
X185271915Y-72879591D01*
X185261607Y-72913569D01*
X185244866Y-72944890D01*
X185222339Y-72972339D01*
X185194890Y-72994866D01*
X185163569Y-73011607D01*
X185129591Y-73021915D01*
X185088110Y-73026000D01*
X184486890Y-73026000D01*
X184445409Y-73021915D01*
X184411431Y-73011607D01*
X184380110Y-72994866D01*
X184352661Y-72972339D01*
X184330134Y-72944890D01*
X184313393Y-72913569D01*
X184303085Y-72879591D01*
X184299000Y-72838110D01*
X184299000Y-72161890D01*
X184303085Y-72120409D01*
X184313393Y-72086431D01*
X184330134Y-72055110D01*
X184352661Y-72027661D01*
X184380110Y-72005134D01*
X184411431Y-71988393D01*
X184445409Y-71978085D01*
X184486890Y-71974000D01*
X185088110Y-71974000D01*
X185129591Y-71978085D01*
G37*
G36*
X183554591Y-71978085D02*
G01*
X183588569Y-71988393D01*
X183619890Y-72005134D01*
X183647339Y-72027661D01*
X183669866Y-72055110D01*
X183686607Y-72086431D01*
X183696915Y-72120409D01*
X183701000Y-72161890D01*
X183701000Y-72838110D01*
X183696915Y-72879591D01*
X183686607Y-72913569D01*
X183669866Y-72944890D01*
X183647339Y-72972339D01*
X183619890Y-72994866D01*
X183588569Y-73011607D01*
X183554591Y-73021915D01*
X183513110Y-73026000D01*
X182911890Y-73026000D01*
X182870409Y-73021915D01*
X182836431Y-73011607D01*
X182805110Y-72994866D01*
X182777661Y-72972339D01*
X182755134Y-72944890D01*
X182738393Y-72913569D01*
X182728085Y-72879591D01*
X182724000Y-72838110D01*
X182724000Y-72161890D01*
X182728085Y-72120409D01*
X182738393Y-72086431D01*
X182755134Y-72055110D01*
X182777661Y-72027661D01*
X182805110Y-72005134D01*
X182836431Y-71988393D01*
X182870409Y-71978085D01*
X182911890Y-71974000D01*
X183513110Y-71974000D01*
X183554591Y-71978085D01*
G37*
G36*
X186959618Y-72027965D02*
G01*
X186992433Y-72037919D01*
X187022665Y-72054079D01*
X187049170Y-72075830D01*
X187070921Y-72102335D01*
X187087081Y-72132567D01*
X187097035Y-72165382D01*
X187101000Y-72205640D01*
X187101000Y-72794360D01*
X187097035Y-72834618D01*
X187087081Y-72867433D01*
X187070921Y-72897665D01*
X187049170Y-72924170D01*
X187022665Y-72945921D01*
X186992433Y-72962081D01*
X186959618Y-72972035D01*
X186919360Y-72976000D01*
X185955640Y-72976000D01*
X185915382Y-72972035D01*
X185882567Y-72962081D01*
X185852335Y-72945921D01*
X185825830Y-72924170D01*
X185804079Y-72897665D01*
X185787919Y-72867433D01*
X185777965Y-72834618D01*
X185774000Y-72794360D01*
X185774000Y-72205640D01*
X185777965Y-72165382D01*
X185787919Y-72132567D01*
X185804079Y-72102335D01*
X185825830Y-72075830D01*
X185852335Y-72054079D01*
X185882567Y-72037919D01*
X185915382Y-72027965D01*
X185955640Y-72024000D01*
X186919360Y-72024000D01*
X186959618Y-72027965D01*
G37*
G36*
X188584618Y-72027965D02*
G01*
X188617433Y-72037919D01*
X188647665Y-72054079D01*
X188674170Y-72075830D01*
X188695921Y-72102335D01*
X188712081Y-72132567D01*
X188722035Y-72165382D01*
X188726000Y-72205640D01*
X188726000Y-72794360D01*
X188722035Y-72834618D01*
X188712081Y-72867433D01*
X188695921Y-72897665D01*
X188674170Y-72924170D01*
X188647665Y-72945921D01*
X188617433Y-72962081D01*
X188584618Y-72972035D01*
X188544360Y-72976000D01*
X187580640Y-72976000D01*
X187540382Y-72972035D01*
X187507567Y-72962081D01*
X187477335Y-72945921D01*
X187450830Y-72924170D01*
X187429079Y-72897665D01*
X187412919Y-72867433D01*
X187402965Y-72834618D01*
X187399000Y-72794360D01*
X187399000Y-72205640D01*
X187402965Y-72165382D01*
X187412919Y-72132567D01*
X187429079Y-72102335D01*
X187450830Y-72075830D01*
X187477335Y-72054079D01*
X187507567Y-72037919D01*
X187540382Y-72027965D01*
X187580640Y-72024000D01*
X188544360Y-72024000D01*
X188584618Y-72027965D01*
G37*
G36*
X125113512Y-70293927D02*
G01*
X125262812Y-70323624D01*
X125426784Y-70391544D01*
X125574354Y-70490147D01*
X125699853Y-70615646D01*
X125798456Y-70763216D01*
X125866376Y-70927188D01*
X125894938Y-71070782D01*
X125901000Y-71101258D01*
X125901000Y-71278742D01*
X125896073Y-71303512D01*
X125866376Y-71452812D01*
X125798456Y-71616784D01*
X125699853Y-71764354D01*
X125574354Y-71889853D01*
X125426784Y-71988456D01*
X125262812Y-72056376D01*
X125113512Y-72086073D01*
X125088742Y-72091000D01*
X124911258Y-72091000D01*
X124886488Y-72086073D01*
X124737188Y-72056376D01*
X124573216Y-71988456D01*
X124425646Y-71889853D01*
X124300147Y-71764354D01*
X124201544Y-71616784D01*
X124133624Y-71452812D01*
X124103927Y-71303512D01*
X124099000Y-71278742D01*
X124099000Y-71101258D01*
X124105062Y-71070782D01*
X124133624Y-70927188D01*
X124201544Y-70763216D01*
X124300147Y-70615646D01*
X124425646Y-70490147D01*
X124573216Y-70391544D01*
X124737188Y-70323624D01*
X124886488Y-70293927D01*
X124911258Y-70289000D01*
X125088742Y-70289000D01*
X125113512Y-70293927D01*
G37*
G36*
X180629591Y-70553085D02*
G01*
X180663569Y-70563393D01*
X180694890Y-70580134D01*
X180722339Y-70602661D01*
X180744866Y-70630110D01*
X180761607Y-70661431D01*
X180771915Y-70695409D01*
X180776000Y-70736890D01*
X180776000Y-71338110D01*
X180771915Y-71379591D01*
X180761607Y-71413569D01*
X180744866Y-71444890D01*
X180722339Y-71472339D01*
X180694890Y-71494866D01*
X180663569Y-71511607D01*
X180629591Y-71521915D01*
X180588110Y-71526000D01*
X179911890Y-71526000D01*
X179870409Y-71521915D01*
X179836431Y-71511607D01*
X179805110Y-71494866D01*
X179777661Y-71472339D01*
X179755134Y-71444890D01*
X179738393Y-71413569D01*
X179728085Y-71379591D01*
X179724000Y-71338110D01*
X179724000Y-70736890D01*
X179728085Y-70695409D01*
X179738393Y-70661431D01*
X179755134Y-70630110D01*
X179777661Y-70602661D01*
X179805110Y-70580134D01*
X179836431Y-70563393D01*
X179870409Y-70553085D01*
X179911890Y-70549000D01*
X180588110Y-70549000D01*
X180629591Y-70553085D01*
G37*
G36*
X178629591Y-70553085D02*
G01*
X178663569Y-70563393D01*
X178694890Y-70580134D01*
X178722339Y-70602661D01*
X178744866Y-70630110D01*
X178761607Y-70661431D01*
X178771915Y-70695409D01*
X178776000Y-70736890D01*
X178776000Y-71338110D01*
X178771915Y-71379591D01*
X178761607Y-71413569D01*
X178744866Y-71444890D01*
X178722339Y-71472339D01*
X178694890Y-71494866D01*
X178663569Y-71511607D01*
X178629591Y-71521915D01*
X178588110Y-71526000D01*
X177911890Y-71526000D01*
X177870409Y-71521915D01*
X177836431Y-71511607D01*
X177805110Y-71494866D01*
X177777661Y-71472339D01*
X177755134Y-71444890D01*
X177738393Y-71413569D01*
X177728085Y-71379591D01*
X177724000Y-71338110D01*
X177724000Y-70736890D01*
X177728085Y-70695409D01*
X177738393Y-70661431D01*
X177755134Y-70630110D01*
X177777661Y-70602661D01*
X177805110Y-70580134D01*
X177836431Y-70563393D01*
X177870409Y-70553085D01*
X177911890Y-70549000D01*
X178588110Y-70549000D01*
X178629591Y-70553085D01*
G37*
G36*
X177129591Y-70553085D02*
G01*
X177163569Y-70563393D01*
X177194890Y-70580134D01*
X177222339Y-70602661D01*
X177244866Y-70630110D01*
X177261607Y-70661431D01*
X177271915Y-70695409D01*
X177276000Y-70736890D01*
X177276000Y-71338110D01*
X177271915Y-71379591D01*
X177261607Y-71413569D01*
X177244866Y-71444890D01*
X177222339Y-71472339D01*
X177194890Y-71494866D01*
X177163569Y-71511607D01*
X177129591Y-71521915D01*
X177088110Y-71526000D01*
X176411890Y-71526000D01*
X176370409Y-71521915D01*
X176336431Y-71511607D01*
X176305110Y-71494866D01*
X176277661Y-71472339D01*
X176255134Y-71444890D01*
X176238393Y-71413569D01*
X176228085Y-71379591D01*
X176224000Y-71338110D01*
X176224000Y-70736890D01*
X176228085Y-70695409D01*
X176238393Y-70661431D01*
X176255134Y-70630110D01*
X176277661Y-70602661D01*
X176305110Y-70580134D01*
X176336431Y-70563393D01*
X176370409Y-70553085D01*
X176411890Y-70549000D01*
X177088110Y-70549000D01*
X177129591Y-70553085D01*
G37*
G36*
X182129591Y-70553085D02*
G01*
X182163569Y-70563393D01*
X182194890Y-70580134D01*
X182222339Y-70602661D01*
X182244866Y-70630110D01*
X182261607Y-70661431D01*
X182271915Y-70695409D01*
X182276000Y-70736890D01*
X182276000Y-71338110D01*
X182271915Y-71379591D01*
X182261607Y-71413569D01*
X182244866Y-71444890D01*
X182222339Y-71472339D01*
X182194890Y-71494866D01*
X182163569Y-71511607D01*
X182129591Y-71521915D01*
X182088110Y-71526000D01*
X181411890Y-71526000D01*
X181370409Y-71521915D01*
X181336431Y-71511607D01*
X181305110Y-71494866D01*
X181277661Y-71472339D01*
X181255134Y-71444890D01*
X181238393Y-71413569D01*
X181228085Y-71379591D01*
X181224000Y-71338110D01*
X181224000Y-70736890D01*
X181228085Y-70695409D01*
X181238393Y-70661431D01*
X181255134Y-70630110D01*
X181277661Y-70602661D01*
X181305110Y-70580134D01*
X181336431Y-70563393D01*
X181370409Y-70553085D01*
X181411890Y-70549000D01*
X182088110Y-70549000D01*
X182129591Y-70553085D01*
G37*
G36*
X198201000Y-70961000D02*
G01*
X195699000Y-70961000D01*
X195699000Y-70119000D01*
X198201000Y-70119000D01*
X198201000Y-70961000D01*
G37*
G36*
X194301000Y-70961000D02*
G01*
X191799000Y-70961000D01*
X191799000Y-70119000D01*
X194301000Y-70119000D01*
X194301000Y-70961000D01*
G37*
G36*
X144451977Y-69418855D02*
G01*
X144485955Y-69429163D01*
X144517276Y-69445904D01*
X144549490Y-69472342D01*
X144589341Y-69512193D01*
X144589347Y-69512198D01*
X144987802Y-69910653D01*
X144987807Y-69910659D01*
X145027658Y-69950510D01*
X145054096Y-69982724D01*
X145070837Y-70014045D01*
X145081145Y-70048023D01*
X145084625Y-70083364D01*
X145081145Y-70118705D01*
X145070837Y-70152683D01*
X145054096Y-70184004D01*
X145027658Y-70216218D01*
X144987807Y-70256069D01*
X144987802Y-70256075D01*
X144642381Y-70601496D01*
X144642375Y-70601501D01*
X144602524Y-70641352D01*
X144570310Y-70667790D01*
X144538989Y-70684531D01*
X144505011Y-70694839D01*
X144469670Y-70698319D01*
X144434329Y-70694839D01*
X144400351Y-70684531D01*
X144369030Y-70667790D01*
X144336816Y-70641352D01*
X144296965Y-70601501D01*
X144296959Y-70601496D01*
X143898504Y-70203041D01*
X143898499Y-70203035D01*
X143858648Y-70163184D01*
X143832210Y-70130970D01*
X143815469Y-70099649D01*
X143805161Y-70065671D01*
X143801681Y-70030330D01*
X143805161Y-69994989D01*
X143815469Y-69961011D01*
X143832210Y-69929690D01*
X143858648Y-69897476D01*
X143898499Y-69857625D01*
X143898504Y-69857619D01*
X144243925Y-69512198D01*
X144243931Y-69512193D01*
X144283782Y-69472342D01*
X144315996Y-69445904D01*
X144347317Y-69429163D01*
X144381295Y-69418855D01*
X144416636Y-69415375D01*
X144451977Y-69418855D01*
G37*
G36*
X177129591Y-68978085D02*
G01*
X177163569Y-68988393D01*
X177194890Y-69005134D01*
X177222339Y-69027661D01*
X177244866Y-69055110D01*
X177261607Y-69086431D01*
X177271915Y-69120409D01*
X177276000Y-69161890D01*
X177276000Y-69763110D01*
X177271915Y-69804591D01*
X177261607Y-69838569D01*
X177244866Y-69869890D01*
X177222339Y-69897339D01*
X177194890Y-69919866D01*
X177163569Y-69936607D01*
X177129591Y-69946915D01*
X177088110Y-69951000D01*
X176411890Y-69951000D01*
X176370409Y-69946915D01*
X176336431Y-69936607D01*
X176305110Y-69919866D01*
X176277661Y-69897339D01*
X176255134Y-69869890D01*
X176238393Y-69838569D01*
X176228085Y-69804591D01*
X176224000Y-69763110D01*
X176224000Y-69161890D01*
X176228085Y-69120409D01*
X176238393Y-69086431D01*
X176255134Y-69055110D01*
X176277661Y-69027661D01*
X176305110Y-69005134D01*
X176336431Y-68988393D01*
X176370409Y-68978085D01*
X176411890Y-68974000D01*
X177088110Y-68974000D01*
X177129591Y-68978085D01*
G37*
G36*
X178629591Y-68978085D02*
G01*
X178663569Y-68988393D01*
X178694890Y-69005134D01*
X178722339Y-69027661D01*
X178744866Y-69055110D01*
X178761607Y-69086431D01*
X178771915Y-69120409D01*
X178776000Y-69161890D01*
X178776000Y-69763110D01*
X178771915Y-69804591D01*
X178761607Y-69838569D01*
X178744866Y-69869890D01*
X178722339Y-69897339D01*
X178694890Y-69919866D01*
X178663569Y-69936607D01*
X178629591Y-69946915D01*
X178588110Y-69951000D01*
X177911890Y-69951000D01*
X177870409Y-69946915D01*
X177836431Y-69936607D01*
X177805110Y-69919866D01*
X177777661Y-69897339D01*
X177755134Y-69869890D01*
X177738393Y-69838569D01*
X177728085Y-69804591D01*
X177724000Y-69763110D01*
X177724000Y-69161890D01*
X177728085Y-69120409D01*
X177738393Y-69086431D01*
X177755134Y-69055110D01*
X177777661Y-69027661D01*
X177805110Y-69005134D01*
X177836431Y-68988393D01*
X177870409Y-68978085D01*
X177911890Y-68974000D01*
X178588110Y-68974000D01*
X178629591Y-68978085D01*
G37*
G36*
X180629591Y-68978085D02*
G01*
X180663569Y-68988393D01*
X180694890Y-69005134D01*
X180722339Y-69027661D01*
X180744866Y-69055110D01*
X180761607Y-69086431D01*
X180771915Y-69120409D01*
X180776000Y-69161890D01*
X180776000Y-69763110D01*
X180771915Y-69804591D01*
X180761607Y-69838569D01*
X180744866Y-69869890D01*
X180722339Y-69897339D01*
X180694890Y-69919866D01*
X180663569Y-69936607D01*
X180629591Y-69946915D01*
X180588110Y-69951000D01*
X179911890Y-69951000D01*
X179870409Y-69946915D01*
X179836431Y-69936607D01*
X179805110Y-69919866D01*
X179777661Y-69897339D01*
X179755134Y-69869890D01*
X179738393Y-69838569D01*
X179728085Y-69804591D01*
X179724000Y-69763110D01*
X179724000Y-69161890D01*
X179728085Y-69120409D01*
X179738393Y-69086431D01*
X179755134Y-69055110D01*
X179777661Y-69027661D01*
X179805110Y-69005134D01*
X179836431Y-68988393D01*
X179870409Y-68978085D01*
X179911890Y-68974000D01*
X180588110Y-68974000D01*
X180629591Y-68978085D01*
G37*
G36*
X182129591Y-68978085D02*
G01*
X182163569Y-68988393D01*
X182194890Y-69005134D01*
X182222339Y-69027661D01*
X182244866Y-69055110D01*
X182261607Y-69086431D01*
X182271915Y-69120409D01*
X182276000Y-69161890D01*
X182276000Y-69763110D01*
X182271915Y-69804591D01*
X182261607Y-69838569D01*
X182244866Y-69869890D01*
X182222339Y-69897339D01*
X182194890Y-69919866D01*
X182163569Y-69936607D01*
X182129591Y-69946915D01*
X182088110Y-69951000D01*
X181411890Y-69951000D01*
X181370409Y-69946915D01*
X181336431Y-69936607D01*
X181305110Y-69919866D01*
X181277661Y-69897339D01*
X181255134Y-69869890D01*
X181238393Y-69838569D01*
X181228085Y-69804591D01*
X181224000Y-69763110D01*
X181224000Y-69161890D01*
X181228085Y-69120409D01*
X181238393Y-69086431D01*
X181255134Y-69055110D01*
X181277661Y-69027661D01*
X181305110Y-69005134D01*
X181336431Y-68988393D01*
X181370409Y-68978085D01*
X181411890Y-68974000D01*
X182088110Y-68974000D01*
X182129591Y-68978085D01*
G37*
G36*
X194301000Y-69691000D02*
G01*
X191799000Y-69691000D01*
X191799000Y-68849000D01*
X194301000Y-68849000D01*
X194301000Y-69691000D01*
G37*
G36*
X198201000Y-69691000D02*
G01*
X195699000Y-69691000D01*
X195699000Y-68849000D01*
X198201000Y-68849000D01*
X198201000Y-69691000D01*
G37*
G36*
X145565671Y-68305161D02*
G01*
X145599649Y-68315469D01*
X145630970Y-68332210D01*
X145663184Y-68358648D01*
X145703035Y-68398499D01*
X145703041Y-68398504D01*
X146101496Y-68796959D01*
X146101501Y-68796965D01*
X146141352Y-68836816D01*
X146167790Y-68869030D01*
X146184531Y-68900351D01*
X146194839Y-68934329D01*
X146198319Y-68969670D01*
X146194839Y-69005011D01*
X146184531Y-69038989D01*
X146167790Y-69070310D01*
X146141352Y-69102524D01*
X146101501Y-69142375D01*
X146101496Y-69142381D01*
X145756075Y-69487802D01*
X145756069Y-69487807D01*
X145716218Y-69527658D01*
X145684004Y-69554096D01*
X145652683Y-69570837D01*
X145618705Y-69581145D01*
X145583364Y-69584625D01*
X145548023Y-69581145D01*
X145514045Y-69570837D01*
X145482724Y-69554096D01*
X145450510Y-69527658D01*
X145410659Y-69487807D01*
X145410653Y-69487802D01*
X145012198Y-69089347D01*
X145012193Y-69089341D01*
X144972342Y-69049490D01*
X144945904Y-69017276D01*
X144929163Y-68985955D01*
X144918855Y-68951977D01*
X144915375Y-68916636D01*
X144918855Y-68881295D01*
X144929163Y-68847317D01*
X144945904Y-68815996D01*
X144972342Y-68783782D01*
X145012193Y-68743931D01*
X145012198Y-68743925D01*
X145357619Y-68398504D01*
X145357625Y-68398499D01*
X145397476Y-68358648D01*
X145429690Y-68332210D01*
X145461011Y-68315469D01*
X145494989Y-68305161D01*
X145530330Y-68301681D01*
X145565671Y-68305161D01*
G37*
G36*
X153551000Y-69551000D02*
G01*
X151449000Y-69551000D01*
X151449000Y-64949000D01*
X153551000Y-64949000D01*
X153551000Y-69551000D01*
G37*
G36*
X125901000Y-69551000D02*
G01*
X124099000Y-69551000D01*
X124099000Y-67749000D01*
X125901000Y-67749000D01*
X125901000Y-69551000D01*
G37*
G36*
X198201000Y-68421000D02*
G01*
X195699000Y-68421000D01*
X195699000Y-67579000D01*
X198201000Y-67579000D01*
X198201000Y-68421000D01*
G37*
G36*
X194301000Y-68421000D02*
G01*
X191799000Y-68421000D01*
X191799000Y-67579000D01*
X194301000Y-67579000D01*
X194301000Y-68421000D01*
G37*
G36*
X156554591Y-66978085D02*
G01*
X156588569Y-66988393D01*
X156619890Y-67005134D01*
X156647339Y-67027661D01*
X156669866Y-67055110D01*
X156686607Y-67086431D01*
X156696915Y-67120409D01*
X156701000Y-67161890D01*
X156701000Y-67838110D01*
X156696915Y-67879591D01*
X156686607Y-67913569D01*
X156669866Y-67944890D01*
X156647339Y-67972339D01*
X156619890Y-67994866D01*
X156588569Y-68011607D01*
X156554591Y-68021915D01*
X156513110Y-68026000D01*
X155911890Y-68026000D01*
X155870409Y-68021915D01*
X155836431Y-68011607D01*
X155805110Y-67994866D01*
X155777661Y-67972339D01*
X155755134Y-67944890D01*
X155738393Y-67913569D01*
X155728085Y-67879591D01*
X155724000Y-67838110D01*
X155724000Y-67161890D01*
X155728085Y-67120409D01*
X155738393Y-67086431D01*
X155755134Y-67055110D01*
X155777661Y-67027661D01*
X155805110Y-67005134D01*
X155836431Y-66988393D01*
X155870409Y-66978085D01*
X155911890Y-66974000D01*
X156513110Y-66974000D01*
X156554591Y-66978085D01*
G37*
G36*
X158129591Y-66978085D02*
G01*
X158163569Y-66988393D01*
X158194890Y-67005134D01*
X158222339Y-67027661D01*
X158244866Y-67055110D01*
X158261607Y-67086431D01*
X158271915Y-67120409D01*
X158276000Y-67161890D01*
X158276000Y-67838110D01*
X158271915Y-67879591D01*
X158261607Y-67913569D01*
X158244866Y-67944890D01*
X158222339Y-67972339D01*
X158194890Y-67994866D01*
X158163569Y-68011607D01*
X158129591Y-68021915D01*
X158088110Y-68026000D01*
X157486890Y-68026000D01*
X157445409Y-68021915D01*
X157411431Y-68011607D01*
X157380110Y-67994866D01*
X157352661Y-67972339D01*
X157330134Y-67944890D01*
X157313393Y-67913569D01*
X157303085Y-67879591D01*
X157299000Y-67838110D01*
X157299000Y-67161890D01*
X157303085Y-67120409D01*
X157313393Y-67086431D01*
X157330134Y-67055110D01*
X157352661Y-67027661D01*
X157380110Y-67005134D01*
X157411431Y-66988393D01*
X157445409Y-66978085D01*
X157486890Y-66974000D01*
X158088110Y-66974000D01*
X158129591Y-66978085D01*
G37*
G36*
X194301000Y-67151000D02*
G01*
X191799000Y-67151000D01*
X191799000Y-66309000D01*
X194301000Y-66309000D01*
X194301000Y-67151000D01*
G37*
G36*
X198201000Y-67151000D02*
G01*
X195699000Y-67151000D01*
X195699000Y-66309000D01*
X198201000Y-66309000D01*
X198201000Y-67151000D01*
G37*
G36*
X194301000Y-65881000D02*
G01*
X191799000Y-65881000D01*
X191799000Y-65039000D01*
X194301000Y-65039000D01*
X194301000Y-65881000D01*
G37*
G36*
X198201000Y-65881000D02*
G01*
X195699000Y-65881000D01*
X195699000Y-65039000D01*
X198201000Y-65039000D01*
X198201000Y-65881000D01*
G37*
G36*
X183451000Y-65051000D02*
G01*
X182049000Y-65051000D01*
X182049000Y-63399000D01*
X183451000Y-63399000D01*
X183451000Y-65051000D01*
G37*
G36*
X187951000Y-65051000D02*
G01*
X186549000Y-65051000D01*
X186549000Y-63399000D01*
X187951000Y-63399000D01*
X187951000Y-65051000D01*
G37*
G36*
X178951000Y-65051000D02*
G01*
X177549000Y-65051000D01*
X177549000Y-63399000D01*
X178951000Y-63399000D01*
X178951000Y-65051000D01*
G37*
G36*
X174451000Y-65051000D02*
G01*
X173049000Y-65051000D01*
X173049000Y-63399000D01*
X174451000Y-63399000D01*
X174451000Y-65051000D01*
G37*
G36*
X164979591Y-63903085D02*
G01*
X165013569Y-63913393D01*
X165044890Y-63930134D01*
X165072339Y-63952661D01*
X165094866Y-63980110D01*
X165111607Y-64011431D01*
X165121915Y-64045409D01*
X165126000Y-64086890D01*
X165126000Y-64688110D01*
X165121915Y-64729591D01*
X165111607Y-64763569D01*
X165094866Y-64794890D01*
X165072339Y-64822339D01*
X165044890Y-64844866D01*
X165013569Y-64861607D01*
X164979591Y-64871915D01*
X164938110Y-64876000D01*
X164261890Y-64876000D01*
X164220409Y-64871915D01*
X164186431Y-64861607D01*
X164155110Y-64844866D01*
X164127661Y-64822339D01*
X164105134Y-64794890D01*
X164088393Y-64763569D01*
X164078085Y-64729591D01*
X164074000Y-64688110D01*
X164074000Y-64086890D01*
X164078085Y-64045409D01*
X164088393Y-64011431D01*
X164105134Y-63980110D01*
X164127661Y-63952661D01*
X164155110Y-63930134D01*
X164186431Y-63913393D01*
X164220409Y-63903085D01*
X164261890Y-63899000D01*
X164938110Y-63899000D01*
X164979591Y-63903085D01*
G37*
G36*
X166779591Y-63903085D02*
G01*
X166813569Y-63913393D01*
X166844890Y-63930134D01*
X166872339Y-63952661D01*
X166894866Y-63980110D01*
X166911607Y-64011431D01*
X166921915Y-64045409D01*
X166926000Y-64086890D01*
X166926000Y-64688110D01*
X166921915Y-64729591D01*
X166911607Y-64763569D01*
X166894866Y-64794890D01*
X166872339Y-64822339D01*
X166844890Y-64844866D01*
X166813569Y-64861607D01*
X166779591Y-64871915D01*
X166738110Y-64876000D01*
X166061890Y-64876000D01*
X166020409Y-64871915D01*
X165986431Y-64861607D01*
X165955110Y-64844866D01*
X165927661Y-64822339D01*
X165905134Y-64794890D01*
X165888393Y-64763569D01*
X165878085Y-64729591D01*
X165874000Y-64688110D01*
X165874000Y-64086890D01*
X165878085Y-64045409D01*
X165888393Y-64011431D01*
X165905134Y-63980110D01*
X165927661Y-63952661D01*
X165955110Y-63930134D01*
X165986431Y-63913393D01*
X166020409Y-63903085D01*
X166061890Y-63899000D01*
X166738110Y-63899000D01*
X166779591Y-63903085D01*
G37*
G36*
X156434468Y-62253565D02*
G01*
X156473138Y-62265296D01*
X156508777Y-62284346D01*
X156540017Y-62309983D01*
X156565654Y-62341223D01*
X156584704Y-62376862D01*
X156596435Y-62415532D01*
X156601000Y-62461888D01*
X156601000Y-63538112D01*
X156596435Y-63584468D01*
X156584704Y-63623138D01*
X156565654Y-63658777D01*
X156540017Y-63690017D01*
X156508777Y-63715654D01*
X156473138Y-63734704D01*
X156434468Y-63746435D01*
X156388112Y-63751000D01*
X155736888Y-63751000D01*
X155690532Y-63746435D01*
X155651862Y-63734704D01*
X155616223Y-63715654D01*
X155584983Y-63690017D01*
X155559346Y-63658777D01*
X155540296Y-63623138D01*
X155528565Y-63584468D01*
X155524000Y-63538112D01*
X155524000Y-62461888D01*
X155528565Y-62415532D01*
X155540296Y-62376862D01*
X155559346Y-62341223D01*
X155584983Y-62309983D01*
X155616223Y-62284346D01*
X155651862Y-62265296D01*
X155690532Y-62253565D01*
X155736888Y-62249000D01*
X156388112Y-62249000D01*
X156434468Y-62253565D01*
G37*
G36*
X158309468Y-62253565D02*
G01*
X158348138Y-62265296D01*
X158383777Y-62284346D01*
X158415017Y-62309983D01*
X158440654Y-62341223D01*
X158459704Y-62376862D01*
X158471435Y-62415532D01*
X158476000Y-62461888D01*
X158476000Y-63538112D01*
X158471435Y-63584468D01*
X158459704Y-63623138D01*
X158440654Y-63658777D01*
X158415017Y-63690017D01*
X158383777Y-63715654D01*
X158348138Y-63734704D01*
X158309468Y-63746435D01*
X158263112Y-63751000D01*
X157611888Y-63751000D01*
X157565532Y-63746435D01*
X157526862Y-63734704D01*
X157491223Y-63715654D01*
X157459983Y-63690017D01*
X157434346Y-63658777D01*
X157415296Y-63623138D01*
X157403565Y-63584468D01*
X157399000Y-63538112D01*
X157399000Y-62461888D01*
X157403565Y-62415532D01*
X157415296Y-62376862D01*
X157434346Y-62341223D01*
X157459983Y-62309983D01*
X157491223Y-62284346D01*
X157526862Y-62265296D01*
X157565532Y-62253565D01*
X157611888Y-62249000D01*
X158263112Y-62249000D01*
X158309468Y-62253565D01*
G37*
G36*
X164979591Y-62328085D02*
G01*
X165013569Y-62338393D01*
X165044890Y-62355134D01*
X165072339Y-62377661D01*
X165094866Y-62405110D01*
X165111607Y-62436431D01*
X165121915Y-62470409D01*
X165126000Y-62511890D01*
X165126000Y-63113110D01*
X165121915Y-63154591D01*
X165111607Y-63188569D01*
X165094866Y-63219890D01*
X165072339Y-63247339D01*
X165044890Y-63269866D01*
X165013569Y-63286607D01*
X164979591Y-63296915D01*
X164938110Y-63301000D01*
X164261890Y-63301000D01*
X164220409Y-63296915D01*
X164186431Y-63286607D01*
X164155110Y-63269866D01*
X164127661Y-63247339D01*
X164105134Y-63219890D01*
X164088393Y-63188569D01*
X164078085Y-63154591D01*
X164074000Y-63113110D01*
X164074000Y-62511890D01*
X164078085Y-62470409D01*
X164088393Y-62436431D01*
X164105134Y-62405110D01*
X164127661Y-62377661D01*
X164155110Y-62355134D01*
X164186431Y-62338393D01*
X164220409Y-62328085D01*
X164261890Y-62324000D01*
X164938110Y-62324000D01*
X164979591Y-62328085D01*
G37*
G36*
X166779591Y-62328085D02*
G01*
X166813569Y-62338393D01*
X166844890Y-62355134D01*
X166872339Y-62377661D01*
X166894866Y-62405110D01*
X166911607Y-62436431D01*
X166921915Y-62470409D01*
X166926000Y-62511890D01*
X166926000Y-63113110D01*
X166921915Y-63154591D01*
X166911607Y-63188569D01*
X166894866Y-63219890D01*
X166872339Y-63247339D01*
X166844890Y-63269866D01*
X166813569Y-63286607D01*
X166779591Y-63296915D01*
X166738110Y-63301000D01*
X166061890Y-63301000D01*
X166020409Y-63296915D01*
X165986431Y-63286607D01*
X165955110Y-63269866D01*
X165927661Y-63247339D01*
X165905134Y-63219890D01*
X165888393Y-63188569D01*
X165878085Y-63154591D01*
X165874000Y-63113110D01*
X165874000Y-62511890D01*
X165878085Y-62470409D01*
X165888393Y-62436431D01*
X165905134Y-62405110D01*
X165927661Y-62377661D01*
X165955110Y-62355134D01*
X165986431Y-62338393D01*
X166020409Y-62328085D01*
X166061890Y-62324000D01*
X166738110Y-62324000D01*
X166779591Y-62328085D01*
G37*
G36*
X169979591Y-62303085D02*
G01*
X170013569Y-62313393D01*
X170044890Y-62330134D01*
X170072339Y-62352661D01*
X170094866Y-62380110D01*
X170111607Y-62411431D01*
X170121915Y-62445409D01*
X170126000Y-62486890D01*
X170126000Y-63088110D01*
X170121915Y-63129591D01*
X170111607Y-63163569D01*
X170094866Y-63194890D01*
X170072339Y-63222339D01*
X170044890Y-63244866D01*
X170013569Y-63261607D01*
X169979591Y-63271915D01*
X169938110Y-63276000D01*
X169261890Y-63276000D01*
X169220409Y-63271915D01*
X169186431Y-63261607D01*
X169155110Y-63244866D01*
X169127661Y-63222339D01*
X169105134Y-63194890D01*
X169088393Y-63163569D01*
X169078085Y-63129591D01*
X169074000Y-63088110D01*
X169074000Y-62486890D01*
X169078085Y-62445409D01*
X169088393Y-62411431D01*
X169105134Y-62380110D01*
X169127661Y-62352661D01*
X169155110Y-62330134D01*
X169186431Y-62313393D01*
X169220409Y-62303085D01*
X169261890Y-62299000D01*
X169938110Y-62299000D01*
X169979591Y-62303085D01*
G37*
G36*
X190129591Y-62303085D02*
G01*
X190163569Y-62313393D01*
X190194890Y-62330134D01*
X190222339Y-62352661D01*
X190244866Y-62380110D01*
X190261607Y-62411431D01*
X190271915Y-62445409D01*
X190276000Y-62486890D01*
X190276000Y-63088110D01*
X190271915Y-63129591D01*
X190261607Y-63163569D01*
X190244866Y-63194890D01*
X190222339Y-63222339D01*
X190194890Y-63244866D01*
X190163569Y-63261607D01*
X190129591Y-63271915D01*
X190088110Y-63276000D01*
X189411890Y-63276000D01*
X189370409Y-63271915D01*
X189336431Y-63261607D01*
X189305110Y-63244866D01*
X189277661Y-63222339D01*
X189255134Y-63194890D01*
X189238393Y-63163569D01*
X189228085Y-63129591D01*
X189224000Y-63088110D01*
X189224000Y-62486890D01*
X189228085Y-62445409D01*
X189238393Y-62411431D01*
X189255134Y-62380110D01*
X189277661Y-62352661D01*
X189305110Y-62330134D01*
X189336431Y-62313393D01*
X189370409Y-62303085D01*
X189411890Y-62299000D01*
X190088110Y-62299000D01*
X190129591Y-62303085D01*
G37*
G36*
X171579591Y-62290585D02*
G01*
X171613569Y-62300893D01*
X171644890Y-62317634D01*
X171672339Y-62340161D01*
X171694866Y-62367610D01*
X171711607Y-62398931D01*
X171721915Y-62432909D01*
X171726000Y-62474390D01*
X171726000Y-63075610D01*
X171721915Y-63117091D01*
X171711607Y-63151069D01*
X171694866Y-63182390D01*
X171672339Y-63209839D01*
X171644890Y-63232366D01*
X171613569Y-63249107D01*
X171579591Y-63259415D01*
X171538110Y-63263500D01*
X170861890Y-63263500D01*
X170820409Y-63259415D01*
X170786431Y-63249107D01*
X170755110Y-63232366D01*
X170727661Y-63209839D01*
X170705134Y-63182390D01*
X170688393Y-63151069D01*
X170678085Y-63117091D01*
X170674000Y-63075610D01*
X170674000Y-62474390D01*
X170678085Y-62432909D01*
X170688393Y-62398931D01*
X170705134Y-62367610D01*
X170727661Y-62340161D01*
X170755110Y-62317634D01*
X170786431Y-62300893D01*
X170820409Y-62290585D01*
X170861890Y-62286500D01*
X171538110Y-62286500D01*
X171579591Y-62290585D01*
G37*
G36*
X196536693Y-56301859D02*
G01*
X196802437Y-56354719D01*
X197303087Y-56562095D01*
X197483561Y-56682684D01*
X197753660Y-56863158D01*
X198136842Y-57246340D01*
X198317316Y-57516439D01*
X198437905Y-57696913D01*
X198437905Y-57696914D01*
X198645281Y-58197564D01*
X198751000Y-58729049D01*
X198751000Y-59270951D01*
X198745192Y-59300148D01*
X198645281Y-59802437D01*
X198437905Y-60303087D01*
X198317316Y-60483561D01*
X198136842Y-60753660D01*
X197753660Y-61136842D01*
X197483561Y-61317316D01*
X197303087Y-61437905D01*
X196802437Y-61645281D01*
X196585160Y-61688500D01*
X196270951Y-61751000D01*
X195729049Y-61751000D01*
X195414840Y-61688500D01*
X195197563Y-61645281D01*
X194696913Y-61437905D01*
X194516439Y-61317316D01*
X194246340Y-61136842D01*
X193863158Y-60753660D01*
X193682684Y-60483561D01*
X193562095Y-60303087D01*
X193354719Y-59802437D01*
X193254808Y-59300148D01*
X193249000Y-59270951D01*
X193249000Y-58729049D01*
X193354719Y-58197564D01*
X193562095Y-57696914D01*
X193562095Y-57696913D01*
X193682684Y-57516439D01*
X193863158Y-57246340D01*
X194246340Y-56863158D01*
X194516439Y-56682684D01*
X194696913Y-56562095D01*
X195197563Y-56354719D01*
X195463307Y-56301859D01*
X195729049Y-56249000D01*
X196270951Y-56249000D01*
X196536693Y-56301859D01*
G37*
G36*
X124536693Y-56301859D02*
G01*
X124802437Y-56354719D01*
X125303087Y-56562095D01*
X125483561Y-56682684D01*
X125753660Y-56863158D01*
X126136842Y-57246340D01*
X126317316Y-57516439D01*
X126437905Y-57696913D01*
X126437905Y-57696914D01*
X126645281Y-58197564D01*
X126751000Y-58729049D01*
X126751000Y-59270951D01*
X126745192Y-59300148D01*
X126645281Y-59802437D01*
X126437905Y-60303087D01*
X126317316Y-60483561D01*
X126136842Y-60753660D01*
X125753660Y-61136842D01*
X125483561Y-61317316D01*
X125303087Y-61437905D01*
X124802437Y-61645281D01*
X124585160Y-61688500D01*
X124270951Y-61751000D01*
X123729049Y-61751000D01*
X123414840Y-61688500D01*
X123197563Y-61645281D01*
X122696913Y-61437905D01*
X122516439Y-61317316D01*
X122246340Y-61136842D01*
X121863158Y-60753660D01*
X121682684Y-60483561D01*
X121562095Y-60303087D01*
X121354719Y-59802437D01*
X121254808Y-59300148D01*
X121249000Y-59270951D01*
X121249000Y-58729049D01*
X121354719Y-58197564D01*
X121562095Y-57696914D01*
X121562095Y-57696913D01*
X121682684Y-57516439D01*
X121863158Y-57246340D01*
X122246340Y-56863158D01*
X122516439Y-56682684D01*
X122696913Y-56562095D01*
X123197563Y-56354719D01*
X123463307Y-56301859D01*
X123729049Y-56249000D01*
X124270951Y-56249000D01*
X124536693Y-56301859D01*
G37*
G36*
X169979591Y-60728085D02*
G01*
X170013569Y-60738393D01*
X170044890Y-60755134D01*
X170072339Y-60777661D01*
X170094866Y-60805110D01*
X170111607Y-60836431D01*
X170121915Y-60870409D01*
X170126000Y-60911890D01*
X170126000Y-61513110D01*
X170121915Y-61554591D01*
X170111607Y-61588569D01*
X170094866Y-61619890D01*
X170072339Y-61647339D01*
X170044890Y-61669866D01*
X170013569Y-61686607D01*
X169979591Y-61696915D01*
X169938110Y-61701000D01*
X169261890Y-61701000D01*
X169220409Y-61696915D01*
X169186431Y-61686607D01*
X169155110Y-61669866D01*
X169127661Y-61647339D01*
X169105134Y-61619890D01*
X169088393Y-61588569D01*
X169078085Y-61554591D01*
X169074000Y-61513110D01*
X169074000Y-60911890D01*
X169078085Y-60870409D01*
X169088393Y-60836431D01*
X169105134Y-60805110D01*
X169127661Y-60777661D01*
X169155110Y-60755134D01*
X169186431Y-60738393D01*
X169220409Y-60728085D01*
X169261890Y-60724000D01*
X169938110Y-60724000D01*
X169979591Y-60728085D01*
G37*
G36*
X190129591Y-60728085D02*
G01*
X190163569Y-60738393D01*
X190194890Y-60755134D01*
X190222339Y-60777661D01*
X190244866Y-60805110D01*
X190261607Y-60836431D01*
X190271915Y-60870409D01*
X190276000Y-60911890D01*
X190276000Y-61513110D01*
X190271915Y-61554591D01*
X190261607Y-61588569D01*
X190244866Y-61619890D01*
X190222339Y-61647339D01*
X190194890Y-61669866D01*
X190163569Y-61686607D01*
X190129591Y-61696915D01*
X190088110Y-61701000D01*
X189411890Y-61701000D01*
X189370409Y-61696915D01*
X189336431Y-61686607D01*
X189305110Y-61669866D01*
X189277661Y-61647339D01*
X189255134Y-61619890D01*
X189238393Y-61588569D01*
X189228085Y-61554591D01*
X189224000Y-61513110D01*
X189224000Y-60911890D01*
X189228085Y-60870409D01*
X189238393Y-60836431D01*
X189255134Y-60805110D01*
X189277661Y-60777661D01*
X189305110Y-60755134D01*
X189336431Y-60738393D01*
X189370409Y-60728085D01*
X189411890Y-60724000D01*
X190088110Y-60724000D01*
X190129591Y-60728085D01*
G37*
G36*
X171579591Y-60715585D02*
G01*
X171613569Y-60725893D01*
X171644890Y-60742634D01*
X171672339Y-60765161D01*
X171694866Y-60792610D01*
X171711607Y-60823931D01*
X171721915Y-60857909D01*
X171726000Y-60899390D01*
X171726000Y-61500610D01*
X171721915Y-61542091D01*
X171711607Y-61576069D01*
X171694866Y-61607390D01*
X171672339Y-61634839D01*
X171644890Y-61657366D01*
X171613569Y-61674107D01*
X171579591Y-61684415D01*
X171538110Y-61688500D01*
X170861890Y-61688500D01*
X170820409Y-61684415D01*
X170786431Y-61674107D01*
X170755110Y-61657366D01*
X170727661Y-61634839D01*
X170705134Y-61607390D01*
X170688393Y-61576069D01*
X170678085Y-61542091D01*
X170674000Y-61500610D01*
X170674000Y-60899390D01*
X170678085Y-60857909D01*
X170688393Y-60823931D01*
X170705134Y-60792610D01*
X170727661Y-60765161D01*
X170755110Y-60742634D01*
X170786431Y-60725893D01*
X170820409Y-60715585D01*
X170861890Y-60711500D01*
X171538110Y-60711500D01*
X171579591Y-60715585D01*
G37*
G36*
X166734618Y-60352965D02*
G01*
X166767433Y-60362919D01*
X166797665Y-60379079D01*
X166824170Y-60400830D01*
X166845921Y-60427335D01*
X166862081Y-60457567D01*
X166872035Y-60490382D01*
X166876000Y-60530640D01*
X166876000Y-61494360D01*
X166872035Y-61534618D01*
X166862081Y-61567433D01*
X166845921Y-61597665D01*
X166824170Y-61624170D01*
X166797665Y-61645921D01*
X166767433Y-61662081D01*
X166734618Y-61672035D01*
X166694360Y-61676000D01*
X166105640Y-61676000D01*
X166065382Y-61672035D01*
X166032567Y-61662081D01*
X166002335Y-61645921D01*
X165975830Y-61624170D01*
X165954079Y-61597665D01*
X165937919Y-61567433D01*
X165927965Y-61534618D01*
X165924000Y-61494360D01*
X165924000Y-60530640D01*
X165927965Y-60490382D01*
X165937919Y-60457567D01*
X165954079Y-60427335D01*
X165975830Y-60400830D01*
X166002335Y-60379079D01*
X166032567Y-60362919D01*
X166065382Y-60352965D01*
X166105640Y-60349000D01*
X166694360Y-60349000D01*
X166734618Y-60352965D01*
G37*
G36*
X164934618Y-60352965D02*
G01*
X164967433Y-60362919D01*
X164997665Y-60379079D01*
X165024170Y-60400830D01*
X165045921Y-60427335D01*
X165062081Y-60457567D01*
X165072035Y-60490382D01*
X165076000Y-60530640D01*
X165076000Y-61494360D01*
X165072035Y-61534618D01*
X165062081Y-61567433D01*
X165045921Y-61597665D01*
X165024170Y-61624170D01*
X164997665Y-61645921D01*
X164967433Y-61662081D01*
X164934618Y-61672035D01*
X164894360Y-61676000D01*
X164305640Y-61676000D01*
X164265382Y-61672035D01*
X164232567Y-61662081D01*
X164202335Y-61645921D01*
X164175830Y-61624170D01*
X164154079Y-61597665D01*
X164137919Y-61567433D01*
X164127965Y-61534618D01*
X164124000Y-61494360D01*
X164124000Y-60530640D01*
X164127965Y-60490382D01*
X164137919Y-60457567D01*
X164154079Y-60427335D01*
X164175830Y-60400830D01*
X164202335Y-60379079D01*
X164232567Y-60362919D01*
X164265382Y-60352965D01*
X164305640Y-60349000D01*
X164894360Y-60349000D01*
X164934618Y-60352965D01*
G37*
G36*
X137253512Y-59103927D02*
G01*
X137402812Y-59133624D01*
X137566784Y-59201544D01*
X137714354Y-59300147D01*
X137839853Y-59425646D01*
X137938456Y-59573216D01*
X138006376Y-59737188D01*
X138041000Y-59911259D01*
X138041000Y-60088741D01*
X138006376Y-60262812D01*
X137938456Y-60426784D01*
X137839853Y-60574354D01*
X137714354Y-60699853D01*
X137566784Y-60798456D01*
X137402812Y-60866376D01*
X137253512Y-60896073D01*
X137228742Y-60901000D01*
X137051258Y-60901000D01*
X137026488Y-60896073D01*
X136877188Y-60866376D01*
X136713216Y-60798456D01*
X136565646Y-60699853D01*
X136440147Y-60574354D01*
X136341544Y-60426784D01*
X136273624Y-60262812D01*
X136239000Y-60088741D01*
X136239000Y-59911259D01*
X136273624Y-59737188D01*
X136341544Y-59573216D01*
X136440147Y-59425646D01*
X136565646Y-59300147D01*
X136713216Y-59201544D01*
X136877188Y-59133624D01*
X137026488Y-59103927D01*
X137051258Y-59099000D01*
X137228742Y-59099000D01*
X137253512Y-59103927D01*
G37*
G36*
X160901000Y-60901000D02*
G01*
X159099000Y-60901000D01*
X159099000Y-59099000D01*
X160901000Y-59099000D01*
X160901000Y-60901000D01*
G37*
G36*
X157573512Y-59103927D02*
G01*
X157722812Y-59133624D01*
X157886784Y-59201544D01*
X158034354Y-59300147D01*
X158159853Y-59425646D01*
X158258456Y-59573216D01*
X158326376Y-59737188D01*
X158361000Y-59911259D01*
X158361000Y-60088741D01*
X158326376Y-60262812D01*
X158258456Y-60426784D01*
X158159853Y-60574354D01*
X158034354Y-60699853D01*
X157886784Y-60798456D01*
X157722812Y-60866376D01*
X157573512Y-60896073D01*
X157548742Y-60901000D01*
X157371258Y-60901000D01*
X157346488Y-60896073D01*
X157197188Y-60866376D01*
X157033216Y-60798456D01*
X156885646Y-60699853D01*
X156760147Y-60574354D01*
X156661544Y-60426784D01*
X156593624Y-60262812D01*
X156559000Y-60088741D01*
X156559000Y-59911259D01*
X156593624Y-59737188D01*
X156661544Y-59573216D01*
X156760147Y-59425646D01*
X156885646Y-59300147D01*
X157033216Y-59201544D01*
X157197188Y-59133624D01*
X157346488Y-59103927D01*
X157371258Y-59099000D01*
X157548742Y-59099000D01*
X157573512Y-59103927D01*
G37*
G36*
X155033512Y-59103927D02*
G01*
X155182812Y-59133624D01*
X155346784Y-59201544D01*
X155494354Y-59300147D01*
X155619853Y-59425646D01*
X155718456Y-59573216D01*
X155786376Y-59737188D01*
X155821000Y-59911259D01*
X155821000Y-60088741D01*
X155786376Y-60262812D01*
X155718456Y-60426784D01*
X155619853Y-60574354D01*
X155494354Y-60699853D01*
X155346784Y-60798456D01*
X155182812Y-60866376D01*
X155033512Y-60896073D01*
X155008742Y-60901000D01*
X154831258Y-60901000D01*
X154806488Y-60896073D01*
X154657188Y-60866376D01*
X154493216Y-60798456D01*
X154345646Y-60699853D01*
X154220147Y-60574354D01*
X154121544Y-60426784D01*
X154053624Y-60262812D01*
X154019000Y-60088741D01*
X154019000Y-59911259D01*
X154053624Y-59737188D01*
X154121544Y-59573216D01*
X154220147Y-59425646D01*
X154345646Y-59300147D01*
X154493216Y-59201544D01*
X154657188Y-59133624D01*
X154806488Y-59103927D01*
X154831258Y-59099000D01*
X155008742Y-59099000D01*
X155033512Y-59103927D01*
G37*
G36*
X152493512Y-59103927D02*
G01*
X152642812Y-59133624D01*
X152806784Y-59201544D01*
X152954354Y-59300147D01*
X153079853Y-59425646D01*
X153178456Y-59573216D01*
X153246376Y-59737188D01*
X153281000Y-59911259D01*
X153281000Y-60088741D01*
X153246376Y-60262812D01*
X153178456Y-60426784D01*
X153079853Y-60574354D01*
X152954354Y-60699853D01*
X152806784Y-60798456D01*
X152642812Y-60866376D01*
X152493512Y-60896073D01*
X152468742Y-60901000D01*
X152291258Y-60901000D01*
X152266488Y-60896073D01*
X152117188Y-60866376D01*
X151953216Y-60798456D01*
X151805646Y-60699853D01*
X151680147Y-60574354D01*
X151581544Y-60426784D01*
X151513624Y-60262812D01*
X151479000Y-60088741D01*
X151479000Y-59911259D01*
X151513624Y-59737188D01*
X151581544Y-59573216D01*
X151680147Y-59425646D01*
X151805646Y-59300147D01*
X151953216Y-59201544D01*
X152117188Y-59133624D01*
X152266488Y-59103927D01*
X152291258Y-59099000D01*
X152468742Y-59099000D01*
X152493512Y-59103927D01*
G37*
G36*
X147413512Y-59103927D02*
G01*
X147562812Y-59133624D01*
X147726784Y-59201544D01*
X147874354Y-59300147D01*
X147999853Y-59425646D01*
X148098456Y-59573216D01*
X148166376Y-59737188D01*
X148201000Y-59911259D01*
X148201000Y-60088741D01*
X148166376Y-60262812D01*
X148098456Y-60426784D01*
X147999853Y-60574354D01*
X147874354Y-60699853D01*
X147726784Y-60798456D01*
X147562812Y-60866376D01*
X147413512Y-60896073D01*
X147388742Y-60901000D01*
X147211258Y-60901000D01*
X147186488Y-60896073D01*
X147037188Y-60866376D01*
X146873216Y-60798456D01*
X146725646Y-60699853D01*
X146600147Y-60574354D01*
X146501544Y-60426784D01*
X146433624Y-60262812D01*
X146399000Y-60088741D01*
X146399000Y-59911259D01*
X146433624Y-59737188D01*
X146501544Y-59573216D01*
X146600147Y-59425646D01*
X146725646Y-59300147D01*
X146873216Y-59201544D01*
X147037188Y-59133624D01*
X147186488Y-59103927D01*
X147211258Y-59099000D01*
X147388742Y-59099000D01*
X147413512Y-59103927D01*
G37*
G36*
X149953512Y-59103927D02*
G01*
X150102812Y-59133624D01*
X150266784Y-59201544D01*
X150414354Y-59300147D01*
X150539853Y-59425646D01*
X150638456Y-59573216D01*
X150706376Y-59737188D01*
X150741000Y-59911259D01*
X150741000Y-60088741D01*
X150706376Y-60262812D01*
X150638456Y-60426784D01*
X150539853Y-60574354D01*
X150414354Y-60699853D01*
X150266784Y-60798456D01*
X150102812Y-60866376D01*
X149953512Y-60896073D01*
X149928742Y-60901000D01*
X149751258Y-60901000D01*
X149726488Y-60896073D01*
X149577188Y-60866376D01*
X149413216Y-60798456D01*
X149265646Y-60699853D01*
X149140147Y-60574354D01*
X149041544Y-60426784D01*
X148973624Y-60262812D01*
X148939000Y-60088741D01*
X148939000Y-59911259D01*
X148973624Y-59737188D01*
X149041544Y-59573216D01*
X149140147Y-59425646D01*
X149265646Y-59300147D01*
X149413216Y-59201544D01*
X149577188Y-59133624D01*
X149726488Y-59103927D01*
X149751258Y-59099000D01*
X149928742Y-59099000D01*
X149953512Y-59103927D01*
G37*
G36*
X139793512Y-59103927D02*
G01*
X139942812Y-59133624D01*
X140106784Y-59201544D01*
X140254354Y-59300147D01*
X140379853Y-59425646D01*
X140478456Y-59573216D01*
X140546376Y-59737188D01*
X140581000Y-59911259D01*
X140581000Y-60088741D01*
X140546376Y-60262812D01*
X140478456Y-60426784D01*
X140379853Y-60574354D01*
X140254354Y-60699853D01*
X140106784Y-60798456D01*
X139942812Y-60866376D01*
X139793512Y-60896073D01*
X139768742Y-60901000D01*
X139591258Y-60901000D01*
X139566488Y-60896073D01*
X139417188Y-60866376D01*
X139253216Y-60798456D01*
X139105646Y-60699853D01*
X138980147Y-60574354D01*
X138881544Y-60426784D01*
X138813624Y-60262812D01*
X138779000Y-60088741D01*
X138779000Y-59911259D01*
X138813624Y-59737188D01*
X138881544Y-59573216D01*
X138980147Y-59425646D01*
X139105646Y-59300147D01*
X139253216Y-59201544D01*
X139417188Y-59133624D01*
X139566488Y-59103927D01*
X139591258Y-59099000D01*
X139768742Y-59099000D01*
X139793512Y-59103927D01*
G37*
G36*
X144873512Y-59103927D02*
G01*
X145022812Y-59133624D01*
X145186784Y-59201544D01*
X145334354Y-59300147D01*
X145459853Y-59425646D01*
X145558456Y-59573216D01*
X145626376Y-59737188D01*
X145661000Y-59911259D01*
X145661000Y-60088741D01*
X145626376Y-60262812D01*
X145558456Y-60426784D01*
X145459853Y-60574354D01*
X145334354Y-60699853D01*
X145186784Y-60798456D01*
X145022812Y-60866376D01*
X144873512Y-60896073D01*
X144848742Y-60901000D01*
X144671258Y-60901000D01*
X144646488Y-60896073D01*
X144497188Y-60866376D01*
X144333216Y-60798456D01*
X144185646Y-60699853D01*
X144060147Y-60574354D01*
X143961544Y-60426784D01*
X143893624Y-60262812D01*
X143859000Y-60088741D01*
X143859000Y-59911259D01*
X143893624Y-59737188D01*
X143961544Y-59573216D01*
X144060147Y-59425646D01*
X144185646Y-59300147D01*
X144333216Y-59201544D01*
X144497188Y-59133624D01*
X144646488Y-59103927D01*
X144671258Y-59099000D01*
X144848742Y-59099000D01*
X144873512Y-59103927D01*
G37*
G36*
X142333512Y-59103927D02*
G01*
X142482812Y-59133624D01*
X142646784Y-59201544D01*
X142794354Y-59300147D01*
X142919853Y-59425646D01*
X143018456Y-59573216D01*
X143086376Y-59737188D01*
X143121000Y-59911259D01*
X143121000Y-60088741D01*
X143086376Y-60262812D01*
X143018456Y-60426784D01*
X142919853Y-60574354D01*
X142794354Y-60699853D01*
X142646784Y-60798456D01*
X142482812Y-60866376D01*
X142333512Y-60896073D01*
X142308742Y-60901000D01*
X142131258Y-60901000D01*
X142106488Y-60896073D01*
X141957188Y-60866376D01*
X141793216Y-60798456D01*
X141645646Y-60699853D01*
X141520147Y-60574354D01*
X141421544Y-60426784D01*
X141353624Y-60262812D01*
X141319000Y-60088741D01*
X141319000Y-59911259D01*
X141353624Y-59737188D01*
X141421544Y-59573216D01*
X141520147Y-59425646D01*
X141645646Y-59300147D01*
X141793216Y-59201544D01*
X141957188Y-59133624D01*
X142106488Y-59103927D01*
X142131258Y-59099000D01*
X142308742Y-59099000D01*
X142333512Y-59103927D01*
G37*
G36*
X134713512Y-59103927D02*
G01*
X134862812Y-59133624D01*
X135026784Y-59201544D01*
X135174354Y-59300147D01*
X135299853Y-59425646D01*
X135398456Y-59573216D01*
X135466376Y-59737188D01*
X135501000Y-59911259D01*
X135501000Y-60088741D01*
X135466376Y-60262812D01*
X135398456Y-60426784D01*
X135299853Y-60574354D01*
X135174354Y-60699853D01*
X135026784Y-60798456D01*
X134862812Y-60866376D01*
X134713512Y-60896073D01*
X134688742Y-60901000D01*
X134511258Y-60901000D01*
X134486488Y-60896073D01*
X134337188Y-60866376D01*
X134173216Y-60798456D01*
X134025646Y-60699853D01*
X133900147Y-60574354D01*
X133801544Y-60426784D01*
X133733624Y-60262812D01*
X133699000Y-60088741D01*
X133699000Y-59911259D01*
X133733624Y-59737188D01*
X133801544Y-59573216D01*
X133900147Y-59425646D01*
X134025646Y-59300147D01*
X134173216Y-59201544D01*
X134337188Y-59133624D01*
X134486488Y-59103927D01*
X134511258Y-59099000D01*
X134688742Y-59099000D01*
X134713512Y-59103927D01*
G37*
G36*
X132173512Y-59103927D02*
G01*
X132322812Y-59133624D01*
X132486784Y-59201544D01*
X132634354Y-59300147D01*
X132759853Y-59425646D01*
X132858456Y-59573216D01*
X132926376Y-59737188D01*
X132961000Y-59911259D01*
X132961000Y-60088741D01*
X132926376Y-60262812D01*
X132858456Y-60426784D01*
X132759853Y-60574354D01*
X132634354Y-60699853D01*
X132486784Y-60798456D01*
X132322812Y-60866376D01*
X132173512Y-60896073D01*
X132148742Y-60901000D01*
X131971258Y-60901000D01*
X131946488Y-60896073D01*
X131797188Y-60866376D01*
X131633216Y-60798456D01*
X131485646Y-60699853D01*
X131360147Y-60574354D01*
X131261544Y-60426784D01*
X131193624Y-60262812D01*
X131159000Y-60088741D01*
X131159000Y-59911259D01*
X131193624Y-59737188D01*
X131261544Y-59573216D01*
X131360147Y-59425646D01*
X131485646Y-59300147D01*
X131633216Y-59201544D01*
X131797188Y-59133624D01*
X131946488Y-59103927D01*
X131971258Y-59099000D01*
X132148742Y-59099000D01*
X132173512Y-59103927D01*
G37*
G36*
X164934618Y-58727965D02*
G01*
X164967433Y-58737919D01*
X164997665Y-58754079D01*
X165024170Y-58775830D01*
X165045921Y-58802335D01*
X165062081Y-58832567D01*
X165072035Y-58865382D01*
X165076000Y-58905640D01*
X165076000Y-59869360D01*
X165072035Y-59909618D01*
X165062081Y-59942433D01*
X165045921Y-59972665D01*
X165024170Y-59999170D01*
X164997665Y-60020921D01*
X164967433Y-60037081D01*
X164934618Y-60047035D01*
X164894360Y-60051000D01*
X164305640Y-60051000D01*
X164265382Y-60047035D01*
X164232567Y-60037081D01*
X164202335Y-60020921D01*
X164175830Y-59999170D01*
X164154079Y-59972665D01*
X164137919Y-59942433D01*
X164127965Y-59909618D01*
X164124000Y-59869360D01*
X164124000Y-58905640D01*
X164127965Y-58865382D01*
X164137919Y-58832567D01*
X164154079Y-58802335D01*
X164175830Y-58775830D01*
X164202335Y-58754079D01*
X164232567Y-58737919D01*
X164265382Y-58727965D01*
X164305640Y-58724000D01*
X164894360Y-58724000D01*
X164934618Y-58727965D01*
G37*
G36*
X166734618Y-58727965D02*
G01*
X166767433Y-58737919D01*
X166797665Y-58754079D01*
X166824170Y-58775830D01*
X166845921Y-58802335D01*
X166862081Y-58832567D01*
X166872035Y-58865382D01*
X166876000Y-58905640D01*
X166876000Y-59869360D01*
X166872035Y-59909618D01*
X166862081Y-59942433D01*
X166845921Y-59972665D01*
X166824170Y-59999170D01*
X166797665Y-60020921D01*
X166767433Y-60037081D01*
X166734618Y-60047035D01*
X166694360Y-60051000D01*
X166105640Y-60051000D01*
X166065382Y-60047035D01*
X166032567Y-60037081D01*
X166002335Y-60020921D01*
X165975830Y-59999170D01*
X165954079Y-59972665D01*
X165937919Y-59942433D01*
X165927965Y-59909618D01*
X165924000Y-59869360D01*
X165924000Y-58905640D01*
X165927965Y-58865382D01*
X165937919Y-58832567D01*
X165954079Y-58802335D01*
X165975830Y-58775830D01*
X166002335Y-58754079D01*
X166032567Y-58737919D01*
X166065382Y-58727965D01*
X166105640Y-58724000D01*
X166694360Y-58724000D01*
X166734618Y-58727965D01*
G37*
G36*
X183451000Y-57101000D02*
G01*
X182049000Y-57101000D01*
X182049000Y-55449000D01*
X183451000Y-55449000D01*
X183451000Y-57101000D01*
G37*
G36*
X178951000Y-57101000D02*
G01*
X177549000Y-57101000D01*
X177549000Y-55449000D01*
X178951000Y-55449000D01*
X178951000Y-57101000D01*
G37*
G36*
X174451000Y-57101000D02*
G01*
X173049000Y-57101000D01*
X173049000Y-55449000D01*
X174451000Y-55449000D01*
X174451000Y-57101000D01*
G37*
G36*
X187951000Y-57101000D02*
G01*
X186549000Y-57101000D01*
X186549000Y-55449000D01*
X187951000Y-55449000D01*
X187951000Y-57101000D01*
G37*
M02*
